{
  "title" : "",
  "description" : "",
  "author" : "",
  "targetLoudness" : -18.0,
  "shouldApplyLoudnessNormalization" : true,
  "videoFormatFrameRate" : 30,
  "audioFormatSampleRate" : 44100,
  "width" : 1920.0,
  "height" : 1080.0,
  "version" : "3.0",
  "editRate" : 30,
  "authoringClientName" :  {
    "name" : "Camtasia",
    "platform" : "Windows",
    "version" : "19.0"
  },
  "sourceBin" : [
    {
      "id" : 1,
      "src" : "C:\\Users\\ungerw\\Documents\\Camtasia\\Aufn. 07-14-19_010.trec",
      "rect" : [0, 0, 1920, 1080],
      "lastMod" : "20190714T150535",
      "sourceTracks" : [
        {
          "range" : [0, 2035],
          "type" : 0,
          "editRate" : 30,
          "trackRect" : [0, 0, 1920, 1080],
          "sampleRate" : 0,
          "bitDepth" : 0,
          "numChannels" : 0,
          "integratedLUFS" : 100.0,
          "peakLevel" : -1.0,
          "metaData" : "2b7b6a00-7a1f-11e2-83d0-0017f200be7f;2b7b6aef-7a1f-11e2-83d0-0017f200be7f;2b7b6af0-7a1f-11e2-83d0-0017f200be7f;2b7b6af1-7a1f-11e2-83d0-0017f200be7f;2b7b6af2-7a1f-11e2-83d0-0017f200be7f;2b7b6af3-7a1f-11e2-83d0-0017f200be7f;2b7b6af5-7a1f-11e2-83d0-0017f200be7f;2b7b6af6-7a1f-11e2-83d0-0017f200be7f;2b7b6af7-7a1f-11e2-83d0-0017f200be7f;2b7b6af8-7a1f-11e2-83d0-0017f200be7f;2b7b6af9-7a1f-11e2-83d0-0017f200be7f;2b7b6afa-7a1f-11e2-83d0-0017f200be7f;"
        },
        {
          "range" : [0, 2977792],
          "type" : 2,
          "editRate" : 44100,
          "trackRect" : [0, 0, 0, 0],
          "sampleRate" : 44100,
          "bitDepth" : 16,
          "numChannels" : 2,
          "integratedLUFS" : -29.649520893559,
          "peakLevel" : 0.2808837890625,
          "metaData" : ""
        },
        {
          "range" : [0, 2992128],
          "type" : 2,
          "editRate" : 44100,
          "trackRect" : [0, 0, 0, 0],
          "sampleRate" : 44100,
          "bitDepth" : 16,
          "numChannels" : 2,
          "integratedLUFS" : -1.79769313486232e+308,
          "peakLevel" : 0.0,
          "metaData" : ""
        }
      ]
    },
    {
      "id" : 2,
      "src" : "C:\\Users\\ungerw\\Documents\\Camtasia\\Aufn. 07-14-19_013.trec",
      "rect" : [0, 0, 1920, 1080],
      "lastMod" : "20190714T150937",
      "sourceTracks" : [
        {
          "range" : [0, 1047],
          "type" : 0,
          "editRate" : 30,
          "trackRect" : [0, 0, 1920, 1080],
          "sampleRate" : 0,
          "bitDepth" : 0,
          "numChannels" : 0,
          "integratedLUFS" : 100.0,
          "peakLevel" : -1.0,
          "metaData" : "2b7b6a00-7a1f-11e2-83d0-0017f200be7f;2b7b6aef-7a1f-11e2-83d0-0017f200be7f;2b7b6af0-7a1f-11e2-83d0-0017f200be7f;2b7b6af1-7a1f-11e2-83d0-0017f200be7f;2b7b6af2-7a1f-11e2-83d0-0017f200be7f;2b7b6af3-7a1f-11e2-83d0-0017f200be7f;2b7b6af5-7a1f-11e2-83d0-0017f200be7f;2b7b6af6-7a1f-11e2-83d0-0017f200be7f;2b7b6af7-7a1f-11e2-83d0-0017f200be7f;2b7b6af8-7a1f-11e2-83d0-0017f200be7f;2b7b6af9-7a1f-11e2-83d0-0017f200be7f;2b7b6afa-7a1f-11e2-83d0-0017f200be7f;"
        },
        {
          "range" : [0, 1522688],
          "type" : 2,
          "editRate" : 44100,
          "trackRect" : [0, 0, 0, 0],
          "sampleRate" : 44100,
          "bitDepth" : 16,
          "numChannels" : 2,
          "integratedLUFS" : -31.6067152066846,
          "peakLevel" : 0.21673583984375,
          "metaData" : ""
        },
        {
          "range" : [0, 1537024],
          "type" : 2,
          "editRate" : 44100,
          "trackRect" : [0, 0, 0, 0],
          "sampleRate" : 44100,
          "bitDepth" : 16,
          "numChannels" : 2,
          "integratedLUFS" : -1.79769313486232e+308,
          "peakLevel" : 0.0,
          "metaData" : ""
        }
      ]
    },
    {
      "id" : 3,
      "src" : "C:\\Users\\ungerw\\Documents\\Camtasia\\Aufn. 07-14-19_014.trec",
      "rect" : [0, 0, 1920, 1080],
      "lastMod" : "20190714T151507",
      "sourceTracks" : [
        {
          "range" : [0, 1081],
          "type" : 0,
          "editRate" : 30,
          "trackRect" : [0, 0, 1920, 1080],
          "sampleRate" : 0,
          "bitDepth" : 0,
          "numChannels" : 0,
          "integratedLUFS" : 100.0,
          "peakLevel" : -1.0,
          "metaData" : "2b7b6a00-7a1f-11e2-83d0-0017f200be7f;2b7b6aef-7a1f-11e2-83d0-0017f200be7f;2b7b6af0-7a1f-11e2-83d0-0017f200be7f;2b7b6af1-7a1f-11e2-83d0-0017f200be7f;2b7b6af2-7a1f-11e2-83d0-0017f200be7f;2b7b6af3-7a1f-11e2-83d0-0017f200be7f;2b7b6af5-7a1f-11e2-83d0-0017f200be7f;2b7b6af6-7a1f-11e2-83d0-0017f200be7f;2b7b6af7-7a1f-11e2-83d0-0017f200be7f;2b7b6af8-7a1f-11e2-83d0-0017f200be7f;2b7b6af9-7a1f-11e2-83d0-0017f200be7f;2b7b6afa-7a1f-11e2-83d0-0017f200be7f;"
        },
        {
          "range" : [0, 1589248],
          "type" : 2,
          "editRate" : 44100,
          "trackRect" : [0, 0, 0, 0],
          "sampleRate" : 44100,
          "bitDepth" : 16,
          "numChannels" : 2,
          "integratedLUFS" : -33.0705568083838,
          "peakLevel" : 0.195281982421875,
          "metaData" : ""
        },
        {
          "range" : [0, 1590272],
          "type" : 2,
          "editRate" : 44100,
          "trackRect" : [0, 0, 0, 0],
          "sampleRate" : 44100,
          "bitDepth" : 16,
          "numChannels" : 2,
          "integratedLUFS" : -1.79769313486232e+308,
          "peakLevel" : 0.0,
          "metaData" : ""
        }
      ]
    },
    {
      "id" : 4,
      "src" : "C:\\Users\\ungerw\\Documents\\Camtasia\\Aufn. 07-14-19_015.trec",
      "rect" : [0, 0, 1920, 1080],
      "lastMod" : "20190714T152258",
      "sourceTracks" : [
        {
          "range" : [0, 1164],
          "type" : 0,
          "editRate" : 30,
          "trackRect" : [0, 0, 1920, 1080],
          "sampleRate" : 0,
          "bitDepth" : 0,
          "numChannels" : 0,
          "integratedLUFS" : 100.0,
          "peakLevel" : -1.0,
          "metaData" : "2b7b6a00-7a1f-11e2-83d0-0017f200be7f;2b7b6aef-7a1f-11e2-83d0-0017f200be7f;2b7b6af0-7a1f-11e2-83d0-0017f200be7f;2b7b6af1-7a1f-11e2-83d0-0017f200be7f;2b7b6af2-7a1f-11e2-83d0-0017f200be7f;2b7b6af3-7a1f-11e2-83d0-0017f200be7f;2b7b6af5-7a1f-11e2-83d0-0017f200be7f;2b7b6af6-7a1f-11e2-83d0-0017f200be7f;2b7b6af7-7a1f-11e2-83d0-0017f200be7f;2b7b6af8-7a1f-11e2-83d0-0017f200be7f;2b7b6af9-7a1f-11e2-83d0-0017f200be7f;2b7b6afa-7a1f-11e2-83d0-0017f200be7f;"
        },
        {
          "range" : [0, 1699840],
          "type" : 2,
          "editRate" : 44100,
          "trackRect" : [0, 0, 0, 0],
          "sampleRate" : 44100,
          "bitDepth" : 16,
          "numChannels" : 2,
          "integratedLUFS" : -33.43979054032,
          "peakLevel" : 0.194793701171875,
          "metaData" : ""
        },
        {
          "range" : [0, 1711104],
          "type" : 2,
          "editRate" : 44100,
          "trackRect" : [0, 0, 0, 0],
          "sampleRate" : 44100,
          "bitDepth" : 16,
          "numChannels" : 2,
          "integratedLUFS" : -1.79769313486232e+308,
          "peakLevel" : 0.0,
          "metaData" : ""
        }
      ]
    },
    {
      "id" : 5,
      "src" : "C:\\Users\\ungerw\\Documents\\Camtasia\\Aufn. 07-14-19_016.trec",
      "rect" : [0, 0, 1920, 1080],
      "lastMod" : "20190714T152759",
      "sourceTracks" : [
        {
          "range" : [0, 2664],
          "type" : 0,
          "editRate" : 30,
          "trackRect" : [0, 0, 1920, 1080],
          "sampleRate" : 0,
          "bitDepth" : 0,
          "numChannels" : 0,
          "integratedLUFS" : 100.0,
          "peakLevel" : -1.0,
          "metaData" : "2b7b6a00-7a1f-11e2-83d0-0017f200be7f;2b7b6aef-7a1f-11e2-83d0-0017f200be7f;2b7b6af0-7a1f-11e2-83d0-0017f200be7f;2b7b6af1-7a1f-11e2-83d0-0017f200be7f;2b7b6af2-7a1f-11e2-83d0-0017f200be7f;2b7b6af3-7a1f-11e2-83d0-0017f200be7f;2b7b6af5-7a1f-11e2-83d0-0017f200be7f;2b7b6af6-7a1f-11e2-83d0-0017f200be7f;2b7b6af7-7a1f-11e2-83d0-0017f200be7f;2b7b6af8-7a1f-11e2-83d0-0017f200be7f;2b7b6af9-7a1f-11e2-83d0-0017f200be7f;2b7b6afa-7a1f-11e2-83d0-0017f200be7f;"
        },
        {
          "range" : [0, 3904512],
          "type" : 2,
          "editRate" : 44100,
          "trackRect" : [0, 0, 0, 0],
          "sampleRate" : 44100,
          "bitDepth" : 16,
          "numChannels" : 2,
          "integratedLUFS" : -34.1430474068031,
          "peakLevel" : 0.217864990234375,
          "metaData" : ""
        },
        {
          "range" : [0, 3915776],
          "type" : 2,
          "editRate" : 44100,
          "trackRect" : [0, 0, 0, 0],
          "sampleRate" : 44100,
          "bitDepth" : 16,
          "numChannels" : 2,
          "integratedLUFS" : -1.79769313486232e+308,
          "peakLevel" : 0.0,
          "metaData" : ""
        }
      ]
    },
    {
      "id" : 6,
      "src" : "C:\\Users\\ungerw\\Documents\\Camtasia\\Aufn. 07-14-19_017.trec",
      "rect" : [0, 0, 1920, 1080],
      "lastMod" : "20190714T153821",
      "sourceTracks" : [
        {
          "range" : [0, 2211],
          "type" : 0,
          "editRate" : 30,
          "trackRect" : [0, 0, 1920, 1080],
          "sampleRate" : 0,
          "bitDepth" : 0,
          "numChannels" : 0,
          "integratedLUFS" : 100.0,
          "peakLevel" : -1.0,
          "metaData" : "2b7b6a00-7a1f-11e2-83d0-0017f200be7f;2b7b6aef-7a1f-11e2-83d0-0017f200be7f;2b7b6af0-7a1f-11e2-83d0-0017f200be7f;2b7b6af1-7a1f-11e2-83d0-0017f200be7f;2b7b6af2-7a1f-11e2-83d0-0017f200be7f;2b7b6af3-7a1f-11e2-83d0-0017f200be7f;2b7b6af5-7a1f-11e2-83d0-0017f200be7f;2b7b6af6-7a1f-11e2-83d0-0017f200be7f;2b7b6af7-7a1f-11e2-83d0-0017f200be7f;2b7b6af8-7a1f-11e2-83d0-0017f200be7f;2b7b6af9-7a1f-11e2-83d0-0017f200be7f;2b7b6afa-7a1f-11e2-83d0-0017f200be7f;"
        },
        {
          "range" : [0, 3243008],
          "type" : 2,
          "editRate" : 44100,
          "trackRect" : [0, 0, 0, 0],
          "sampleRate" : 44100,
          "bitDepth" : 16,
          "numChannels" : 2,
          "integratedLUFS" : -34.3241861712911,
          "peakLevel" : 0.19342041015625,
          "metaData" : ""
        },
        {
          "range" : [0, 3251200],
          "type" : 2,
          "editRate" : 44100,
          "trackRect" : [0, 0, 0, 0],
          "sampleRate" : 44100,
          "bitDepth" : 16,
          "numChannels" : 2,
          "integratedLUFS" : -1.79769313486232e+308,
          "peakLevel" : 0.0,
          "metaData" : ""
        }
      ]
    },
    {
      "id" : 7,
      "src" : "C:\\Users\\ungerw\\Documents\\Camtasia\\Aufn. 07-14-19_018.trec",
      "rect" : [0, 0, 1920, 1080],
      "lastMod" : "20190714T155142",
      "sourceTracks" : [
        {
          "range" : [0, 2138],
          "type" : 0,
          "editRate" : 30,
          "trackRect" : [0, 0, 1920, 1080],
          "sampleRate" : 0,
          "bitDepth" : 0,
          "numChannels" : 0,
          "integratedLUFS" : 100.0,
          "peakLevel" : -1.0,
          "metaData" : "2b7b6a00-7a1f-11e2-83d0-0017f200be7f;2b7b6aef-7a1f-11e2-83d0-0017f200be7f;2b7b6af0-7a1f-11e2-83d0-0017f200be7f;2b7b6af1-7a1f-11e2-83d0-0017f200be7f;2b7b6af2-7a1f-11e2-83d0-0017f200be7f;2b7b6af3-7a1f-11e2-83d0-0017f200be7f;2b7b6af5-7a1f-11e2-83d0-0017f200be7f;2b7b6af6-7a1f-11e2-83d0-0017f200be7f;2b7b6af7-7a1f-11e2-83d0-0017f200be7f;2b7b6af8-7a1f-11e2-83d0-0017f200be7f;2b7b6af9-7a1f-11e2-83d0-0017f200be7f;2b7b6afa-7a1f-11e2-83d0-0017f200be7f;"
        },
        {
          "range" : [0, 3132416],
          "type" : 2,
          "editRate" : 44100,
          "trackRect" : [0, 0, 0, 0],
          "sampleRate" : 44100,
          "bitDepth" : 16,
          "numChannels" : 2,
          "integratedLUFS" : -34.6550982026376,
          "peakLevel" : 0.199981689453125,
          "metaData" : ""
        },
        {
          "range" : [0, 3141632],
          "type" : 2,
          "editRate" : 44100,
          "trackRect" : [0, 0, 0, 0],
          "sampleRate" : 44100,
          "bitDepth" : 16,
          "numChannels" : 2,
          "integratedLUFS" : -1.79769313486232e+308,
          "peakLevel" : 0.0,
          "metaData" : ""
        }
      ]
    },
    {
      "id" : 8,
      "src" : "C:\\Users\\ungerw\\Documents\\Camtasia\\Aufn. 07-14-19_019.trec",
      "rect" : [0, 0, 1920, 1080],
      "lastMod" : "20190714T155420",
      "sourceTracks" : [
        {
          "range" : [0, 393],
          "type" : 0,
          "editRate" : 30,
          "trackRect" : [0, 0, 1920, 1080],
          "sampleRate" : 0,
          "bitDepth" : 0,
          "numChannels" : 0,
          "integratedLUFS" : 100.0,
          "peakLevel" : -1.0,
          "metaData" : "2b7b6a00-7a1f-11e2-83d0-0017f200be7f;2b7b6aef-7a1f-11e2-83d0-0017f200be7f;2b7b6af0-7a1f-11e2-83d0-0017f200be7f;2b7b6af1-7a1f-11e2-83d0-0017f200be7f;2b7b6af2-7a1f-11e2-83d0-0017f200be7f;2b7b6af3-7a1f-11e2-83d0-0017f200be7f;2b7b6af5-7a1f-11e2-83d0-0017f200be7f;2b7b6af6-7a1f-11e2-83d0-0017f200be7f;2b7b6af7-7a1f-11e2-83d0-0017f200be7f;2b7b6af8-7a1f-11e2-83d0-0017f200be7f;2b7b6af9-7a1f-11e2-83d0-0017f200be7f;2b7b6afa-7a1f-11e2-83d0-0017f200be7f;"
        },
        {
          "range" : [0, 574464],
          "type" : 2,
          "editRate" : 44100,
          "trackRect" : [0, 0, 0, 0],
          "sampleRate" : 44100,
          "bitDepth" : 16,
          "numChannels" : 2,
          "integratedLUFS" : -32.5472458070339,
          "peakLevel" : 0.17169189453125,
          "metaData" : ""
        },
        {
          "range" : [0, 576512],
          "type" : 2,
          "editRate" : 44100,
          "trackRect" : [0, 0, 0, 0],
          "sampleRate" : 44100,
          "bitDepth" : 16,
          "numChannels" : 2,
          "integratedLUFS" : -1.79769313486232e+308,
          "peakLevel" : 0.0,
          "metaData" : ""
        }
      ]
    },
    {
      "id" : 9,
      "src" : "C:\\Users\\ungerw\\Documents\\Camtasia\\Aufn. 07-14-19_023.trec",
      "rect" : [0, 0, 1920, 1080],
      "lastMod" : "20190714T161806",
      "sourceTracks" : [
        {
          "range" : [0, 1509],
          "type" : 0,
          "editRate" : 30,
          "trackRect" : [0, 0, 1920, 1080],
          "sampleRate" : 0,
          "bitDepth" : 0,
          "numChannels" : 0,
          "integratedLUFS" : 100.0,
          "peakLevel" : -1.0,
          "metaData" : "2b7b6a00-7a1f-11e2-83d0-0017f200be7f;2b7b6aef-7a1f-11e2-83d0-0017f200be7f;2b7b6af0-7a1f-11e2-83d0-0017f200be7f;2b7b6af1-7a1f-11e2-83d0-0017f200be7f;2b7b6af2-7a1f-11e2-83d0-0017f200be7f;2b7b6af3-7a1f-11e2-83d0-0017f200be7f;2b7b6af5-7a1f-11e2-83d0-0017f200be7f;2b7b6af6-7a1f-11e2-83d0-0017f200be7f;2b7b6af7-7a1f-11e2-83d0-0017f200be7f;2b7b6af8-7a1f-11e2-83d0-0017f200be7f;2b7b6af9-7a1f-11e2-83d0-0017f200be7f;2b7b6afa-7a1f-11e2-83d0-0017f200be7f;"
        },
        {
          "range" : [0, 2206720],
          "type" : 2,
          "editRate" : 44100,
          "trackRect" : [0, 0, 0, 0],
          "sampleRate" : 44100,
          "bitDepth" : 16,
          "numChannels" : 2,
          "integratedLUFS" : -35.1765384525102,
          "peakLevel" : 0.125,
          "metaData" : ""
        },
        {
          "range" : [0, 2217984],
          "type" : 2,
          "editRate" : 44100,
          "trackRect" : [0, 0, 0, 0],
          "sampleRate" : 44100,
          "bitDepth" : 16,
          "numChannels" : 2,
          "integratedLUFS" : -1.79769313486232e+308,
          "peakLevel" : 0.0,
          "metaData" : ""
        }
      ]
    },
    {
      "id" : 10,
      "src" : "C:\\Users\\ungerw\\Documents\\Camtasia\\Aufn. 07-14-19_024.trec",
      "rect" : [0, 0, 1920, 1080],
      "lastMod" : "20190714T162054",
      "sourceTracks" : [
        {
          "range" : [0, 1002],
          "type" : 0,
          "editRate" : 30,
          "trackRect" : [0, 0, 1920, 1080],
          "sampleRate" : 0,
          "bitDepth" : 0,
          "numChannels" : 0,
          "integratedLUFS" : 100.0,
          "peakLevel" : -1.0,
          "metaData" : "2b7b6a00-7a1f-11e2-83d0-0017f200be7f;2b7b6aef-7a1f-11e2-83d0-0017f200be7f;2b7b6af0-7a1f-11e2-83d0-0017f200be7f;2b7b6af1-7a1f-11e2-83d0-0017f200be7f;2b7b6af2-7a1f-11e2-83d0-0017f200be7f;2b7b6af3-7a1f-11e2-83d0-0017f200be7f;2b7b6af5-7a1f-11e2-83d0-0017f200be7f;2b7b6af6-7a1f-11e2-83d0-0017f200be7f;2b7b6af7-7a1f-11e2-83d0-0017f200be7f;2b7b6af8-7a1f-11e2-83d0-0017f200be7f;2b7b6af9-7a1f-11e2-83d0-0017f200be7f;2b7b6afa-7a1f-11e2-83d0-0017f200be7f;"
        },
        {
          "range" : [0, 1457152],
          "type" : 2,
          "editRate" : 44100,
          "trackRect" : [0, 0, 0, 0],
          "sampleRate" : 44100,
          "bitDepth" : 16,
          "numChannels" : 2,
          "integratedLUFS" : -33.3431463786127,
          "peakLevel" : 0.1455078125,
          "metaData" : ""
        },
        {
          "range" : [0, 1472512],
          "type" : 2,
          "editRate" : 44100,
          "trackRect" : [0, 0, 0, 0],
          "sampleRate" : 44100,
          "bitDepth" : 16,
          "numChannels" : 2,
          "integratedLUFS" : -1.79769313486232e+308,
          "peakLevel" : 0.0,
          "metaData" : ""
        }
      ]
    },
    {
      "id" : 11,
      "src" : "C:\\Users\\ungerw\\Documents\\Camtasia\\Aufn. 07-14-19_025.trec",
      "rect" : [0, 0, 1920, 1080],
      "lastMod" : "20190714T162453",
      "sourceTracks" : [
        {
          "range" : [0, 1369],
          "type" : 0,
          "editRate" : 30,
          "trackRect" : [0, 0, 1920, 1080],
          "sampleRate" : 0,
          "bitDepth" : 0,
          "numChannels" : 0,
          "integratedLUFS" : 100.0,
          "peakLevel" : -1.0,
          "metaData" : "2b7b6a00-7a1f-11e2-83d0-0017f200be7f;2b7b6aef-7a1f-11e2-83d0-0017f200be7f;2b7b6af0-7a1f-11e2-83d0-0017f200be7f;2b7b6af1-7a1f-11e2-83d0-0017f200be7f;2b7b6af2-7a1f-11e2-83d0-0017f200be7f;2b7b6af3-7a1f-11e2-83d0-0017f200be7f;2b7b6af5-7a1f-11e2-83d0-0017f200be7f;2b7b6af6-7a1f-11e2-83d0-0017f200be7f;2b7b6af7-7a1f-11e2-83d0-0017f200be7f;2b7b6af8-7a1f-11e2-83d0-0017f200be7f;2b7b6af9-7a1f-11e2-83d0-0017f200be7f;2b7b6afa-7a1f-11e2-83d0-0017f200be7f;"
        },
        {
          "range" : [0, 2008064],
          "type" : 2,
          "editRate" : 44100,
          "trackRect" : [0, 0, 0, 0],
          "sampleRate" : 44100,
          "bitDepth" : 16,
          "numChannels" : 2,
          "integratedLUFS" : -33.8162426003103,
          "peakLevel" : 0.1968994140625,
          "metaData" : ""
        },
        {
          "range" : [0, 2011136],
          "type" : 2,
          "editRate" : 44100,
          "trackRect" : [0, 0, 0, 0],
          "sampleRate" : 44100,
          "bitDepth" : 16,
          "numChannels" : 2,
          "integratedLUFS" : -1.79769313486232e+308,
          "peakLevel" : 0.0,
          "metaData" : ""
        }
      ]
    },
    {
      "id" : 12,
      "src" : "C:\\Users\\ungerw\\Documents\\Camtasia\\Aufn. 07-14-19_027.trec",
      "rect" : [0, 0, 1920, 1080],
      "lastMod" : "20190714T163352",
      "sourceTracks" : [
        {
          "range" : [0, 1515],
          "type" : 0,
          "editRate" : 30,
          "trackRect" : [0, 0, 1920, 1080],
          "sampleRate" : 0,
          "bitDepth" : 0,
          "numChannels" : 0,
          "integratedLUFS" : 100.0,
          "peakLevel" : -1.0,
          "metaData" : "2b7b6a00-7a1f-11e2-83d0-0017f200be7f;2b7b6aef-7a1f-11e2-83d0-0017f200be7f;2b7b6af0-7a1f-11e2-83d0-0017f200be7f;2b7b6af1-7a1f-11e2-83d0-0017f200be7f;2b7b6af2-7a1f-11e2-83d0-0017f200be7f;2b7b6af3-7a1f-11e2-83d0-0017f200be7f;2b7b6af5-7a1f-11e2-83d0-0017f200be7f;2b7b6af6-7a1f-11e2-83d0-0017f200be7f;2b7b6af7-7a1f-11e2-83d0-0017f200be7f;2b7b6af8-7a1f-11e2-83d0-0017f200be7f;2b7b6af9-7a1f-11e2-83d0-0017f200be7f;2b7b6afa-7a1f-11e2-83d0-0017f200be7f;"
        },
        {
          "range" : [0, 2228224],
          "type" : 2,
          "editRate" : 44100,
          "trackRect" : [0, 0, 0, 0],
          "sampleRate" : 44100,
          "bitDepth" : 16,
          "numChannels" : 2,
          "integratedLUFS" : -33.2431162210702,
          "peakLevel" : 0.18695068359375,
          "metaData" : ""
        },
        {
          "range" : [0, 2226176],
          "type" : 2,
          "editRate" : 44100,
          "trackRect" : [0, 0, 0, 0],
          "sampleRate" : 44100,
          "bitDepth" : 16,
          "numChannels" : 2,
          "integratedLUFS" : -18.3483611348246,
          "peakLevel" : 0.522705078125,
          "metaData" : ""
        }
      ]
    },
    {
      "id" : 13,
      "src" : "C:\\Users\\ungerw\\Documents\\Camtasia\\Aufn. 07-14-19_028.trec",
      "rect" : [0, 0, 1920, 1080],
      "lastMod" : "20190714T170503",
      "sourceTracks" : [
        {
          "range" : [0, 1305],
          "type" : 0,
          "editRate" : 30,
          "trackRect" : [0, 0, 1920, 1080],
          "sampleRate" : 0,
          "bitDepth" : 0,
          "numChannels" : 0,
          "integratedLUFS" : 100.0,
          "peakLevel" : -1.0,
          "metaData" : "2b7b6a00-7a1f-11e2-83d0-0017f200be7f;2b7b6aef-7a1f-11e2-83d0-0017f200be7f;2b7b6af0-7a1f-11e2-83d0-0017f200be7f;2b7b6af1-7a1f-11e2-83d0-0017f200be7f;2b7b6af2-7a1f-11e2-83d0-0017f200be7f;2b7b6af3-7a1f-11e2-83d0-0017f200be7f;2b7b6af5-7a1f-11e2-83d0-0017f200be7f;2b7b6af6-7a1f-11e2-83d0-0017f200be7f;2b7b6af7-7a1f-11e2-83d0-0017f200be7f;2b7b6af8-7a1f-11e2-83d0-0017f200be7f;2b7b6af9-7a1f-11e2-83d0-0017f200be7f;2b7b6afa-7a1f-11e2-83d0-0017f200be7f;"
        },
        {
          "range" : [0, 1920000],
          "type" : 2,
          "editRate" : 44100,
          "trackRect" : [0, 0, 0, 0],
          "sampleRate" : 44100,
          "bitDepth" : 16,
          "numChannels" : 2,
          "integratedLUFS" : -35.5099866581671,
          "peakLevel" : 0.156463623046875,
          "metaData" : ""
        },
        {
          "range" : [0, 1917952],
          "type" : 2,
          "editRate" : 44100,
          "trackRect" : [0, 0, 0, 0],
          "sampleRate" : 44100,
          "bitDepth" : 16,
          "numChannels" : 2,
          "integratedLUFS" : -1.79769313486232e+308,
          "peakLevel" : 0.0,
          "metaData" : ""
        }
      ]
    },
    {
      "id" : 14,
      "src" : "C:\\Users\\ungerw\\Documents\\Camtasia\\Aufn. 07-14-19_029.trec",
      "rect" : [0, 0, 1920, 1080],
      "lastMod" : "20190714T170648",
      "sourceTracks" : [
        {
          "range" : [0, 546],
          "type" : 0,
          "editRate" : 30,
          "trackRect" : [0, 0, 1920, 1080],
          "sampleRate" : 0,
          "bitDepth" : 0,
          "numChannels" : 0,
          "integratedLUFS" : 100.0,
          "peakLevel" : -1.0,
          "metaData" : "2b7b6a00-7a1f-11e2-83d0-0017f200be7f;2b7b6aef-7a1f-11e2-83d0-0017f200be7f;2b7b6af0-7a1f-11e2-83d0-0017f200be7f;2b7b6af1-7a1f-11e2-83d0-0017f200be7f;2b7b6af2-7a1f-11e2-83d0-0017f200be7f;2b7b6af3-7a1f-11e2-83d0-0017f200be7f;2b7b6af5-7a1f-11e2-83d0-0017f200be7f;2b7b6af6-7a1f-11e2-83d0-0017f200be7f;2b7b6af7-7a1f-11e2-83d0-0017f200be7f;2b7b6af8-7a1f-11e2-83d0-0017f200be7f;2b7b6af9-7a1f-11e2-83d0-0017f200be7f;2b7b6afa-7a1f-11e2-83d0-0017f200be7f;"
        },
        {
          "range" : [0, 795648],
          "type" : 2,
          "editRate" : 44100,
          "trackRect" : [0, 0, 0, 0],
          "sampleRate" : 44100,
          "bitDepth" : 16,
          "numChannels" : 2,
          "integratedLUFS" : -34.4729020382362,
          "peakLevel" : 0.12115478515625,
          "metaData" : ""
        },
        {
          "range" : [0, 803840],
          "type" : 2,
          "editRate" : 44100,
          "trackRect" : [0, 0, 0, 0],
          "sampleRate" : 44100,
          "bitDepth" : 16,
          "numChannels" : 2,
          "integratedLUFS" : -1.79769313486232e+308,
          "peakLevel" : 0.0,
          "metaData" : ""
        }
      ]
    },
    {
      "id" : 15,
      "src" : "C:\\Users\\ungerw\\Documents\\Camtasia\\Aufn. 07-14-19_030.trec",
      "rect" : [0, 0, 1920, 1080],
      "lastMod" : "20190714T170854",
      "sourceTracks" : [
        {
          "range" : [0, 1084],
          "type" : 0,
          "editRate" : 30,
          "trackRect" : [0, 0, 1920, 1080],
          "sampleRate" : 0,
          "bitDepth" : 0,
          "numChannels" : 0,
          "integratedLUFS" : 100.0,
          "peakLevel" : -1.0,
          "metaData" : "2b7b6a00-7a1f-11e2-83d0-0017f200be7f;2b7b6aef-7a1f-11e2-83d0-0017f200be7f;2b7b6af0-7a1f-11e2-83d0-0017f200be7f;2b7b6af1-7a1f-11e2-83d0-0017f200be7f;2b7b6af2-7a1f-11e2-83d0-0017f200be7f;2b7b6af3-7a1f-11e2-83d0-0017f200be7f;2b7b6af5-7a1f-11e2-83d0-0017f200be7f;2b7b6af6-7a1f-11e2-83d0-0017f200be7f;2b7b6af7-7a1f-11e2-83d0-0017f200be7f;2b7b6af8-7a1f-11e2-83d0-0017f200be7f;2b7b6af9-7a1f-11e2-83d0-0017f200be7f;2b7b6afa-7a1f-11e2-83d0-0017f200be7f;"
        },
        {
          "range" : [0, 1589248],
          "type" : 2,
          "editRate" : 44100,
          "trackRect" : [0, 0, 0, 0],
          "sampleRate" : 44100,
          "bitDepth" : 16,
          "numChannels" : 2,
          "integratedLUFS" : -35.4046732101843,
          "peakLevel" : 0.141571044921875,
          "metaData" : ""
        },
        {
          "range" : [0, 1594368],
          "type" : 2,
          "editRate" : 44100,
          "trackRect" : [0, 0, 0, 0],
          "sampleRate" : 44100,
          "bitDepth" : 16,
          "numChannels" : 2,
          "integratedLUFS" : -1.79769313486232e+308,
          "peakLevel" : 0.0,
          "metaData" : ""
        }
      ]
    },
    {
      "id" : 16,
      "src" : "C:\\Users\\ungerw\\Documents\\Camtasia\\Aufn. 07-14-19_031.trec",
      "rect" : [0, 0, 1920, 1080],
      "lastMod" : "20190714T171108",
      "sourceTracks" : [
        {
          "range" : [0, 663],
          "type" : 0,
          "editRate" : 30,
          "trackRect" : [0, 0, 1920, 1080],
          "sampleRate" : 0,
          "bitDepth" : 0,
          "numChannels" : 0,
          "integratedLUFS" : 100.0,
          "peakLevel" : -1.0,
          "metaData" : "2b7b6a00-7a1f-11e2-83d0-0017f200be7f;2b7b6aef-7a1f-11e2-83d0-0017f200be7f;2b7b6af0-7a1f-11e2-83d0-0017f200be7f;2b7b6af1-7a1f-11e2-83d0-0017f200be7f;2b7b6af2-7a1f-11e2-83d0-0017f200be7f;2b7b6af3-7a1f-11e2-83d0-0017f200be7f;2b7b6af5-7a1f-11e2-83d0-0017f200be7f;2b7b6af6-7a1f-11e2-83d0-0017f200be7f;2b7b6af7-7a1f-11e2-83d0-0017f200be7f;2b7b6af8-7a1f-11e2-83d0-0017f200be7f;2b7b6af9-7a1f-11e2-83d0-0017f200be7f;2b7b6afa-7a1f-11e2-83d0-0017f200be7f;"
        },
        {
          "range" : [0, 971776],
          "type" : 2,
          "editRate" : 44100,
          "trackRect" : [0, 0, 0, 0],
          "sampleRate" : 44100,
          "bitDepth" : 16,
          "numChannels" : 2,
          "integratedLUFS" : -34.6531638553813,
          "peakLevel" : 0.1396484375,
          "metaData" : ""
        },
        {
          "range" : [0, 973824],
          "type" : 2,
          "editRate" : 44100,
          "trackRect" : [0, 0, 0, 0],
          "sampleRate" : 44100,
          "bitDepth" : 16,
          "numChannels" : 2,
          "integratedLUFS" : -1.79769313486232e+308,
          "peakLevel" : 0.0,
          "metaData" : ""
        }
      ]
    },
    {
      "id" : 17,
      "src" : "C:\\Users\\ungerw\\Documents\\Camtasia\\Aufn. 07-14-19_033.trec",
      "rect" : [0, 0, 1920, 1080],
      "lastMod" : "20190714T171718",
      "sourceTracks" : [
        {
          "range" : [0, 2343],
          "type" : 0,
          "editRate" : 30,
          "trackRect" : [0, 0, 1920, 1080],
          "sampleRate" : 0,
          "bitDepth" : 0,
          "numChannels" : 0,
          "integratedLUFS" : 100.0,
          "peakLevel" : -1.0,
          "metaData" : "2b7b6a00-7a1f-11e2-83d0-0017f200be7f;2b7b6aef-7a1f-11e2-83d0-0017f200be7f;2b7b6af0-7a1f-11e2-83d0-0017f200be7f;2b7b6af1-7a1f-11e2-83d0-0017f200be7f;2b7b6af2-7a1f-11e2-83d0-0017f200be7f;2b7b6af3-7a1f-11e2-83d0-0017f200be7f;2b7b6af5-7a1f-11e2-83d0-0017f200be7f;2b7b6af6-7a1f-11e2-83d0-0017f200be7f;2b7b6af7-7a1f-11e2-83d0-0017f200be7f;2b7b6af8-7a1f-11e2-83d0-0017f200be7f;2b7b6af9-7a1f-11e2-83d0-0017f200be7f;2b7b6afa-7a1f-11e2-83d0-0017f200be7f;"
        },
        {
          "range" : [0, 3441664],
          "type" : 2,
          "editRate" : 44100,
          "trackRect" : [0, 0, 0, 0],
          "sampleRate" : 44100,
          "bitDepth" : 16,
          "numChannels" : 2,
          "integratedLUFS" : -34.1064315888775,
          "peakLevel" : 0.185943603515625,
          "metaData" : ""
        },
        {
          "range" : [0, 3441664],
          "type" : 2,
          "editRate" : 44100,
          "trackRect" : [0, 0, 0, 0],
          "sampleRate" : 44100,
          "bitDepth" : 16,
          "numChannels" : 2,
          "integratedLUFS" : -1.79769313486232e+308,
          "peakLevel" : 0.0,
          "metaData" : ""
        }
      ]
    },
    {
      "id" : 18,
      "src" : "C:\\Users\\ungerw\\Documents\\Camtasia\\Aufn. 07-14-19_034.trec",
      "rect" : [0, 0, 1920, 1080],
      "lastMod" : "20190714T172001",
      "sourceTracks" : [
        {
          "range" : [0, 484],
          "type" : 0,
          "editRate" : 30,
          "trackRect" : [0, 0, 1920, 1080],
          "sampleRate" : 0,
          "bitDepth" : 0,
          "numChannels" : 0,
          "integratedLUFS" : 100.0,
          "peakLevel" : -1.0,
          "metaData" : "2b7b6a00-7a1f-11e2-83d0-0017f200be7f;2b7b6aef-7a1f-11e2-83d0-0017f200be7f;2b7b6af0-7a1f-11e2-83d0-0017f200be7f;2b7b6af1-7a1f-11e2-83d0-0017f200be7f;2b7b6af2-7a1f-11e2-83d0-0017f200be7f;2b7b6af3-7a1f-11e2-83d0-0017f200be7f;2b7b6af5-7a1f-11e2-83d0-0017f200be7f;2b7b6af6-7a1f-11e2-83d0-0017f200be7f;2b7b6af7-7a1f-11e2-83d0-0017f200be7f;2b7b6af8-7a1f-11e2-83d0-0017f200be7f;2b7b6af9-7a1f-11e2-83d0-0017f200be7f;2b7b6afa-7a1f-11e2-83d0-0017f200be7f;"
        },
        {
          "range" : [0, 707584],
          "type" : 2,
          "editRate" : 44100,
          "trackRect" : [0, 0, 0, 0],
          "sampleRate" : 44100,
          "bitDepth" : 16,
          "numChannels" : 2,
          "integratedLUFS" : -32.1527682052809,
          "peakLevel" : 0.166839599609375,
          "metaData" : ""
        },
        {
          "range" : [0, 710656],
          "type" : 2,
          "editRate" : 44100,
          "trackRect" : [0, 0, 0, 0],
          "sampleRate" : 44100,
          "bitDepth" : 16,
          "numChannels" : 2,
          "integratedLUFS" : -1.79769313486232e+308,
          "peakLevel" : 0.0,
          "metaData" : ""
        }
      ]
    },
    {
      "id" : 19,
      "src" : "C:\\Users\\ungerw\\Documents\\Camtasia\\Aufn. 07-14-19_038.trec",
      "rect" : [0, 0, 1920, 1080],
      "lastMod" : "20190714T172805",
      "sourceTracks" : [
        {
          "range" : [0, 897],
          "type" : 0,
          "editRate" : 30,
          "trackRect" : [0, 0, 1920, 1080],
          "sampleRate" : 0,
          "bitDepth" : 0,
          "numChannels" : 0,
          "integratedLUFS" : 100.0,
          "peakLevel" : -1.0,
          "metaData" : "2b7b6a00-7a1f-11e2-83d0-0017f200be7f;2b7b6aef-7a1f-11e2-83d0-0017f200be7f;2b7b6af0-7a1f-11e2-83d0-0017f200be7f;2b7b6af1-7a1f-11e2-83d0-0017f200be7f;2b7b6af2-7a1f-11e2-83d0-0017f200be7f;2b7b6af3-7a1f-11e2-83d0-0017f200be7f;2b7b6af5-7a1f-11e2-83d0-0017f200be7f;2b7b6af6-7a1f-11e2-83d0-0017f200be7f;2b7b6af7-7a1f-11e2-83d0-0017f200be7f;2b7b6af8-7a1f-11e2-83d0-0017f200be7f;2b7b6af9-7a1f-11e2-83d0-0017f200be7f;2b7b6afa-7a1f-11e2-83d0-0017f200be7f;"
        },
        {
          "range" : [0, 1302528],
          "type" : 2,
          "editRate" : 44100,
          "trackRect" : [0, 0, 0, 0],
          "sampleRate" : 44100,
          "bitDepth" : 16,
          "numChannels" : 2,
          "integratedLUFS" : -32.1954435122255,
          "peakLevel" : 0.1927490234375,
          "metaData" : ""
        },
        {
          "range" : [0, 1318912],
          "type" : 2,
          "editRate" : 44100,
          "trackRect" : [0, 0, 0, 0],
          "sampleRate" : 44100,
          "bitDepth" : 16,
          "numChannels" : 2,
          "integratedLUFS" : -1.79769313486232e+308,
          "peakLevel" : 0.0,
          "metaData" : ""
        }
      ]
    }
  ],
  "timeline" : {
    "id" : 20,
    "sceneTrack" : {
      "scenes" : [
        {
          "duration" : 651.4,
          "title" : "",
          "type" : "",
          "csml" : {
            "tracks" : [
              {
                "trackIndex" : 0,
                "medias" : [
                  {
                    "id" : 21,
                    "_type" : "UnifiedMedia",
                    "video" : 
                        {
                          "id" : 22,
                          "_type" : "ScreenVMFile",
                          "src" : 1,
                          "trackNumber" : 0,
                          "attributes" : {
                            "ident" : "Aufn. 07-14-19_010"
                          },
                          "parameters" : {
                            "cursorScale" : {
                              "type" : "double",
                              "defaultValue" : 1.0,
                              "interp" : "linr"
                            },
                            "cursorOpacity" : {
                              "type" : "double",
                              "defaultValue" : 1.0,
                              "interp" : "linr"
                            }
                          },
                          "effects" : [

                          ],
                          "start" : 0,
                          "duration" : 241,
                          "mediaStart" : 241,
                          "mediaDuration" : 241,
                          "scalar" : 1,
                          "animationTracks" : {

                          }
                        },
                    "audio" : 
                        {
                          "id" : 23,
                          "_type" : "AMFile",
                          "src" : 1,
                          "trackNumber" : 2,
                          "attributes" : {
                            "ident" : "",
                            "sampleRate" : 44100,
                            "bitDepth" : 16,
                            "gain" : 1.0,
                            "mixToMono" : false
                          },
                            "channelNumber" : "0,1",
                          "effects" : [

                          ],
                          "start" : 0,
                          "duration" : 241,
                          "mediaStart" : 241,
                          "mediaDuration" : 241,
                          "scalar" : 1,
                          "animationTracks" : {

                          }
                        }
,
                    "start" : 0,
                    "duration" : 241,
                    "mediaStart" : 0,
                    "mediaDuration" : 2035,
                    "scalar" : 1,
                    "metadata" : {
                      "AutoAppliedSmartFocus" : "False",
                      "WinSubProjectDisplayName" : "",
                      "clipSpeedAttribute" : false
                    }
                  },
                  {
                    "id" : 24,
                    "_type" : "UnifiedMedia",
                    "video" : 
                        {
                          "id" : 25,
                          "_type" : "ScreenVMFile",
                          "src" : 19,
                          "trackNumber" : 0,
                          "attributes" : {
                            "ident" : "Aufn. 07-14-19_038"
                          },
                          "parameters" : {
                            "cursorScale" : {
                              "type" : "double",
                              "defaultValue" : 1.0,
                              "interp" : "linr"
                            },
                            "cursorOpacity" : {
                              "type" : "double",
                              "defaultValue" : 1.0,
                              "interp" : "linr"
                            }
                          },
                          "effects" : [

                          ],
                          "start" : 241,
                          "duration" : 706,
                          "mediaStart" : 12,
                          "mediaDuration" : 706,
                          "scalar" : 1,
                          "animationTracks" : {

                          }
                        },
                    "audio" : 
                        {
                          "id" : 26,
                          "_type" : "AMFile",
                          "src" : 19,
                          "trackNumber" : 2,
                          "attributes" : {
                            "ident" : "",
                            "sampleRate" : 44100,
                            "bitDepth" : 16,
                            "gain" : 1.0,
                            "mixToMono" : false
                          },
                            "channelNumber" : "0,1",
                          "effects" : [

                          ],
                          "start" : 241,
                          "duration" : 706,
                          "mediaStart" : 12,
                          "mediaDuration" : 706,
                          "scalar" : 1,
                          "animationTracks" : {

                          }
                        }
,
                    "start" : 241,
                    "duration" : 706,
                    "mediaStart" : 0,
                    "mediaDuration" : 897,
                    "scalar" : 1,
                    "metadata" : {
                      "AutoAppliedSmartFocus" : "False",
                      "WinSubProjectDisplayName" : "",
                      "clipSpeedAttribute" : false
                    }
                  },
                  {
                    "id" : 27,
                    "_type" : "UnifiedMedia",
                    "video" : 
                        {
                          "id" : 28,
                          "_type" : "ScreenVMFile",
                          "src" : 19,
                          "trackNumber" : 0,
                          "attributes" : {
                            "ident" : "Aufn. 07-14-19_038"
                          },
                          "parameters" : {
                            "cursorScale" : {
                              "type" : "double",
                              "defaultValue" : 1.0,
                              "interp" : "linr"
                            },
                            "cursorOpacity" : {
                              "type" : "double",
                              "defaultValue" : 1.0,
                              "interp" : "linr"
                            }
                          },
                          "effects" : [

                          ],
                          "start" : 947,
                          "duration" : 69,
                          "mediaStart" : 802,
                          "mediaDuration" : 69,
                          "scalar" : 1,
                          "animationTracks" : {

                          }
                        },
                    "audio" : 
                        {
                          "id" : 29,
                          "_type" : "AMFile",
                          "src" : 19,
                          "trackNumber" : 2,
                          "attributes" : {
                            "ident" : "",
                            "sampleRate" : 44100,
                            "bitDepth" : 16,
                            "gain" : 1.0,
                            "mixToMono" : false
                          },
                            "channelNumber" : "0,1",
                          "effects" : [

                          ],
                          "start" : 947,
                          "duration" : 69,
                          "mediaStart" : 802,
                          "mediaDuration" : 69,
                          "scalar" : 1,
                          "animationTracks" : {

                          }
                        }
,
                    "start" : 947,
                    "duration" : 69,
                    "mediaStart" : 0,
                    "mediaDuration" : 897,
                    "scalar" : 1,
                    "metadata" : {
                      "AutoAppliedSmartFocus" : "False",
                      "WinSubProjectDisplayName" : "",
                      "clipSpeedAttribute" : false
                    }
                  },
                  {
                    "id" : 30,
                    "_type" : "UnifiedMedia",
                    "video" : 
                        {
                          "id" : 31,
                          "_type" : "ScreenVMFile",
                          "src" : 2,
                          "trackNumber" : 0,
                          "attributes" : {
                            "ident" : "Aufn. 07-14-19_013"
                          },
                          "parameters" : {
                            "cursorScale" : {
                              "type" : "double",
                              "defaultValue" : 1.0,
                              "interp" : "linr"
                            },
                            "cursorOpacity" : {
                              "type" : "double",
                              "defaultValue" : 1.0,
                              "interp" : "linr"
                            }
                          },
                          "effects" : [

                          ],
                          "start" : 1016,
                          "duration" : 953,
                          "mediaStart" : 69,
                          "mediaDuration" : 953,
                          "scalar" : 1,
                          "animationTracks" : {

                          }
                        },
                    "audio" : 
                        {
                          "id" : 32,
                          "_type" : "AMFile",
                          "src" : 2,
                          "trackNumber" : 2,
                          "attributes" : {
                            "ident" : "",
                            "sampleRate" : 44100,
                            "bitDepth" : 16,
                            "gain" : 1.0,
                            "mixToMono" : false
                          },
                            "channelNumber" : "0,1",
                          "effects" : [

                          ],
                          "start" : 1016,
                          "duration" : 953,
                          "mediaStart" : 69,
                          "mediaDuration" : 953,
                          "scalar" : 1,
                          "animationTracks" : {

                          }
                        }
,
                    "start" : 1016,
                    "duration" : 953,
                    "mediaStart" : 0,
                    "mediaDuration" : 1046,
                    "scalar" : 1,
                    "metadata" : {
                      "AutoAppliedSmartFocus" : "False",
                      "WinSubProjectDisplayName" : "",
                      "clipSpeedAttribute" : false
                    }
                  },
                  {
                    "id" : 33,
                    "_type" : "UnifiedMedia",
                    "video" : 
                        {
                          "id" : 34,
                          "_type" : "ScreenVMFile",
                          "src" : 3,
                          "trackNumber" : 0,
                          "attributes" : {
                            "ident" : "Aufn. 07-14-19_014"
                          },
                          "parameters" : {
                            "cursorScale" : {
                              "type" : "double",
                              "defaultValue" : 1.0,
                              "interp" : "linr"
                            },
                            "cursorOpacity" : {
                              "type" : "double",
                              "defaultValue" : 1.0,
                              "interp" : "linr"
                            }
                          },
                          "effects" : [

                          ],
                          "start" : 1969,
                          "duration" : 1053,
                          "mediaStart" : 9,
                          "mediaDuration" : 1053,
                          "scalar" : 1,
                          "animationTracks" : {

                          }
                        },
                    "audio" : 
                        {
                          "id" : 35,
                          "_type" : "AMFile",
                          "src" : 3,
                          "trackNumber" : 2,
                          "attributes" : {
                            "ident" : "",
                            "sampleRate" : 44100,
                            "bitDepth" : 16,
                            "gain" : 1.0,
                            "mixToMono" : false
                          },
                            "channelNumber" : "0,1",
                          "effects" : [

                          ],
                          "start" : 1969,
                          "duration" : 1053,
                          "mediaStart" : 9,
                          "mediaDuration" : 1053,
                          "scalar" : 1,
                          "animationTracks" : {

                          }
                        }
,
                    "start" : 1969,
                    "duration" : 1053,
                    "mediaStart" : 0,
                    "mediaDuration" : 1081,
                    "scalar" : 1,
                    "metadata" : {
                      "AutoAppliedSmartFocus" : "False",
                      "WinSubProjectDisplayName" : "",
                      "clipSpeedAttribute" : false
                    }
                  },
                  {
                    "id" : 36,
                    "_type" : "UnifiedMedia",
                    "video" : 
                        {
                          "id" : 37,
                          "_type" : "ScreenVMFile",
                          "src" : 4,
                          "trackNumber" : 0,
                          "attributes" : {
                            "ident" : "Aufn. 07-14-19_015"
                          },
                          "parameters" : {
                            "cursorScale" : {
                              "type" : "double",
                              "defaultValue" : 1.0,
                              "interp" : "linr"
                            },
                            "cursorOpacity" : {
                              "type" : "double",
                              "defaultValue" : 1.0,
                              "interp" : "linr"
                            }
                          },
                          "effects" : [

                          ],
                          "start" : 3022,
                          "duration" : 394,
                          "mediaStart" : 39,
                          "mediaDuration" : 394,
                          "scalar" : 1,
                          "animationTracks" : {

                          }
                        },
                    "audio" : 
                        {
                          "id" : 38,
                          "_type" : "AMFile",
                          "src" : 4,
                          "trackNumber" : 2,
                          "attributes" : {
                            "ident" : "",
                            "sampleRate" : 44100,
                            "bitDepth" : 16,
                            "gain" : 1.0,
                            "mixToMono" : false
                          },
                            "channelNumber" : "0,1",
                          "effects" : [

                          ],
                          "start" : 3022,
                          "duration" : 394,
                          "mediaStart" : 39,
                          "mediaDuration" : 394,
                          "scalar" : 1,
                          "animationTracks" : {

                          }
                        }
,
                    "start" : 3022,
                    "duration" : 394,
                    "mediaStart" : 0,
                    "mediaDuration" : 1164,
                    "scalar" : 1,
                    "metadata" : {
                      "AutoAppliedSmartFocus" : "False",
                      "WinSubProjectDisplayName" : "",
                      "clipSpeedAttribute" : false
                    }
                  },
                  {
                    "id" : 39,
                    "_type" : "UnifiedMedia",
                    "video" : 
                        {
                          "id" : 40,
                          "_type" : "ScreenVMFile",
                          "src" : 4,
                          "trackNumber" : 0,
                          "attributes" : {
                            "ident" : "Aufn. 07-14-19_015"
                          },
                          "parameters" : {
                            "cursorScale" : {
                              "type" : "double",
                              "defaultValue" : 1.0,
                              "interp" : "linr"
                            },
                            "cursorOpacity" : {
                              "type" : "double",
                              "defaultValue" : 1.0,
                              "interp" : "linr"
                            }
                          },
                          "effects" : [

                          ],
                          "start" : 3416,
                          "duration" : 556,
                          "mediaStart" : 582,
                          "mediaDuration" : 556,
                          "scalar" : 1,
                          "animationTracks" : {

                          }
                        },
                    "audio" : 
                        {
                          "id" : 41,
                          "_type" : "AMFile",
                          "src" : 4,
                          "trackNumber" : 2,
                          "attributes" : {
                            "ident" : "",
                            "sampleRate" : 44100,
                            "bitDepth" : 16,
                            "gain" : 1.0,
                            "mixToMono" : false
                          },
                            "channelNumber" : "0,1",
                          "effects" : [

                          ],
                          "start" : 3416,
                          "duration" : 556,
                          "mediaStart" : 582,
                          "mediaDuration" : 556,
                          "scalar" : 1,
                          "animationTracks" : {

                          }
                        }
,
                    "start" : 3416,
                    "duration" : 556,
                    "mediaStart" : 0,
                    "mediaDuration" : 1164,
                    "scalar" : 1,
                    "metadata" : {
                      "AutoAppliedSmartFocus" : "False",
                      "WinSubProjectDisplayName" : "",
                      "clipSpeedAttribute" : false
                    }
                  },
                  {
                    "id" : 42,
                    "_type" : "UnifiedMedia",
                    "video" : 
                        {
                          "id" : 43,
                          "_type" : "ScreenVMFile",
                          "src" : 5,
                          "trackNumber" : 0,
                          "attributes" : {
                            "ident" : "Aufn. 07-14-19_016"
                          },
                          "parameters" : {
                            "cursorScale" : {
                              "type" : "double",
                              "defaultValue" : 1.0,
                              "interp" : "linr"
                            },
                            "cursorOpacity" : {
                              "type" : "double",
                              "defaultValue" : 1.0,
                              "interp" : "linr"
                            }
                          },
                          "effects" : [

                          ],
                          "start" : 3972,
                          "duration" : 2278,
                          "mediaStart" : 22,
                          "mediaDuration" : 2278,
                          "scalar" : 1,
                          "animationTracks" : {

                          }
                        },
                    "audio" : 
                        {
                          "id" : 44,
                          "_type" : "AMFile",
                          "src" : 5,
                          "trackNumber" : 2,
                          "attributes" : {
                            "ident" : "",
                            "sampleRate" : 44100,
                            "bitDepth" : 16,
                            "gain" : 1.0,
                            "mixToMono" : false
                          },
                            "channelNumber" : "0,1",
                          "effects" : [

                          ],
                          "start" : 3972,
                          "duration" : 2278,
                          "mediaStart" : 22,
                          "mediaDuration" : 2278,
                          "scalar" : 1,
                          "animationTracks" : {

                          }
                        }
,
                    "start" : 3972,
                    "duration" : 2278,
                    "mediaStart" : 0,
                    "mediaDuration" : 2664,
                    "scalar" : 1,
                    "metadata" : {
                      "AutoAppliedSmartFocus" : "False",
                      "WinSubProjectDisplayName" : "",
                      "clipSpeedAttribute" : false
                    }
                  },
                  {
                    "id" : 45,
                    "_type" : "UnifiedMedia",
                    "video" : 
                        {
                          "id" : 46,
                          "_type" : "ScreenVMFile",
                          "src" : 5,
                          "trackNumber" : 0,
                          "attributes" : {
                            "ident" : "Aufn. 07-14-19_016"
                          },
                          "parameters" : {
                            "cursorScale" : {
                              "type" : "double",
                              "defaultValue" : 1.0,
                              "interp" : "linr"
                            },
                            "cursorOpacity" : {
                              "type" : "double",
                              "defaultValue" : 1.0,
                              "interp" : "linr"
                            }
                          },
                          "effects" : [

                          ],
                          "start" : 6250,
                          "duration" : 202,
                          "mediaStart" : 2426,
                          "mediaDuration" : 202,
                          "scalar" : 1,
                          "animationTracks" : {

                          }
                        },
                    "audio" : 
                        {
                          "id" : 47,
                          "_type" : "AMFile",
                          "src" : 5,
                          "trackNumber" : 2,
                          "attributes" : {
                            "ident" : "",
                            "sampleRate" : 44100,
                            "bitDepth" : 16,
                            "gain" : 1.0,
                            "mixToMono" : false
                          },
                            "channelNumber" : "0,1",
                          "effects" : [

                          ],
                          "start" : 6250,
                          "duration" : 202,
                          "mediaStart" : 2426,
                          "mediaDuration" : 202,
                          "scalar" : 1,
                          "animationTracks" : {

                          }
                        }
,
                    "start" : 6250,
                    "duration" : 202,
                    "mediaStart" : 0,
                    "mediaDuration" : 2664,
                    "scalar" : 1,
                    "metadata" : {
                      "AutoAppliedSmartFocus" : "False",
                      "WinSubProjectDisplayName" : "",
                      "clipSpeedAttribute" : false
                    }
                  },
                  {
                    "id" : 48,
                    "_type" : "UnifiedMedia",
                    "video" : 
                        {
                          "id" : 49,
                          "_type" : "ScreenVMFile",
                          "src" : 6,
                          "trackNumber" : 0,
                          "attributes" : {
                            "ident" : "Aufn. 07-14-19_017"
                          },
                          "parameters" : {
                            "cursorScale" : {
                              "type" : "double",
                              "defaultValue" : 1.0,
                              "interp" : "linr"
                            },
                            "cursorOpacity" : {
                              "type" : "double",
                              "defaultValue" : 1.0,
                              "interp" : "linr"
                            }
                          },
                          "effects" : [

                          ],
                          "start" : 6452,
                          "duration" : 2190,
                          "mediaStart" : 0,
                          "mediaDuration" : 2190,
                          "scalar" : 1,
                          "animationTracks" : {

                          }
                        },
                    "audio" : 
                        {
                          "id" : 50,
                          "_type" : "AMFile",
                          "src" : 6,
                          "trackNumber" : 2,
                          "attributes" : {
                            "ident" : "",
                            "sampleRate" : 44100,
                            "bitDepth" : 16,
                            "gain" : 1.0,
                            "mixToMono" : false
                          },
                            "channelNumber" : "0,1",
                          "effects" : [

                          ],
                          "start" : 6452,
                          "duration" : 2190,
                          "mediaStart" : 0,
                          "mediaDuration" : 2190,
                          "scalar" : 1,
                          "animationTracks" : {

                          }
                        }
,
                    "start" : 6452,
                    "duration" : 2190,
                    "mediaStart" : 0,
                    "mediaDuration" : 2211,
                    "scalar" : 1,
                    "metadata" : {
                      "AutoAppliedSmartFocus" : "False",
                      "WinSubProjectDisplayName" : "",
                      "clipSpeedAttribute" : false
                    }
                  },
                  {
                    "id" : 51,
                    "_type" : "UnifiedMedia",
                    "video" : 
                        {
                          "id" : 52,
                          "_type" : "ScreenVMFile",
                          "src" : 7,
                          "trackNumber" : 0,
                          "attributes" : {
                            "ident" : "Aufn. 07-14-19_018"
                          },
                          "parameters" : {
                            "cursorScale" : {
                              "type" : "double",
                              "defaultValue" : 1.0,
                              "interp" : "linr"
                            },
                            "cursorOpacity" : {
                              "type" : "double",
                              "defaultValue" : 1.0,
                              "interp" : "linr"
                            }
                          },
                          "effects" : [

                          ],
                          "start" : 8642,
                          "duration" : 1501,
                          "mediaStart" : 409,
                          "mediaDuration" : 1501,
                          "scalar" : 1,
                          "animationTracks" : {

                          }
                        },
                    "audio" : 
                        {
                          "id" : 53,
                          "_type" : "AMFile",
                          "src" : 7,
                          "trackNumber" : 2,
                          "attributes" : {
                            "ident" : "",
                            "sampleRate" : 44100,
                            "bitDepth" : 16,
                            "gain" : 1.0,
                            "mixToMono" : false
                          },
                            "channelNumber" : "0,1",
                          "effects" : [

                          ],
                          "start" : 8642,
                          "duration" : 1501,
                          "mediaStart" : 409,
                          "mediaDuration" : 1501,
                          "scalar" : 1,
                          "animationTracks" : {

                          }
                        }
,
                    "start" : 8642,
                    "duration" : 1501,
                    "mediaStart" : 0,
                    "mediaDuration" : 2137,
                    "scalar" : 1,
                    "metadata" : {
                      "AutoAppliedSmartFocus" : "False",
                      "WinSubProjectDisplayName" : "",
                      "clipSpeedAttribute" : false
                    }
                  },
                  {
                    "id" : 54,
                    "_type" : "UnifiedMedia",
                    "video" : 
                        {
                          "id" : 55,
                          "_type" : "ScreenVMFile",
                          "src" : 8,
                          "trackNumber" : 0,
                          "attributes" : {
                            "ident" : "Aufn. 07-14-19_019"
                          },
                          "parameters" : {
                            "cursorScale" : {
                              "type" : "double",
                              "defaultValue" : 1.0,
                              "interp" : "linr"
                            },
                            "cursorOpacity" : {
                              "type" : "double",
                              "defaultValue" : 1.0,
                              "interp" : "linr"
                            }
                          },
                          "effects" : [

                          ],
                          "start" : 10143,
                          "duration" : 208,
                          "mediaStart" : 155,
                          "mediaDuration" : 208,
                          "scalar" : 1,
                          "animationTracks" : {

                          }
                        },
                    "audio" : 
                        {
                          "id" : 56,
                          "_type" : "AMFile",
                          "src" : 8,
                          "trackNumber" : 2,
                          "attributes" : {
                            "ident" : "",
                            "sampleRate" : 44100,
                            "bitDepth" : 16,
                            "gain" : 1.0,
                            "mixToMono" : false
                          },
                            "channelNumber" : "0,1",
                          "effects" : [

                          ],
                          "start" : 10143,
                          "duration" : 208,
                          "mediaStart" : 155,
                          "mediaDuration" : 208,
                          "scalar" : 1,
                          "animationTracks" : {

                          }
                        }
,
                    "start" : 10143,
                    "duration" : 208,
                    "mediaStart" : 0,
                    "mediaDuration" : 392,
                    "scalar" : 1,
                    "metadata" : {
                      "AutoAppliedSmartFocus" : "False",
                      "WinSubProjectDisplayName" : "",
                      "clipSpeedAttribute" : false
                    }
                  },
                  {
                    "id" : 57,
                    "_type" : "UnifiedMedia",
                    "video" : 
                        {
                          "id" : 58,
                          "_type" : "ScreenVMFile",
                          "src" : 9,
                          "trackNumber" : 0,
                          "attributes" : {
                            "ident" : "Aufn. 07-14-19_023"
                          },
                          "parameters" : {
                            "cursorScale" : {
                              "type" : "double",
                              "defaultValue" : 1.0,
                              "interp" : "linr"
                            },
                            "cursorOpacity" : {
                              "type" : "double",
                              "defaultValue" : 1.0,
                              "interp" : "linr"
                            }
                          },
                          "effects" : [

                          ],
                          "start" : 10351,
                          "duration" : 1453,
                          "mediaStart" : 35,
                          "mediaDuration" : 1453,
                          "scalar" : 1,
                          "animationTracks" : {

                          }
                        },
                    "audio" : 
                        {
                          "id" : 59,
                          "_type" : "AMFile",
                          "src" : 9,
                          "trackNumber" : 2,
                          "attributes" : {
                            "ident" : "",
                            "sampleRate" : 44100,
                            "bitDepth" : 16,
                            "gain" : 1.0,
                            "mixToMono" : false
                          },
                            "channelNumber" : "0,1",
                          "effects" : [

                          ],
                          "start" : 10351,
                          "duration" : 1453,
                          "mediaStart" : 35,
                          "mediaDuration" : 1453,
                          "scalar" : 1,
                          "animationTracks" : {

                          }
                        }
,
                    "start" : 10351,
                    "duration" : 1453,
                    "mediaStart" : 0,
                    "mediaDuration" : 1509,
                    "scalar" : 1,
                    "metadata" : {
                      "AutoAppliedSmartFocus" : "False",
                      "WinSubProjectDisplayName" : "",
                      "clipSpeedAttribute" : false
                    }
                  },
                  {
                    "id" : 60,
                    "_type" : "UnifiedMedia",
                    "video" : 
                        {
                          "id" : 61,
                          "_type" : "ScreenVMFile",
                          "src" : 10,
                          "trackNumber" : 0,
                          "attributes" : {
                            "ident" : "Aufn. 07-14-19_024"
                          },
                          "parameters" : {
                            "cursorScale" : {
                              "type" : "double",
                              "defaultValue" : 1.0,
                              "interp" : "linr"
                            },
                            "cursorOpacity" : {
                              "type" : "double",
                              "defaultValue" : 1.0,
                              "interp" : "linr"
                            }
                          },
                          "effects" : [

                          ],
                          "start" : 11804,
                          "duration" : 465,
                          "mediaStart" : 27,
                          "mediaDuration" : 465,
                          "scalar" : 1,
                          "animationTracks" : {

                          }
                        },
                    "audio" : 
                        {
                          "id" : 62,
                          "_type" : "AMFile",
                          "src" : 10,
                          "trackNumber" : 2,
                          "attributes" : {
                            "ident" : "",
                            "sampleRate" : 44100,
                            "bitDepth" : 16,
                            "gain" : 1.0,
                            "mixToMono" : false
                          },
                            "channelNumber" : "0,1",
                          "effects" : [

                          ],
                          "start" : 11804,
                          "duration" : 465,
                          "mediaStart" : 27,
                          "mediaDuration" : 465,
                          "scalar" : 1,
                          "animationTracks" : {

                          }
                        }
,
                    "start" : 11804,
                    "duration" : 465,
                    "mediaStart" : 0,
                    "mediaDuration" : 1002,
                    "scalar" : 1,
                    "metadata" : {
                      "AutoAppliedSmartFocus" : "False",
                      "WinSubProjectDisplayName" : "",
                      "clipSpeedAttribute" : false
                    }
                  },
                  {
                    "id" : 63,
                    "_type" : "UnifiedMedia",
                    "video" : 
                        {
                          "id" : 64,
                          "_type" : "ScreenVMFile",
                          "src" : 10,
                          "trackNumber" : 0,
                          "attributes" : {
                            "ident" : "Aufn. 07-14-19_024"
                          },
                          "parameters" : {
                            "cursorScale" : {
                              "type" : "double",
                              "defaultValue" : 1.0,
                              "interp" : "linr"
                            },
                            "cursorOpacity" : {
                              "type" : "double",
                              "defaultValue" : 1.0,
                              "interp" : "linr"
                            }
                          },
                          "effects" : [

                          ],
                          "start" : 12269,
                          "duration" : 346,
                          "mediaStart" : 637,
                          "mediaDuration" : 346,
                          "scalar" : 1,
                          "animationTracks" : {

                          }
                        },
                    "audio" : 
                        {
                          "id" : 65,
                          "_type" : "AMFile",
                          "src" : 10,
                          "trackNumber" : 2,
                          "attributes" : {
                            "ident" : "",
                            "sampleRate" : 44100,
                            "bitDepth" : 16,
                            "gain" : 1.0,
                            "mixToMono" : false
                          },
                            "channelNumber" : "0,1",
                          "effects" : [

                          ],
                          "start" : 12269,
                          "duration" : 346,
                          "mediaStart" : 637,
                          "mediaDuration" : 346,
                          "scalar" : 1,
                          "animationTracks" : {

                          }
                        }
,
                    "start" : 12269,
                    "duration" : 346,
                    "mediaStart" : 0,
                    "mediaDuration" : 1002,
                    "scalar" : 1,
                    "metadata" : {
                      "AutoAppliedSmartFocus" : "False",
                      "WinSubProjectDisplayName" : "",
                      "clipSpeedAttribute" : false
                    }
                  },
                  {
                    "id" : 66,
                    "_type" : "UnifiedMedia",
                    "video" : 
                        {
                          "id" : 67,
                          "_type" : "ScreenVMFile",
                          "src" : 11,
                          "trackNumber" : 0,
                          "attributes" : {
                            "ident" : "Aufn. 07-14-19_025"
                          },
                          "parameters" : {
                            "cursorScale" : {
                              "type" : "double",
                              "defaultValue" : 1.0,
                              "interp" : "linr"
                            },
                            "cursorOpacity" : {
                              "type" : "double",
                              "defaultValue" : 1.0,
                              "interp" : "linr"
                            }
                          },
                          "effects" : [

                          ],
                          "start" : 12615,
                          "duration" : 1070,
                          "mediaStart" : 14,
                          "mediaDuration" : 1070,
                          "scalar" : 1,
                          "animationTracks" : {

                          }
                        },
                    "audio" : 
                        {
                          "id" : 68,
                          "_type" : "AMFile",
                          "src" : 11,
                          "trackNumber" : 2,
                          "attributes" : {
                            "ident" : "",
                            "sampleRate" : 44100,
                            "bitDepth" : 16,
                            "gain" : 1.0,
                            "mixToMono" : false
                          },
                            "channelNumber" : "0,1",
                          "effects" : [

                          ],
                          "start" : 12615,
                          "duration" : 1070,
                          "mediaStart" : 14,
                          "mediaDuration" : 1070,
                          "scalar" : 1,
                          "animationTracks" : {

                          }
                        }
,
                    "start" : 12615,
                    "duration" : 1070,
                    "mediaStart" : 0,
                    "mediaDuration" : 1368,
                    "scalar" : 1,
                    "metadata" : {
                      "AutoAppliedSmartFocus" : "False",
                      "WinSubProjectDisplayName" : "",
                      "clipSpeedAttribute" : false
                    }
                  },
                  {
                    "id" : 69,
                    "_type" : "UnifiedMedia",
                    "video" : 
                        {
                          "id" : 70,
                          "_type" : "ScreenVMFile",
                          "src" : 13,
                          "trackNumber" : 0,
                          "attributes" : {
                            "ident" : "Aufn. 07-14-19_028"
                          },
                          "parameters" : {
                            "cursorScale" : {
                              "type" : "double",
                              "defaultValue" : 1.0,
                              "interp" : "linr"
                            },
                            "cursorOpacity" : {
                              "type" : "double",
                              "defaultValue" : 1.0,
                              "interp" : "linr"
                            }
                          },
                          "effects" : [

                          ],
                          "start" : 13685,
                          "duration" : 1236,
                          "mediaStart" : 48,
                          "mediaDuration" : 1236,
                          "scalar" : 1,
                          "animationTracks" : {

                          }
                        },
                    "audio" : 
                        {
                          "id" : 71,
                          "_type" : "AMFile",
                          "src" : 13,
                          "trackNumber" : 2,
                          "attributes" : {
                            "ident" : "",
                            "sampleRate" : 44100,
                            "bitDepth" : 16,
                            "gain" : 1.0,
                            "mixToMono" : false
                          },
                            "channelNumber" : "0,1",
                          "effects" : [

                          ],
                          "start" : 13685,
                          "duration" : 1236,
                          "mediaStart" : 48,
                          "mediaDuration" : 1236,
                          "scalar" : 1,
                          "animationTracks" : {

                          }
                        }
,
                    "start" : 13685,
                    "duration" : 1236,
                    "mediaStart" : 0,
                    "mediaDuration" : 1305,
                    "scalar" : 1,
                    "metadata" : {
                      "AutoAppliedSmartFocus" : "False",
                      "WinSubProjectDisplayName" : "",
                      "clipSpeedAttribute" : false
                    }
                  },
                  {
                    "id" : 72,
                    "_type" : "UnifiedMedia",
                    "video" : 
                        {
                          "id" : 73,
                          "_type" : "ScreenVMFile",
                          "src" : 14,
                          "trackNumber" : 0,
                          "attributes" : {
                            "ident" : "Aufn. 07-14-19_029"
                          },
                          "parameters" : {
                            "cursorScale" : {
                              "type" : "double",
                              "defaultValue" : 1.0,
                              "interp" : "linr"
                            },
                            "cursorOpacity" : {
                              "type" : "double",
                              "defaultValue" : 1.0,
                              "interp" : "linr"
                            }
                          },
                          "effects" : [

                          ],
                          "start" : 14921,
                          "duration" : 502,
                          "mediaStart" : 29,
                          "mediaDuration" : 502,
                          "scalar" : 1,
                          "animationTracks" : {

                          }
                        },
                    "audio" : 
                        {
                          "id" : 74,
                          "_type" : "AMFile",
                          "src" : 14,
                          "trackNumber" : 2,
                          "attributes" : {
                            "ident" : "",
                            "sampleRate" : 44100,
                            "bitDepth" : 16,
                            "gain" : 1.0,
                            "mixToMono" : false
                          },
                            "channelNumber" : "0,1",
                          "effects" : [

                          ],
                          "start" : 14921,
                          "duration" : 502,
                          "mediaStart" : 29,
                          "mediaDuration" : 502,
                          "scalar" : 1,
                          "animationTracks" : {

                          }
                        }
,
                    "start" : 14921,
                    "duration" : 502,
                    "mediaStart" : 0,
                    "mediaDuration" : 546,
                    "scalar" : 1,
                    "metadata" : {
                      "AutoAppliedSmartFocus" : "False",
                      "WinSubProjectDisplayName" : "",
                      "clipSpeedAttribute" : false
                    }
                  },
                  {
                    "id" : 75,
                    "_type" : "UnifiedMedia",
                    "video" : 
                        {
                          "id" : 76,
                          "_type" : "ScreenVMFile",
                          "src" : 15,
                          "trackNumber" : 0,
                          "attributes" : {
                            "ident" : "Aufn. 07-14-19_030"
                          },
                          "parameters" : {
                            "cursorScale" : {
                              "type" : "double",
                              "defaultValue" : 1.0,
                              "interp" : "linr"
                            },
                            "cursorOpacity" : {
                              "type" : "double",
                              "defaultValue" : 1.0,
                              "interp" : "linr"
                            }
                          },
                          "effects" : [

                          ],
                          "start" : 15423,
                          "duration" : 1020,
                          "mediaStart" : 42,
                          "mediaDuration" : 1020,
                          "scalar" : 1,
                          "animationTracks" : {

                          }
                        },
                    "audio" : 
                        {
                          "id" : 77,
                          "_type" : "AMFile",
                          "src" : 15,
                          "trackNumber" : 2,
                          "attributes" : {
                            "ident" : "",
                            "sampleRate" : 44100,
                            "bitDepth" : 16,
                            "gain" : 1.0,
                            "mixToMono" : false
                          },
                            "channelNumber" : "0,1",
                          "effects" : [

                          ],
                          "start" : 15423,
                          "duration" : 1020,
                          "mediaStart" : 42,
                          "mediaDuration" : 1020,
                          "scalar" : 1,
                          "animationTracks" : {

                          }
                        }
,
                    "start" : 15423,
                    "duration" : 1020,
                    "mediaStart" : 0,
                    "mediaDuration" : 1084,
                    "scalar" : 1,
                    "metadata" : {
                      "AutoAppliedSmartFocus" : "False",
                      "WinSubProjectDisplayName" : "",
                      "clipSpeedAttribute" : false
                    }
                  },
                  {
                    "id" : 78,
                    "_type" : "UnifiedMedia",
                    "video" : 
                        {
                          "id" : 79,
                          "_type" : "ScreenVMFile",
                          "src" : 16,
                          "trackNumber" : 0,
                          "attributes" : {
                            "ident" : "Aufn. 07-14-19_031"
                          },
                          "parameters" : {
                            "cursorScale" : {
                              "type" : "double",
                              "defaultValue" : 1.0,
                              "interp" : "linr"
                            },
                            "cursorOpacity" : {
                              "type" : "double",
                              "defaultValue" : 1.0,
                              "interp" : "linr"
                            }
                          },
                          "effects" : [

                          ],
                          "start" : 16443,
                          "duration" : 442,
                          "mediaStart" : 202,
                          "mediaDuration" : 442,
                          "scalar" : 1,
                          "animationTracks" : {

                          }
                        },
                    "audio" : 
                        {
                          "id" : 80,
                          "_type" : "AMFile",
                          "src" : 16,
                          "trackNumber" : 2,
                          "attributes" : {
                            "ident" : "",
                            "sampleRate" : 44100,
                            "bitDepth" : 16,
                            "gain" : 1.0,
                            "mixToMono" : false
                          },
                            "channelNumber" : "0,1",
                          "effects" : [

                          ],
                          "start" : 16443,
                          "duration" : 442,
                          "mediaStart" : 202,
                          "mediaDuration" : 442,
                          "scalar" : 1,
                          "animationTracks" : {

                          }
                        }
,
                    "start" : 16443,
                    "duration" : 442,
                    "mediaStart" : 0,
                    "mediaDuration" : 662,
                    "scalar" : 1,
                    "metadata" : {
                      "AutoAppliedSmartFocus" : "False",
                      "WinSubProjectDisplayName" : "",
                      "clipSpeedAttribute" : false
                    }
                  },
                  {
                    "id" : 81,
                    "_type" : "UnifiedMedia",
                    "video" : 
                        {
                          "id" : 82,
                          "_type" : "ScreenVMFile",
                          "src" : 17,
                          "trackNumber" : 0,
                          "attributes" : {
                            "ident" : "Aufn. 07-14-19_033"
                          },
                          "parameters" : {
                            "cursorScale" : {
                              "type" : "double",
                              "defaultValue" : 1.0,
                              "interp" : "linr"
                            },
                            "cursorOpacity" : {
                              "type" : "double",
                              "defaultValue" : 1.0,
                              "interp" : "linr"
                            }
                          },
                          "effects" : [

                          ],
                          "start" : 16885,
                          "duration" : 2222,
                          "mediaStart" : 99,
                          "mediaDuration" : 2222,
                          "scalar" : 1,
                          "animationTracks" : {

                          }
                        },
                    "audio" : 
                        {
                          "id" : 83,
                          "_type" : "AMFile",
                          "src" : 17,
                          "trackNumber" : 2,
                          "attributes" : {
                            "ident" : "",
                            "sampleRate" : 44100,
                            "bitDepth" : 16,
                            "gain" : 1.0,
                            "mixToMono" : false
                          },
                            "channelNumber" : "0,1",
                          "effects" : [

                          ],
                          "start" : 16885,
                          "duration" : 2222,
                          "mediaStart" : 99,
                          "mediaDuration" : 2222,
                          "scalar" : 1,
                          "animationTracks" : {

                          }
                        }
,
                    "start" : 16885,
                    "duration" : 2222,
                    "mediaStart" : 0,
                    "mediaDuration" : 2341,
                    "scalar" : 1,
                    "metadata" : {
                      "AutoAppliedSmartFocus" : "False",
                      "WinSubProjectDisplayName" : "",
                      "clipSpeedAttribute" : false
                    }
                  },
                  {
                    "id" : 84,
                    "_type" : "UnifiedMedia",
                    "video" : 
                        {
                          "id" : 85,
                          "_type" : "ScreenVMFile",
                          "src" : 18,
                          "trackNumber" : 0,
                          "attributes" : {
                            "ident" : "Aufn. 07-14-19_034"
                          },
                          "parameters" : {
                            "cursorScale" : {
                              "type" : "double",
                              "defaultValue" : 1.0,
                              "interp" : "linr"
                            },
                            "cursorOpacity" : {
                              "type" : "double",
                              "defaultValue" : 1.0,
                              "interp" : "linr"
                            }
                          },
                          "effects" : [

                          ],
                          "start" : 19107,
                          "duration" : 435,
                          "mediaStart" : 29,
                          "mediaDuration" : 435,
                          "scalar" : 1,
                          "animationTracks" : {

                          }
                        },
                    "audio" : 
                        {
                          "id" : 86,
                          "_type" : "AMFile",
                          "src" : 18,
                          "trackNumber" : 2,
                          "attributes" : {
                            "ident" : "",
                            "sampleRate" : 44100,
                            "bitDepth" : 16,
                            "gain" : 1.0,
                            "mixToMono" : false
                          },
                            "channelNumber" : "0,1",
                          "effects" : [

                          ],
                          "start" : 19107,
                          "duration" : 435,
                          "mediaStart" : 29,
                          "mediaDuration" : 435,
                          "scalar" : 1,
                          "animationTracks" : {

                          }
                        }
,
                    "start" : 19107,
                    "duration" : 435,
                    "mediaStart" : 0,
                    "mediaDuration" : 483,
                    "scalar" : 1,
                    "metadata" : {
                      "AutoAppliedSmartFocus" : "False",
                      "WinSubProjectDisplayName" : "",
                      "clipSpeedAttribute" : false
                    }
                  }
                ],
                "transitions" : [
                  {
                    "name" : "Fade",
                    "duration" : 15,
                    "trivial" : false,
                    "useAudioPreRoll" : true,
                    "useVisualPreRoll" : true,
                    "leftMedia" : 30,
                    "rightMedia" : 33
                  }
                ]
              },
              {
                "trackIndex" : 1,
                "medias" : [
                  {
                    "id" : 87,
                    "_type" : "AMFile",
                    "src" : 1,
                    "trackNumber" : 1,
                    "attributes" : {
                      "ident" : "Aufn. 07-14-19_010",
                      "sampleRate" : 44100,
                      "bitDepth" : 16,
                      "gain" : 1.0,
                      "mixToMono" : true
                    },
                      "channelNumber" : "0,1",
                    "effects" : [
                        {
                          "effectName" : "NoiseReduction",
                          "category" : "categoryAudioEffects",
                          "parameters" : {
                            "denoiserAmount" : 20.0,
                            "denoiserThreshold" : 0.0,
                            "noiseProfile" : "7PmaQCy49z9/gz0/LpgFPuPkDD4WLVY+N+qpPE/pNjxKzU88TtllPGxVcj1xy9I9InVcPQg6ujtH\r\nzlI76taiO3LlJDvfPeM6IgEKO4Ul1jrkwc466Bu9OgQgvDoNl/06616KOjGjiTp1yFo6CDM9Oi+w\r\nPzpLCh86vs4GOn5rOTqjbHs6gsoIOnzTCDrka/w5zjDFOr8Yhjr6c1M6jIvtOpcFGTt5FrQ50VcP\r\nOrFBsTkz0Dg7lDkYOrjLlzrzdOg627K6OcykmDoyO5o5P8slOoyChDqm/kE6foZyOi659DkA53o6\r\nIJKzOZV/6jkwQ+M5jKIdOuJUujmcxgU6ZBmVOeoGMTqC1q86n+YIOs8oSjnslKY5IwqHOWpbCDqE\r\nWXA6XNnqOp4fNDngvaA5MfwoOb0iCzoSR5Q5kb5vOff0+zluPrQ5z5c7OcKZOjk8YY05HDYXOsRw\r\n3DlmjoU5l+OAOZTZozmCeJY5rrLSOZ29FzrYP145Zw/DOR1goDkVHZU5pBqNOS6kBTpWGQI5EOGv\r\nOfo6zzh0ekI5fS8MOlYIiDmsHRg6xh6GOaBGwTnF10U5NJ7ROQcHnjnkuq46MZ6FOsqQpTov8Cg5\r\nKh7ZOCb4kTiULlI6kltnOnAswTmBVAI6xBOvONR8FTkIiLs5Bj3KOB5uLjqFegk6FTKgOaDW1Din\r\n68s4h1MmOlP+JDnaLPI4UFNSOf3v+jiNSpM42JauONid2zm0ZRU6E1b0OHc7tjmwDA86hrPZOEAA\r\nCDkHE7Q4kxwIOa6hHzq3eiY61NnqOVDSBTkhwyM6d9eIObL7eTn6XTY5ijMvOerUEDpaMZI5j4xv\r\nONZPGjkLBHI6ClgHOjpkPDpYPuE5ryW7OO1SvTi+5Nk3xcejOcqcbzlw9iA51ajKOJNWYzjljmU4\r\nzoTHOFGrhjh4Dfs3H4J9OK+6IDlxhFo4VklwOc5pbjm7rrw48JwyObo2XzmoowQ5ZX4EOEYNQTiQ\r\nEYA41FUPOczUqDh1yhg56HRBOAIZgTjciIU4qbQbONH+yDjnfI44lU6KOCrtXThvVB84GnejN41b\r\nbzil+NA3kHKxOOJ7mTjTtsg3bbdhN3uBuDe4xCo4+uJPOXlsUziC09c5s5nyOeBkVjjlhRI4DSuz\r\nOOJpJTgRQOM4TBZzOd9MVTmpj/o4pBAEObuhkjhmAKQ4tzvWONR18DfzVZY3LGzaN5iFPziB5TI4\r\n5yTKN8xF0jdqq8E459NjOTmbCzlSs7k4zXCfN2G8KDieYxM4k0dhORB/8TmqPz45r5bQOFG8Xzic\r\nORs5KgOyODsMhDheWPc46QMgOeyDizglKzQ4WzNeOAmRUzgd9go4k3pQOMKc5zeUObg3M0oNOOfB\r\nFTl0Pag4wZUtOGh8tTfWxz43uDyjN6u91zftWv04oNybOERyAzi2GXc4wkUqN6KDVDcNl4M3iLMz\r\nOPzecDeqyXA4Z+tTOW0ASDmMw5I4ZTKWOJ2AAjj0Ihs5WZ4WOepPADlsBOY30CMmOfp0YjjgYyE4\r\ncPcUOHYNCDlWGh85+MkAOZr6ozieWtU4SDewN67qajfmqQo5DzZpONGNHzk0S6E4LnMxOJBFOjcW\r\n5I44tCinOL0+ozfkV/E4S6wQOVAnMjnjIGU4ca/NN8heYDg6zdc3H+msOHMPADmeYJk4rRPXN6RY\r\n2zcaRqA3vEHYNyojgjeVOeo3O8RFN+miFTj6Z90303gCODHfiDeYiaw30fCTN3EJaTg6QR441Wgv\r\nODf09zfIMzE3rrsGNwIeozfqRwA3MYanNwg1UDjMlww3TWwiN+GrODhqtHs4RSUXOMRGVTf8qQo3\r\nqk8TN7rEjjdywy03AfpEN5MtpDfrWrs3kfeHOMQX2Tdh+UA3+U5KN46hiTdobYs3ghsuN2A3RjcH\r\nPZo39wFVN6yhTTcnRHM3tWYoN22AYTf08mQ4aEElN9fjLzfUJqo3NyOWNzjGoTcaeBM41/wdOCDJ\r\nAjg7P1U3NKL1NorQojZ6ZPE2sDOvN8ql9TcQKEo3vwhBN3WgoDcHPhw3MB4IN9gYUzc6ecU3pIcR\r\nN7rEcjeSZgY3dZ4KOBYwCjde3G03MD17NgYMEjdWwJ82ttWGN3S6BzfWpgE3CDH0NjB7rjaQzIs3\r\n6nQrNy+TmTcFsrQ2m6WLNhzVcTfnRIs3kXGEN/vj1zai1VY3J501NwJOgTdkS6Q3jbafNqVQcjbh\r\nmnA2sjqbNjQYEjfgXl83KqvNNrAFMTdWdXc33dYXN0aEoTc2zws3hD57N5npnjao4A03BWSHNqyk\r\nnTbyN7A24XoDN5t65TZq4e82Kg1mNzo6ljfSdxE3LwWWNy+KvjccUsE20//ONqMJeDfd0YI2ehPb\r\nNvA01TbEzAo3+PZcNyI1TzfBNuc2z9HjNibLuTZN/Ww3QdM3N3ufBjct+js33BvUNvw1gjYmi4A2\r\nxIm4Nnc0Ozbr+cY2z/BgNqJVyzba+pU2pJcVN7yj5jbg6g43sFaiNpZQKDdaeAA3PDfTNeSvCzd8\r\nJBI3tc1UN5mnWDc7zgA3vPLDN5Gcizb74v42uOoqN7sJRjev9g830lbsNqnWTTd2BQI3uqnWNvdu\r\nEDerdC82jhbCNtoQsjc3DXQ2tAHxNunrFTaX+Qc3n5QnNtiKLzepvU43QCPcNk6/YjZqVhY2R8oa\r\nN4FlzzaK/AI31prTNqoTxTe6wsM2ZK+lNqiNKjeyJy83jHPfNjzFEDfcFB02E06ENqUFzzYASD43\r\ns10kNl1h8jYcERA3Wl+zNqEOczZY9Mw2ezPZNsVWAze3f4k2PBFBNxpd/jfkov02AY0bN0+EtzcQ\r\nIBI3dBARNyTvqDZs/Fo3jhgAN9YZiDc2C7g2eRwtNjqakjbuq5E209MoNnWeJzfZPzI3P1WkN11K\r\nFTehuzQ3w2cLN/v4uDaZ2AY2prncNrukITc6TB03UFsyN2jJHjY6wIQ3HHiVNpzhrzcc2OQ2LwQl\r\nNo5LqTacxio37ODQNhd7AzfQI1Q3OULgNqDiEjcqIZE2W/0wN1Ck1zcYCJ83mSZQNumRrTbMbtI2\r\nFumbNoafOTdC73o3nPysNtXd1Da33dE2mlY8NgUqKzZOmoA2vosANqxMBTZSUDo2YVYZNv8vPzY2\r\nQFA2GuwuNsIhSzYos5c2oyICNkGEOTaESAo2yD8ANixBYDaIWGs2lBsoNn0HPDZPtwo2TzITNsw3\r\nBDa8AXM2PKAmNnDQUzY3WU028juFNn91Zzae/Eo2PGr0NUy6DjajNgk2um4GNlOcSjY8GK82wstW\r\nNp68qjZGq282/LEqNn4wJTZp1iM2SQZGNrY8RzZ+gTE2Aq4QNtJkAjZEzhY2qHY9NkSKPTa2/sc1\r\n9NzUNezeGzZEtEY28Bv5NZDHajZwbhE2jWHfNciTHDb7WnM2FHo2NmG9eDZh8+I1SmsANhM5gTU4\r\nXrw2MnapNbi+aTYUT941jYiaNj6aAzbYrao2o/ykNrZBWDcK1wU3aGHpNv0KtzbhKQI2ZJEoN/Ep\r\nLTaGKq428m6ANvr61jXUlNw1gQjPNTtNUDZhWQw2ApbqNqkepDaulqo1h5odNvdgnjayXW825rfJ\r\nNT2U/DUo9Z02Bmu0NZZ3ujVQ69A17DiSNVI+BDY5wdI1gEF2Nq9+CTYZOkU2bslENolenDZWMAM2\r\nYmy3NgK2RjZtWFI24A8RNs9RpjaN8EU2S+TsNULdOTZW0Ao25LZANh0XzTbiwqg27n0jNhvvKjay\r\nkuA1dmzMNajNHjbOnzU2beAWNpAWBjZypQY2/VoMNgsfATbt9NY1is6fNVKkJDYLrqQ16SHsNY9C\r\njzW++QM2/rfNNVVwHDaUbMo1FCg7NifRMDb2qxs2dpewNbLiqDXcww82SBc6Nox+9zUPOOY1ccrX\r\nNfBlITbk3/41Nmc+NhA1BTZKhBM25N6ENbpr8DWpWN81M67HNUid6zX/WhQ3f8n+NqnpWjbCOyo2\r\naJwYN5BUgjcc3b42jQWvNqBz1jYCay03a6JIN/JFwzd0RQ03ubwSN33gCzd5FqI282oINmxvbTYI\r\n3Vg2voAWNsgt4TXs1zk2QnqDNkoXrzbKJW82cWFyNckkCTaQnAo23J2XNRaOhzU7JBo2FtKnOLp5\r\nBzms5cE4BBHwONzlQzjzkxs3hvFXNzo16jY2VbQ3xBW9N74evTdGez84MofxOBqhJTh9+jM2fvIV\r\nNmGkMzfo2LY35JnRNfL+1Td2aH04vj2gOdw+JDlrG9o1JPm5NsoJRziDMZY4lTSpN0lbEDYmJJU3\r\n3hWfNypozTZpdM437X5GOCCfFTfGn+Y10ehpOLZBUDhQGhU2gX6dNQqSIDh8MaY4k8I0N6mwcDf2\r\nH144nyqdOGHznjeAWB03Ik6HOFXBJjm4AeE40QWiNxncQzdNBwQ347KbN210Vzj+8HI40C1KOOis\r\naTjhN9A4TcQ4Ofk9xDhHtr83GQExODiTJDcKvGw3AkG2NrljnzYz4p42QjYtN6aNhjehKJk2Vf1r\r\nNhhuDTbOjvs1wqSmNpH4Mjawj7w2m8u2Ns266zXeG801QBZrNjs9mTZqob82W9EMN6sgYjY9HHU2\r\n5u6yNtZJ/TY2TQ03NPysNgSxBzZjpfY2Nv8vNwGmYDfIjqc2CSCeNZrwbTV0mY81Fq70NVK0lTWo\r\n35s15sCANf7m8jVWyJk1zPUmNlKt0jXvZ781H6aONWaUNTZDi7I1J+shNmI9UzUyRM015znTNQox\r\nETZxEZ418G4eNjSRkzVvXTk2gHPTNV/NvjUMBdM1GoYzNuZfrjWbyQg2hPokNn1+tDUWYK81ohX7\r\nNd+jujUlJ+c2dNWiNyiwYzZzXPA14CQaN+APsDcec6s3y07LNR+bjTUmiRs2gqLJNuCnhDfOB482\r\n8KIVN/UBkTcTNLI2dX7lNhRN8Tas6OQ2uA7gNlXgmja/WY83uVQUN8N9aDYNgMI27u6VNoyuOzc/\r\nhZc315QBN57SVzZlIAk2G+SoNR9MozXrpuI1BWVoNRIS6DXOF/o1ttKdNeXDhDVQZYA1BcohNkAZ\r\nBDZ89/w1sm/WNXXeCTYc+L81pvHTNTHRljUa20Q2eJafNXP/tjWGsuY1dlgUNlbNwzXASq41ivyg\r\nNf1aFzaXkps1Sg0ANpQ72DXDFAs2d/RaNdZlLjZkW8M1V6/vNdhv9jVZ1gY2jWXvNV/EojWWD481\r\nru4DNlKTzDVLxck112HONd02DTZD7JU1P9PqNRptuDWZGwc2ADyFNWHWwjUojLI1uhiYNWhz2DX2\r\nc601PCnkNVICnDX8Zss1baYUNpwvZTUG+XA1uw7oNXAMrTXie9k11Wy+Nc32yTWVA+s1Bv6nNToS\r\nAzZMXb01rN3KNaEK6DXoeM81Zp4CNmidDDYP5o41PNjRNZ7FAzYIp7k1e+LVNQks1jU2w7c1oP3K\r\nNXADBjbdT+Y1D5JbNWPvkzU/CIE1k2jDNX111TUXe+k1gI2KNU4Y4TVCDqs1KmjaNQAgqzXGXng9\r\n4VQkOst9hDrkVjU69p89OhR0hDqAEf85HARKOhpxmjpzZHs6Dse8Oi6tQzqnHqM60qzdOkVVgDpg\r\n/KI60ryiOhyBgzrfHuk6cZ5iOk4oXjpfHVE6PlAQOl0+WzpZ0og6lGc/OsOPlDoipZw6Of8gOpvO\r\nWTrBRpQ6lGwyOuraeToLZ4o6oZ2OOvI3LjpmN5I6ShtwOie+gDqQ+io6j/ahOhbAlzrotGg6GqfL\r\nOvvPIjohK6M6+rDMOgrDRjpcVm06pOdTOhwWkTpUTWc6h4w7Okw5NjqzV6E6H/CDOpCaCDpWKec5\r\n0nsqOgyKRTqRXVw64TKjOmrJHTrhths6ISJ9OhvaZDps9rU6QjiVOk4ZkTokzs46NylPOvoCAjuO\r\nWRA6HCiBOj6z5zoDBxg6Ov0kOs+VtzrRsYg6ImQ3OnYF2DrXeHM6vCJAOr/LszpX9k46GhdtOrjY\r\n5zmHuKY6RQVnOvNIizr+ORU7GsnSOqqzyjqPw086eGR9OjXkhTpw6Qk78pG2OvxSSjo4EvI6oBrH\r\nOtrdITqh0o46SoBlOrJGATu2fK86hWaGOiXPZTrgxZ86FM2AOsiGdjohaBI6sZOHOtKLsjpby1E6\r\n5NiFOmKYpDp/bzc6fBuOOl+mXjruorg6vPuTOr9XaDr5IKk6kx1JOpiYpzrq/Ik6wpwEOxntkTpc\r\nREA6cApIOuxsnTrRWKI6oFnjOsTAJToQnrA6kH4AOo+LmzpkD946CzVfOoDXmzo2wmQ6lFbEOp+Z\r\nbzplQlU6Yv/LOmR4vjqzQyc6oH3DOg9IMzqvkZQ5DhlROuRY1TrKPUo6PsbSOtwoqDpqyWc6Lps8\r\nOvotpjr8tAo7ndauOnbfazroR4Q6KsxrOs5ytzr3mJ06+HszOkXtDTo9PSQ6pkC3OlF2Azqe/P85\r\nejgCOzA5VjpvBVg6NXBSOtyyhTrKXXM6IsSLOlzEQTpViuw6kGODOtiQzDnBQpk6Ni6BOqRayDrR\r\nkKo6e6iZOpY9cDrt9ok6UVtMOjfriTrPXYU6OBE9O2g5BjrGZIE6VMZYOknKzTpogaM6GfNPOsnW\r\nLjr8CFc6kdCgOpzCoDpQPGg6vLI7Oj5L3DlYeHM6aT6EOtL8AztK0EY6Cv6BOqi2Ojq8JAQ6GmWb\r\nOk8zPDqYUEs66SJ3OpVeqDqrdJM6xySROji3DzuAH4c6nyCLOoK7mzr8GVM6Q/BsOhm2IjqE3i46\r\nGwamOm6rUzoBQWk6y0LEOhLywjrfHc45aCSxOuqJRDr8aVI6bZeMOiLGODpL3ok6G8iGOvr7ajqR\r\nibw6jCz3OsDnhDrKKYI62uPSOnx8oDqUN5g6fttAOn1fUzpBvR06wlDnOiBfPTrcIGU6BAGwOZH/\r\npjqxK7g69pcpOuR0BjqBvOQ5O1VLOtdnoDpdHYo6njEyOiq6PTpbhJ06Sx8mOjRHgToorRI6BovB\r\nOmamyDooqnM69t+HOrknzTrRoDM6FVpjOqfxBjqZ8Co6xnkXOpF2gToyo7k67FxBOljPdDps6is6\r\n7JOvOqCMTzp+fQg6nsD5OQcqDzpCuZ86stCSOtaEujpucwE6GXX4OtBPMDpHnYo6pS0hOn6xLztv\r\nPSI6fQv6Oe/i9zocZws7yGyEOosywDqpNME6DX1BOgiFUDoIQ7Y6ijI+Ot8Rcjpwvu86DOVDOsnh\r\n2TrhuWQ60pRFOlpngjomoJA6bfODOgSxEzrz1JQ6LKfdOs+pPTpCV0c6CVMCOh7aPjpIero69BSM\r\nOinhijrBkyk6bg84Oo0KgDpOJHk60gqVOkpuojqG2E86GHG5OsL/NzovqN06fHjROlIrQTp1L0c6\r\noMa2OaxhHTqCb046VImqOio3eDoNBKk6Qu7DOhcZpzrGO686ApRBOmrNkTqPSow65bz5OeeSNDo0\r\n+186NbwTOz7vOzpoXKU67pSYOhtnqjqbxXM6OueCOqKAQTqP2TQ6y9lAOh4HFjppt406h2KnOgH5\r\nijpiKy86AwaFOmICmToWwz46o3FkOowzzDo768I5y78aOzGolzp+N486F3efOkYJmzokj4w6kFfD\r\nOokWTjqYSm46zl2pOp7ykTqsuH46ywSCOjvonzr7/FU68q5HOoYqWTr9eLM6XhaFOpef2zpsOnw6\r\nbCwyOuyfkzr3aME6H491OoZZFDp4Mas6cu13Om6hljrfg7A6JKtpOkoVwDq5Vag6KE8SOkVbLToU\r\nwro6OXOVOtTVZzpSy5I6jRiQOjr+8zrnuyY6Pr2sOpp8DTveick6S5iiOtNwZTpoYgM6TsckOtaM\r\nTzoI7qM6lWn/Ovi2DzprdIM6eqdgOh6zfzoxw3g6on5fOhdjHjoBRIM6T15iOl6HXDoKaTw6mOnM\r\nOllsljpPW7Q6X+KgOtgRJjp7PQw6wIWFOi1CzzoM5Xg67jdsOgAjfDqvi206FqhAOt4xgzqp9Zc6\r\n5laXOsrJRzqB2yo6HrmsOr7KqzpkNoY6zFiXOphgFjokAJg6te94Om382znd74U6AX9nOqzBUzrm\r\nqTc6HLiIOs7qXTqcMHk6OlJPOo7yhjqYdZo6Qh5aOr6PbzqRWFs6bnvGOoIOETpf2og6RgmgOlwP\r\nizpvtIU6tqGkOiUSADpOu106pM72OaYnDjqI0dM5D1NIOgmdjTkCr5o6KSlUOwB4MjphQdQ6sdYa\r\nOs8rrzrHsok6sxJyOm9fQTo8/U06gXbAOgTdfDqRGHE6nGXlORsWXDottoA6qwJbOgjZsTpLG8c6\r\nSTyHOqAdpjpqXYA6uyQyOkZXWTp9kaI6GJ1lOpgcpDp1MYM6+EEoOo6Yqzr0TDw64HHfOgcEoDoJ\r\nEII6AiSyOjswijrfkzs6TvUFO8OAXTqivMY6sDywOkmNuDpTkkE6xvNpOmmzODqQiUc6zYBfOsAM\r\nuTpw/4o69gSEOtQxiTr2ZGU6TrZAOooWMDoG8Y06bqpKOsYWzzo5gpE6BDCTOohknzqPcFo6Hb65\r\nOjqlmDoYPgM6PJkcOsNdhzr07IQ6zM5KOnw5jDpIziA6Af9+Oq09JzpEV486JuqBOmCTKzqChuI5\r\n8RmBOoOCgzqCuHk68RYbOrBXmTo3G2Y6mkOfOmxKoDooyJM6lE8OOu5oWjr/uWE6cVhIOtN3XTpX\r\n1Ms6791OOmiEUjqnyW06IEtlOiIHcTpKlMY6jvbiOiVYZjqgmmI6npk0OlpkaTp8dRI6oiWAOoqI\r\nSTpEZxQ6QUeLOntSNzuyOlU6pt1LOhVkUDpEL+Q5uJVuOrgL/jqJRTs6HoO+Oml4ljr5cwI6REN6\r\nOj4lqzpPULQ66oGZOga8YjrONb86/axwOsRk4zrkzWM6WhDKOsBkbzp21oU63JRDOu7emzpeIDA6\r\nWrV5Ov44KzqFUIA60jlFOjhI0jpRkmo6QruHOr1MAToyEgQ6FXqzOj7nmzpE2hs7Pf7uOpAbazqB\r\nX3k6RS20OY8zDjraxoU68t10Ost9cjpcUDE6FD+OOoQSYjqBdqA6CUSBOo4BbTpb3zE6bi7COpYK\r\nSDo9HpQ60gnNOQDyaToMRnQ6KgO9OlGbgjo/3086BhEcOrIXajrhwD465auuOrI36jnS0Do6D6UU\r\nOiDrozo3Vkw6GxidOjNJgTppoKM6s4qzOuiOyjrsdJM6LAMqOgfLVjpIdMo5AvC8OmCsHToUjCY6\r\n7D5TOhVCtzoWZPI5pSCtOvxamToevlM6HtNuOmrzTjpQqjg6BviLOlOZLDoYToI6AsATOinz+jkH\r\nyCw6HgqJOmzG+TnuV7c6ZiuzOkKp9Dln8xc4tJ1yN5xMYDfV9yY35JwiNyuWlTapDOw2QI5tNlSe\r\njzZXuac22ZxbNrhbIjab8j82nK/tNfn4JzZuWDs2ukfVNQmUCTaP+RU2KiIaNjf55DWuLDQ2ecYQ\r\nNu49BTaD3DY2udoINnvv2TUVMko1CocCNmZ+BzaOt/I19EvwOTxb3zmPBL04OnEPOUP2kTimFwI5\r\n8IPOOEtmSjkZKlk5igDXOds2ijmCieY4xoyJOVrS/jhoF085IWgmOa/ecTiklUg48vmoONytOziW\r\nMQs2gOGUOC1pnTgChqw5MRkoOgSWyDmM+kA4PqYMODrRsThNyUg5PFTfOGkiFzjAXqE45ksKOZFk\r\nuzh09uY4+f9cOA93UzcxDIw3txf7NpSwtjfxVPs3GlCyN1u8YDhlLu84oldVOL1LyjZaODY1jB2v\r\nNxGegjeO8DA1rGDRNw8Xrzg7WKA5IKQmOS7pVTarQXg2YG1aOFMFizhe/mE3kL5WNcP2WDezkcg3\r\ncQ4vN+GTkjdLWgM4LX4cN3TxOzXvUYg49txnOOaSMTUogzI1n4csODEuzzgkTYU33YmIN7ylZDiK\r\nPKM4vNOqN97AATfYwFM4LFssOU8R1zhy+o030C9LN54Q/DbGBJM3uuRhOJZxZTgJFh445zeuOGGy\r\nvzgTAyA5yOmBOI8lBzfkdl83a2rFNyq01TnUwBM6xguGOdFxBTne6OI5IVnTOWio5Dl5PRg62B4W\r\nOlp/8zmj0bQ5njugOd3lXzntRRY5P4oSOUpoeTlCgIk4Gh+dOZfDFjoVmq85XtkyOQoqlDj/Ch85\r\nz5SVOd/WKjnYvRo55amuONEGqjji3+E5ulhaOoaEAjoxMTY5vlUoNZyOEzVNyEU13+gZNSeCNTW0\r\nuZs19nhVNUH/SjWrpcc0cGVdNSTSNzUdsyo1xNLrNMZFPDXReBk1AeT+NHz0JzWW9Sk1OXY8NXp7\r\nGTVlxYk1p2YgNX0dOjW17hI13rsMNV9ZhjUE4hU1iEWINeFHZjWP1lE18Hf9NAIAVjhC+YY4za3K\r\nOUolpjnA1gM5spPnN05vlTj/z185bYrkOXzZATnF5I44gN2SOKKUxTnzYyY6ysiSOX6bwzjvkHk5\r\npztNOfvQrzg+JeE3gmr3N1yBwDjPyNg4jp61OGSnyDmqo1467rP6OYhOCzjmZ6g2rPQGOW4j1zmi\r\n4Zc5QPqTNhJvKTW+YiY16rTpNIzTPDVcTVE1ehKhNADGCTUhqbQ08NwrNausajUIug01rHwRNRjb\r\nDDU91tY0x/dFNdE/KzXXc5U1I6cWNTjzJDXQwts0PnY2NU3y5jRlljg129jmNA78pDT8vBM1sqtI\r\nNUfOSDWDyTs1shIQNXgr5zQTsho1SNsMNbBDvDQaycY0Y3ShNKBXdjWwGNk0YJIDNfT43jS1xxk1\r\n0iH8NJtViDW1XnE1Uwz2NE+/NDUcPAM1VJ7uNCAXbTUrwJU0sgQrNfKeFTW3Cgk1dKGKNNietDTr\r\nk900bVAtNVqkyTQ1E/I0qB0kNSq0DDVb3wo1toe4NCjsDTVefRo11l6jNOKWqTQr0F419e7KNPR8\r\nsDQrryI1Nc7mNHaU9zROFgM1cHvQNAgz4TQgi7U0p0cONUYERjVwwwc1IVQfNbYs1jTJcNs0VPyl\r\nNIC/pDSQ2To1eNugNH4OmzT01tE08jT7NIh7zTRUF/o0TIP/NPm6DTVTVq80AADyNA==",
                            "noiseTrainingType" : "default"
                          }
                        }
                    ],
                    "start" : 0,
                    "duration" : 241,
                    "mediaStart" : 241,
                    "mediaDuration" : 241,
                    "scalar" : 1,
                    "metadata" : {
                      "WinSubProjectDisplayName" : "",
                      "clipSpeedAttribute" : false
                    },
                    "animationTracks" : {

                    }
                  },
                  {
                    "id" : 88,
                    "_type" : "AMFile",
                    "src" : 19,
                    "trackNumber" : 1,
                    "attributes" : {
                      "ident" : "Aufn. 07-14-19_038",
                      "sampleRate" : 44100,
                      "bitDepth" : 16,
                      "gain" : 1.0,
                      "mixToMono" : true
                    },
                      "channelNumber" : "0,1",
                    "effects" : [
                        {
                          "effectName" : "NoiseReduction",
                          "category" : "categoryAudioEffects",
                          "parameters" : {
                            "denoiserAmount" : 6.88000000000001,
                            "denoiserThreshold" : 0.0,
                            "noiseProfile" : "B9yPQcuiFEEo4jFB8IdWQeQdeEEsrh9DdFW0QzOQg0IlUzdDPUVUQ3QwbUPHcDpD8trEQ2t+FkSZ\r\nzmNEC32zRAy/Z0Rj9Z1EAdOAQx7PIUL/vFNB/sPrQASsh0H4WxZB0VctQLAyfUCZ95lAGegsQPOZ\r\na0BFhhdANrf/PmPpDz+BF4E/SLP8Pgpexz4QhS4/TXTpPspkqD6IIyk+KOIWPvtVgj46uq8+Mzqj\r\nPqiSCD4pBQw+X5dlPp9VXD5ztHM+4u8hPsLy2D4dLoU+wflFP2JY9z7l0vo89IybPpW4jD739Xo+\r\nSb3uPlyHVz7lD44/MhRzP6DVkj/n1I0/AhbUPV4c6T5sdLw+d0qxPOc4fT/UeAw+L7YXPtqXtz8F\r\n/UU/eQ4hPwjX1j87vfM9nA2/PyKfpz8y6A0/pX8jP7tRHT6sWkM+LKwKPwy9JD6P3R9A4fFcQIyE\r\njkDNZBs/rKQyP1KuVz+gRjhAHD9oPwmtFT9wFak+TF43P2PYYT3lxS4+AAu6PjseUj4ysG4+CGhF\r\nPxC7ez9jY9I9ya2TPYF97j1MAwY++yH8PPAnRT1PVm08pAD7O3mUrj1bK8I8WpI5PbQlxD1oEBc+\r\nuOamPS58Ez0sBDM8CIq5PLoYgDw0WRk+/AXEPDpL1TwewO08MnKsPI+KwjwRrx09EPA9PrLTCz6R\r\nHCI8f2sTPbTPzTysBCE+FM0VPgPCQT513ng9QDd+PTVfCD01lWw92596PTQFFT2MI2A9qDImPHzp\r\nGD6wCRE9iQUuPffqMT709989RFEdPch6FD1q2Lw8bSUiPHar3z1GxYs9mYXNPXyDXz4H5qI9oU42\r\nPf4U2D1Lr+Q95AQcPgyF1z2nmGg+CJbDPWf5oT0QEcg9fwqJPCy/AT03xpY9sJt0PZcyET02Ijk9\r\nPTEVPa4jgj2TaI89AK2XPN2iFT32lKk93jmkPJ6M0Dz+BP08Sb5FPZnmZT2GyHY+EAN7PWJIjj0j\r\nWYs9uM+APaUbeD2eFjg9pOdZPnOHfD4slkM+CpfKPRahPT2tZOI90U8gPmgzmT0aevs9RSYBPmnO\r\n5zxmIIA8JtonPe93xzzGPYY8gBJhPAaxIzxGChc8nnfeO+e8BDx0V0s8P/gnPKH33Tzq8Q07rUAz\r\nO+TwTDssFAE78pcyO6JdLDvKrWc70OS6OngTIjuQqwU7l6cSO13uyToMqfc60aaTO9anWjvvTkk7\r\nZv20OyFKCDt36tE6JSDCOrLPoTsYqYg77YITO6j+nDxA8mI8iaWhPAq38TyZ9JA8NeqBPCkAoTv7\r\naYA7aHaZPDY39DtoF0M8kTmCO55aizy6e9c7IJeIO0RB/jsX0q47rtafO1xcEzswKAc7ev18O+cy\r\nKDvavRk7cDTUO8h0mzsXay47IZI3OyLKLDu66t060TU9OwZpADvLhL463rcDO6HrBTuGwbQ6uYqO\r\nOg/pgjtt/5E7mdZ5O66mBzszlYU7u05UO1VNmzu2NRg8LaaEOyWlPjxAEZo7wcKLO5ShDzyYDvQ7\r\nTkiSPNKzqTyWpNs7d0WiO2cQZTxQWS87MIvxO7sKiTvykNM7irMmPCj9yDsr/ZA7UCV+O8JySDuV\r\nt4g7lCZcO+4Gfzv2UJE6os/QOo/EBjtkZQY7V/kbOz/ZYjp6OJw69Ra+OjyrHzu2CLg7TtP4OmQG\r\n/jpPIks7LTovOwankzofZKM61rAnO7WsWjvFobU6xKOoOq/1NDtd1Oo6VX68OrGfCjsNjzU8tq3l\r\nO140JjsMJyw72EQ3O3DA2Tt+WkY7TzguO4A4DDyqaTk8SK6FO/EisTujjyU73A+TOyuA/juTYDs8\r\npsnyOsy+kztqSpI71ifuOwwXMzti7vU6kivVOvQpNTvJUvk6ZvQSO3rBeDudUqo6vfjBOvipkzrR\r\nAdk60VAiO/XpqjrZoSs7wI4vO28H0joGaM46gFTlOvjusDoUtt07K0m0O6L0QjvaaUM797ogO1/h\r\nMTsZbdY68r0yOrZ/Gztyq+w71fJHPMdgijt0WXc7wwv3Om4/AzuIp3o7KF76OxROEjuGBaE7WiTT\r\nOydQkDsaMQs72viQO9WMiTolmdQ6vFYtO+uTXjuGnas6fpV0Oi/n5zre2sk6i28RO5HiIjpmiGA6\r\nmJlhOu1IqjpSO4U7atuEO/mZjTqZ2Ws6EKubO9X8LDu+KXo8OtxKO7j1ITsEKEw6Ap4NO0+ZIDuA\r\nZS47TpEBPOpbYjujnuc7C1zROiSzkTvUP4A7VNNQO0bpXzqjmyw6D7qGOhSLrTrAHYU6bPTpOcf5\r\nCzrhRQo7uVwaO5Q5OTrUfZM6qTgvOvguuzrm//Q59DifOo6hLjrHPjI6iq81OvDNHzq2MBA6pBoE\r\nOrnvEDoT/iA6+FfvOSe/yznw1TQ606WCOtCHCzqEGNY6eDflOSRhTDpOz/M5xEgKOkq9FDoCmGU6\r\n83FZOmrvWDpiWS46UumJOpJ4TDrLVcY5fkzROdIX+zkuhxU6Nne4OezeDzo+tCk6Mv/OORTYIzod\r\n2TA6vsrqORK8QTooYsc53iruOUc+3jlqUig6s8wnOjqbCzosRBs6BhvjORo1MTpUQAQ6eTA7Oupq\r\npTlyei06ZurjOeT5yzkJh+c59gzHOZQxezqF9NU5xBbiOUvB5DkpU8Q5rI8LOvTLGjov0L85eLrf\r\nOa9tyjkEmb05k5kTOtKoHzpzrLk5ppX1OQ0ivjlCcKM6uqo8OjIL1znAuwE61lESOpIMpjmgMNk5\r\nEACtOV7Z9DnLZsk5MhLTORhM2jkpeAA6PVGxOU6/4jmdcw06B774OfnMLDrVGQ06GqjdOcaTuTnE\r\nsIk5/6WTObxQ+Tl7eEA6L4QTOnz+vDmeT685hQptOrU+hzqyfsE5aGP9ORx9BTpS+N859/LvOXTZ\r\nJzoLC/I58SkbOmazzDnCK6c63G8oOg55yDksKrQ5bmmUOnpl5jmcMIU68jqtOQDrgjoGu+w5BkzT\r\nOVNZGToqlEY6e+uVOT+A0jnHG+45dnPdOXR5pDkI1a85/iegOTEsAzomlKw5qODpOY6LEjpzGkU6\r\nVFHWOWbjsDqWYKs56lYHOtYecTr75RI6ayohOptFBjoUmM05Vn67OXejyTmbEcM6xL5xOu5Yijn4\r\n5J450ZYsOr5JOToJcc05PsjuORF4pjng0sY5gLEbOtrXnzkjuP45jsshOoQJ7Tmp69g538YeOoFJ\r\nMTpRa4I6SIXuOf4pCjqYH705lFKlOk4s0DnEXww6hMgQOjHclzkm8/g5avwgOs/HNDroaJ05PCJh\r\nOgzC5zkQXYw5lTG+OmjELzpOUxw6BguXOYxNsjlLcL05oEigOZgC6DmmZZs5Fm/hOVtgADrW1ew5\r\n3GNuORuTxDmJnhw6yqTiOXVirjlflYU5coASOsaykjmYmSU6YRKzOR74yzljvZg5/jDLORDmtDnh\r\nSkM69v+oOfgaljmgVJo5flOaOWB9iDlVI5Q52qtuOgfLrDlVxJI58/KNOZWLkDphM4M5o1/yOcJy\r\nbzn31u85vFu7Oa0zzTlAUG05CqPPOVBi9jlaCME5QpeNORCI/zms4Ac5+qP6OVahujnnkQ05gNG+\r\nOW72jTnwAoo58sGMORMXizmi+I851IaEObaOhzlzYY45OjmGORyKgzmUZ4Y5znaHOT84izlHRoc5\r\ndN+GObYdkjmIPIw5tRuNObO1hDkJ1I85r+yHOVJqijk0AIY5TgKHOWx6fTklI4A5FYyEOcvzhjm6\r\nYX05wy+COVEVjDku4Hk52xiGOYWThzkjPIA5NIKCOVlWmTkPiYQ5fVx/OfvOgjnW/Is5GT6OOXbn\r\nfjlSoIM5uOhqOSGlbDnjhYQ5Wo37OeQ90zmlhYE5U0l4OfpggzljCYM5x3a1OZKWFjpydnw59TWx\r\nOYzvrDk/34A55KYjOkaTqzl2IpQ5/+iJOcfeajlsDPU5T0WBOaSI2Dl06XA5vc6AOVRgbTmCsHo5\r\nHgB4OS32gjmEcnY5ueF9ORcScDnW+2o53tduOW3HcDl8k3E5XhZ9OUwAeTmkj4E5dKlpOchOgjna\r\nWGw5+MR6OS2dbDmdrXo5PEJyOX8Ubzn2hno5gP52OeQoaDkpvmg5JlVrObEpcjkrtms5FGVjOZZY\r\neTkHOGU5hSVjOXX/bDkcXGc5HAFkOf3iYzkHyW45/CJ+OS53ajkrVnw5zd9oOSHbYzk1cmQ5m6Np\r\nObfOXjnvMmM5l/VsOUcqXzmI4Wg5XnVoOTJdaTk5g1s5u3leOfqzajlZu2o5lbleOWlMcDm+0FQ5\r\n3ARnOaidXTnGsmU5vhlnOTVRXjmqCW05PyZfObBqWzk9gWU5Kp1aOSRrZTmfyVk5MwhYOV7KZTma\r\nklM5bXJpOchqaDnSl1w5h0NiOfEBXTnBLV85CMBPOa3ncjkNm2Q5bddWOeb2Wjl10Bg65C1jOdM8\r\nVzly5mQ5XW1XOeIxUzlqPFk5NB1eOeN3UTl12lw5pr1mOXkkaDlNjFw50CNgOUcWXTm4z245pEdT\r\nORtsTTnov1g5MN5VOezNWTl1flw58CBYOdCIXDlSGmQ5I4VgOWvXUTk4bmE5Fh1dOV0wYzllJkw5\r\nYh9ZORpjUzkBt2E5u0pSOY6QnTlJq1Q5I8BDOYdVUjmhYFI5MDllOVDiZzkH+mI5dqxfOcJgRDmf\r\nxk85CydROQr/WjlgXk85B2VTOemhSzlWyU85oxhSOZrFUjkKS2A51ZNcOQYXUjlrgWc5e2ZJORjn\r\nTzmaPlE5Ar9XOYAtQjli+k05cbhKOSAQUzlQQFY5lb1JORSZTjmzaEs5W+NNOZg9YTkJ7UE58W5R\r\nOQSSVTmMMVU5461eOXTOVDlhM1U53S1TObLiUDnSF1Y5hWNZOVAYUDmXbUg5xLlVOSEAWjkm1lA5\r\nzw9iOTywSDnuQEU5yaVLORVXTTnnukI5SBVPOZGyUDk6Z0w5JxlOOfIuVDnTW085b+1OOWENRDmR\r\nZEk55lJHOSQCTTmQtlQ5sUlcOZGzRDmKcUk57npROTW2Tzm/hmE5aBBYOY7rTjllR0g57mBcOdW1\r\nTTmGSl85p8tDOeNnVDmDKj05UGxGOQOQTjlsDUA5mPxDORqDTTmztE85y+tDOYwMVzkTMlI52TxE\r\nOdidTjmyeks5+OxYOQvBUTlZG2I5TolPOXLsWjkXXjM5XO1POfCtUTnHMUI5qMlEOXPdOjn3SlI5\r\nsTBTORTGQzm6HEw5zHtUOYOQRjm0i0M5AF1AOf8CVTl0CFM5sSNHOZGyUTlYyVE5YUpOOXJaQDmd\r\nF0458OdFOb0dWTmtYkk5CAJKOUpnWTktcT054/RFOXNjUzlj/Ec5vj5UOQ1YQTl780c5S0tHOdT2\r\nTznLNVE5XZM2OZXhUDnhp1A5fR1LOQKkWjlPyzw5et1AOewbSDlkiUs514xFOXPlSjm2pkU5nYFW\r\nOaRdUTnyaEg5R6RIOepkSDkGkjo5MndUOT/dVTm0dkI5b5FGOZwNVjm5Mlc53Ok+OUBWXDmpawU9\r\np4p+OqUKFjrEq2M6qHWfOvqQPjrXtJU6s8nfOsfBrzoCVVs6IEpROqMWgjogO5g6gwXHOubCVzrr\r\nGKo6I2WjOg4OWzqBaoU6F5FCOiXrEDqQu206nn2bOhxPITpntxE6PumjOjpb1zo8zTo68ITGOUCZ\r\nVTqy/iM6vqc5OpJoojoMsT06p5feOSohBDuvnoU6zqsJOvvccjpw/jo6njWlOoxyKTpeuSQ6+G6t\r\nOmW7LzpBtaI6oBQVO8x3LjqUvog66pSjOp0Iqjp0xmk65Vs0OkqG9Dmocig6TfSVOunfhTohEVY6\r\n9RKxOsHuAjuKm4U617w6Ok5oUzqTHbY5UymQOjTxijo7cCo6KKt+OqC+MDpzAsg6tEmBOpKnbjoG\r\nW7U6jZN/Ou/fgDprlcw6LQPiOZc4WDqFBpg6LJgxOqzRuTqsLf06JKp/Oo+YizpETo06x2aIOhi8\r\ngDpX+aY6NNOjOo+C8zn/Eko6xp4YOovkSTrpbpY6UnpTOnRT7DrB/XE6zdi7OufmDTqndYE6ipP7\r\nOelgrTozRZk6FlLROraH+jmMVgs6tJt9OlVOeDo2iTI6QCtCOvfDcjreels6gYY6OpIohjoc/606\r\n2Zy6OUpT3jkQw6E67XaaOggvjDpKN1c60jqMOrRDOzoCPqM6RNMnOpWSCjrVJqU6bLMQOhglRjsC\r\nGnw6poeiOvPXyTpPeNQ66UalOoP4kzqHdws7Q1ceOinfAzv6Rok6aY+JOvHtZjoA6AY6zLPbOk9G\r\nFjoYq2M6/OrdOqH9eDr+dhw7mbUuOs6RYjpweDo6qBEjOmH4RzsYv0E6TL2aOlqLiTqmezo6dxd+\r\nOvzehzrYD0Q6rg4kO4i4ozpDV3U6fsDQOjiOFTrqXMw6nUypOqkqzTqcXas6MN0DOjakgTpJeMw6\r\nOxy3OlKWrzr5C/g6l7XgOkJdIDpVj5o6tghoOmwwEzqoK4c6AS8vOvYOUTpI7XE6sIKDOmgCRToG\r\narI6mz5EOo0l3jrFkjY6gHNkOtpDhTp9z4s6h8sVOppaPzqlh0g6ILANOkl58zn3QVc6inKROiCB\r\nbzomLJ06UiaIOnyYjTqmro46hityOvZ8QTq0xhM7ly8xOlLhtzrSM1s6YOJaOs6bqDpEDXM6kjSG\r\nOpIboDoIJrg6M7fwOrDaCjscXHE6CGaaOnuF2TpEm0w6bhS0OtACdjrXFok6Sq16Oo9Krjph5wo7\r\nQdhrOgDUVTolQQw6dxANOuDAcDqoWb46sGOiOuj7UTq3ODQ6diWlOsrbezpWzuI6n5eoOsBHcDry\r\n0sc6kOfYOpVUxjq0DSg6c2d1OtdKWDrCHQU6crNpOmgLfjo7jRo6SSvBOisCxjoBzLs6ym7wOiHR\r\njzoVTps6O9XOOgwiYDqnT2Y6+3ONOj3aZjpqQFc609KaOh7DKzrwUvI644FkOuWrEDoxTUs6mKsf\r\nOuyugzqyYLs6tMk6OoTeCTqdtIY6AEAEOjaKejovRjM6FnUIOxRFHjpM02s6x6fPOvHRazoYdUg6\r\nVReuOspteDrSUIM6R38rO9LQZDo5LKM6YFGvOpRybTp0wz8605VYOrpSbDoFz4I6Gi2XOlMaqjpX\r\nqsI694SkOgFPjzpGs1I6pXQBOwLhCjos8Z86mNyeOlT7jjr+ISY6V2I5OqaVNzq0VEY6J9RNOvnV\r\nmjrulds5cwAzOvopXzq5GOc6mm21Oi+nQToTjA86SVNsOvgQgjomWbw6HxzJOc1bNDolCTc67tpH\r\nOrJe5Tp8B1g6WmWpOgCFizpuFpM6fjC3Om4I9Tp2C+06GpPmOm6UxTqqejU6GGo5OofOkzoErb86\r\nRQRFOsaghzpY4rU6sOWNOkq3EDq7oiI6cOw3OlkmlTpAevA62DBVOqECADoCFIQ6zs20OsGYiTp+\r\neKE65epBOnGfNjpH+Oc6R7dWOi9OBTqbjPc6zOYfOmCECzuTvl86mfLQOoPsjDpZN4M6PnMiOmQj\r\nnzpBvbI6CuFDOmOCQjrU2K86WtexOrgqkzolImE6T7KBOuis7jmZDEI6zSZiOvnGujqMlYU6uekD\r\nOpP7ezrAKME67geiOmNvXjpAx7E5lByZOiaUqDqiYWg6AicoOjaHiDp1ix06M7fWOQbPazo5UmQ6\r\nks5yOvMGHDroDF46WrqrOq+6ODr+87Y6VDHUOqhUSToDJmQ6RAqmOlzp5DrPbD06TImXOgRBZzqo\r\nd7E6rQZiOmTGqzrok4g6MqvHOm9qizpt4L86h+7+OuSaVjoFG5o6XgqbOrFnezqHgjg61Ol0Oq/n\r\nvzoUU5k6c2N8OnJIpzo9mhw62zezOllxdDoiAFw6HYrnOoioGzpB/u0551m/OlJzPzpW98A6/ZPb\r\nOizQYDoJSXE6U45sOlIMbDqHEbo6ARimOSgY4TqnLpc6RyyjOk+6Gjry+486e0CAOo+iXjrvG4c6\r\nPQvOOn5mBDtwi3M667XDOkr5WzoY8cA6vx8rOmrbdzrrSlo6I/uBOpCuZzoq+MM6TEf7Oc0hkTpq\r\nnvg51N3mOlt/gjpYnEA6jYsHOr+8vzqxcDs61oK/OhlHPjpgzp06zUOkOQ8ZEDsHTEo6I/+FOvEY\r\ngjpZGY46QdJrOqVriToaGX06zBHROZ7xQjpC6kE6+K7NOppzrzphkiQ6cqbSOuCVkDpa+AE6nM09\r\nOszznzpY1zU6jtZCOim8ijo+0Cc6tehwOhmgOzpgXag6xCViOjQboTqcwpE6LnWQOhA+VzotyJk6\r\nDsHCOt+RITprRZs6cH50Ogx2azoz7no6jhXROlFejzrAI4Y6UsBAOuoNdzpJJmw60BnAOvYsRDpH\r\nEZY6TjJSOk2CAzqCLL86/KtLOmLVzjpFqFs6PvMNOhlvgTqtckc6bYA5Ots0sTqpnE46UydQOiB6\r\n2zpEOns6dMw1OvAdJjrCAXE6tNZVOhKUOTov2dk5j0CIOgd2sToCMh46NliaOtXOgTq3HoE6ffJR\r\nOoSXyDqhwWs6ReGFOoDhQTp2C5w6LsTfOli+PjqttaE6dYCOOmKiajqk+U0665mbOpOjuDryRGc6\r\n5cqEOriVRjp+gC86uEAvOtVQhDpYX3M6aeJWOqxpUTrAvuM6u4FPOg/IdzocfGQ6/XiQOpyXvzrK\r\n9XE6RoCROj6FRjoI/yo6XqBqOkHUCzpNUas69QQiOnPkijpSo5w6QZ4OOpS2NjrCPUA6aKdQOoYD\r\neDq6pxk6HuYDOrSkQTp8RSA6asyOOiXsnTrt+5A6VOLROqpTVzq2KSo6bIx3Oi5xYzqqR/Y573Qr\r\nOjDGuTq+I2g6mI5lOhYw3jrtLYw6cstROuTAkzqT52c6rCZyOiWgWzrjyXE6+meFOpFG/DpCSYs6\r\nFi46OoqqrzrCt4U6E9+oOjN4mTogCI86UC+IOkIk/TkMlIw6giorOpuEHzrDsis6b7s1OmkSgDrX\r\n/1U6esj/OtZ3gjoUX446SKuFOgVnSzqIxQ47cR6tOXOtPjr4Clg6CWhhOk99jjp6DCg6cmsSOuKR\r\najqXLmw6knv0Ovr3PjpLNYw631R1Oo5/TTqaYqg66orBOo02tjosx4U6inxMOgEJlDq+rXg6Yc23\r\nOisXgjqPUc45gcAEOrmuTTqryG06WLjwOUg5YjpgFFI6WEvNOmH+JjoweEY6+SN2OlqsWzomiZE6\r\nBneBOtT7iDrEhyE61KeJOoy1Gjvtvck6wKgjOj/RNDpR82U6AaFSOjr6fzqrPoI68A7uOn2LijpX\r\nPLc6LKreOrK6LzqNKUw6d5A3OqDP3Dm4R5A4xk3kObkLOTpwBNE5EkbiONyIxzh07zY5XKCfONza\r\njzhMuI05n0x+OZaOIjo7kKM5ZQNUOfjN0Tirpos3WrW3OI1vGjnE2og5VcynOVaH/zeRyG45SaLB\r\nOE4WwDj2x4E6+bRLOrg1eznYz+I4W0tBOZxrTzl/qB06aVH+Ob1qmDjeUdw2hmzjNjPaaziy6Ew5\r\nZG1JOUGL8DWDWqI1iTUXOKJHaDlAYKs5HarSOMnkqzhyDGU1ZMWcNfSxXzWzzxo5vbvfOCGRqDmU\r\ntpA5E5fIOEYMBzmyVV45EDRZOWVqOziUMcM1Uj/ROXL1Izr9TRE68qqTOR1CLTkbwRA5JOyQNRxc\r\nNDWj6JY1jOGsNZCcYDXR1X41+mY3NXzhtDXMKwg1ps4rNaVITzWhkF01xPx5NYipMDVaLxQ1cqEM\r\nNVJ4pzVcQVo1bRqPNfNS7zUYARc16p5aNbDYTTXXpNY02N62NR/4VTVUekk1+oZWNY2H+DSVSWc1\r\nwvlmNVTu8DYhJRE4VzCjOBcGQznTvZo5kYKtOXuBnTkr/hE5Dsv5OHCcAjqE+9s5v0mYOEyIsDmJ\r\nJps5kp6KOLW7CzlFg305ERKnOVHUHjmPGgk43cOyOaMpMDmSWgs5Jtv2OYpe8znIKKk5OOpAOPZO\r\npzgWKm85ysb5OYyVDTria585kEuZOYyZfDl4frw5CEWQOXIv6DggAko4jLiFOBZpiDhMdJw4ROVL\r\nOBUzhDg84rA4TTpCOJ9S2ThLRDg5I36ZOabxozk0III6gROJOi60/DlsdJM4dyVGOGy6fzidkAg4\r\nmhTuN14ZyTcg/ko5OHucObWGkznLOrI5aAnEOW7iLDk8IHY4059FOYR1CjlKBG44RgR9N5u+EzaQ\r\n4ho4EcHEOKAptjh4Kto4ANjaOKiOiDiwLsU4bfWVOQgVrzkT4885fVoUOX7jHDin5KI4RrmFOKAH\r\nlDdHMIo5oq8DOk+6jDlUuig5vlq/OdowOTp1gTo6svjTOVcM0TlQuqI55sYXOeCPdTWBYFc1iD1A\r\nNU2QUTX86vo05uIhNZwoNzWoICE1oIQlNVw/9DS6mr80ev4lNcfWsjQ4cbM0zu0/NRsHMjVx7xQ1\r\n3fVGNfLEAzUmsG81dPMfNQyplTTT3ns11No3Nc4DDTWLpzo1v9whNW21TDWgwzw16wFQNZ5AyzQf\r\nbzA1JtAgNT4WMzVAPA81nAagNK4A3DQf2BY1gEvGNLeaPjVqzzg1aFNGNZMqGzXb59I0l0z8NDg5\r\nJDUsPo41cJkRNXI49TRRpAs1aaUNNTXsCjVgZgs1lQorNTzGxzR0s/Q0KB9/NRrTHTUnbjE1K40+\r\nNcDBCTVeNUg1L3zRNLp8XDXrwyA1YQgCNUDTEjVZ1Cc1pMkWNU1KujRL/DM1LLIWNbVk/zSgGgo1\r\nto9dNZs8YjVUgNM0iNo4NRAsZzWG2E41ehMnNWbCADWnevk0aJoqNapOHDWa03Q1fmS2NGM3LTXf\r\nvIw0Fl1XNX5eNTVBim01zdIaNbVWfTVoWRw1iNApNSrOFTUWsS81/xIENdkcDDXt3g0117cYNd66\r\n2TT5ZjI1znD0NLmodjUwZu00u8AINWyNJTUbBTE1tDo4NZLjsDRqVLI0mac7NeYUCDUTUEU1KsIs\r\nNdhjEzVaFMU05tf1NCo12jRnz8w0JNMSNVmj1jTrUkI1sBdUNexDNTWSzQM1AACiNQ==",
                            "noiseTrainingType" : "default"
                          }
                        }
                    ],
                    "start" : 241,
                    "duration" : 706,
                    "mediaStart" : 12,
                    "mediaDuration" : 706,
                    "scalar" : 1,
                    "metadata" : {
                      "WinSubProjectDisplayName" : "",
                      "clipSpeedAttribute" : false
                    },
                    "animationTracks" : {

                    }
                  },
                  {
                    "id" : 89,
                    "_type" : "AMFile",
                    "src" : 19,
                    "trackNumber" : 1,
                    "attributes" : {
                      "ident" : "Aufn. 07-14-19_038",
                      "sampleRate" : 44100,
                      "bitDepth" : 16,
                      "gain" : 1.0,
                      "mixToMono" : true
                    },
                      "channelNumber" : "0,1",
                    "effects" : [
                        {
                          "effectName" : "NoiseReduction",
                          "category" : "categoryAudioEffects",
                          "parameters" : {
                            "denoiserAmount" : 6.88000000000001,
                            "denoiserThreshold" : 0.0,
                            "noiseProfile" : "B9yPQcuiFEEo4jFB8IdWQeQdeEEsrh9DdFW0QzOQg0IlUzdDPUVUQ3QwbUPHcDpD8trEQ2t+FkSZ\r\nzmNEC32zRAy/Z0Rj9Z1EAdOAQx7PIUL/vFNB/sPrQASsh0H4WxZB0VctQLAyfUCZ95lAGegsQPOZ\r\na0BFhhdANrf/PmPpDz+BF4E/SLP8Pgpexz4QhS4/TXTpPspkqD6IIyk+KOIWPvtVgj46uq8+Mzqj\r\nPqiSCD4pBQw+X5dlPp9VXD5ztHM+4u8hPsLy2D4dLoU+wflFP2JY9z7l0vo89IybPpW4jD739Xo+\r\nSb3uPlyHVz7lD44/MhRzP6DVkj/n1I0/AhbUPV4c6T5sdLw+d0qxPOc4fT/UeAw+L7YXPtqXtz8F\r\n/UU/eQ4hPwjX1j87vfM9nA2/PyKfpz8y6A0/pX8jP7tRHT6sWkM+LKwKPwy9JD6P3R9A4fFcQIyE\r\njkDNZBs/rKQyP1KuVz+gRjhAHD9oPwmtFT9wFak+TF43P2PYYT3lxS4+AAu6PjseUj4ysG4+CGhF\r\nPxC7ez9jY9I9ya2TPYF97j1MAwY++yH8PPAnRT1PVm08pAD7O3mUrj1bK8I8WpI5PbQlxD1oEBc+\r\nuOamPS58Ez0sBDM8CIq5PLoYgDw0WRk+/AXEPDpL1TwewO08MnKsPI+KwjwRrx09EPA9PrLTCz6R\r\nHCI8f2sTPbTPzTysBCE+FM0VPgPCQT513ng9QDd+PTVfCD01lWw92596PTQFFT2MI2A9qDImPHzp\r\nGD6wCRE9iQUuPffqMT709989RFEdPch6FD1q2Lw8bSUiPHar3z1GxYs9mYXNPXyDXz4H5qI9oU42\r\nPf4U2D1Lr+Q95AQcPgyF1z2nmGg+CJbDPWf5oT0QEcg9fwqJPCy/AT03xpY9sJt0PZcyET02Ijk9\r\nPTEVPa4jgj2TaI89AK2XPN2iFT32lKk93jmkPJ6M0Dz+BP08Sb5FPZnmZT2GyHY+EAN7PWJIjj0j\r\nWYs9uM+APaUbeD2eFjg9pOdZPnOHfD4slkM+CpfKPRahPT2tZOI90U8gPmgzmT0aevs9RSYBPmnO\r\n5zxmIIA8JtonPe93xzzGPYY8gBJhPAaxIzxGChc8nnfeO+e8BDx0V0s8P/gnPKH33Tzq8Q07rUAz\r\nO+TwTDssFAE78pcyO6JdLDvKrWc70OS6OngTIjuQqwU7l6cSO13uyToMqfc60aaTO9anWjvvTkk7\r\nZv20OyFKCDt36tE6JSDCOrLPoTsYqYg77YITO6j+nDxA8mI8iaWhPAq38TyZ9JA8NeqBPCkAoTv7\r\naYA7aHaZPDY39DtoF0M8kTmCO55aizy6e9c7IJeIO0RB/jsX0q47rtafO1xcEzswKAc7ev18O+cy\r\nKDvavRk7cDTUO8h0mzsXay47IZI3OyLKLDu66t060TU9OwZpADvLhL463rcDO6HrBTuGwbQ6uYqO\r\nOg/pgjtt/5E7mdZ5O66mBzszlYU7u05UO1VNmzu2NRg8LaaEOyWlPjxAEZo7wcKLO5ShDzyYDvQ7\r\nTkiSPNKzqTyWpNs7d0WiO2cQZTxQWS87MIvxO7sKiTvykNM7irMmPCj9yDsr/ZA7UCV+O8JySDuV\r\nt4g7lCZcO+4Gfzv2UJE6os/QOo/EBjtkZQY7V/kbOz/ZYjp6OJw69Ra+OjyrHzu2CLg7TtP4OmQG\r\n/jpPIks7LTovOwankzofZKM61rAnO7WsWjvFobU6xKOoOq/1NDtd1Oo6VX68OrGfCjsNjzU8tq3l\r\nO140JjsMJyw72EQ3O3DA2Tt+WkY7TzguO4A4DDyqaTk8SK6FO/EisTujjyU73A+TOyuA/juTYDs8\r\npsnyOsy+kztqSpI71ifuOwwXMzti7vU6kivVOvQpNTvJUvk6ZvQSO3rBeDudUqo6vfjBOvipkzrR\r\nAdk60VAiO/XpqjrZoSs7wI4vO28H0joGaM46gFTlOvjusDoUtt07K0m0O6L0QjvaaUM797ogO1/h\r\nMTsZbdY68r0yOrZ/Gztyq+w71fJHPMdgijt0WXc7wwv3Om4/AzuIp3o7KF76OxROEjuGBaE7WiTT\r\nOydQkDsaMQs72viQO9WMiTolmdQ6vFYtO+uTXjuGnas6fpV0Oi/n5zre2sk6i28RO5HiIjpmiGA6\r\nmJlhOu1IqjpSO4U7atuEO/mZjTqZ2Ws6EKubO9X8LDu+KXo8OtxKO7j1ITsEKEw6Ap4NO0+ZIDuA\r\nZS47TpEBPOpbYjujnuc7C1zROiSzkTvUP4A7VNNQO0bpXzqjmyw6D7qGOhSLrTrAHYU6bPTpOcf5\r\nCzrhRQo7uVwaO5Q5OTrUfZM6qTgvOvguuzrm//Q59DifOo6hLjrHPjI6iq81OvDNHzq2MBA6pBoE\r\nOrnvEDoT/iA6+FfvOSe/yznw1TQ606WCOtCHCzqEGNY6eDflOSRhTDpOz/M5xEgKOkq9FDoCmGU6\r\n83FZOmrvWDpiWS46UumJOpJ4TDrLVcY5fkzROdIX+zkuhxU6Nne4OezeDzo+tCk6Mv/OORTYIzod\r\n2TA6vsrqORK8QTooYsc53iruOUc+3jlqUig6s8wnOjqbCzosRBs6BhvjORo1MTpUQAQ6eTA7Oupq\r\npTlyei06ZurjOeT5yzkJh+c59gzHOZQxezqF9NU5xBbiOUvB5DkpU8Q5rI8LOvTLGjov0L85eLrf\r\nOa9tyjkEmb05k5kTOtKoHzpzrLk5ppX1OQ0ivjlCcKM6uqo8OjIL1znAuwE61lESOpIMpjmgMNk5\r\nEACtOV7Z9DnLZsk5MhLTORhM2jkpeAA6PVGxOU6/4jmdcw06B774OfnMLDrVGQ06GqjdOcaTuTnE\r\nsIk5/6WTObxQ+Tl7eEA6L4QTOnz+vDmeT685hQptOrU+hzqyfsE5aGP9ORx9BTpS+N859/LvOXTZ\r\nJzoLC/I58SkbOmazzDnCK6c63G8oOg55yDksKrQ5bmmUOnpl5jmcMIU68jqtOQDrgjoGu+w5BkzT\r\nOVNZGToqlEY6e+uVOT+A0jnHG+45dnPdOXR5pDkI1a85/iegOTEsAzomlKw5qODpOY6LEjpzGkU6\r\nVFHWOWbjsDqWYKs56lYHOtYecTr75RI6ayohOptFBjoUmM05Vn67OXejyTmbEcM6xL5xOu5Yijn4\r\n5J450ZYsOr5JOToJcc05PsjuORF4pjng0sY5gLEbOtrXnzkjuP45jsshOoQJ7Tmp69g538YeOoFJ\r\nMTpRa4I6SIXuOf4pCjqYH705lFKlOk4s0DnEXww6hMgQOjHclzkm8/g5avwgOs/HNDroaJ05PCJh\r\nOgzC5zkQXYw5lTG+OmjELzpOUxw6BguXOYxNsjlLcL05oEigOZgC6DmmZZs5Fm/hOVtgADrW1ew5\r\n3GNuORuTxDmJnhw6yqTiOXVirjlflYU5coASOsaykjmYmSU6YRKzOR74yzljvZg5/jDLORDmtDnh\r\nSkM69v+oOfgaljmgVJo5flOaOWB9iDlVI5Q52qtuOgfLrDlVxJI58/KNOZWLkDphM4M5o1/yOcJy\r\nbzn31u85vFu7Oa0zzTlAUG05CqPPOVBi9jlaCME5QpeNORCI/zms4Ac5+qP6OVahujnnkQ05gNG+\r\nOW72jTnwAoo58sGMORMXizmi+I851IaEObaOhzlzYY45OjmGORyKgzmUZ4Y5znaHOT84izlHRoc5\r\ndN+GObYdkjmIPIw5tRuNObO1hDkJ1I85r+yHOVJqijk0AIY5TgKHOWx6fTklI4A5FYyEOcvzhjm6\r\nYX05wy+COVEVjDku4Hk52xiGOYWThzkjPIA5NIKCOVlWmTkPiYQ5fVx/OfvOgjnW/Is5GT6OOXbn\r\nfjlSoIM5uOhqOSGlbDnjhYQ5Wo37OeQ90zmlhYE5U0l4OfpggzljCYM5x3a1OZKWFjpydnw59TWx\r\nOYzvrDk/34A55KYjOkaTqzl2IpQ5/+iJOcfeajlsDPU5T0WBOaSI2Dl06XA5vc6AOVRgbTmCsHo5\r\nHgB4OS32gjmEcnY5ueF9ORcScDnW+2o53tduOW3HcDl8k3E5XhZ9OUwAeTmkj4E5dKlpOchOgjna\r\nWGw5+MR6OS2dbDmdrXo5PEJyOX8Ubzn2hno5gP52OeQoaDkpvmg5JlVrObEpcjkrtms5FGVjOZZY\r\neTkHOGU5hSVjOXX/bDkcXGc5HAFkOf3iYzkHyW45/CJ+OS53ajkrVnw5zd9oOSHbYzk1cmQ5m6Np\r\nObfOXjnvMmM5l/VsOUcqXzmI4Wg5XnVoOTJdaTk5g1s5u3leOfqzajlZu2o5lbleOWlMcDm+0FQ5\r\n3ARnOaidXTnGsmU5vhlnOTVRXjmqCW05PyZfObBqWzk9gWU5Kp1aOSRrZTmfyVk5MwhYOV7KZTma\r\nklM5bXJpOchqaDnSl1w5h0NiOfEBXTnBLV85CMBPOa3ncjkNm2Q5bddWOeb2Wjl10Bg65C1jOdM8\r\nVzly5mQ5XW1XOeIxUzlqPFk5NB1eOeN3UTl12lw5pr1mOXkkaDlNjFw50CNgOUcWXTm4z245pEdT\r\nORtsTTnov1g5MN5VOezNWTl1flw58CBYOdCIXDlSGmQ5I4VgOWvXUTk4bmE5Fh1dOV0wYzllJkw5\r\nYh9ZORpjUzkBt2E5u0pSOY6QnTlJq1Q5I8BDOYdVUjmhYFI5MDllOVDiZzkH+mI5dqxfOcJgRDmf\r\nxk85CydROQr/WjlgXk85B2VTOemhSzlWyU85oxhSOZrFUjkKS2A51ZNcOQYXUjlrgWc5e2ZJORjn\r\nTzmaPlE5Ar9XOYAtQjli+k05cbhKOSAQUzlQQFY5lb1JORSZTjmzaEs5W+NNOZg9YTkJ7UE58W5R\r\nOQSSVTmMMVU5461eOXTOVDlhM1U53S1TObLiUDnSF1Y5hWNZOVAYUDmXbUg5xLlVOSEAWjkm1lA5\r\nzw9iOTywSDnuQEU5yaVLORVXTTnnukI5SBVPOZGyUDk6Z0w5JxlOOfIuVDnTW085b+1OOWENRDmR\r\nZEk55lJHOSQCTTmQtlQ5sUlcOZGzRDmKcUk57npROTW2Tzm/hmE5aBBYOY7rTjllR0g57mBcOdW1\r\nTTmGSl85p8tDOeNnVDmDKj05UGxGOQOQTjlsDUA5mPxDORqDTTmztE85y+tDOYwMVzkTMlI52TxE\r\nOdidTjmyeks5+OxYOQvBUTlZG2I5TolPOXLsWjkXXjM5XO1POfCtUTnHMUI5qMlEOXPdOjn3SlI5\r\nsTBTORTGQzm6HEw5zHtUOYOQRjm0i0M5AF1AOf8CVTl0CFM5sSNHOZGyUTlYyVE5YUpOOXJaQDmd\r\nF0458OdFOb0dWTmtYkk5CAJKOUpnWTktcT054/RFOXNjUzlj/Ec5vj5UOQ1YQTl780c5S0tHOdT2\r\nTznLNVE5XZM2OZXhUDnhp1A5fR1LOQKkWjlPyzw5et1AOewbSDlkiUs514xFOXPlSjm2pkU5nYFW\r\nOaRdUTnyaEg5R6RIOepkSDkGkjo5MndUOT/dVTm0dkI5b5FGOZwNVjm5Mlc53Ok+OUBWXDmpawU9\r\np4p+OqUKFjrEq2M6qHWfOvqQPjrXtJU6s8nfOsfBrzoCVVs6IEpROqMWgjogO5g6gwXHOubCVzrr\r\nGKo6I2WjOg4OWzqBaoU6F5FCOiXrEDqQu206nn2bOhxPITpntxE6PumjOjpb1zo8zTo68ITGOUCZ\r\nVTqy/iM6vqc5OpJoojoMsT06p5feOSohBDuvnoU6zqsJOvvccjpw/jo6njWlOoxyKTpeuSQ6+G6t\r\nOmW7LzpBtaI6oBQVO8x3LjqUvog66pSjOp0Iqjp0xmk65Vs0OkqG9Dmocig6TfSVOunfhTohEVY6\r\n9RKxOsHuAjuKm4U617w6Ok5oUzqTHbY5UymQOjTxijo7cCo6KKt+OqC+MDpzAsg6tEmBOpKnbjoG\r\nW7U6jZN/Ou/fgDprlcw6LQPiOZc4WDqFBpg6LJgxOqzRuTqsLf06JKp/Oo+YizpETo06x2aIOhi8\r\ngDpX+aY6NNOjOo+C8zn/Eko6xp4YOovkSTrpbpY6UnpTOnRT7DrB/XE6zdi7OufmDTqndYE6ipP7\r\nOelgrTozRZk6FlLROraH+jmMVgs6tJt9OlVOeDo2iTI6QCtCOvfDcjreels6gYY6OpIohjoc/606\r\n2Zy6OUpT3jkQw6E67XaaOggvjDpKN1c60jqMOrRDOzoCPqM6RNMnOpWSCjrVJqU6bLMQOhglRjsC\r\nGnw6poeiOvPXyTpPeNQ66UalOoP4kzqHdws7Q1ceOinfAzv6Rok6aY+JOvHtZjoA6AY6zLPbOk9G\r\nFjoYq2M6/OrdOqH9eDr+dhw7mbUuOs6RYjpweDo6qBEjOmH4RzsYv0E6TL2aOlqLiTqmezo6dxd+\r\nOvzehzrYD0Q6rg4kO4i4ozpDV3U6fsDQOjiOFTrqXMw6nUypOqkqzTqcXas6MN0DOjakgTpJeMw6\r\nOxy3OlKWrzr5C/g6l7XgOkJdIDpVj5o6tghoOmwwEzqoK4c6AS8vOvYOUTpI7XE6sIKDOmgCRToG\r\narI6mz5EOo0l3jrFkjY6gHNkOtpDhTp9z4s6h8sVOppaPzqlh0g6ILANOkl58zn3QVc6inKROiCB\r\nbzomLJ06UiaIOnyYjTqmro46hityOvZ8QTq0xhM7ly8xOlLhtzrSM1s6YOJaOs6bqDpEDXM6kjSG\r\nOpIboDoIJrg6M7fwOrDaCjscXHE6CGaaOnuF2TpEm0w6bhS0OtACdjrXFok6Sq16Oo9Krjph5wo7\r\nQdhrOgDUVTolQQw6dxANOuDAcDqoWb46sGOiOuj7UTq3ODQ6diWlOsrbezpWzuI6n5eoOsBHcDry\r\n0sc6kOfYOpVUxjq0DSg6c2d1OtdKWDrCHQU6crNpOmgLfjo7jRo6SSvBOisCxjoBzLs6ym7wOiHR\r\njzoVTps6O9XOOgwiYDqnT2Y6+3ONOj3aZjpqQFc609KaOh7DKzrwUvI644FkOuWrEDoxTUs6mKsf\r\nOuyugzqyYLs6tMk6OoTeCTqdtIY6AEAEOjaKejovRjM6FnUIOxRFHjpM02s6x6fPOvHRazoYdUg6\r\nVReuOspteDrSUIM6R38rO9LQZDo5LKM6YFGvOpRybTp0wz8605VYOrpSbDoFz4I6Gi2XOlMaqjpX\r\nqsI694SkOgFPjzpGs1I6pXQBOwLhCjos8Z86mNyeOlT7jjr+ISY6V2I5OqaVNzq0VEY6J9RNOvnV\r\nmjrulds5cwAzOvopXzq5GOc6mm21Oi+nQToTjA86SVNsOvgQgjomWbw6HxzJOc1bNDolCTc67tpH\r\nOrJe5Tp8B1g6WmWpOgCFizpuFpM6fjC3Om4I9Tp2C+06GpPmOm6UxTqqejU6GGo5OofOkzoErb86\r\nRQRFOsaghzpY4rU6sOWNOkq3EDq7oiI6cOw3OlkmlTpAevA62DBVOqECADoCFIQ6zs20OsGYiTp+\r\neKE65epBOnGfNjpH+Oc6R7dWOi9OBTqbjPc6zOYfOmCECzuTvl86mfLQOoPsjDpZN4M6PnMiOmQj\r\nnzpBvbI6CuFDOmOCQjrU2K86WtexOrgqkzolImE6T7KBOuis7jmZDEI6zSZiOvnGujqMlYU6uekD\r\nOpP7ezrAKME67geiOmNvXjpAx7E5lByZOiaUqDqiYWg6AicoOjaHiDp1ix06M7fWOQbPazo5UmQ6\r\nks5yOvMGHDroDF46WrqrOq+6ODr+87Y6VDHUOqhUSToDJmQ6RAqmOlzp5DrPbD06TImXOgRBZzqo\r\nd7E6rQZiOmTGqzrok4g6MqvHOm9qizpt4L86h+7+OuSaVjoFG5o6XgqbOrFnezqHgjg61Ol0Oq/n\r\nvzoUU5k6c2N8OnJIpzo9mhw62zezOllxdDoiAFw6HYrnOoioGzpB/u0551m/OlJzPzpW98A6/ZPb\r\nOizQYDoJSXE6U45sOlIMbDqHEbo6ARimOSgY4TqnLpc6RyyjOk+6Gjry+486e0CAOo+iXjrvG4c6\r\nPQvOOn5mBDtwi3M667XDOkr5WzoY8cA6vx8rOmrbdzrrSlo6I/uBOpCuZzoq+MM6TEf7Oc0hkTpq\r\nnvg51N3mOlt/gjpYnEA6jYsHOr+8vzqxcDs61oK/OhlHPjpgzp06zUOkOQ8ZEDsHTEo6I/+FOvEY\r\ngjpZGY46QdJrOqVriToaGX06zBHROZ7xQjpC6kE6+K7NOppzrzphkiQ6cqbSOuCVkDpa+AE6nM09\r\nOszznzpY1zU6jtZCOim8ijo+0Cc6tehwOhmgOzpgXag6xCViOjQboTqcwpE6LnWQOhA+VzotyJk6\r\nDsHCOt+RITprRZs6cH50Ogx2azoz7no6jhXROlFejzrAI4Y6UsBAOuoNdzpJJmw60BnAOvYsRDpH\r\nEZY6TjJSOk2CAzqCLL86/KtLOmLVzjpFqFs6PvMNOhlvgTqtckc6bYA5Ots0sTqpnE46UydQOiB6\r\n2zpEOns6dMw1OvAdJjrCAXE6tNZVOhKUOTov2dk5j0CIOgd2sToCMh46NliaOtXOgTq3HoE6ffJR\r\nOoSXyDqhwWs6ReGFOoDhQTp2C5w6LsTfOli+PjqttaE6dYCOOmKiajqk+U0665mbOpOjuDryRGc6\r\n5cqEOriVRjp+gC86uEAvOtVQhDpYX3M6aeJWOqxpUTrAvuM6u4FPOg/IdzocfGQ6/XiQOpyXvzrK\r\n9XE6RoCROj6FRjoI/yo6XqBqOkHUCzpNUas69QQiOnPkijpSo5w6QZ4OOpS2NjrCPUA6aKdQOoYD\r\neDq6pxk6HuYDOrSkQTp8RSA6asyOOiXsnTrt+5A6VOLROqpTVzq2KSo6bIx3Oi5xYzqqR/Y573Qr\r\nOjDGuTq+I2g6mI5lOhYw3jrtLYw6cstROuTAkzqT52c6rCZyOiWgWzrjyXE6+meFOpFG/DpCSYs6\r\nFi46OoqqrzrCt4U6E9+oOjN4mTogCI86UC+IOkIk/TkMlIw6giorOpuEHzrDsis6b7s1OmkSgDrX\r\n/1U6esj/OtZ3gjoUX446SKuFOgVnSzqIxQ47cR6tOXOtPjr4Clg6CWhhOk99jjp6DCg6cmsSOuKR\r\najqXLmw6knv0Ovr3PjpLNYw631R1Oo5/TTqaYqg66orBOo02tjosx4U6inxMOgEJlDq+rXg6Yc23\r\nOisXgjqPUc45gcAEOrmuTTqryG06WLjwOUg5YjpgFFI6WEvNOmH+JjoweEY6+SN2OlqsWzomiZE6\r\nBneBOtT7iDrEhyE61KeJOoy1Gjvtvck6wKgjOj/RNDpR82U6AaFSOjr6fzqrPoI68A7uOn2LijpX\r\nPLc6LKreOrK6LzqNKUw6d5A3OqDP3Dm4R5A4xk3kObkLOTpwBNE5EkbiONyIxzh07zY5XKCfONza\r\njzhMuI05n0x+OZaOIjo7kKM5ZQNUOfjN0Tirpos3WrW3OI1vGjnE2og5VcynOVaH/zeRyG45SaLB\r\nOE4WwDj2x4E6+bRLOrg1eznYz+I4W0tBOZxrTzl/qB06aVH+Ob1qmDjeUdw2hmzjNjPaaziy6Ew5\r\nZG1JOUGL8DWDWqI1iTUXOKJHaDlAYKs5HarSOMnkqzhyDGU1ZMWcNfSxXzWzzxo5vbvfOCGRqDmU\r\ntpA5E5fIOEYMBzmyVV45EDRZOWVqOziUMcM1Uj/ROXL1Izr9TRE68qqTOR1CLTkbwRA5JOyQNRxc\r\nNDWj6JY1jOGsNZCcYDXR1X41+mY3NXzhtDXMKwg1ps4rNaVITzWhkF01xPx5NYipMDVaLxQ1cqEM\r\nNVJ4pzVcQVo1bRqPNfNS7zUYARc16p5aNbDYTTXXpNY02N62NR/4VTVUekk1+oZWNY2H+DSVSWc1\r\nwvlmNVTu8DYhJRE4VzCjOBcGQznTvZo5kYKtOXuBnTkr/hE5Dsv5OHCcAjqE+9s5v0mYOEyIsDmJ\r\nJps5kp6KOLW7CzlFg305ERKnOVHUHjmPGgk43cOyOaMpMDmSWgs5Jtv2OYpe8znIKKk5OOpAOPZO\r\npzgWKm85ysb5OYyVDTria585kEuZOYyZfDl4frw5CEWQOXIv6DggAko4jLiFOBZpiDhMdJw4ROVL\r\nOBUzhDg84rA4TTpCOJ9S2ThLRDg5I36ZOabxozk0III6gROJOi60/DlsdJM4dyVGOGy6fzidkAg4\r\nmhTuN14ZyTcg/ko5OHucObWGkznLOrI5aAnEOW7iLDk8IHY4059FOYR1CjlKBG44RgR9N5u+EzaQ\r\n4ho4EcHEOKAptjh4Kto4ANjaOKiOiDiwLsU4bfWVOQgVrzkT4885fVoUOX7jHDin5KI4RrmFOKAH\r\nlDdHMIo5oq8DOk+6jDlUuig5vlq/OdowOTp1gTo6svjTOVcM0TlQuqI55sYXOeCPdTWBYFc1iD1A\r\nNU2QUTX86vo05uIhNZwoNzWoICE1oIQlNVw/9DS6mr80ev4lNcfWsjQ4cbM0zu0/NRsHMjVx7xQ1\r\n3fVGNfLEAzUmsG81dPMfNQyplTTT3ns11No3Nc4DDTWLpzo1v9whNW21TDWgwzw16wFQNZ5AyzQf\r\nbzA1JtAgNT4WMzVAPA81nAagNK4A3DQf2BY1gEvGNLeaPjVqzzg1aFNGNZMqGzXb59I0l0z8NDg5\r\nJDUsPo41cJkRNXI49TRRpAs1aaUNNTXsCjVgZgs1lQorNTzGxzR0s/Q0KB9/NRrTHTUnbjE1K40+\r\nNcDBCTVeNUg1L3zRNLp8XDXrwyA1YQgCNUDTEjVZ1Cc1pMkWNU1KujRL/DM1LLIWNbVk/zSgGgo1\r\nto9dNZs8YjVUgNM0iNo4NRAsZzWG2E41ehMnNWbCADWnevk0aJoqNapOHDWa03Q1fmS2NGM3LTXf\r\nvIw0Fl1XNX5eNTVBim01zdIaNbVWfTVoWRw1iNApNSrOFTUWsS81/xIENdkcDDXt3g0117cYNd66\r\n2TT5ZjI1znD0NLmodjUwZu00u8AINWyNJTUbBTE1tDo4NZLjsDRqVLI0mac7NeYUCDUTUEU1KsIs\r\nNdhjEzVaFMU05tf1NCo12jRnz8w0JNMSNVmj1jTrUkI1sBdUNexDNTWSzQM1AACiNQ==",
                            "noiseTrainingType" : "default"
                          }
                        }
                    ],
                    "start" : 947,
                    "duration" : 69,
                    "mediaStart" : 802,
                    "mediaDuration" : 69,
                    "scalar" : 1,
                    "metadata" : {
                      "WinSubProjectDisplayName" : "",
                      "clipSpeedAttribute" : false
                    },
                    "animationTracks" : {

                    }
                  },
                  {
                    "id" : 90,
                    "_type" : "AMFile",
                    "src" : 2,
                    "trackNumber" : 1,
                    "attributes" : {
                      "ident" : "Aufn. 07-14-19_013",
                      "sampleRate" : 44100,
                      "bitDepth" : 16,
                      "gain" : 1.0,
                      "mixToMono" : true
                    },
                      "channelNumber" : "0,1",
                    "effects" : [
                        {
                          "effectName" : "NoiseReduction",
                          "category" : "categoryAudioEffects",
                          "parameters" : {
                            "denoiserAmount" : 20.0,
                            "denoiserThreshold" : 0.0,
                            "noiseProfile" : "ndiMQHr05T8gBgA/tdnZPU4oKT5mSDM904kTPffSKDzx30k8JhPQPPMLxD0gAQc+Dh/fPbGQYTzU\r\n6Yo7Z7VZPNWIRDvboxA7dGoVO1bPNDujY5k64ybMOpSrZzsGzS48E5cqPByF0Tp2NKE6e676OnNr\r\nfTqy55o6ajXhOtURADtVXIQ7fML0Ojl1bTu0Y0s7tIPNOvgXeDpEjMQ5PZGtOQjlnDkXpbE5Lhaw\r\nOeT6kzmA1MA6ylV0Oq0ihzpwhMo7SsimOo5+BTvi2xI6UanAOY5/6zkeB8g5PpYAOtQqpjl6L6Q6\r\nBFr9OnIqJjp6t4868avSOv+kaTvyEjw6laXtOdYfXzk65Gc6+w+eOqnLzDmOFxo7M34aO4QOWTuE\r\nApI7ZM0UOpNpUjqN8LQ5nv82OqbIGDm/NAc5bv4+OXLvkzqcBE87Us6UOtjLgTkarJc5NwkwOq9N\r\n5zr8igQ63ybROkJGSjp2ppY68ASvOgKzlzkYKGY5gGrrOabR8Tmoa4U619JvOSboPTntd7Q5fQwD\r\nOY+5AToigoY5iEG5OcbuCzpFvBc5JbFIOtEsbjoVpSU762E4Oyc4tDoI4t06FAOuOvwGFDrMbCY5\r\nPVHvORDJujnv/IA7oTgpO9jKHDrMbJQ6Kf7FOJQ2QjpkUiE7gHL4O7OjDTziVuM7XaytOi7/aTgA\r\nGDs6eSKUOTifGDr65bU5LRRjOv+NuzoquE05mk0LOjYExzi+BFY555RCOlTurDpc2TQ7oO2qOr1S\r\nzTjWCgY6EvhpOsbICjrQEmw6v3mrOubayjjtVl45pGOTOqWnKDo2IuQ5mrgJOQs4ZDl414k4cK4Y\r\nOmfGrjrfCUY7rdxHOqKWQTpeyq05uH34OHo3ljmHplY5sNQdOhIhhzoUW6s6PWOGOWauRjmedr05\r\nRjUeOlyfVTkmY346eSdDOm41WDplU0g6vrwGOT9GXDp7QM843b0bOc9BqzpVz1A66tI1OsT0xDlq\r\ny0c6mvJ6OUPlMTnKrdw5OnCbOZkwVTjWBEY4qPXBN1bxODktd4Q4l0tuOLqLpjjxKw44Y0C3OIAk\r\nLDjc7k44uL4gOOHd2Tc+sx44Kas/OGXgijmHQbo5kG9SOWy32DmpcLQ63wF0OvxvVzray3Q5qidX\r\nOVy1SDiRQOA42yk5OKwyLzndzUc5h22POD0Nnjmoj+A4KU8ZOTMZljiQHD05TM3kODP4/Tf4v+Y4\r\nDtN+ORxOQjm2CBo3zkXDONQHuTiIa0I479EsORbJrTkMDzA5goOYOZBx2TmkdBU6cyrkOWfIpjhE\r\nshM5aOMOOi5qajppUh46BY2JOInLmTj6pGM4AKP4N0vSxzjRHx45Mx+hOUZlWzouKBI6cOuyOZNq\r\nFDpIRh0658baOCKrSzmINjg5i3MgOk2VKDr+V8c3JmyeOXMP9zgCuts36nSXOM+mmzhyYyY4OTKu\r\nOR8KCzmAiLk4l0fvONWR3DjXSQU4RNwLOpQgRTqIfAA6fk+BOnDjFTr1h5I5Dm/BORKn0zm0USs6\r\nihqbOvorUDpoL6M5ufOEOpMiiDkcaCo580LAOpQyMDoy3c457fw0Oj11qDoT4M06ZNxROs9FXzmA\r\n6II4na27ODg/Kzk0UOM5P2hLOdzOqThqVwc54JeINw6yUTmpNwQ6KDNZOnK3Izr7NRw63kuDOXlQ\r\nhji2mkE5rs7FOadi+jnt/yQ6SGusOS6kfTkP/Ho4bKJUOMDOQTk55rU4iYn8OCO6XTlaHn05y9ZB\r\nOUqtjzhkREA47cMaONqUfjlXTlo5NuuFOBq4JTk/Orc3DaUJObn8wDjNX+s4GD+6OWmx0jil7SU5\r\ncxchOc49rzjDgSI5pVVlNyqPVThw7+k3NGKcOBOpBjiONq03t7FLOHKCCjmWR1Y4vGTvOPCIwDjm\r\nQ4k5AAnyOZUbozlMKFE5d16vN5HIVjeDds43bHIzOZxIfDmM2W04ZKaSOE4ZgDjYjkE3Ivn/Ni9y\r\n3TdiJBA4rB4SN9T2uDeHjCQ3jZisOKqmCTggoFA3AvcOOKFloTdXU4k3KpMlOO6eqjiO7jc4oKGF\r\nON0evDbtj4M4JnrWOKQrJTcMu2Q43pkMOMcfQTi5FzM3SGupN/AewDdjiAU4VXp6NyyhfzeIggI5\r\nm9JtOHAatzeHmCQ46s9TOKJGFjgGfZo4pOiSOHTKQjgLNnk3MoajN9S+iDcaJm04KHQSN+WsQzdl\r\nKaA2BDk7N7F/Tzcidwk3nrusNwEUBDlWpBQ4+u/KN865ozf6zo43WMbTNlB4fTgm+JA4lpfnNjqL\r\nXje/b7c3sGRNN5EZ0jeUGiA3Va51NydzNDheDvo2nkEqOJDQZzfQFRM488TyNwtfgTjN5Dg47Wfy\r\nNlJ5bTdrEI03uby/N0XWjjhaD4M4PJe+OCMbZThm+lw3i/KdNwhgNDeUjDM39aabN4UuZTczz283\r\n6NwkN1r58jYCtsM2BZAANwTSlzfO0N82mIYQNydKVTfS/SE3W3jZNqxJ2zbijlU3W2aTNl8qTTdI\r\nsLQ2coAmNxpEGzec6Zs3IgV+N0aCPjYbfJY3USNTN1S48zYAY8c3gHIhNxDnQDieTIY2WqeUNo8A\r\nATieJ2A3S07TNoG4vDdLW9k27q5nNx7AGDhqbbI2hgtRN60fsDbWXKE2VtPiN+TNsTfKOaU25wAV\r\nN4ANEzcmX6U2cMGdN0tdFjiAuRY48uiGN+D/SDada4M2aaM/N5J+nzb3TRs3wNXmNj7FojcAMgc4\r\nt+1bN/wU0TdqiNE2/uA0N4F4iDaC6pU2kwrmNvMcyjek/NA3OoRUN9RNOTfTGK83fLD+NiJwZTcW\r\n63g3IkBnN1BNXTfkxYk3SLD0Nt7RMzZo9jM3qr4uNzaX3zdCkYM2wjW5Nqb9vDYcNa82bPZiN3a5\r\noTfCTX02LIhxN5CbZDYST4E3QESoN37zhza6GIg2AdSGNj3xsja8PzQ2J5OCNmAknTbGnSE3zJS0\r\nNpb1rzavZaM2W4NVNytY1zYcuyw3DklDN6zwWDYuQoU3cE8oN/MxgDbHn+s27hcMNmGRqjam0xc3\r\noCJCN2Sw4TYaKeI2kgfUNm/yyTYcRpc3UsscN2jp8jXdb1k2zicTNie9ADYAGls2xRkeNscq0jXR\r\ndxg2DNmnNfro1TVeLOc1E7wVNmKCNjbcN1o2VFUTNphoWzbGOhw2oZfcNZavCzYCNfc1RAP7NbII\r\nHTZaa+I1agtxNqlxwDXp0/o1wDNfNi56oTYUaxw2lJt2NrIt2jW3guw1/UKBNoEpYjaVPDs29wEs\r\nNh+a6DVH7e01GIvCNWZ5qDVfUDQ23xMoNqwc5TWWA0Y2+NN2Nv6AhDYQKCQ2wq/8NQW2TDa0saE2\r\nZE1bNjfMJjbQdQI2+FhONjhl3TUG/Es25Ij/Ne0YQjZgChI2+OiLNgL6lDb5rRE3IAUDN+vq8jWG\r\n9Ps1XIszNg6StjU4dNI1wmyiNZjy/TVmVtA10xSUNS7GAjbrMMk1PVG4NSfxQDaL8dc1sUcVNt/v\r\nADY1bBQ2XimiNe1A5DUapqQ1Xei0NSOpKTbOXhQ2mIw/Nk9wVDYoHcU12LMENqTgHDbic8c1JHcg\r\nNt5P/jW7YBU2z645NjYCBjaIhoU2+5U4N79Ghzb3xDQ2wjWaNkrHJzaex/o2UPy/NmJDhTa0QXA2\r\nZSPlNQqN7TZehp829XcZNi4fJjchTuw2G+OqNiSuLjahLBE29CP0NonPFjdikJA2P1prNmxktja7\r\ncj82eB92NkX9JzZQhiE2Ny4cN0ha2jb+tZE2HuMGN/vQajexL8E4v/C4OBqd6Tfclek3uLvFNzVl\r\nFjemYLE3dntBOBRKETjd3RQ3ycO5NzDvAzYkuH82+IozN1G7AjherFg3k6vgNbDrLTbfSXw2UemK\r\nNqm25zbM+Ps2EQsUN4z4aDdh7fs38H/kNm4u+Tf0dsY3JrE9NzWUZjcYqh421SwjNuAbNTbZaL41\r\nEMQZNgeVDzbRF7U1CeD7NYhizDYsW7M29ORKNqnEqTb8+Mo1CJIGNgp++zW2eAo2T3DeNapfRDbs\r\n4Uw3lioFN6KksDb4+lQ2Z5jiNWha+TXSYlQ26TGNNmQAtzWcmFw2lXeKNmpqljY6MNA2uBYqNnjq\r\nQDbAvQQ2QvHfNj6qTDeGf+w2plJlNphylDYfbVQ2jkM5NlLGHjZiEHA29dyJNpOBqDUsnaY1xKk1\r\nNtDSxDb/FRs2PTuWNrAAQjbEPEs2aaSdNQHLLzaBvYA2P8u7NpLXZTZvPVY2JgmgNncJDTe43zo3\r\nPLG7Ngg4GjZNd9c1iQDKNdD01jUIIX01jt29NVlVhjVbKog1BWqINbS6NDbbp7U1zSj2Ne87yDU4\r\nrco1BE/yNWCe1TXuQ1w1whFhNUlJCDYJmmU2uVTMNYQdDjaluxA2ksUANpsC6TVB5xY2b08NNjTx\r\n4zVmKNQ1Ac8PNmPwGjYyaDE2xDVNNqID7Dd5vog4cuYkOHCsEDj9Tbk3fgrKN/8e1je3Dvw3tE/e\r\nN6alnDeQbdU3fKAeOKKtrzdGR4w3bXotNx4XzzXEGwA5xPc9OUNQWjgzg803BHqKNw3JCjj8rVQ4\r\nwMD3N5okPzjnRTQ43JUiOFqSJDkmKx05EO/eNk95jDhrn+E4abjfN+aV0TVM7OQ1amoANuvhzDWj\r\nKl01k+idNVSfvTVMvpE1yvnSNdJMETa4/cQ1vjIzNpyivDUuqhM2HZ8BNpwHBzbo7881aVurNf07\r\nYzXZkB82S5E7NqzzzjW+8HY1hnfaNYpmkzVOfO815GmcNcRWDTZ6cJ819Nf9NfgXEzZwU9g1tzMM\r\nNjrEeDWW4941NE62NQxlvTWbs8g12CXWNULtzDU8XaQ1qigWNpsLwzVLhlU1iv8jNdZnejWsOdI1\r\nCCoRNirvwDVvlis2dA2zNX+HvzWJLaI14TjYNbgr0jUOPIE19mXfNXEX/jWeW7M1BigANicIBzZi\r\neqw1CAKZNWUetTWzC6w1zarlNcL4szUECLU1i0PNNTT82zX4Glg1K5gMNiNGhDWosxk25H3LNZE1\r\n1DWKg4s1aA/DNQj6RDVgcpE14tXBNbh5qzXfR7M12ZDaNXdKUTWeo/416/wANlCjszVzD3o1yMij\r\nNefQpzUWyJ81FFdpNdRjszXTNdM16NidNWNVtTXs91Y2EuRGNdguADZdlyI1WgKQNYmTnTWHdNI1\r\n5/6hNTtAtDUo1KY1f2IiNhKfbTUYM8E1Vu6TNTFN1TUAZRY2kRgLNpD7zDUXuZI18KW+NaLcujVg\r\nxIY1yOApNf3eRjWwUe01QJNENY5kozXhTFM1UaV7NR2XvTU4StQ1sZVNNbdczzWXWKg1cpOaNdxa\r\n6zUAVas1pj+/NWbu/DW8XaE1jFPwNXwUjjWOh+E1GBTuNcc8lzW+utg1XKICNhV6oDXgyRI2K8Nz\r\nNW+8mTWsKN01aEbbNflhYzVvI8U1C7l6NWGIuzVIjZU1pM4BNmAeLzbPXtU1Sn6UNQCAkDWimMY8\r\nlTa6OhUvwzq8ZTM6NCj5OhjitzrkkSY62TzJOrxgmDqoNBM6MOmcOre2UzraBEE6MTOaOjI6kTqD\r\ntEU6uIlVOjo9OzoE0Ig6iZUAOwg/+zkrNpw6IYijOvQ5gjpuIRk6XBtMOpCIuDqFvoc6HCZwOjZO\r\nwDqVQUM6l3JPOml+bDoBp0k6olGZOuY+vDonQDI6Cz0+OrJ8dzphF7g6UvsrOjh+bDq+Fpg6vkq1\r\nOhEQKzr6uPM6i0i3OriwPjpmRRw68jrHOloTbDp5Elw6JsRgOlRpiTr/JXw6gH84OlXKszkiQU86\r\nqVeGOj1JcToFILk6xNxpOuShBjqYu206dkgAOtO0mTo2QHg6VZ6XOtJOLjo/3IM6n+LbOp8ppTq6\r\nGdk6PcA4OnwFRDqefBc6KLcVOiWFqDrPbrI6476nOlk2EzsI3YU6SdtROpI6zjqXJZY62X24OjYg\r\ncTpirx869gxIOl8ccjrrdao6BH1mOl70Pjop7pI6GN+cOmF2fzqjkTU6YxwKO5UMpjo8e1s6wa1R\r\nOowkyjoiito6jPueOvicijoHq2k6u8uEOtZlzDpla4c6JzlJOr1YgDqwlaw6ki+YOkXaWTqZgV06\r\nBNV4OkezdzpHM8c67VYQOrYOLzpIS5Y6e5nfOp8oOjo1Hp46btSwOmW0TDr/Y6A6Rue4Oh1WZDqc\r\n6VE61il9Ojdfwzom+Ng6uyapOvMPwDrdzJ06ZdIgOq7JrzoSUwM6gMDiOskI5TraDMo6KDs1Opnb\r\nxToETLw6nCDeOW1kXjoygXA6EsXNOndRTjq4nIs6CNNNOuK8oToYBXQ61VI/Os/ifDrPjSg6YiqK\r\nOiKhcjrYtMw6dIyEOkD9fjpE6p06Vr0zOqF1tToJSWI6vMaYOqzE9Do16Tc6Ap0UOjrzUjqB0JQ6\r\nwZ1ROmPGmDqS45s6tA1ZOvW2mDoheA86ZHT9OcTFQjq41Ao6gBtSOqeKijqZ+oo6vKekOfAyFzpz\r\nQco65v62OgFwiDpmCkA6/eA1Opq8iDqgdJI6vL8ZOp4qoDrBBdg68kWNOvseIzogU2s60sl6OmLa\r\nzjp2wuc62/VXOjSGQjqdxmI6QNafOhyitzrZ9z86H0EPO+z7vDo44T06FzMeOqfoujoN6bU611mm\r\nOvNTczp0Flg6QUOYOorYkjpHs3w6Ak/SOqQ8nzqQIJE6t27YOljoezrq+Jc6OKuxOtptJzp6+GU6\r\nXo2pOkuZyDqRlI86x3mTOrCqSDpSf4s6VltgOnGEVzr8dNs6mSCjOjqmjzqvhA46kPl+OquiITrB\r\nSpQ69Y2QOvoqpjrZziY6U2ChOt5ecDqyNWY6BJRXOvSHjDoN+s06HrlWOkM0mjrm0hA6zqWCOoZN\r\niDq1vck6f+OmOvNvlzqyZR86TnlGOnVT+ToVTbY6/WMgOuR9zzrpRkA7/PisOpDlXjr+x4w6Kll0\r\nOjy6VTqEryU6H2sOOhxedDo4oh86QGaTOhNqFzoMaac6mtfKOSbyOjocLSE63d4NOk6Ljjr/Y2U6\r\naX2MOl1slzr7r6s6Ctt+OglLFzsgK4469HxbOrK3Fjogd5g6JuzmOjLIczo4tFk63sSMOsq/sTpn\r\nnTM6ZqbSOlSsUTqKj4M6KcFIOgi1wTpDHUM65vZMOmlTKzoFOTw6CtB9OnOidTro7VE63GfcOmqR\r\nuTqwgaw6DAVxOk6uIzvf0Vw6Ob+eOhqENTrOvvI6ivuNOu63EDskYyg6nBbeOTTC4ToZJoc6Va61\r\nOgkCLDpE5Co6QhI0OlFqaDqgNnU6wG+DOih12DpK03Q6XCuFOiZ5UTo+WrQ6RhNHOkAwPzrYOMk6\r\niAdUOtBklTpjNlg6dCJCOj9oxTrFjEM6KtcnOrhjKzpgzPs6vvh5OtQpgTpIGGE63gN7OsEzPToy\r\nfM05KLTLOsH9Lzp4vp46Mk6TOn0TWzqo4n06Klq/Onu+hjqbJF06/RGoOva7yjpBkks6LCgvOu+o\r\niDoR5oQ6uBo6Org6STpjlR06IbGUOqJUCzuwyDg6Ns3FOkDo+zkqtmI6ooFCOhlzkjqAc2w6SoXI\r\nOiCmPzoC1706eQgGOupqLjrgnH06oVCPOga8vjkDooI6iWE6OrZLLDoYuAQ6zq12OpubDzrImn86\r\n5QOVOmaElDoEIMs6brCaOle1Xjqid0c6ESGOOvSHnzp9e1s6lDMrOpVeQzqHsFE67U6AOn1D9TpZ\r\nDjo6hnc1OlwtQjo+3dk6yp8XOueySzoD5Fo6dwWaOguHaTpyMb46I3CkOkBrjDpn1Lg6osavOo9B\r\nDToNmyY7bApSOpbWtTqGoDc6B+apOkGBjTpoDLY6/a9KOtmPfjqE/4E6t0O7OsFSVjpOuYE6bNE1\r\nOvCqizptXz46DNCqOtXJfjp2rNA6UENOOsPGIjoTkUc6oAyQOu/aDTp/f5A69PWPOp6mPzo0QYg6\r\nqBw8OlHAczq3PmU6agJpOkUWrTpcFUs6FoZmOsgtTjrpVUc6As5WOi4RWjpj9b46VNnPOo490Dqq\r\nTIE6XuwPOuYoMjpp1n46J3K2OnJ7bTphDw86w+rGOjPOkTpIKL86Nv0wOty5rDoun1g6e9GfOiEw\r\nDzqebnQ6G2eqOstDTTpY+QM6OW+JOiXAgzpm/qw6ANavOtuopzpzg4U68DkQOuY4WDoDbZM6dmGV\r\nOvVGlDp8X3c6YF2eOqy7jjo0XSo6z/eZOhz8gzpC3bw65BR9OqpEtDrQZug6Mks1OhCURDrMjPo5\r\ndWJcOsD7VzrjnsU6FagTOoZ14Tlm3C86+qqeOtGjRDqox106EMRrOnplfzru8To6S4AMOjmAPzrj\r\nsbs63K9jOuASpTpGOqQ6xmmeOnmtszr5h3U6nmdkOjl7pTozYFU67A0YOqMgozqC2ZU6bCgoOh1a\r\nEjoQqjs6gKu7Omuc4DkcBWY6Fx1tOlNXjTprUo863KGBOhi4xTrEyJE6tzC9Om85cjpG6+s6Ojov\r\nOtC/ijrKVtY6Zb02OjlQpToWOo462MDYOWk48Trk0hM6ToivOjRz9jrEEHI6YjeLOtBOCTpRxoQ6\r\nW6U4OmYqiTrMsaU6GkbROU9JVTqud+w6xuQ6OqZqNTokqWo6R2GOOrZwDDq09go7AfyDOlBRSjpR\r\nSrk6/m5+Ou3NHzqTZSA6cvcQOq0D5zkAMlo6ANBwOhgFGTusFEM6EamBOrpWPjoGtJY6kmVGOklA\r\nczqDVm86B55YOj5kQjpIj8054EzZOilOUzoU7ZQ6ECLrOgyuqzpuaXw68Zy3OlnQljo8Wpo6LCMf\r\nOpA5KzrwWTM6CK05Or5/MDpOKjw6rFJtOibUjzqgIlk6ODsWOiLRtjqGByg6C7xrOn8YSzpaMow6\r\nSjAYOogrWjqIkjA6b/imOklMBTqa8OU5is8rOgedWDqyAz46KyEyOoJ2dDrsHoM60sSZOk5Jyjpv\r\n8Nk5Wj1fOnRdlzptd3Y6NN2COol4Pzrfnks6tM1sOtfSJDrKq9M61fs1OrPUrDrCI3M6Ha9NOsLH\r\nOjotvtQ6VSNsOq19LDou2RY6R/BaOnM1VDqk+2Q6dU6sOqtFhjoVo4I6lquhOuEHvTo6mB0659Wr\r\nOjfRWTpz6Y061GHUOWIFYTp/VTA6p3BLOj6tjjroMg46Ps2zOp6gnzoeuws6ACPdOcEfTTpVcqI6\r\ndraJOtJJFju9TWs6EKo5OjB2ejrZPSU6ISGuOogJHjoQvz06vqZjOuDMaDppsMI6avQYOh0POTpp\r\nX4M6vvcuOi2FmDrcHzc6ib0qOgDbJzrMyGE5kAcnOtEyPzpZDNY5DiqfOaBLdjnmMsU5980sOTPz\r\nhTkq5q85+aFAOY4fPTgkptc4vm+3OcweATrEc945fnxoOTisyzgyXY056WwmOeu6cjiI1GY5fpcR\r\nOhrrbjoid5g5rICQObCFzTmqHLE5ttBGOc4+AjkGbQQ5XIljOZ5fXTko5tA4ZAscOfqhSTjNwy04\r\n0cEKNvwwBDnkvq84DK8HORlkEjrt0oQ5S1VhOeSf8znwZ4k5xbyiObBTFzh76Rs4bxA2OmrKzTm7\r\n7ag4/FicOat1Jzl4CJQ4XYC/OOJakTkblQU5jVWuOIe3ADn22MU4fe44N3ZRrDcoFZk5CKWQOQom\r\nZThB4KY590L7OdJSqTl8qTs2T2w1N7A7oTjJaDA4m6H3NUSRujjN0cw5YHCnOYokJTgAcLo5wOMo\r\nOqwwyDl/oxU69mSMOYqH1zhub3I5aG1GOIIsTzidbts4F5IGOft+kjkILbY4jKOUOR3BuDmLvp44\r\n9LcsN6rjWzdXs2s1d107NcBHSDVcf0k1gsP6NOZ6CDXLNes0TxAKNTsx9jSHJI417jUcNViUFDXk\r\nCN00zOlVNX/eHjUOJOc0WookNaFZSDW0XDs1o+8iNVCsPjX8mAE16t0yNcwcSjXtwFs1UwLNNLh6\r\nDDVKNcY0rgkZNbqd0TS7/Cc1/jsqOG0OkjgfcGI4KfwPOId6gDdfGqc37nj4Nz7JGji0FQc4Oi+N\r\nNzQJqDfudho4+k3oN94ORTfY0yA3jRpKNkXYFTneezU5uoKOOHCyEzh8PuU3bTcEOLsBLjhLrvA3\r\nB4gOOKZECTiceTw4O+dGOdGcGzkrUmc3NT5LOKtV4zgF8ak30SgpNWaD1zRR6DM1MqIvNRttBTXy\r\nlBs10iSNNBydOzVY7WQ1JGcaNRxMRzWrM4417Q1aNQIJSzUT7jk1WvjgNKB3DTVVUgw105u/NCh9\r\nwDTU1/E0UpZHNUZNADVtk7c0E0H9NEpw8zQoct80SgW8NNrnGTXx97E0PoT4NBzeFjX8Iyw18rXI\r\nNOaVPjWnhxM1d5jkNG/cCjWY6gU1erq9NO4HQTUsQQ81l+/7NNTxTzVhYiU1LfCCNYoFHjUNxYs0\r\nKjoNNQeyQDUN6As1+6guNYAY8jQMUMo0oKQcNYvMTDXaKhI1rVxPNciF6TTHluQ0W1XfNCrIiTQu\r\nP1U0wc4KNSCqpDS+SO00at/1NGbWwDSLaLA0IIm6NMLf8jTib740HpAENdq/zTSY1xg15/wKNbHq\r\nkjRP2tY0PdTeNMqnIzVe7DM1+F+BNKpAAzXbzSM1KjaUNNu7BDXj9H01DtelNODp4TQEgKU0hyPY\r\nNJYmPjWg8cY01vgjNfRO/TQSDxw1Am6oNC0f7zTtF9U0RHaYNCPg0zR4nww19espNfI6CzVMQr40\r\nG8XJNEwWEDW9ZRM1JGKcNArMLTXKUho133yyNGlgBjXd8SY1j1gANckIFzSQwtA0eLIuNYZYJDUZ\r\ngYE1KreZNG8VyDToiaQ0ZqiYNGOrxTQmoSk1MFlSNQVJ+jSebOo0fKqHNOJqyjRatzE19AcGNSe9\r\n/DRQ1Bw1GJnkNH3e/zRkbZw0llbiNM3vAjUO/aE05vvyNGZ1hDQMRQo1wt6ZNdGlMzUKXPQ0/+ei\r\nNFdyODUflrg0BFTtNKztrDTGZwg1pjDkNLgnmzVw1aM0ENvsNAtVaTSxMyM1ACCINQ==",
                            "noiseTrainingType" : "default"
                          }
                        }
                    ],
                    "start" : 1016,
                    "duration" : 953,
                    "mediaStart" : 69,
                    "mediaDuration" : 953,
                    "scalar" : 1,
                    "metadata" : {
                      "WinSubProjectDisplayName" : "",
                      "clipSpeedAttribute" : false
                    },
                    "animationTracks" : {

                    }
                  },
                  {
                    "id" : 91,
                    "_type" : "AMFile",
                    "src" : 3,
                    "trackNumber" : 1,
                    "attributes" : {
                      "ident" : "Aufn. 07-14-19_014",
                      "sampleRate" : 44100,
                      "bitDepth" : 16,
                      "gain" : 1.08610518204893,
                      "mixToMono" : true
                    },
                      "channelNumber" : "0,1",
                    "effects" : [
                        {
                          "effectName" : "NoiseReduction",
                          "category" : "categoryAudioEffects",
                          "parameters" : {
                            "denoiserAmount" : 10.0799999999999,
                            "denoiserThreshold" : 0.0,
                            "noiseProfile" : "8EHhQLLi4UEjyrhBeOP4QN9SU0FiRRVD1ZKTQ+wEp0IN3tBCeOAeQt4sV0PGNpdDj3/HQyVmX0Of\r\n9ClDWXKlQmsAe0I+805CQhgPQuQai0K5KdpBXkrkQpl6zELQCs9CkDrPQqzHlkOHawVDNnefQ2Jl\r\neUIpXcFC63riQTjXwUGlyEBBmKBcQC2ffUDtpcJAI2iTP/q3D0Hw63pAr1n6P/rgNUCp7HI/0D+L\r\nQOm+uD8GMNs/sPBVP8v1EkCfEg8/ZUCSPmgMCj+t6bg/xfOZP7BO4j6Nuvg/ZIf+Pkt4jz2ei1U+\r\nCjOfQDggRz/a/Jc+YcicP1x1hT9wis0+RHoTQHcti0BV028/ppLGQM96IUKWnvNBfIx+QOzkCkEL\r\nAAVC2Xp0QMFX/kB8aDVBq98HQSUxoz+CjIc/tbPwP/GhKUAOnOU/AtNMQOnhsD/kKhhABEnHPoRJ\r\npT9tiS8+fVU/PjS5Nj9GOJY+rZqQPXouaT6k65I/GBmNPkfRST7jx/M+Vq+WPSKv1T4gAvE9+g2p\r\nP+6YPT9+qIs/JLHRP2HmUz/6MH5AWoMkQNziyEDcJBQ/UWHbPxCRcEA4AG4/VorgPx9LtD8Z1Hs/\r\n3MyzPlZZxz6KwWg+jh71PnZShj7a2wM+gzzMPpz0hD4JGho+QkkKPvK2Oj0+LSs+UIazPH4FrT1G\r\n+CU9Hq/6PN8ttTzpzco9GpbSPajWvD2LTi89B5SiPJ2qMz3Ct6M9LsgZPaAhxjvktAM9jntNPbvk\r\nSz1EkgA9lDhGPdie4T22IiQ9qbBoPVr83D2gBrU9m7DdPdA71D3IUzU+IBvQPofuZj5/OJo9OyAe\r\nPa95BT3ODL49dnYTPeS5Zz7P45k+Xi5YP2jQAj/A4Qk/X0BBP/B5qT9WoPE+TCyxPwzOqz8g0Lo/\r\nTjdnP0NJ6j9G+uk/aTHNP/FcUUAuigY+31tDPzScsj+vvAs/7MHQPx3TZ0DU0dA/lkyWP4RycD/3\r\nBlg/tlcIQJDE3D/yG7I+EAhzPru4jD8l1qU+XMl7PtC05z4RIFY/W+pnPtOBAD5cUGI+D1aIPVz/\r\nbz74T809NDAwPQ3McT3ZCIM9fcMmPpjXKTw3QjY9vc4hPbDKzjxNgA498C67PW5RUT2kMyE9soep\r\nPXp9rDyTpho+38LtPh755D6Zz+k+z/8QPlPROj1ph6I8qFUpPc4zijy//UM8zOJvPKo1FTwNQVg8\r\n4bK+PH9tLj1SPQQ+srEuPYliQTyMUek8ylpdPFTRAj7Tiso8WjiEPcwsnz0yMP88EnkiPEOjfDw6\r\nQpU9WspvPQLxhTyrBfg8SPihPPdg3zwBt609RA/uPHMAWz3kcgA85NynPKzCYTy8/I49Z56JPY0N\r\nljxE8AI9coCNPf7TqDwP52I8NubSPKauQzzPrY08oz0ePZGjGTxw9kI86ENTPdF7DD3Cyig785zr\r\nPPLtVj3eWwA8rr1QPlUcGT2KLSs8oESCPYhjuTzXwe88+GHrPS7BmzzCvx49jKEGPuvM0DtmTbk9\r\nRnjjPBXDlTzHvr88SsjqPMMqIz1iH7M8WiyRPc7sgz6s+ok+ECvEPenHej4beCc+HroBPpI9iD10\r\ny1c8iqWUPZw75z74jhs++NnOOyPbPD4fMjY9uOmQPGz+sTwtorA8EWJCPuY8Pj5qoS48Ni5zPluN\r\nKz2XLoc8WvHYPEmhMT4gOE0+KGYTPm6Q4D1hrjg9mFovPf7aVT2IyqI8/ZSvPKUYez0qL4k9XMEv\r\nPFQeLz2t7ps9dmV8Pu6H8j0dAec8PIs7PZCqHT08ry892Hq1POKSQTw4QTM8rmdwPZLAqj1oPZM9\r\nPF0MPTvZfDyYPGo+8tpXPjd3Ez5O/HM9/70tPBnEfzxqMkI9NycdPWTy3DwTVsg9tes4Pf1hpTsV\r\n4DE8Dc18PMyVDT3e0AQ+PqkWPlZtyD3ufjw+TDXOPUwKyT3Y/yY8ZW+OPEtuijxQ4Fo8YcynPYDW\r\nNDyAWos8OBI8PR+Mhz1R1G08JQydO1YTgTtmx3o9XjDePtER2TyTei48SchQPdGGBj6psdQ9r6ho\r\nPYwDhDxmSyg8aVGmPUR86z0mZlw9OG06O5Tuvz1C3iw+OxhIPofrtj2S6IU7cFAtOwzadDtcMqc7\r\nplKiPTIjCj5ozJk8O+zIPF5z2z3zTRk+L1d8PQ5Dqjz9aec94TiePb4OGDwFfJw9/ZNQPr6W3z2c\r\n8CI+CHyAPSVxsD0RtP49zq4BPi3MlD3YCws9cLkgPO8aKz4RaO48AcckPiRLHj62D4A7y3c0PAM7\r\nejw/aiQ8JbxOPD8nfjx/3sg8nSy8PGbIGz7Q7AY9eQuzPH5LyDxd8C081gRWPhh/UD6GS8c8DsIa\r\nPeFHLj23FYc784RhPFLbIT6k7Vk+Xm+yPQMxADyqxSQ+MRAhPPMK7jskmxI8HCU9PRXm8zzPxnU8\r\nwY3yPPTsRTxolB48K/pbPJBnHz52Ac48AGO7O/HxHT1naIk8/n87PpR+Pz5rQ5M9rUGGPIK6rTyd\r\n57s8utCfPXCuBz5DwE89VrItPIHQBz2SzWE8zuJzPaMpujtiA2c8q4aUPMDBFj72Rig9Rp5yPaB+\r\n3zsnmp48PVX/PMk5nDyYM2Y95mqfPS6VJz1b/TQ9DtYcPZrEoToNQQw8dqnSO8MoOT0/SNE8uCcC\r\nPJRYoTpR/Yo7GYT7PMTApzxRxN88X/g1Pc8D5TtY8b89nBFdPaLuOD1KxpI8jqZ8Op14ljuoTQ08\r\nGxIEPV6NDD30Nws7didkPEd2xjx0kM06e/QgPD5ehzuac3U8Jt6JOkxyDz2M4V48Z5cTPNewHDtA\r\nZaU6Zr98Oyvh6jvLqhI9MH5GPYO3STy43Yk6D7vXOpHXlzsA/3M7yeOvO6Xwizs8MqA8YkfmPMt9\r\n+TxNOh49lBuIPIKeLjx5IYE8falMPYSdCDukbwo9SlQGPZ0+2zvwKjE9LNe8PPPM7Ty313Q9e1g4\r\nPBoi6DzMdtI7QlcuPNeeozxuDFY8bUE6OxsSjTxqdsY7lHYQPE7rOjx6Rt460hUpPUjlBDwsi8E8\r\nUEfIOacugTxy3u47YPNcPP/u9jtym+w8hcKFPPGIzTuUcKw7gl5EPBndWzsa1K07ON+8PBmH2zsi\r\nPSw89hGOOoss4Dq/Uqk8Sq/JO/7Zozx7akA9I9bDPPJK3D2vuVM8q6uRPea+FT1vGQU9d2QvPB7M\r\n0TqN03s8Q4C1OtBQxDzYqZM6U4NROk5BqTuvmP07QYqSPJ39tDx4oi89eawYPMZNczt8MKs7FKTe\r\nO+YqbT2BN409cjaKPBHj2DvOHoM8TmLpOuENNTtDa9I8qqGvO+nO+Tw9mf866jqgO2hc4Dx8GVE8\r\nmAMeO/XSBj0+keA8uP6bPA88yjxqhPg8PqncPMyLFT03ca494MedPWBEgD2j8IA9mQcUPPgMmzzQ\r\na8M6bD+BO6oh7DzMvJ88PEnAO0GXzDyxhMA8CXCSPFs51ztz65U8yp4jPOb/tzyQrJU7KTOsO5r6\r\nhTwRlJg8b6niPLLUUTu01LI8rs82O+Hn1TxG1z87QsC8OsQ2wTtmJxI8qPJ5PWJkATxvTKo6r1hY\r\nO4gPxzvTU888gzATPGWugDtK1mA8CDJNO3EeJDzgo1I7ckCnOygnXzx8Inc8YqrQO7AlYjvdJy08\r\nVt8hO02uIDu2Qpc8ujWoPJkGRTv1PPQ7LDTTO2U1eTxPfuM7ZDu6PDdLSzqigYo7AeBrOw/fRjsQ\r\nHWA7tm0FPDaD7Ds/0u879oN1PPsEhzuoisw8OpTqOwfN0juaxAA7xyYLPYBbtDuvAp47P72yO9tt\r\nlDssUjM7lHeLPLq7dzytn3Q7WqecOpQ9oTrOOUU6HGIbOnnQDztiBZQ7ILpYO4VWLjvJbAs8r+QQ\r\nPNRsgzxsvWs7cFrHO8J3ADvKi4k7BqRJO5xRjDudPYM7b/9gOSWpbDqUP3k8Xry2Ok7XKzvmCk47\r\n2voqPDVKiDyXdF07KIGXOnSXJTtwWj87wANDOvqyizvpgNQ77hmhO3yyijq8iYA5TEg9OgL5rDto\r\nxms6MiBkO4ZTODsDlaA6xAbuOqfCAjupwL44GYhVOoB5nzovq5E5DYJ6O++3szqPTrs79XnrOTFb\r\ngzrs7V46UM0COms61zmoc2M56P+9ON49sDmcQjI8uFkLPEu2+zvoZvo6VBz4OCglYznUubo5EyqW\r\nOmz4yDoJa/g6SCidOtAQizo0e7M6QnCkOkQNbzqu5uQ5QRjROdDdqjkw12c5qBLjOgsO+jqMPyE7\r\n2hR8OuCRXjrhnKg6ZOtGOp1+JDqY8xs77+yGOoYPUTvGrzg6pd2DORU13jlkj1o7zG0IPPRp3ju/\r\nOAg7vzpnOji1KjkLCpw4UedpOLT0ZjgDemk4xixIOan2XDoqDgw7U54eOiCbdTmfsnI5YBlwOhtZ\r\nZzrOFW04exXNOYsmDzreeJQ51AcuOgN3aTp5Pew5JXKkOVQRmDk05bg640QqOxIH/TptioI6mO4l\r\nOhTzXDkV5gI6sDfyOXR8/DlectU5Y7ygOAxGHDrE3BM6x1OKOUTPTzmEskQ6kstWOhLUdzgJ4pc5\r\ndoMIOjOd8jjNHIQ6DI6SO4vWZzs6qKA5jIb0ORX8LTqEinw5p21KOb4i4znNZE86cXsRO1C2Kjr+\r\nugQ616UlOg6rCzpKo+o5KdBZOrZ7xjmD+m467T8fOZTc7ziPots4SKeGOPmslDpUqms6UnNCOfKl\r\nZTgJTVk56vtFO3j3pjvAo9k6gzDiOl1XZTrmotQ5mbW6OO94yjjN3LM5Vi78OWTeJzljZCo54ygs\r\nOpX92zrEboA6vVzTOY0BCTqG7q04XPMDOvQV/jmffE44DUtbOBQHXDoIFB86ozNnOCeeYDgweD44\r\nWaFVOCP9RTjWv1g4lIAmOfBIFTp/wWo6RUNQOdbPoTl05dw5DlHdOcZxUDny4K86XjzIOq7ctjk0\r\nMUI5pqRaOKH2TziO0VY44olIOA5RPjjWfDc4gsBSOByWTjh40Uk4JZtjOKDCVDi+zUc4Qv1XOBMJ\r\nRDhy7004sXZUOOjiPDiKK1Y4Vfg7OIpRQDgk5no4/o9FOJa9Uzgk3lM4xVpROB2WSjh3KU44IttX\r\nOPWxNTgy1ko4RkpYOGkbVjgLmDM4c4pnOCJfSDhxllg4464pOj2YGTq7Wzw4YU5tOGGYVjjQDFE4\r\nj/VNOF/zVjhqWko45BlHOMhQRDhgolo4/0BEOLiRVDiAmUY4T/deOP/1UDjgvUY4nxpKOHvfVzjM\r\n6VI4ykx0OM7sOzhSsGQ4bNxIOD5wUThX4Vs4v707OI3RSDg/yVY4oR9JOLG9PDgx9144wbJKOHti\r\nOzhz8F84aR4tOGqUSTgk91U4AaA9OJX6QTjNe144MHFBONlSVDjMW0Q4f/FZOL4RTzivSmg4Txh0\r\nOCZ7RDhZcD84VyRFOBBwVDjLUlE4TUI9OFKZWTipLkY4SkNEOCdsSDiOyTQ414hVOACkOTj04fU8\r\nqXerOqr8ljqogJo6yVB2OobUYToZis06oqa6OmJ9YzrHAyM6zzAyOinuHDrVdbQ6rGlROhLhpDq6\r\n6vA5w1EBOrsUyzoAYDw6LrafOhhRLjpDPMo6x8nsOr3mxTojipM6oVCKOlKmgDp05uU5JHdmOlmX\r\n5jq3LKQ6aycmOjt4Djtu3cY6T7CVOhfC+jnU/Uc61Gf5Oq1kojq3oHM6YuLXOtGDrzq2xQY70cmR\r\nOmIsnjq8e1E6iveTOv8TFjofY7Q6ZiyuOijeaDpPMq86aH9KOo4iFToAK8o68jz4Ofd4SzoVgJo6\r\nfKmAOrifPzrY+rU65E1hOhI7JTv1vbg6mssWOixYajpDYj06zr5ROkluxTpFf5w6+yXzOgJ18jr4\r\ns+o6lkVAOvdRjTqaEoA6erdlOouhujq22WU6dkwjOt7AmDrmu8w6CwPqOpQsNDqpB0M6nM72Oi3O\r\nqDq6BLc6aygCO6s+uzrqQHA6ps26OourOzrduYM6rX2mOkV4Ujq4DUg6OIHDOtiYVDpZMNI6kDk+\r\nOjOsrzq8Q0s6LWYLO9fnxTrStiY6X7SlOrgELzoPDJ06RK1WOt14Ezpc5oA6B6BNOsUmRjquk046\r\nCmaDOpx9mDqcoYQ6WNKaOu62VDq7TcA6P1ZAOvhDcjq50aE6rBXOOthCSjr2wRM7277sOud/vjqA\r\nNSY6RylKOkWytTpzV406xtA+O2SMdTpwiVY6m1iwOu5dXTqpfmk67OBIOnLwXzqpQ0g6s/yjOtMd\r\nnjo3/pc6ViadOsKagTp0zqE6onxHOqTQ0zoExQ865wiAOncspDrfv206y6zDOrDV5Do0QJo62o/r\r\nOkbChjr9trM6Vv0ZO6IFizreYa46xbPKOnyaizrIFY86/D81OkoqRjoGFiM7q8iAOoyXFjouCo86\r\n/haJOqQP1jrKCaQ60pO6OnXsyzqy5oA6r/tlOppNbDpWRD06SkiOOhUFuTrKy3M645YuOlk7GTq6\r\nwD46gcazOqKaGzrxMgw6XkiOOlhDuzrFCJc6oQb0OiQlTjpXnUQ6SoCPOuyGhTqCCos6+uCcOjoU\r\nkzoWEb46poWHOt4OzjqYBG06DjwhOppoFzroPCg6AsRCOj6ioTr2VZk66E53OgywkDpgfW06/K5r\r\nOuGDjTp5P007wDHTORVcQjpy3ow6kE7jOkBOYjqjhQw6Lv+bOgsiazqBdSQ6NWDkOltNGjvfrDQ6\r\nWXRZOnBS4jpV8v46s6G9OtZ1TjrKebA6shRwOsMlljq07E46oklWOtF9EjqQVWo6NcbpOhJorTo6\r\nfiM66PuMOqXSZzolCzk6t+Y5OjjuAToTA6Y6ib2oOh2dFjoPayk6KmKbOsyDDzrIcWQ6gG2HOqia\r\nzTrsMrE6XbeHOoAshTrcP1k6w5SVOk40RTqSSGs6cwDAOmrvVzowPYk6KNy2OqYiKjoEvoo6RxaN\r\nOo6PgjoYe5A65TEIOgrDDTop4cQ6gmObOoLqwzr/9aI6biIxOqQNKjr9fm86E2fXOsambTpaW2U6\r\n6cGFOhJCjjpMcW467bsNOsasfzpwito6HJG2Oir4LjoWkFc6AGeHOjQuXzqSRaM6IseiOi1NgTon\r\nvXg6y1OjOpux3TkJgb46jq2/Os7nAztthvI58j93OvM8lTqjWGE6/NaMOsCXuDpvjS86UMk4OmDx\r\njzq2mSs6dsp1Ok8VlTo6gB47M9FHOqERDDrvTD461lmxOknYGzogP7k6M0hGOkkFtjra16s6j4Gy\r\nOh2uVTrYQ3Y6BIU/OpSlOzr4jWk6Bh1aOqLYPDoPwjg6F1+JOqBkhjq7DZg6tQjDOldmaTpIpmM6\r\nkiAdOhFQqDpmFp46hhAvOsnqpzpjdTs61NRBOuTzxDr0tvQ6FmqSOgQ4TzqIcqI6FaSXOrP7lDpx\r\nRZk6ixaFOoU94Tm/j8w61LtFOosuQjq0V3s6PKyCOn4vHTo+tuM6lQu2Os1PWDpNqVM6L7V/OpYi\r\nkzoQ8yk6SLNNOuRGNTorF5I6RZVjOphknTpOMBE60lYXO4/HQTrCl0A66w/rOvk8ejpXiac6Y1Gn\r\nOrAHajr+dno6j5ZMOp+BdzoBDAg77v86OmAgLjpDhcM6mfyjOpUKWDqWFa06Awg7Ojd6gDrwSHQ6\r\nlkJmOgFGijobEJY6WRqgOiXyVTqmroY6hK4lOq1CWDpvyWY6S09bOik4UzpOeZM6c5B0Ol03XjoZ\r\nAnY6CXewOnQ8DjoddqM6xFjrObGzZjpTJ4Q6nfWZOlplpzqpNWA6uf4vOmQ0nzrAfcM67L8iOtIC\r\nyTpxpU86RgVAOtaojjoE1B46yiEuOpGXojr3xgA6msN/OpqqDjuw8mw6MBCVOqUVEDq63Ps69pmX\r\nOg8ljDp6GiM6nhssOrIzNTq1lxQ6cSGAOpRDOzqm3XE6sfGGOpgMhzomNZ46WLhIOvo7BjvbuAM6\r\nvmFcOkhOBTt5KJc6vGJROiL5Tzq+qyw6iYJ1OnCFUjr6UnE6niizOsOyzzqFxYo63wO5OpxDlDpM\r\n/rw6OzwbOhJa/DpNCVY6ojsZOhgVmTohf6c6QUKkOoq6bTrXROE6XLICO/4cSzq75tw5dGFWOj+d\r\n1Tnd9bY6RfraOlOjhTqg1oA69EKSOr0rfjrzndU6JM7eOqlBiDoldGM6X3EcOs0FvzqK3y06qKos\r\nOsiswDociTc6WbyqOp9CEDpeMbI6x4EUOm0WmDqYew47qWMWOp1wFTruHfQ5qOu4OgibhTr/0oU6\r\nCl/nOtJuPDoR+bI6gpEdOmqHBTuz2lE6C5aMOqyIYzpcw0w6ZrRiOjgjlDqPAnA6lLarOucqgDpI\r\nVhM64UswO9A0nTqz7WY6f2ZSOkOYqDpeQgc6doCPOntLazrvJHM6/5VzOujIjzqS22w691d6Oq9t\r\nNzospn8627Y1OnqAXTpZHIM6hNFsOhNfwzrX7Tc65AauOtBWJjqPZQI6yslKOqMrhDqcDBs6jRnt\r\nOXs7hTpcSbA6iwEOOsjxejoKNoQ6YPKVOnPheTofV786NNdDOuiLFzoKNMI6itx6OgipYTp5NY06\r\nTXMaOgtzOTqQoqA67FkPOjRbSzqNQoc6t9hbOrZGQDqSQuU5ZptWOnfLljohZNA6nBlJOqNVIDqH\r\nPVY6LN6xOjlRPDrU4Xw6VKLyOgHaczqdcdU6ID64OqzEhzr0g7M63h8GOpVOfjrotbo662qEOjDd\r\npjriRP46+081OgN1DTr/rw06QqvIOrsQtTprheE5MDksOt54pTo+xjI6qsCTOg9hTDqy5W86AsOM\r\nOmFEhTq0RW465T+VOsm3fTpa/U06w9RYOsDYITp1L2Q6knNmOrRDlTr082Q6zoauOsf7fjrPEIU6\r\nBhhuOhlQhzo50Qo6gLNZOlCWNjrBxXk6YI1mOit6uToAjIQ6MEWROup3CjvMjrI6Vk5ZOhqaMDpm\r\nzCU6pKlKOiH0SDrimjk63ctfOnYGUzrJWHA6N1uLOtpnFzry+R86osGTOtDMLzrqxgs6of1aOklH\r\nvDo71dk6B1OaOmqaezrwlTM6G+JqOt5cfTpshWk6QMj8OQVOxzpwWSQ63jpFOhBwtTqMzUM6Qvna\r\nOgJbezokOx86QaiIOv7bcjraCUA6HkEhOtCYVDq6MYc6Z+t1Osp1STpR1Yo6HaNDOj3gIzrubgs6\r\nC8sqOqCXiDrW4BU6FkQNOvjTiTpUK4863CuUOhZLKzqAZlE6H9BtOtyfbDrJnQs6DFYUOt1/FDoM\r\nKlA6cgCCOuzr0zoPKCM6lJjkOcS16TkXRQk6BXQmOgxmBzrKqfU53h9IOWAXczl0BX86pI+DOh+L\r\nDjtu7mw5wOqTORteWDmILSA5XE3fOD1JKzkIKRA5QkxfOFr4QDiKWYM4531UOH+qSTrkMMs6D6FH\r\nOXGzlTqmjgQ69BdZObxuMjl4ht04LBZsOWtptjn2GY45ot0VOjyZrDpyAaA6euKKOqAbGjkfvzI5\r\nbqjuOmpeijoSgTU7PhrnOm732Dp6Gr85Q3ulOkc6vDnoqRs50b8VOZ1//ThyP0Q5EbMhOlyhKzpV\r\nISo7Mu+7Opj30DrCBss6pUKaOhSthzisXuo58QpAOLZOljpxyRc7KNy/OrFcHDuATTU5F5ceOqcM\r\ngDpwzW06GifoOOq/ETrSeIs6+Z2aOk4EzTr/kL46DqY4OyDPrDpWlFA5RBgSOV16cDlJ7744oxcr\r\nOfDyszl0/Yw57j4QOag8UDlZbSk5S/WBOWvYizkWj5k4MwX1OLCuWDnH/UA5Re03OWcQnzli9I05\r\n0+WaOZiWITpLfAs6zxQoOv5uzjlFA+85mWy5OfjMyDgSTF44vEN6OJP4yTjyVoA4/NH4ONuelzmi\r\nA885eju3ORI5XzhGRcc42PbqORjwOjoo+iw61yzKOa1SMzk171Q6NWV6Orl5qjkSeiM66CysOQn8\r\n9DlmW6M5almBOUQItTkawvs57nT3OTMVhjm3SuU5QkgYOnOlFjmsqd437KeXOlSe4DoChQ06NTyv\r\nOOIcPDmSegk62ve4OVrYpTiukGU3tB/eOJUFmDnRLY85heP6ONwKajmkaDk5O0lbOEW0GjmJQ744\r\njoZfN4qWajd/khU5vSGrOdSHXjlEnps4HlZ5OmzrhDoC+9I5PRsuOQ1EBjnZIgs75z1WOu74XTlQ\r\nTgU6uV9cOppKQjqVH4k5KiuPOW6aHToKx+o5d4k7OdwJpTiopE05Oh41OhtAGzqCAr84nccKOi8d\r\nkDrI8rU6ZPoiOswYrzqARzQ7nPiyOph2xTngzw45rAwGOQg18DmWCEw6vMICOYCC1jgSPT44zWIM\r\nO+0AYDrvk9k5wKAWOp9EoTcqDiQ5paojOj2TazYeuXs2L19aOviq6zkM6iY2RjpmNu6ufDbJwmA2\r\nUzl7NrNL6zZh5Fc4iUnvOadoeToo03g5pWdXOSCREzr0H/A5NBwtOIzYmjo6YbA6VhV7OfEyBDmv\r\nT4Q3wuFjNu1AXTbNu282QC11NYMUnjX2NWA1BW4lNZ93mjVBJkE1PmYxNbLCYzWQ6k417HWsNXVz\r\nIDVt9Fc1jxO3NPsOWzXDjr40VLfeNH4m/TQn8ic1nctiNevmDDUinv40PruINHQs3TRI7mw18tE+\r\nNYIxoTWikrc1VsvhNTxIHzV4NBw1Fq58NcPQTDVqITA66ndGOioyXDXmtU81yLPeNNmthjUoGpk1\r\nPXInNe1PlDWqkDc1jGh3NXDrYTXqKWQ1iX0TNZVrSjXewzg1BrINNY8rxzQz7aA0yVM6NUpvGjWr\r\nGR01A0xpNU4WmzV+5So19IxHNfUVgjW98xE1DgCONRJ5ujQLAio1puHCNKia8TTg2lc1TmLjNI9X\r\nCzU0/JM1fke5NAzsEjV7S5M1H2+eNZv7NjW/9Ek1TSumNfpt4TQj+Mk0lndDNQ8nhDVSD6Q1EuL0\r\nNKfbezUxQDs16gBfNbIkCjVJ3ys1b7pENbWnNDW0Y780V4cJNQyWaTXrd7k1AIDcNA==",
                            "noiseTrainingType" : "default"
                          }
                        }
                    ],
                    "start" : 1969,
                    "duration" : 1053,
                    "mediaStart" : 9,
                    "mediaDuration" : 1053,
                    "scalar" : 1,
                    "metadata" : {
                      "WinSubProjectDisplayName" : "",
                      "clipSpeedAttribute" : false
                    },
                    "animationTracks" : {

                    }
                  },
                  {
                    "id" : 92,
                    "_type" : "AMFile",
                    "src" : 4,
                    "trackNumber" : 1,
                    "attributes" : {
                      "ident" : "Aufn. 07-14-19_015",
                      "sampleRate" : 44100,
                      "bitDepth" : 16,
                      "gain" : 0.937754446796636,
                      "mixToMono" : true
                    },
                      "channelNumber" : "0,1",
                    "effects" : [
                        {
                          "effectName" : "NoiseReduction",
                          "category" : "categoryAudioEffects",
                          "parameters" : {
                            "denoiserAmount" : 20.0,
                            "denoiserThreshold" : 0.0,
                            "noiseProfile" : "SAsCQZGO6UAP8jU/yaZVPuBJCT5XCq09+1FtPRBpWT12eBI9USPJPEo4rzxNxGs8mS9WPAz8Tzwy\r\ntwo8RroaPGuPAjxbSQc8k8rlO4Eo5jvqFo87eeKqO+5TpDu/Spw7MEurO8JRLTvMXF47OkQkOyD/\r\njTs2KjE7ypMbOz8iITvcYcI6krAFO+kRuDoLKv46lR60OnvfzTrgU8A6f3TqOojWyjq1RZg69DnE\r\nOn3ZwTqOqpg62BajOk24bjqEYYQ6Onm9OuYXNjpnmYg685WxOeNj7Dl47UQ6WnA/OoGQWzo/XFw6\r\nGSrZOdojDTqYFEs6hfAHOlrAyDk/XzQ6HOpuOiRlCzotmsk5UQITOtoG1zml1Tc6hLSgOewzFTpB\r\nMLU5pecBOtUgCToEe5c5XV/iOdhr9jmVruU58wKiOUPhBzoMswE6nDiQOY3GrjmbYdA5oHodOq4O\r\nBzmpCMY5dVofOSQReTm8JMM51i/TOcl9sTnELIA5goaEOfmJajmlM4k58GbyOXrwdTneBUk5QHkz\r\nObaJfzkZ5dA5yEfWOOIuGjnFfk86zMlmORqQpDmwxG85pyceOpWu4DmHiFE5chWpOSQK9jnq4R05\r\nTIjnOaINDDlyKlw5A3SSOXyKNTnsoLg5kbkROc3OGTnXSDI5//QiOUKHyzjKjL44OvFBOTzlTDn9\r\ngVc5xoDjOFqFCzkOURU5W/m/OMgXxzh71Jo4VKkvOYZ7sziIs4g5KpS7OP1B2Ti/NtI4TvPqOFPL\r\n+TjTpQU5fOKaOIfZDjlCMNs4TKDQOGfn4jg40xk5CqyuOAjpcjhMWDg5lu8BOXUALTkFV2Q41i6s\r\nOOqRBzk7iOs4192gOJoo4jgpTgw4mLe4OOzfrjheqZk4lxWXOH4EkjjRXvo4i28AOfxVsDhUsIA4\r\niJTLOJhO4jj8Y+g4P7FkODTTMTjga6A4vm1GOPpvtDg+tQQ4WJmrOPmXITjcN0M4sPpiOEapfDjU\r\ngW045bgrORcZBjhX6Sw4+r38N7xlhziOBno4Xtf8OGdSKDj5LEs4Sv+AOAASSDiu9XQ4514WOH98\r\naziAAxg4BM2DOKSnXjiu0j04GB81OJUejzgf3oM48lGJOE7eWThfKRE4xUOZOPsTHDkcLsc4OHyT\r\nONCMhDhLTrM49YiEOA5VizgyHiM4IR7+N+aQ9TeUcIo4rCtlOBzScTi+7zc4emI4OG9piTiaCUM4\r\nMhQpODEg2jdUDDo4coRVOCwEUjgOiwk4m0+rOEhVTzgK3Yc4yxUpOF+8TDg/Bvc3lVMVOBqxCDiX\r\nOlI4YzYuOT3lgDj2ZGU4UPNgOMZaYDizmV84rsVfOI59RziczB84eMIAOMV09Tf89E04xmINOMaY\r\nLzhKkMA3UcwwOEWpJDig1FA4qYYuOM5+KDjkqCk4JyGtN+R2lDiTDj04TbvxN96QWjiqbPk328L0\r\nNzBJ6DdHiJA4YuMIOKs00ze15jM4MNJhOJIWCTi7fjM4+lXfNyd8PDg7RSU4dyqjN0CO6jf91ew3\r\nsBb6N5p37Tdu5LQ3JGAoOHBzxjeg0403gOviN0BJDjiOHok3fzJMOFV+OjieyZw3iedUNwI5qDho\r\nAtU3mXgKOJOwOzjq2Uc4qVkAOGNhpDfJaRM451bWN3gK/TctCOo3NjLJN7cdADis+k44nosZOMrg\r\nOzjAPAQ4GCAnOAGs6De+YJM4oToIOFagnjdi7wA4aIz9N/J6ojdOtI03AjreN0JbhjjGyMk3tgK9\r\nN8wChze4rh84kbiRN++1jzffEJg3cS0COALBwzdcrrc366eSOJRyWDhckfY3sDTUN1ih4zca4LU3\r\n5GqbOEAFSDdLra04uumwNwAaJDj2SEo4ustpN15BIDcWEww4lJe9N+50WTj4qeM3O6uDN9XlrDdK\r\nHnQ3yFLuN8aSpzcqchk48G4mNwb/7zevfLk3+7rGN/Peozem+I83B4vsN6fRjDdoipI3XMdQNwPA\r\nrzdyKmg3ArFiN9iQhjea9YQ3Nt8mOHWzmzdLfLM3jlRiN//2szd+dSs3IveONyHsnTe+E5o31A1x\r\nN1I5jTeG3xI3ZLiGNxdPdTdPvJY3rKWUN6YFfTd2AJE3aN5rN5MmUjeox7831qpmN9kmFjevABU3\r\nofmLN33wgzcmebM3vBCEN5T3bTdhu6M3rA2qNyz5lDefZFQ3LT/VNxPMbTeaY6M3ZhtHN4jsPTeT\r\nYz03iKDCN+jDqzeUxl03RUauN/mZrTcwSC43zhA+N56gTDdyW5Q3OCjsNmquYTclg6I3CIcTN56P\r\ngDeMbh83RyxbN1K4uDeTRYU3/EifN1i4ijc74W834iugN/5QdDfnPks3w4AnN2MSJTfCfZg31pqb\r\nN/zEMzeqVkA3vohDNz7FYzcNb2U3kE6mN6Q5WTeedkI3shd3N5n+DTe4rFQ3P9F/N6qzKDejnx03\r\nej85Nz0TZjfuiTM3wpxGNwI6KzfWXkE3TJyDNxi/hjeAZ3k3W7s+Nx7bATfk7043qk++NohUODfb\r\n3B838jZzN0a2ajcLNCA39NcFN0TYSDfi/oM33pZ5N+otTje+axg3aX6INxjfizflD1w3IlJPNx8z\r\nXTfawWE3KKNUN6V3Yjesifk2HPpJN4BOYDe27Cg30l8yNwbdVDfeIT83HgFQNzZ8jDe4TCg36ECK\r\nNzLBOTcMIG83KsU2N8xvKTdICjo3yssdN5BoHzemlkI3TLsONwnkMzck2iQ3NRRWNxA4HTcAFB83\r\nsIdCN3EUVDdEST83LVFlN3IbMzf8k/s2DmwdNzkjDTfg5yY32F0TN+oZOzcMOG83cngjN2QKdjfG\r\nmTU3d5TUNp6yAzcOokY3LmMwN34MNDeKPDc3VfOQNwkkGjd4RyE3fx5JN45vXTdyE8U3cvj+NlKH\r\nKjd8oTE3uTgwN1GaIDfrugU30mcHN+BrODdmCyI33nYgN6IhITepJ9o3ESwxNxgYQTfAJPQ2Stsn\r\nNxJ/6ja4oy43mBAJN1qnAzclZAk3jyVONxbACjdaMR83AJIiN1IuDje9s/o2bHMRN7h9QzfMdSs3\r\nmvvWNrxFVzdaVDg3GpQdN8P/IzezcRI3tdonN9Ro4TbQnCY33DzdNgp13zY++wY3hxYkN04SMTdK\r\npwQ3IkTLNlmG6DYsHRU3OJT5NhzorDbKiis3P7LiNkxuQTc4sAo3qkoHN4qO+DbPOu82ma8DN41c\r\nHjcU6+02iKUgN1xB+DZAPsI2wB4HNwrXIDfI/wI38AblNiwuHzfBEwk30RuzNrjSCzc39xc3JAEL\r\nN8dO9Da1nCY3zaTENhINIzdokgQ3pcEIN4yExjb0u+o2F2wEN9if5jZFhcc2Bo0DN47CLzcS6xU3\r\ncHsIN98FFDcccsA2R7vBNpQ0/TbOs/82THjUNjjGHTdWYyk30hQHNzBYDzdvnQ032UvZNq4B+Da7\r\nJRo3V9oZNzV4zjb0KtQ27RMVN27SQzeSE9U2ZMYkN32ytjZQp+o2m2ACN+kNRzdCb8E2ZCD1Np45\r\nAzeLW2s3MZ1VNq6LTDcL2Rg34IH5Nts4ITe8y6M29GBONle4Dzd/0qk28vAmN0NPnza5QvQ2dooB\r\nNyw6/jbgVc82et+4NtL38jaDpv82ogwBN4EWDDeg9b02MzLGNktHFTeDTwI3T0u+NqW8CDegTtQ2\r\nZQruNlJJ2zZcuwI3po//NlAIIDdi9sU2plPRNhHcCDcslLU2dvIJNwYA4zbihwU39Y4CN9uy0TZ6\r\niT833Cn8Nk/uAzcOlv82jhrqNhRZBDdM1JA2fim2NmxrxjZtsQA3xLrNNjGP8TZmW/A2qLPeNvRu\r\nhDb/fBE3gcrXNqt45Dafv/o2r5zeNpTUjjai4+Y2FavDNg1/6jbyQQc3Wd77Np/r1jYqbN82WNYG\r\nN/jR7ja/RtI2uBANN0Xg+jbXRds2oV/mNuRmzjYTQLg2KDvnNpwI8TasIfA23KejNh8Jozbo9tM2\r\n+NncNv7E3DaDdsw2fBQINzprwzaRi/o2tazfNh6eBzcgodY2dMz3Nkx3zjYdBgg33v/ZNlB7/Ta4\r\nKOY2I8jkNnv9rzYHPsI2yNynNpTU2zYnfqw2wcu8NjSzxjY5oPk2+fcAN+hcwjYbMbc2FIDdNios\r\nKjdLxeI2/c8JN8shYTe0dQc3/hrDNvB4sTa0GAE3QlXCNln39Tai0cM2D58qN9UHgzf+Gas2TNfB\r\nNrJN4Darp8M2irC+Ng5L+jZ3t/E2zKroNmLHTjeS8VA37pflNigAzzbOYPY2r7idNiIe5zbt7xU3\r\nLu3HNraE3zbv8Pw22O/hNhlSCTftmV42YP2UNim/mzbtGtA2nbLXNrXp/TbMuLY2vpIxN456sTaa\r\n7Mw2yPXQNmAZpzZfBu42cqWfNvvlAzcy2Mg28uGtNlGOpjZgLhk3pfcDNxybIDc0PuI28KaaNmR4\r\n2zbN6LE2UzMINz2G5DbSCAE3jIHINq6OkjYTvgE3DYiZNrdimDYm5/c2J7eyNq21szbaitE2rga3\r\nNr4WuDZUld82oH+CNsVb4TZqx8w2gTfoNgkJkTZykZs2sMa7NrRMlzZRPNI2XpRmNrkCYjZSeyM3\r\nEm+4NpS45zYyb4A2c1PcNtixyjbDj8U2T13aNpxCzTYIBMU2VCDSNqHmnjbp3wY3okLBNouDwDbu\r\n4p42CnLzNln1sTawico2JqHONmxUFzce4MQ2Wd7VNhl/3DbaKAY3kzbhNp7GkDY0IsE2P4kKN6Qv\r\nqjY4n8I22xvbNjsbFjeNU8c2K02qNsqsrDZZXQk3hcjLNtTp4DZwX+U2LkOhNuNagTbJ4b02YbL4\r\nNsmA5jboxIs20AfhNgroMDZMRMw2XITONnB6kjbOtWI2hRXsNq+YoTaurfg2mirlNvsbrTalUMY2\r\nx9qlNvN5qTYxU7c20lBJNj4StTZWk5U2FtT6NgmsuzZcIMw2bcKkNtGw9DY/0qU2+PDiNsgLkDaj\r\nw+Y2WkGkNl1bzzbVgoc2a2m0NnyZGzbN/sA2E4u4Nu1D4jYjnLM2VTW9Nl7TmDaUDVs2K52nNrx8\r\nAjcy+bs2psqxNouK7zZU/U82x/OaNmezzjZ+oJs2/D3YNjg6mjZHo9k2QgPbNj/F/DYyWHY2LGvA\r\nNgvawDY+pKk2iRSYNj3+tzaPrck2TIv2NpTkszYfSbw2/VG0Nt+9ojaNk7M2RJ7sNuUBkjYngKA2\r\nG+rfNkwvmTY3J5Q2I661NuET8Db4ZJY2CcmKNnlBMDbTfaQ2o2HvNm48bjbB85g2znyqNmv6lDY3\r\nsok2AFmuNowsljYm+YE2It24Nqj13TasPpo2vFKMNqjgyDYjKtY2BASpNv/TszYXysw2ED6xNgv3\r\nujapSN020a/ONs9QMjaEtrc2S5S3NoXfjDYoUrY2mxeZNt19kzYB4l42SjUBNxkhgjZrU6Y22Su7\r\nNig/zTa82bw2lswBN5mhsDZelBY32mzcNmE79jbwMOE2EQ6ZNsXBrTYLkMc26QS1NgBIjDYR1TM8\r\nGtUeOydZhTpS/5E6T2GgOstG8TpK2Dw6NoeBOuaCXToKUDo6NDGoOlYkCTqIyZQ6Tv+1OlxcjjqL\r\nCVk6X8GFOnLqWzqsgGo68OtfOm2qGTpLyYU6K2aTOvu3Fjv5eC46xDWAOosaizowHKg6UkqLOmwr\r\nujrAjV863TzOOpyVDjo2jzI62o83OlpL/DrLtJc6nouUOm/dKzoD4dg6YPJ8OvehajqTyLY6924l\r\nOv7tbTqErV063jepOnDcgzqakgI7HHYbOhrP6DrkkjE6LFIBOumLyzqGMjA6yPN0OrBCWTrfkcs6\r\nJF90OqPM2DoSPo46Lb6JOlGZLzpbSIE6RHREOoyUazo3DoQ6zIA7Ok3ULDq0zlE6TD7zOhtgHzqx\r\nA206znRMOuMbrzokhMg6Ov0wOshnfDovKNo6fBGYOvLLgzrezjs6IPU5OqElDTuvDqM69wwxOg5u\r\npTp8ers63H0IOyBqfDp8ToI6u/qoOjiFtTpXJWo6HP9AOtog0jrLGT060oBjOssMNToKBiY6Wv3T\r\nOvq1YDp/aqg6ECzeOkflkTqKvDY6vm2cOhOsTTrCsKw6iGVrOuZ5aTqOWH46mPKGOgHjtzogeAs7\r\nMJ5EOhS3ZjoNb486IpeuOsEzQzok7GA60q+lOnyeOzqwJB46hmePOmBENzquc1Y6P7efOj3CpjpY\r\nEDM69Zo0On0dlzqXHWI6tBxkOv2NnTpH5Uw6TF11Os7YFTpzSZA6UAy3Ot5PYzoCX5s6oO9qOnrK\r\n0zqQCtQ6BR4BOuYjYDr0WDM6sFKBOhAxYzpKn886PuFKOthI8DrdbWQ63DGZOpZllDqMLRU6LOlH\r\nOvOqhjp0kWA6/fp5OmPDADtRGFI69ml+OoRSkDrHiWA61GMkOtjV4TnIKlE6wQNgOrgLDTpiFkk6\r\nLuPLOuuSkzrwrJM6guiOOnn21Dr3jHs6StmwOgoEZzpjyuk61axuOupElDo2Mys6uPGDOnZxojrO\r\nM8Y6tdEYOm4gjDpjOYQ6hCRYOt07BTtrkQA7krO7OrJzMzos2v46d+iLOljJSjr5P4w62EqEOsyH\r\nZzoU7kw6NpQqOhoNsjpEDJs6PgxTO9wCzjoeE4U6e1DVOkvehzpAM8g6aME4OgNSRzpqZIY6xL2M\r\nOisuljrbbJQ6YXqzOqLDIjqguKE6+SJPOrqwXjpa7Lg6qV2UOqxEjTpxzZg6dPuhOk7SRDp0rbI6\r\nHWFxOo0XnjrIRjQ6XFefOojwlzpIo6o6t1ktOxurPDpTvBU67OY0Ohy3rzpUXDU60VqNOmxMbzpZ\r\nntE6ETypOirNTTpvlQY7Ra78OuzajTqWw5A6VHZcOuwemDr5oMk63/2zOgKqtjpfa0o6wLaOOisb\r\nrDpe06I6MnGPOrb63DpWYoo61DfIOq130TpgGhs7Dy0XOj4b9zkKSDM6vL30Orwh8Tr1Dmg67Q7e\r\nOQyq5Dnm9ZE6w173OtZdQzoUWXI69nejOs53fjpJqF86mBvUOgjQHjqIzoc6hn0GO/KngzoA1js6\r\na/IuOsR12DrqPIw6IX8NOk3sUTrWU5g6tc6EOszOaTpUaYo6IwhUOsRJ/TqypGg67+rmOmit+ToI\r\n6TI6A7R9OoWdizq9fFY6108oOjoVETo3v1s6CeqyOpuS6Tp+h3U6R/AqOtpOsznOBWg6mhBfOtNO\r\nXjoIni06oLuyOq8jkTr4Dgo72BifOm3nIDs9HnU61rU9OumjLTqDg4k6Sq5wOqoRazprYKk64LCg\r\nOn2aSzpECUo6ts1kOkiaejrNTEw6ox9nOhR0bDpAkj46BzxrOrwZbDoPl1k6LCuGOmvBgjoZGYU6\r\nGVOrOtQk3jl6dPU5rcq0OrQgwjq1kF06MoCzOrMohzqdsX06tIcUOsUPSjrhtng6OQsTOuIIUTo8\r\nR2U69NyBOu+0ojo4g6A6ugp6OgNMbTpoSbc6I95xOrpOwzpIMxc6xECeOm6wVDqAnQo6pvWBOskH\r\nOjoHjzM6JWG3OrGguzqlEnU6rTVWOgGgJTrcJoA6ECcMO2sZLjrYkE46mgqIOrf3+jraJiY63xKl\r\nOgAtcToYUkQ6fNVyOsxwjDpkBjc6sR+GOuLHtjrxAAA6ZNJ3OspCgjoAks46/slyOn0+KDrC3PU5\r\nr0d+OrD49jkO7gI6NXtNOprjRDp/5FU6hnz1OiGnlDrZ4aY61zcdOgbRcTqoQM06se4qOvEWrjry\r\nIbQ6SsqsOj3rjzrfwJk6kxGfOsYvOzrgt086iBKTOu5VfTrIndg6m7ZKOsKYPDpxmHQ6n3VIOp17\r\nRDo/ogg7noSjOmhOgzosVJg65FMlOqaNhTpWnJQ6eAD3OXhcRDo02AE6VlW8OjpDUTq6fEE6ixM8\r\nOiQ3qjr/6ec6zp2OOqz4mjo7sjQ6jjqHOrKkezqM9Ao6ooljOkPDGjrY2JY6KV4IOo6BHDpRMDY6\r\nrFdGOrbBkDqYgdg64QMnOj9uNjpwH8w5K1+qOqCdTTpl04U6Y5aiOoh9hDoAtzk6ClalOsTuYjra\r\nm006oWNmOgMWJjoiG0M6a9yMOuWdlzonb7E6/qeFOuKTDzt6m786hdwcOv++dzrht2E6oqqJOpMa\r\nZjrspYY6wo5qOgwFSzrBY246q7K6Or4Grzp/hSE69gaKOodCzzpUcZQ6AYbpOY6zBTqJKkE6cKIu\r\nOlnuyTq5+Ic6/PWaOsmpKzoo/O857BqOOm/6OzoEEgE6GdABOsCoxTra7Ro6SNifOsi8hDrw7686\r\nwHJ5OrivhjrVsNw5gCiZOr/PnDqDr7o6jPKHOhrDqDppDOI6+k/JOlwlYjoq1Ws6OUW8OigMPTpe\r\nRNM6bMK5OvqrjjpS1rQ6GSxuOnXKJTpktic69p2gOrRryjlvX6Y6gt2OOoIJczoUu4Q6Ho1tOpVd\r\nNTpQ14Y6Kxx6Ormw/Tmje4w68X6COoK8tTpTDYI6MBWoOi0lcTqFCEE6NA9TOr6oGzpPKq46CHci\r\nOoSZSzpNkRc6dpKKOuLrVzrIKHs6e0ekOrcaRjpmEf85NimQOi4vfzpfhaU6YboaOo2WCjuugYc6\r\nkumLOnprPjrkn286hFxfOsWIVTqjx+c6ikFMOvSEgDrIaYk6gI+OOpSyvzr4QCk6a1MkOmGgHzr5\r\n1246EBotOlpLXDpSwps62VmsOjkjrToQRSk6GfPAOkQmlToo90o6+MosOk3LRjoVgJo66qCaOkJb\r\nyjpeG5I6rMaiOvgJtDqKwfs6UJvdOWuMnzrS7ic6+0fWOd5rhTr+xgI6fSMGOnZ+lTryGl86tBpq\r\nOvtYtzrGLls6Kq/2OgEFfTr/+9s6tAOPOre2jzq2jZI69Yc/Oi1CmDoXTRU6zOMBO5ZU/zmF6+85\r\nAk+eOhXvhDruHmY6i0KzOuuJiDoaQII6OT33Ofw5Xjq2R386ogOfOl8/GTqiP405DhNpOhp/pDqU\r\ngmk6pPB6Ot7aKTqOCJk6E4JHOiJCEjq7a1o6mHJpOkMy4TnR3Ew6hAABOq1SNjrBlWw6641EOvD1\r\nozqTt6c6LGkTOh7YODp6CmQ6WAasOrL9vDoT7Gs6hiVuOrj+njraI406gq09OgdTejpWDYc6ypTZ\r\nOfWCSTrEQGc6+DOcOj3HQjrdMmI6G06nOvtRvjo++j86MUwQOhJ2+zk5YF468mz6OVTZIDofIxI6\r\nO7i9OjhKDjqk8ec6Js35OVg+ETtxQFQ67sGmOrm5ETqa7xg6p+uqOuZ8Sjofg/M5Vjf3OSBOUjoY\r\nKIA6exFGOkNwFTvzfE06HCwROiNDVDoOBQk4oaxVNznlFDfZ9r02wxzMNmK5gDaCwYU2CCF6NkMZ\r\nYjZJjT02jEBkNmXRPjaIf+w1JlDwNcrMAjauvcs1xWrnNdyxyDX6+881/lbENdKdsDUs76c1zVvd\r\nNYB+zzUd96o14qBkNV3ckDXnpuk18FyvNcbXxTURaqA1IAueNeQJfjUA/Nc1iH2UNXAVfjW1Yjg1\r\nil7ONb+mJDUbxUk1F1qYNZ26hzX874M1E1piNZDFoTUSijU17AkFNbtLTDWWolQ1jqM9NRp/OzXs\r\nKMM1576dNWKTZTUHG441t2IANWVi5TXZzbY1SB+ONVwwkDUYwnE1fXkeNX9EeDWvGwM6xt72Oeq2\r\nvDmJNa05tKTROH5YxjhGKrg4bdQoODAZLzjg92Y5MaSUOYKHrjm0YiE6gn5WOmWPFDonJ485IU4V\r\nOcmPODnwHHs4DkgVOYtHITnN+Fo2r8ypOXA3djmvmzY5UD6GOXCE1jlncq855AfHOUj/CDpKFOI5\r\nyTEaOQIZVzhU0Io44Ge+OchPiTld9mk4P5uGNoti3jZ0Rio4Qv8ZOLffQzcw0cU3dvSaOTYr4jlk\r\nvMw538StObhFNTm4Ip04GloWOGmzZDjSICw5eASdOFVXvzeo7eU4GuYfOfJSIzpvT0s6fViSOSAZ\r\nsjklcV45UTy0OHqPijlOM6Y5t5lnOB2bMDWU7EI1bOFGNTTZIDUdaT41lcuANRoSMzWjX1Q1kdk+\r\nNW9BLjXodSY1IZJRNcV7izWkJYQ1R/OENQKsPTU46nY1U0OKNcRX0jQ6QSg1NH6VNacHKTVNBVM1\r\nRZ2GNQ2ZaDVy2K81oCEoNe1nezUkzFc1kWtqNdopIDV1Twk41lWkN6MGWTiui544M+sGOLA03ji9\r\n99Y5flfXOd7tlTiJVw04et05OeuhGzlGqTc44yy/OKn/8TmvXZE6tDcOOk24DTghwY05Blf6OQmf\r\ngTm2his5J/yWOVIBcTWh3i44XsyzOK5M4TjGJx05pmeTOBizNDnivsg5xR1SOawllThchkE3k1sn\r\nOf8DqTnLozk5mNOQOJ1O8jfMCSI5DrjdOPdJDzn3yD0450igOUYYLTrPvsc5pKGpOSyDCDpLaXk4\r\nahhwOLriiDj2QPc5V5r1OaCQhziY4KA42Jr5N5ZitTYzxx05cJKsOTMrfjlEf6w4VA23OLfz4jgI\r\n/Fk4HmbfNDLkGDW2RH81xvDiNFoiDDUlrPM0FskUNe1b5DTSFpw1G3wcNfbkNjVsxDs1nucnNTo8\r\nHTXLxiA1oLgANaZ+jDVMSrk0dEn6NCj4HjWyqAU1RrccNTD93jTdGcA0NH3YND0CzDSniRk11l4F\r\nNW7X3TTMlZ40MBn8NPPaITUxygI1qnuwNPZr3zTM8bU0S2EaNUihkDQVPNI09YqTNAxXrzSFrAM1\r\nBiMINR5agDQZkBw1cwO+NJ4VTDUgqws12I9HNfPtejQsdI81mHDMNGPivDQdQqQ0xr3qNENeADVw\r\nXCQ1UF2hNAKzDjWyDk019SprNLTD1jS8o5c0S2hmNawqhzQzsUw1cGUhNeX9qjQoMvA0EEIWNWfo\r\nKzV4VUg1MAbuNB7ZtzR0fcQ0uLUJNftzNDWEyuk0YGUxNXU7ADUyPtk0TkwHNQvBBTUAFUQ13XQG\r\nNRLlsjS2gdc08NcGNceMITVo+xU17pm6NJtOCTX8No41b0QbNbReNzUNUBM1AAAQNA==",
                            "noiseTrainingType" : "default"
                          }
                        }
                    ],
                    "start" : 3022,
                    "duration" : 394,
                    "mediaStart" : 39,
                    "mediaDuration" : 394,
                    "scalar" : 1,
                    "metadata" : {
                      "WinSubProjectDisplayName" : "",
                      "clipSpeedAttribute" : false
                    },
                    "animationTracks" : {

                    }
                  },
                  {
                    "id" : 93,
                    "_type" : "AMFile",
                    "src" : 4,
                    "trackNumber" : 1,
                    "attributes" : {
                      "ident" : "Aufn. 07-14-19_015",
                      "sampleRate" : 44100,
                      "bitDepth" : 16,
                      "gain" : 0.91745037350662,
                      "mixToMono" : true
                    },
                      "channelNumber" : "0,1",
                    "effects" : [
                        {
                          "effectName" : "NoiseReduction",
                          "category" : "categoryAudioEffects",
                          "parameters" : {
                            "denoiserAmount" : 20.0,
                            "denoiserThreshold" : 0.0,
                            "noiseProfile" : "SAsCQZGO6UAP8jU/yaZVPuBJCT5XCq09+1FtPRBpWT12eBI9USPJPEo4rzxNxGs8mS9WPAz8Tzwy\r\ntwo8RroaPGuPAjxbSQc8k8rlO4Eo5jvqFo87eeKqO+5TpDu/Spw7MEurO8JRLTvMXF47OkQkOyD/\r\njTs2KjE7ypMbOz8iITvcYcI6krAFO+kRuDoLKv46lR60OnvfzTrgU8A6f3TqOojWyjq1RZg69DnE\r\nOn3ZwTqOqpg62BajOk24bjqEYYQ6Onm9OuYXNjpnmYg685WxOeNj7Dl47UQ6WnA/OoGQWzo/XFw6\r\nGSrZOdojDTqYFEs6hfAHOlrAyDk/XzQ6HOpuOiRlCzotmsk5UQITOtoG1zml1Tc6hLSgOewzFTpB\r\nMLU5pecBOtUgCToEe5c5XV/iOdhr9jmVruU58wKiOUPhBzoMswE6nDiQOY3GrjmbYdA5oHodOq4O\r\nBzmpCMY5dVofOSQReTm8JMM51i/TOcl9sTnELIA5goaEOfmJajmlM4k58GbyOXrwdTneBUk5QHkz\r\nObaJfzkZ5dA5yEfWOOIuGjnFfk86zMlmORqQpDmwxG85pyceOpWu4DmHiFE5chWpOSQK9jnq4R05\r\nTIjnOaINDDlyKlw5A3SSOXyKNTnsoLg5kbkROc3OGTnXSDI5//QiOUKHyzjKjL44OvFBOTzlTDn9\r\ngVc5xoDjOFqFCzkOURU5W/m/OMgXxzh71Jo4VKkvOYZ7sziIs4g5KpS7OP1B2Ti/NtI4TvPqOFPL\r\n+TjTpQU5fOKaOIfZDjlCMNs4TKDQOGfn4jg40xk5CqyuOAjpcjhMWDg5lu8BOXUALTkFV2Q41i6s\r\nOOqRBzk7iOs4192gOJoo4jgpTgw4mLe4OOzfrjheqZk4lxWXOH4EkjjRXvo4i28AOfxVsDhUsIA4\r\niJTLOJhO4jj8Y+g4P7FkODTTMTjga6A4vm1GOPpvtDg+tQQ4WJmrOPmXITjcN0M4sPpiOEapfDjU\r\ngW045bgrORcZBjhX6Sw4+r38N7xlhziOBno4Xtf8OGdSKDj5LEs4Sv+AOAASSDiu9XQ4514WOH98\r\naziAAxg4BM2DOKSnXjiu0j04GB81OJUejzgf3oM48lGJOE7eWThfKRE4xUOZOPsTHDkcLsc4OHyT\r\nONCMhDhLTrM49YiEOA5VizgyHiM4IR7+N+aQ9TeUcIo4rCtlOBzScTi+7zc4emI4OG9piTiaCUM4\r\nMhQpODEg2jdUDDo4coRVOCwEUjgOiwk4m0+rOEhVTzgK3Yc4yxUpOF+8TDg/Bvc3lVMVOBqxCDiX\r\nOlI4YzYuOT3lgDj2ZGU4UPNgOMZaYDizmV84rsVfOI59RziczB84eMIAOMV09Tf89E04xmINOMaY\r\nLzhKkMA3UcwwOEWpJDig1FA4qYYuOM5+KDjkqCk4JyGtN+R2lDiTDj04TbvxN96QWjiqbPk328L0\r\nNzBJ6DdHiJA4YuMIOKs00ze15jM4MNJhOJIWCTi7fjM4+lXfNyd8PDg7RSU4dyqjN0CO6jf91ew3\r\nsBb6N5p37Tdu5LQ3JGAoOHBzxjeg0403gOviN0BJDjiOHok3fzJMOFV+OjieyZw3iedUNwI5qDho\r\nAtU3mXgKOJOwOzjq2Uc4qVkAOGNhpDfJaRM451bWN3gK/TctCOo3NjLJN7cdADis+k44nosZOMrg\r\nOzjAPAQ4GCAnOAGs6De+YJM4oToIOFagnjdi7wA4aIz9N/J6ojdOtI03AjreN0JbhjjGyMk3tgK9\r\nN8wChze4rh84kbiRN++1jzffEJg3cS0COALBwzdcrrc366eSOJRyWDhckfY3sDTUN1ih4zca4LU3\r\n5GqbOEAFSDdLra04uumwNwAaJDj2SEo4ustpN15BIDcWEww4lJe9N+50WTj4qeM3O6uDN9XlrDdK\r\nHnQ3yFLuN8aSpzcqchk48G4mNwb/7zevfLk3+7rGN/Peozem+I83B4vsN6fRjDdoipI3XMdQNwPA\r\nrzdyKmg3ArFiN9iQhjea9YQ3Nt8mOHWzmzdLfLM3jlRiN//2szd+dSs3IveONyHsnTe+E5o31A1x\r\nN1I5jTeG3xI3ZLiGNxdPdTdPvJY3rKWUN6YFfTd2AJE3aN5rN5MmUjeox7831qpmN9kmFjevABU3\r\nofmLN33wgzcmebM3vBCEN5T3bTdhu6M3rA2qNyz5lDefZFQ3LT/VNxPMbTeaY6M3ZhtHN4jsPTeT\r\nYz03iKDCN+jDqzeUxl03RUauN/mZrTcwSC43zhA+N56gTDdyW5Q3OCjsNmquYTclg6I3CIcTN56P\r\ngDeMbh83RyxbN1K4uDeTRYU3/EifN1i4ijc74W834iugN/5QdDfnPks3w4AnN2MSJTfCfZg31pqb\r\nN/zEMzeqVkA3vohDNz7FYzcNb2U3kE6mN6Q5WTeedkI3shd3N5n+DTe4rFQ3P9F/N6qzKDejnx03\r\nej85Nz0TZjfuiTM3wpxGNwI6KzfWXkE3TJyDNxi/hjeAZ3k3W7s+Nx7bATfk7043qk++NohUODfb\r\n3B838jZzN0a2ajcLNCA39NcFN0TYSDfi/oM33pZ5N+otTje+axg3aX6INxjfizflD1w3IlJPNx8z\r\nXTfawWE3KKNUN6V3Yjesifk2HPpJN4BOYDe27Cg30l8yNwbdVDfeIT83HgFQNzZ8jDe4TCg36ECK\r\nNzLBOTcMIG83KsU2N8xvKTdICjo3yssdN5BoHzemlkI3TLsONwnkMzck2iQ3NRRWNxA4HTcAFB83\r\nsIdCN3EUVDdEST83LVFlN3IbMzf8k/s2DmwdNzkjDTfg5yY32F0TN+oZOzcMOG83cngjN2QKdjfG\r\nmTU3d5TUNp6yAzcOokY3LmMwN34MNDeKPDc3VfOQNwkkGjd4RyE3fx5JN45vXTdyE8U3cvj+NlKH\r\nKjd8oTE3uTgwN1GaIDfrugU30mcHN+BrODdmCyI33nYgN6IhITepJ9o3ESwxNxgYQTfAJPQ2Stsn\r\nNxJ/6ja4oy43mBAJN1qnAzclZAk3jyVONxbACjdaMR83AJIiN1IuDje9s/o2bHMRN7h9QzfMdSs3\r\nmvvWNrxFVzdaVDg3GpQdN8P/IzezcRI3tdonN9Ro4TbQnCY33DzdNgp13zY++wY3hxYkN04SMTdK\r\npwQ3IkTLNlmG6DYsHRU3OJT5NhzorDbKiis3P7LiNkxuQTc4sAo3qkoHN4qO+DbPOu82ma8DN41c\r\nHjcU6+02iKUgN1xB+DZAPsI2wB4HNwrXIDfI/wI38AblNiwuHzfBEwk30RuzNrjSCzc39xc3JAEL\r\nN8dO9Da1nCY3zaTENhINIzdokgQ3pcEIN4yExjb0u+o2F2wEN9if5jZFhcc2Bo0DN47CLzcS6xU3\r\ncHsIN98FFDcccsA2R7vBNpQ0/TbOs/82THjUNjjGHTdWYyk30hQHNzBYDzdvnQ032UvZNq4B+Da7\r\nJRo3V9oZNzV4zjb0KtQ27RMVN27SQzeSE9U2ZMYkN32ytjZQp+o2m2ACN+kNRzdCb8E2ZCD1Np45\r\nAzeLW2s3MZ1VNq6LTDcL2Rg34IH5Nts4ITe8y6M29GBONle4Dzd/0qk28vAmN0NPnza5QvQ2dooB\r\nNyw6/jbgVc82et+4NtL38jaDpv82ogwBN4EWDDeg9b02MzLGNktHFTeDTwI3T0u+NqW8CDegTtQ2\r\nZQruNlJJ2zZcuwI3po//NlAIIDdi9sU2plPRNhHcCDcslLU2dvIJNwYA4zbihwU39Y4CN9uy0TZ6\r\niT833Cn8Nk/uAzcOlv82jhrqNhRZBDdM1JA2fim2NmxrxjZtsQA3xLrNNjGP8TZmW/A2qLPeNvRu\r\nhDb/fBE3gcrXNqt45Dafv/o2r5zeNpTUjjai4+Y2FavDNg1/6jbyQQc3Wd77Np/r1jYqbN82WNYG\r\nN/jR7ja/RtI2uBANN0Xg+jbXRds2oV/mNuRmzjYTQLg2KDvnNpwI8TasIfA23KejNh8Jozbo9tM2\r\n+NncNv7E3DaDdsw2fBQINzprwzaRi/o2tazfNh6eBzcgodY2dMz3Nkx3zjYdBgg33v/ZNlB7/Ta4\r\nKOY2I8jkNnv9rzYHPsI2yNynNpTU2zYnfqw2wcu8NjSzxjY5oPk2+fcAN+hcwjYbMbc2FIDdNios\r\nKjdLxeI2/c8JN8shYTe0dQc3/hrDNvB4sTa0GAE3QlXCNln39Tai0cM2D58qN9UHgzf+Gas2TNfB\r\nNrJN4Darp8M2irC+Ng5L+jZ3t/E2zKroNmLHTjeS8VA37pflNigAzzbOYPY2r7idNiIe5zbt7xU3\r\nLu3HNraE3zbv8Pw22O/hNhlSCTftmV42YP2UNim/mzbtGtA2nbLXNrXp/TbMuLY2vpIxN456sTaa\r\n7Mw2yPXQNmAZpzZfBu42cqWfNvvlAzcy2Mg28uGtNlGOpjZgLhk3pfcDNxybIDc0PuI28KaaNmR4\r\n2zbN6LE2UzMINz2G5DbSCAE3jIHINq6OkjYTvgE3DYiZNrdimDYm5/c2J7eyNq21szbaitE2rga3\r\nNr4WuDZUld82oH+CNsVb4TZqx8w2gTfoNgkJkTZykZs2sMa7NrRMlzZRPNI2XpRmNrkCYjZSeyM3\r\nEm+4NpS45zYyb4A2c1PcNtixyjbDj8U2T13aNpxCzTYIBMU2VCDSNqHmnjbp3wY3okLBNouDwDbu\r\n4p42CnLzNln1sTawico2JqHONmxUFzce4MQ2Wd7VNhl/3DbaKAY3kzbhNp7GkDY0IsE2P4kKN6Qv\r\nqjY4n8I22xvbNjsbFjeNU8c2K02qNsqsrDZZXQk3hcjLNtTp4DZwX+U2LkOhNuNagTbJ4b02YbL4\r\nNsmA5jboxIs20AfhNgroMDZMRMw2XITONnB6kjbOtWI2hRXsNq+YoTaurfg2mirlNvsbrTalUMY2\r\nx9qlNvN5qTYxU7c20lBJNj4StTZWk5U2FtT6NgmsuzZcIMw2bcKkNtGw9DY/0qU2+PDiNsgLkDaj\r\nw+Y2WkGkNl1bzzbVgoc2a2m0NnyZGzbN/sA2E4u4Nu1D4jYjnLM2VTW9Nl7TmDaUDVs2K52nNrx8\r\nAjcy+bs2psqxNouK7zZU/U82x/OaNmezzjZ+oJs2/D3YNjg6mjZHo9k2QgPbNj/F/DYyWHY2LGvA\r\nNgvawDY+pKk2iRSYNj3+tzaPrck2TIv2NpTkszYfSbw2/VG0Nt+9ojaNk7M2RJ7sNuUBkjYngKA2\r\nG+rfNkwvmTY3J5Q2I661NuET8Db4ZJY2CcmKNnlBMDbTfaQ2o2HvNm48bjbB85g2znyqNmv6lDY3\r\nsok2AFmuNowsljYm+YE2It24Nqj13TasPpo2vFKMNqjgyDYjKtY2BASpNv/TszYXysw2ED6xNgv3\r\nujapSN020a/ONs9QMjaEtrc2S5S3NoXfjDYoUrY2mxeZNt19kzYB4l42SjUBNxkhgjZrU6Y22Su7\r\nNig/zTa82bw2lswBN5mhsDZelBY32mzcNmE79jbwMOE2EQ6ZNsXBrTYLkMc26QS1NgBIjDYR1TM8\r\nGtUeOydZhTpS/5E6T2GgOstG8TpK2Dw6NoeBOuaCXToKUDo6NDGoOlYkCTqIyZQ6Tv+1OlxcjjqL\r\nCVk6X8GFOnLqWzqsgGo68OtfOm2qGTpLyYU6K2aTOvu3Fjv5eC46xDWAOosaizowHKg6UkqLOmwr\r\nujrAjV863TzOOpyVDjo2jzI62o83OlpL/DrLtJc6nouUOm/dKzoD4dg6YPJ8OvehajqTyLY6924l\r\nOv7tbTqErV063jepOnDcgzqakgI7HHYbOhrP6DrkkjE6LFIBOumLyzqGMjA6yPN0OrBCWTrfkcs6\r\nJF90OqPM2DoSPo46Lb6JOlGZLzpbSIE6RHREOoyUazo3DoQ6zIA7Ok3ULDq0zlE6TD7zOhtgHzqx\r\nA206znRMOuMbrzokhMg6Ov0wOshnfDovKNo6fBGYOvLLgzrezjs6IPU5OqElDTuvDqM69wwxOg5u\r\npTp8ers63H0IOyBqfDp8ToI6u/qoOjiFtTpXJWo6HP9AOtog0jrLGT060oBjOssMNToKBiY6Wv3T\r\nOvq1YDp/aqg6ECzeOkflkTqKvDY6vm2cOhOsTTrCsKw6iGVrOuZ5aTqOWH46mPKGOgHjtzogeAs7\r\nMJ5EOhS3ZjoNb486IpeuOsEzQzok7GA60q+lOnyeOzqwJB46hmePOmBENzquc1Y6P7efOj3CpjpY\r\nEDM69Zo0On0dlzqXHWI6tBxkOv2NnTpH5Uw6TF11Os7YFTpzSZA6UAy3Ot5PYzoCX5s6oO9qOnrK\r\n0zqQCtQ6BR4BOuYjYDr0WDM6sFKBOhAxYzpKn886PuFKOthI8DrdbWQ63DGZOpZllDqMLRU6LOlH\r\nOvOqhjp0kWA6/fp5OmPDADtRGFI69ml+OoRSkDrHiWA61GMkOtjV4TnIKlE6wQNgOrgLDTpiFkk6\r\nLuPLOuuSkzrwrJM6guiOOnn21Dr3jHs6StmwOgoEZzpjyuk61axuOupElDo2Mys6uPGDOnZxojrO\r\nM8Y6tdEYOm4gjDpjOYQ6hCRYOt07BTtrkQA7krO7OrJzMzos2v46d+iLOljJSjr5P4w62EqEOsyH\r\nZzoU7kw6NpQqOhoNsjpEDJs6PgxTO9wCzjoeE4U6e1DVOkvehzpAM8g6aME4OgNSRzpqZIY6xL2M\r\nOisuljrbbJQ6YXqzOqLDIjqguKE6+SJPOrqwXjpa7Lg6qV2UOqxEjTpxzZg6dPuhOk7SRDp0rbI6\r\nHWFxOo0XnjrIRjQ6XFefOojwlzpIo6o6t1ktOxurPDpTvBU67OY0Ohy3rzpUXDU60VqNOmxMbzpZ\r\nntE6ETypOirNTTpvlQY7Ra78OuzajTqWw5A6VHZcOuwemDr5oMk63/2zOgKqtjpfa0o6wLaOOisb\r\nrDpe06I6MnGPOrb63DpWYoo61DfIOq130TpgGhs7Dy0XOj4b9zkKSDM6vL30Orwh8Tr1Dmg67Q7e\r\nOQyq5Dnm9ZE6w173OtZdQzoUWXI69nejOs53fjpJqF86mBvUOgjQHjqIzoc6hn0GO/KngzoA1js6\r\na/IuOsR12DrqPIw6IX8NOk3sUTrWU5g6tc6EOszOaTpUaYo6IwhUOsRJ/TqypGg67+rmOmit+ToI\r\n6TI6A7R9OoWdizq9fFY6108oOjoVETo3v1s6CeqyOpuS6Tp+h3U6R/AqOtpOsznOBWg6mhBfOtNO\r\nXjoIni06oLuyOq8jkTr4Dgo72BifOm3nIDs9HnU61rU9OumjLTqDg4k6Sq5wOqoRazprYKk64LCg\r\nOn2aSzpECUo6ts1kOkiaejrNTEw6ox9nOhR0bDpAkj46BzxrOrwZbDoPl1k6LCuGOmvBgjoZGYU6\r\nGVOrOtQk3jl6dPU5rcq0OrQgwjq1kF06MoCzOrMohzqdsX06tIcUOsUPSjrhtng6OQsTOuIIUTo8\r\nR2U69NyBOu+0ojo4g6A6ugp6OgNMbTpoSbc6I95xOrpOwzpIMxc6xECeOm6wVDqAnQo6pvWBOskH\r\nOjoHjzM6JWG3OrGguzqlEnU6rTVWOgGgJTrcJoA6ECcMO2sZLjrYkE46mgqIOrf3+jraJiY63xKl\r\nOgAtcToYUkQ6fNVyOsxwjDpkBjc6sR+GOuLHtjrxAAA6ZNJ3OspCgjoAks46/slyOn0+KDrC3PU5\r\nr0d+OrD49jkO7gI6NXtNOprjRDp/5FU6hnz1OiGnlDrZ4aY61zcdOgbRcTqoQM06se4qOvEWrjry\r\nIbQ6SsqsOj3rjzrfwJk6kxGfOsYvOzrgt086iBKTOu5VfTrIndg6m7ZKOsKYPDpxmHQ6n3VIOp17\r\nRDo/ogg7noSjOmhOgzosVJg65FMlOqaNhTpWnJQ6eAD3OXhcRDo02AE6VlW8OjpDUTq6fEE6ixM8\r\nOiQ3qjr/6ec6zp2OOqz4mjo7sjQ6jjqHOrKkezqM9Ao6ooljOkPDGjrY2JY6KV4IOo6BHDpRMDY6\r\nrFdGOrbBkDqYgdg64QMnOj9uNjpwH8w5K1+qOqCdTTpl04U6Y5aiOoh9hDoAtzk6ClalOsTuYjra\r\nm006oWNmOgMWJjoiG0M6a9yMOuWdlzonb7E6/qeFOuKTDzt6m786hdwcOv++dzrht2E6oqqJOpMa\r\nZjrspYY6wo5qOgwFSzrBY246q7K6Or4Grzp/hSE69gaKOodCzzpUcZQ6AYbpOY6zBTqJKkE6cKIu\r\nOlnuyTq5+Ic6/PWaOsmpKzoo/O857BqOOm/6OzoEEgE6GdABOsCoxTra7Ro6SNifOsi8hDrw7686\r\nwHJ5OrivhjrVsNw5gCiZOr/PnDqDr7o6jPKHOhrDqDppDOI6+k/JOlwlYjoq1Ws6OUW8OigMPTpe\r\nRNM6bMK5OvqrjjpS1rQ6GSxuOnXKJTpktic69p2gOrRryjlvX6Y6gt2OOoIJczoUu4Q6Ho1tOpVd\r\nNTpQ14Y6Kxx6Ormw/Tmje4w68X6COoK8tTpTDYI6MBWoOi0lcTqFCEE6NA9TOr6oGzpPKq46CHci\r\nOoSZSzpNkRc6dpKKOuLrVzrIKHs6e0ekOrcaRjpmEf85NimQOi4vfzpfhaU6YboaOo2WCjuugYc6\r\nkumLOnprPjrkn286hFxfOsWIVTqjx+c6ikFMOvSEgDrIaYk6gI+OOpSyvzr4QCk6a1MkOmGgHzr5\r\n1246EBotOlpLXDpSwps62VmsOjkjrToQRSk6GfPAOkQmlToo90o6+MosOk3LRjoVgJo66qCaOkJb\r\nyjpeG5I6rMaiOvgJtDqKwfs6UJvdOWuMnzrS7ic6+0fWOd5rhTr+xgI6fSMGOnZ+lTryGl86tBpq\r\nOvtYtzrGLls6Kq/2OgEFfTr/+9s6tAOPOre2jzq2jZI69Yc/Oi1CmDoXTRU6zOMBO5ZU/zmF6+85\r\nAk+eOhXvhDruHmY6i0KzOuuJiDoaQII6OT33Ofw5Xjq2R386ogOfOl8/GTqiP405DhNpOhp/pDqU\r\ngmk6pPB6Ot7aKTqOCJk6E4JHOiJCEjq7a1o6mHJpOkMy4TnR3Ew6hAABOq1SNjrBlWw6641EOvD1\r\nozqTt6c6LGkTOh7YODp6CmQ6WAasOrL9vDoT7Gs6hiVuOrj+njraI406gq09OgdTejpWDYc6ypTZ\r\nOfWCSTrEQGc6+DOcOj3HQjrdMmI6G06nOvtRvjo++j86MUwQOhJ2+zk5YF468mz6OVTZIDofIxI6\r\nO7i9OjhKDjqk8ec6Js35OVg+ETtxQFQ67sGmOrm5ETqa7xg6p+uqOuZ8Sjofg/M5Vjf3OSBOUjoY\r\nKIA6exFGOkNwFTvzfE06HCwROiNDVDoOBQk4oaxVNznlFDfZ9r02wxzMNmK5gDaCwYU2CCF6NkMZ\r\nYjZJjT02jEBkNmXRPjaIf+w1JlDwNcrMAjauvcs1xWrnNdyxyDX6+881/lbENdKdsDUs76c1zVvd\r\nNYB+zzUd96o14qBkNV3ckDXnpuk18FyvNcbXxTURaqA1IAueNeQJfjUA/Nc1iH2UNXAVfjW1Yjg1\r\nil7ONb+mJDUbxUk1F1qYNZ26hzX874M1E1piNZDFoTUSijU17AkFNbtLTDWWolQ1jqM9NRp/OzXs\r\nKMM1576dNWKTZTUHG441t2IANWVi5TXZzbY1SB+ONVwwkDUYwnE1fXkeNX9EeDWvGwM6xt72Oeq2\r\nvDmJNa05tKTROH5YxjhGKrg4bdQoODAZLzjg92Y5MaSUOYKHrjm0YiE6gn5WOmWPFDonJ485IU4V\r\nOcmPODnwHHs4DkgVOYtHITnN+Fo2r8ypOXA3djmvmzY5UD6GOXCE1jlncq855AfHOUj/CDpKFOI5\r\nyTEaOQIZVzhU0Io44Ge+OchPiTld9mk4P5uGNoti3jZ0Rio4Qv8ZOLffQzcw0cU3dvSaOTYr4jlk\r\nvMw538StObhFNTm4Ip04GloWOGmzZDjSICw5eASdOFVXvzeo7eU4GuYfOfJSIzpvT0s6fViSOSAZ\r\nsjklcV45UTy0OHqPijlOM6Y5t5lnOB2bMDWU7EI1bOFGNTTZIDUdaT41lcuANRoSMzWjX1Q1kdk+\r\nNW9BLjXodSY1IZJRNcV7izWkJYQ1R/OENQKsPTU46nY1U0OKNcRX0jQ6QSg1NH6VNacHKTVNBVM1\r\nRZ2GNQ2ZaDVy2K81oCEoNe1nezUkzFc1kWtqNdopIDV1Twk41lWkN6MGWTiui544M+sGOLA03ji9\r\n99Y5flfXOd7tlTiJVw04et05OeuhGzlGqTc44yy/OKn/8TmvXZE6tDcOOk24DTghwY05Blf6OQmf\r\ngTm2his5J/yWOVIBcTWh3i44XsyzOK5M4TjGJx05pmeTOBizNDnivsg5xR1SOawllThchkE3k1sn\r\nOf8DqTnLozk5mNOQOJ1O8jfMCSI5DrjdOPdJDzn3yD0450igOUYYLTrPvsc5pKGpOSyDCDpLaXk4\r\nahhwOLriiDj2QPc5V5r1OaCQhziY4KA42Jr5N5ZitTYzxx05cJKsOTMrfjlEf6w4VA23OLfz4jgI\r\n/Fk4HmbfNDLkGDW2RH81xvDiNFoiDDUlrPM0FskUNe1b5DTSFpw1G3wcNfbkNjVsxDs1nucnNTo8\r\nHTXLxiA1oLgANaZ+jDVMSrk0dEn6NCj4HjWyqAU1RrccNTD93jTdGcA0NH3YND0CzDSniRk11l4F\r\nNW7X3TTMlZ40MBn8NPPaITUxygI1qnuwNPZr3zTM8bU0S2EaNUihkDQVPNI09YqTNAxXrzSFrAM1\r\nBiMINR5agDQZkBw1cwO+NJ4VTDUgqws12I9HNfPtejQsdI81mHDMNGPivDQdQqQ0xr3qNENeADVw\r\nXCQ1UF2hNAKzDjWyDk019SprNLTD1jS8o5c0S2hmNawqhzQzsUw1cGUhNeX9qjQoMvA0EEIWNWfo\r\nKzV4VUg1MAbuNB7ZtzR0fcQ0uLUJNftzNDWEyuk0YGUxNXU7ADUyPtk0TkwHNQvBBTUAFUQ13XQG\r\nNRLlsjS2gdc08NcGNceMITVo+xU17pm6NJtOCTX8No41b0QbNbReNzUNUBM1AAAQNA==",
                            "noiseTrainingType" : "default"
                          }
                        }
                    ],
                    "start" : 3416,
                    "duration" : 556,
                    "mediaStart" : 582,
                    "mediaDuration" : 556,
                    "scalar" : 1,
                    "metadata" : {
                      "WinSubProjectDisplayName" : "",
                      "clipSpeedAttribute" : false
                    },
                    "animationTracks" : {

                    }
                  },
                  {
                    "id" : 94,
                    "_type" : "AMFile",
                    "src" : 5,
                    "trackNumber" : 1,
                    "attributes" : {
                      "ident" : "Aufn. 07-14-19_016",
                      "sampleRate" : 44100,
                      "bitDepth" : 16,
                      "gain" : 1.0,
                      "mixToMono" : true
                    },
                      "channelNumber" : "0,1",
                    "effects" : [
                        {
                          "effectName" : "NoiseReduction",
                          "category" : "categoryAudioEffects",
                          "parameters" : {
                            "denoiserAmount" : 20.0,
                            "denoiserThreshold" : 0.0,
                            "noiseProfile" : "jO8DQThQC0CHtVY+0QcIPjrMkT0rnno8PdJxPCrzhzx4oEM8+dPXO0YC3zvxxvQ7aFG+O/TKjju3\r\n4jc7dFYyOxlOEjtpuY07GmkuO3aY1Tro4us6HJ6jOituejqTpJE6xDijOrESjTrvb4U6AIiNOscu\r\nSTrsY0A6IV9TOhb2DjrujBc6ouViOgFLODo4Gt45DcHtOprkezrFZDs6waUSOuxG/jmdyrs5SrQo\r\nOnV+zTkIxQc6bXbqOU0h7Tm6foI67OoAOv766znQE3052nOUOVqAXjnlvpM5MiXzOWFBiDnTPRI6\r\nlNOdOT7wPDov9Q062XO3OWjTnDl/2Y85FE8IOoh8ATnl1qE5zBFrOZKlkzm2aEM5rltKORQDqzmH\r\nggI6DBtpOf3p1jnndXg5cLmdObg9bjnWK6w5U85ZORJCQzkfioc5VTWYOb3dQzlIS7g5htgrOVFn\r\nbTn6PpI5lEMsOR+4WDk6/NA5JyChOexwRjmE+p053Bi1OcfkyTl8ISY5nxKTOamX4TnPvBI5aDf3\r\nOBRDwjk6lLQ46efzOPdJhzn0woI5RDp/OWTJKjmjpDE54r3yOTsI5zngGdk42zYFOXd2bTkNQ6M5\r\nhp4HORhy6jkOoKE5hHiJOWrvWzk6Q/k4HAmhOOsTujiWJV84EKvUOBZYWDg6OIg4wmRZObMltjhz\r\nz5A4VJuKOKN6sjjF5I04CNfUOImPvjhu9Gw4tkmuOH8nojg4Mk04OjSAOJ6eoDjQP504fOgZOQOK\r\ngzi+DnY41ZrBOF30gzgf3pA43wjWOIdIXTiQ5J04zCDtOLJVkTjXL844hjtrOCciwzj3eo440jON\r\nOEbhOzhNW4g4hKsmOPER0Te8UY44ncUkOEYXkjjWyEQ4bp6OOKyvzTfZuqQ4eE1WOJbYpjemQnQ4\r\nETx3OGgtAjklDKc4kqz/N4bo8TfVKaQ42Ck7ODRV0ziw5IE4nZdcN98QqjcSoLg3FWaEOJDUODhO\r\nd4E47XyNOCZ2AzinCY847OxEONl2CziX6hE4jd0HOKTc2zigAwA4xuLwN0tCATg08903es7LN0Ab\r\n0TetqRQ4QNEnOIPWqjekENs3FB6hOHcevTdlxTs4KpQ4OM/1Pzie98w4D9yMONiqDDgLn0E4KKg3\r\nOMzYUjjJl+M36OC7N2aN/DduoIs3loqXOD5VLDg29I442NiHN9OjNDgwj6k38AKZN856XDhW75k3\r\nPVgtONLERjdTyAU4mgtGN5bbozd7vyM4ClW3N9LS3TdkXN43SeonOGA5mDd1vyQ4+z6tNxm3NjdQ\r\nXLg3ms6VNzCjfTeuy5Q3/MczN1kpqTfi8tg3ZsgBOA4gyzcgRzM4nuDcNwQK4jdtdAY4z64zNxm2\r\nmTeXYqA3zScxN/CjJjdiaNA3Qom4N4/PtDfNEmE4+DzbN5KM3zf7XMs3dIbEN3iEnDfgaLg3Igen\r\nNwFZUjfrgzE4kqVbOBO25Teg3qs3C9SwN3DvzTfKUYY3q5dCN14D6DcVssA3wEFYN9Bmbjc8rbE3\r\nTxOgN8/1pTfLYoY3dkiJN/7tYjjXXLw3G3G4N1IGhzfuYhQ3utKON8/6ljirUtk3Lh1aN0DjbzfL\r\nsF43Ob3ZN1C0NTjO+j03tUsxN8FJfDeJvEI3B8UeN/F1RTeZcfM3Gs6MN6aDbTcEbW43HGpzNzhY\r\n1DdoMIo3yWtmOM3z1jfDBpQ3PJZVN0NY6zfaDxA31MiVN3MaojeNeHw3UN0rN1cAwzc+6p03yvYV\r\nOCaToTfPIBY4DsPANz7x7zer5wM3Yf/CN38JgDfAudg3ZirFN2lajjfjky84QkyBNwrulTeyV3c3\r\n1VhsNwog1TeKRZk3lnmHN7EaqDeaZmU3WD09N1kYLTeCSEs4tgnmN8CXMjcnqSU4bommN58tJDjO\r\nSU04kemSN+5mfjePLtI3nOPxNtr+OjcKKUk39rwTNzkU2TcFsBc36WR5NzTRPDd+6qk3XAucN1jd\r\n0zZfjp83/sHeNtgIXjc8Ijc3JbOXNowpbDc1vEM3wAl8Ny4Q4DaXNgA3ijrZNnHEcje5+Jc3PNJS\r\nN4yrCDdyTx83jhVON1hd5TZTxhA3x/6SN6O/OTcqzOE2sTUON5uuGze4t8o2Q66YN4y1TjeSc8c3\r\nJVzPN+NLrTfogp03xjuSNxzwkjfAzMI2i+RmN1uMwzZYgVw32o0nN8bymDcxKg03xIycN7QuUzfg\r\nT4M2BrE/NrY+ETerEwk39S59NhLHlzYqYcU2mkgjN/I4Njei3TM3vQgBN6e5BDe1APQ2ZtrmNviZ\r\nLDeT4AQ3YPsoN1pBUzeNWPw2EGKzN1NYNzf5Ffk27G4HNmH1CTdBZEE3plXeNhVjBjcZg502gcm2\r\nNvJfxzbjD+E2dhn7NrFIkTc0+8U2+cQfN0VZDjf9YqY3vK7ONzgx0zaOVAI3aG49N8puzTbm6ig3\r\nx9siN0FkJTcnVhk3yHwAN4S2mzYJEeQ2SlLANsZl+jaE2lI3+JwLN8RNfTfCs802bMOkNsbTxDbI\r\nGv82DX8sN1cyVDd5lfs21Y/ZNqLW7zbqBw432EggN3pAjDb6ifo2TgihNhLdqjbKGvE3ESRZN7RQ\r\nBjfq4kU302U0NwdGITf/OJ82YNoNN0HRwjY7lYk3hxEMN925KDeKP682+wWqN/CLyTbgryA3ROxr\r\nN7h0GTcziiA3YcQJN7Ks5jYqjkE33tBHN4d7PTb/Pqo2iICGNmOKnjaZRg43s79CN1iKzDYAgB43\r\nDxeANkUNFzf+Bzw3CyVHN/vy0DYf2Qc3wbx7NiKaojZ536k2sQEjN0nwuDdiuis3smYUNx1onjfS\r\nEqo3BRo4N+oi9DbWBsQ2jR9cNiegsDZElA43Xr/eNnU+CDfmQsg2KIMANxU2lTf+0d82AwVfN769\r\nKDflkJY34h/9NwvEzjbj3vA2nkITN7hmBTf/Vc02VoEkN7jznjfFj442E1nvNsOAsDZ4LTE3mtPB\r\nNkxvvDYofS43UngWNw8wEjfgyrA29tRbNoKP1TZsXOQ2TeU4NyZCPTfKjZU2zvMfN92mSzeQFrY2\r\nTojSNkxc3zYujpg2KxJrNh9SOzc6uwY3uT1kNlEZyjW4bfI1IE7+NdRs+jXQMLE1uvMsNnyKBjZe\r\nLQM2pNrJNR7gyjVwe901is8WNg1tADaTtQ42WRgcNoac+DXjiRY2sSC/NYrO8zWsEu41tukgNpEH\r\nBDYVJrQ1sQkINmPmRDaggDU2LBreNaLfQDZABTA2mMsrNoaIxjXikRI2RBhDNxOX2Dak6tk1NiQv\r\nNuX42zVHIqk2EOjpNiRK6zb+PCw2wolANvRYHDbmURU2dNsZNvGGaTYxzbw2kNpoNlLA1DV09RQ2\r\n5AsYNo2Y5TVwlxM2k/3ENZbtwTVa4Ys2PJkAN8+D4jU2vus1eGqlNjAfIjf2GHs2zgzINuCIdzb4\r\nPLM2lck1N7y0WzaJgww3ndGcNWzWzTats5Q2tLP9NeH4oTa/qjc2G+oFN6AdxTYWRu41zSGGNvKT\r\nCzb8OOs1NowmNoHVojYhdt81NhTdNUb2XTbMEQI2PcFBNrAi5DYxSxU35A3sNeB6rDa0lJQ28N9w\r\nNiYUDja0aDE2jP79NrhIvjYGexo2yqNJNpymUDabvkM28vYMNlLSAzY2vuI1GfPfNffFMDbAU2o2\r\naGKWNuJKnjXme9Y15cbCNUD6+zWMxv81AgL3NcqexzWE5R024OEbNvEKnzZeO7Q2jufkNdXb6zUe\r\nfkE2bnHcNl6r8Taw4Bw2F1YBNt2ttTXiBEM3FmV5N7JD2Tabj8A25KycNm1BijbTy1Q3kYumNstN\r\nwjXzfYs3diAqN+gOyTd0u4U3pdqHNqU0yjYhtYg2hCLRNnO7UjaplZE2/2ILNviLCjZGEVE26TGP\r\nNrLFjzaEimY26E8WN8kiPzfVqGU28GT+NkkMwDfKyR43KgegNpA45DZZAEc4dj9DOD0SxDeDqF43\r\nVl2GNwVYfzgCy6w4wqnUN3/W6Dc77O03LQRTOEJcOzh8SZA3ns7bOO6oijjOhAI4HqNLODQm0jdh\r\nRIo4oqUMOex3ATlEEw450moVOEsKgjiRoSY5rB3mOIkcRDhKxgg4wkHUOBDIajmmAlI5ESSYOIq7\r\nBTgm9xo37aR7OPWoJDnt9Rw5E603OCQoRTeHRIM3TYKkN8x9nzaWZsU3ekYnOF6MkDc6IAw4W3cG\r\nOGCf2DXu9DQ3yzi+Nq8QtTeH7Oc3C6eQN1B7QTe0TQI36yRBOEuqNzgq49Q208D4OC6DITkC1m84\r\nNXagOLYPuzhgmMU2snmsNuaDCjd/5cM1/G87NqiF4jaJo981Z9SgNjMIOjbn9981kChAN6DW/TYt\r\nDMw14JC/NXFuWjZjFwk2xZ9oNihXojZMOyE2uREKNnqTajasrlo2x1o5Nq8PdDaChYM2oqe9NRQt\r\n+zbWkSM38duENk0GEzZVBK01AJyuNclSNDZHOKQ2i0BzNhM9YDY9axc25rkqNjImDTZMc6428WUf\r\nN5YAoTYYTtI2RKoSN0jlAjfDhwQ3lvZ2N3YhTzcsiNs1mGMWNkVGxTWImu41nlgENpc92zXUOgQ2\r\nzMu0Nr2rxzZs83A20bGwNaiu7zVVCd42OJe0NvBnxDV7Bf41+nTZNRjtDDcxQ0E32H13Ngh4qTao\r\ndao2QpOfNuXSoDYzc3E2HWlHNsVokjYiKPE2CEDaNjAAQjeOnz42TkDaNsxW+za5Lo419R+iNnBu\r\neTavKm821ZwFN3TU5TYIwCs30H+hN3Aj0DYiNqY27l0yN276TzdMSHY3lCysNsrcrzUfi8o1jJ0B\r\nNh+wyTXgUTM2hMEYNixFIDYr5Qs2ju3ENZqzgzULTGI2dbSONc753TW0gME1HoToNdlqsjW9KvA1\r\nzWeMNXR0sDXYiak1q4e6NSedEDbs6gE2wXgqNt+arTUCPoY1ajUeNu19qTU4obg1f+WVNYi1hzXc\r\nVtA15iULNtt68TWQTfw1tFbyNSyV1TXkKA02jqoYNuWm/jWwF5U1ieTjNYUM9TU9W0027vcBNg9T\r\nsjUYS9A19vWwNXJSvzVD5Pw18IW/NbsgrTVfUc41ntgLNm3utTVanp41EqOLNYA50DVPoOE1VBW2\r\nNe6YmjWDOJk1XeCYNd0qxTV2OJ415b4UNni/zDVLkSI2rkfHNWMACzbiV4Y1BZvzNQCl9DUTxuc1\r\npporNkk6rzXNRLg1x6ehNUMpMTYti7s1wpkVNpghrjXF0Ik19uCZNQ0DqzXOyKY14Q7rNaMFsjU5\r\n+Kw12EPxNa25QDW8MYc1LqnJNQK9ojUStuE1pOqMNTBl4zUKJqE1kkn2NQvYxDUFOsw137/xNXVX\r\n9DWr5c41uR2zNVGZ+TVuxrY1IkTWNX+xwjUbPqQ1qMaQNZ+QKzbQZJo1TtcVNrcMpDW46Zc1Ui/W\r\nNTtL5DXqQL81t6cYNmbXwTXQ2wU24qKlNZ7EEDY29AU2jwUQNr8WuDVGB6s14EveNQAg0jWCGhw9\r\noxMHO+VmYDoqO4g6zv1OOvf91zprvj86/AubOvPhiToNN4I6kH5YOrqztTr0dKQ6UTOIOh1xsDov\r\nero6O7jIOp3YoTrafX46iZKAOkZ5hjrBdng6n8x4OpUEiTp1T4U66MubOmvcMTo3Sq466cbBOvOz\r\nJDpkX4c6eKgFOjImMjq0H7E6X1JCOm8vozrC1oI6pjNzOoiMrTqAr9M69svvOhr7HjqS3bk6gOyA\r\nOnYwUjqoJLw6d1EKO+h6mDq0TbM681mPOrQPHTqN7UI6Bc6UOivlcTqmFEM6FfZIOsraEzqCa3U6\r\ncfyHOomogzpFo8U6DWUhOkIuODowrZY6KSBhOrzeKjoDG486pNpcOsgefDq4mMk692paOp5rCTp+\r\nZeM5IDWaOgZuyzpF/ag6CH1aOlwc2DnUtJM6PgjROrqpYzo1FZc61NmbOoxTfzqY6fk5aCdwOobE\r\nJzqU8rg6DUeAOkoFgDoasIo635bROh6bATs9nMA6eJu4OjUa1zr3MlE6x906Ou+goTok0J86pH53\r\nOkS1uDqJ6qE6n+fROoZLmToqKeE6HjYyOk+msDqyuTY6vB1MOtGiVjqsC5M6yuADO/b3ajrUGdw6\r\nEx+JOuQv/Dlokhc6QryJOqIwljokkGY6Qw4VOoUqjjrqASQ6jKzFOjkLhDrh7iU6px8WOmDfejr6\r\nGH86ff2iOj+S6zqt0I46jVJkOgmdtjr+hCo6SumZOnBwzTrIzqU6XLhEOhE/gjqQD5I6Oj9vOnFu\r\n8zqDTWQ6VTErOvUJajo9X+M6HkpqOtBeqzpMJbo6YYqwOhM45zrKF2c6ku9nOqZjjjrr7Ts6JT1M\r\nOiBQrjpOs/06coG5Ogwcpjo+C4Y6ytOrOm/d+jm+AGY6kwN4OiQ+ojoPI706zo9iOsk/RToj3oA6\r\n2K9mOp66BjoFZls6TdilOgkZsjqewWM6DILtOmKLuDqqhFQ6XhPYOaMn5zoJjoU63XBMOqcbmTrM\r\n4Es6fNAoOqb3JzoyhYE6zu17OlL/tzrnTx86iFp4Otn+ADq6V+k6CKpPOkBObjo6qJM6aiEDO5kj\r\nBjsvtKg62RdWOlJIkzoQ5Is6cQqKOpn5hTrA/6s6GKpeOnDcIzt89gA77z2KOknvgjp0RW06rMBR\r\nOv+KkTrwcF06Wt3TOoAhAjsRT4I6OM8+OvJGQDpWqMo6ko+SOq7fLjpEGwY6KC4/Orx6fjoHb7I6\r\nZylgOirHSzr1I5E6PoqbOlTIgDoKH5Y6zEIWOig1bToiSCY6a9rIOrryqzriUL46au2KOrDhaTpR\r\njPY5f7WPOpffNjpZUng6uIywOntkfzriz0A6UdKeOhaX9jqAHTo6WGN5OvBYJDsiMjM66M+VOmYM\r\nSDq6dYE6ZoC2OobU0DoAV7M6jJZ9OsQ4dTomKmI6YcfBOtZcgzqOixQ6YdEuO8L/gDrTNJs6NQ5o\r\nOoYo2DqVI4w6J0i1OvfL6ToEJVQ6aZcaOn2FiDodf7U6SaTpOtkHvDrE8k86x75zOrR7VDqNvtk6\r\n8O2iOmZwFzp6DZk6kMWWOgotUDqPwy86XkW4OqcctDpr7U06UHl1OpCnaTr4Jn06wkbNOvz1xTlt\r\n/gA7JJs7OkAITjqmB6E6okCsOtrqfTqXWF46tfJTOjyuaDrNqZw6wguKOkGltzpuQ2o6jlNLOu4v\r\nSDrkvTM75qQ1On/7izopWVQ6CbajOiS1yzoAg3I6yN9sOjuUmzpmcIw6exYZOm58ljrDRkg6sh7i\r\nOfm+NDqF+cc6D+ffOtvNpDp0jJ06rDNJOmnlUTq2B0E6GGiGOuSCnTq4ww86DvhIOicrezqS0Zs6\r\n0+ELOpeOkzpF4YA6yOwAOjM4lzqpuPQ6nmBjOmWEXDr+drE6f7Z0Oj4YvTr20to6tSjAOlXjaDpM\r\nHCU6skp5OiYlkjoLLjY6LlGaOqlTMzp6NW46hYWLOiS8+Tqqj4060FU6OoBcgjpS1WI6AlCqOooH\r\nrzonBlE6S1Z3On8BIDphH2g6m5S0OhRcyjrK8Y06HV6bOsi1azpEqDU6FslNOhOdozr7Irs6bqrR\r\nOmrBbjqaiYE6QUsfO0ybajpjH4M6ByEXOjM1ZDrA8rg6K0mGOvLbfDqMG0Y6QcaNOsJbITqeGU06\r\nmpyHOjacBzqQssc6ra6VOtTPwjqZ54I6kbKWOjfm0TpOZuk6L84jOia3kDq0NhU732OcOm8JlTog\r\nUaI6KLk1Oi9glTr8/4g6Gj8uOxiIvjoCdmo6TtE+Oi7xTTqCMKU62TLgOuj1STrV3Rs60gpDOppm\r\n+TnujgU6fHETOjfarzrOjBA6dDZsOpevQTpx6uU6fLgyOoKu4zq2eTA68jt8OsInojrVUyI6Df6J\r\nOvg25TpS6406BnOHOqx4cTrwbrc6PNzWOow6+jn0yIM6Zj25Okh0PzrAJNw6je6fOmkHgDooDEQ6\r\n815DOu+6uDot+nQ6gIyXOgiH8DonhRk6QlHVOhWgYDrvbJQ6nlx7OtBrnTpjzqg6i48mOsJLQTpy\r\nSxo6jT+cOlAIezoLGYE6TFurOnJTLzvpXBc6y4xyOpqsujlcvAs6mjZQOskQgzrdLhY6roo5OgMK\r\ngjprbKk6ZnLhOXu/YjrSQK06D4iUOnbT4zpWXlw63RqJOlYthTruDlY6omY3OmNpwTqJjME6pChr\r\nOnb1bTpASpo6iZHVOl3akDrGb2U6F6KxOj4PRDrCzNU6RZ9/Ov0pYjokkvI57/EfOoBG4zmT/J06\r\nYCRXOjmARzpsjnA6mVR+Oo+pgDpSik46qnONOukuqTrY+f46jNh/Ou9rkTrnaxU6t3CbOmpXCjqm\r\np406cL8dOhggFjq2tXg61H1ZOqlAnTpKnLU6BDg8OgEIrjrkYFU68Eq1OqJYmDr+pSo6nWV/Oq+6\r\nFjpmmKI6QkUPOgO+lTol4Js62rxZOo6CJzrLi6E6mjjwOWw6pDrwk8w6YNkPO19bPzo8wu05CigZ\r\nOnx6wjlYZP06fcsBOqFPHDrC6mc6ez8BO+3gPzqxNBA68mv/OTrcljrGpE06dJsuOrtbfDoml5c6\r\nkWUNOny9PzoIqe46I85COnzglDpCcSE6P+xSOpfCfzq48qY6onpCOszeqzrUPUA67CQcOtVTPjqy\r\nSh06w64EOq35JzrgVl06EvfDOtxB0DrOVyE6d496OgRCpDqLBog6MNSBOnBNnTrdrL46xad2Otkb\r\nMzraLm46gNWvOsRcETp0w0w6Lry8Oh+GljoapX46HK7OOcK3TzokMpI64ulMOreETTpe81w67JuX\r\nOjboLDpAVNQ59aVIOqBgnjrMpwc6WvczOm/KWDoMp686IjtmOuWRvTo6zfY5TNqzOoDXjDqTjEo6\r\nYyRrOqXWijoLHps6MJMFO2LbeDqQ+ZM63ZNNOjQ7VDp3gEs6q5mROk1ipzoV5Ws6neNsOrj8BTpC\r\nTYc6dky2OsBabDpMzFc6QjjEOg5NrzoC0Hk6Vm9eOrH6Wjog6rQ6nMyZOmWcdDqCFF86FhXNOraq\r\nhjqRqog66LuIOlK+ODp9SHc6AWyUOm0tuDqNtoM6IHiPOr/PnDrwW3w6wY7GOohSMjvVDRw6wz5r\r\nOgDDiDoK7GQ6iYZFOkq9XTqmh6I6jc8fOg2ESzp2bPk5l5MoOtdFKDpGqDI6+EMwOiTatDoZwtk5\r\n1XiBOlo/ADvSc905waubOqAJPzpsk3M674SOOiwbNDpOLZc6Q1SZOhWpbjpUYU86yH1EOu7ShjqW\r\nU4A6eshHOljBczrQAIA6w46kOlE0MDrhJdA47xu5NxyrHTl2Pfw4AqYXOW6PmTmMeAs5rHnyNgiv\r\n4TjaIYg5knVAOXUIFDgumSg5ixTsOBgFTjbUKGI29GfkOap47DlrSQU5VLhlOY760DgBP3A2Z7jj\r\nOY7sETqCuYA56RqvOUguNzpeBJA5KhbzOADhQTkfAqQ5pkAhOTo8SDg8rSE4uqu4N9uDnzehuYo3\r\nkCZ+OMoNozgMFgk44E3jNwnJxTftDpM4zE0QON4/jjfUgtA4O6R6OKjjFDjzIyM4g+i4NzeZhTjF\r\nWO44bwHkOMoz8zi07jE4rBnzOHqIITmoMLI4DL5VONZfCDiO57E407BcOTdxUzmtDoY4hlyBOUK+\r\ndjoQHo062vW4Od1oGzkSfoM45lCVN0kkQDnYe8Y5x3qBOdoUnjl8WY06H1UFOjWmTjmiT2M5mG0l\r\nOQDupDmT2iw4Or2kOY0RFzqcIq056RtnOEASeDh7FRQ4iEJCOFaJgTlzBHk5pJ1eOem4Bjl8mNA4\r\nriB7OA4bUTjmNuk48i6lOAH/XDld09k5NEQMOSSPxDfWack3+wMzOGetfTXBgCw6qnskOm7+Czll\r\nnYs48Q4FOiqfATo2ABo5UOuYOLiBIDmLcDU5GP7MOLBphjh/uJM48nVQOkG6YDptWOk4Pj/DN8zu\r\n8DdPulQ4FWUYOXzd5DivFuA40kU3OXUTDTkc1XI4Tl4NOS72Rjn8Z9840MFbOVOvxzntf8s5U9+B\r\nOZzIHTksW4Y5CPmVOU1TTDlBZbc5ipSGOZdWFzkqFD45xnGhOKA/UjnS+n05Q/YDOQ/0LTkscB05\r\ndy0sOQA6xjggnrc50wHdOaD4IjnOoAY5KL+kOJRHGTksb604HAWBOfMkHTlRhVc499kaOVCkeznA\r\nQpg5NskxOXzEWjg8nmk45P7cNtnW0DdMVQY5AkG0ORz6cTnjmeI3BMq1ODy8HjjBpZI47rquOV5v\r\n6jlT3Ug5ZkndONZ1SDfKdvE4DHeyOCnmPjmC4/M490noOYxtizphlDk6K4yNOR5t3jXGwBU1cd5C\r\nNcSckDUSYnA1mrkxNV3/IzWasyY19BB+NWgIrzSHySE1ZURmNdEFpjSlLtY0SDzGND3LGjVYn1w1\r\nJ7SzNLrA3jQ21xk1qWIQNe6CsDXWrso0k6pYNdUhljWlGhs1ZSRRNfa0BDXWROw04t0kNVR4yjRL\r\nNHk1eVsUNbydNTWiwGw1fVVSNVsXWzUG7YU1fSkENW9RWTXwiRQ1bBUUNaI7qTUzhWA16PnkNKgJ\r\nRzUQ+OU0yQKKNdS9fDW2NQc1nmYINRRmLzWwi9A0yoRQNURRUDXcD9I03hlmNd5PFzVZLUM1wAon\r\nNS4vXDULTjA1IgNDNUoQWzUU8DQ191umNICtdTWtmcM0cw3cNAz7vzQu0Q41NW5bNVxlwTStMJw0\r\nN1QjNYqIhDWHTk01dyAGNUFOFzWwgAA1z+T6NKOBUDVxIy01jFMqNSMP+TScZv40qvkaNTKBpzXR\r\nVys1NfkkNf/eCjX7qzw1OdgZNSQCuTS+6/o028YCNRCj4zSnOCA130QQNeCICDW6ctU0pi1TNVL2\r\nlTRrI5I1P5sRNb1sTzW7qhY1Bq0yNa0EBzXeeEc1no39NCNOATUtT0Q1WE84NaaIgzXOEcU0hiH0\r\nNPJWIjV7dQE1OtRTNe84DDVnuCA1GrvgNMJdOjWUDRg1k0QhNc/tLDVfGko1AADINA==",
                            "noiseTrainingType" : "default"
                          }
                        }
                    ],
                    "start" : 3972,
                    "duration" : 2278,
                    "mediaStart" : 22,
                    "mediaDuration" : 2278,
                    "scalar" : 1,
                    "metadata" : {
                      "WinSubProjectDisplayName" : "",
                      "clipSpeedAttribute" : false
                    },
                    "animationTracks" : {

                    }
                  },
                  {
                    "id" : 95,
                    "_type" : "AMFile",
                    "src" : 5,
                    "trackNumber" : 1,
                    "attributes" : {
                      "ident" : "Aufn. 07-14-19_016",
                      "sampleRate" : 44100,
                      "bitDepth" : 16,
                      "gain" : 1.0,
                      "mixToMono" : true
                    },
                      "channelNumber" : "0,1",
                    "effects" : [
                        {
                          "effectName" : "NoiseReduction",
                          "category" : "categoryAudioEffects",
                          "parameters" : {
                            "denoiserAmount" : 20.0,
                            "denoiserThreshold" : 0.0,
                            "noiseProfile" : "jO8DQThQC0CHtVY+0QcIPjrMkT0rnno8PdJxPCrzhzx4oEM8+dPXO0YC3zvxxvQ7aFG+O/TKjju3\r\n4jc7dFYyOxlOEjtpuY07GmkuO3aY1Tro4us6HJ6jOituejqTpJE6xDijOrESjTrvb4U6AIiNOscu\r\nSTrsY0A6IV9TOhb2DjrujBc6ouViOgFLODo4Gt45DcHtOprkezrFZDs6waUSOuxG/jmdyrs5SrQo\r\nOnV+zTkIxQc6bXbqOU0h7Tm6foI67OoAOv766znQE3052nOUOVqAXjnlvpM5MiXzOWFBiDnTPRI6\r\nlNOdOT7wPDov9Q062XO3OWjTnDl/2Y85FE8IOoh8ATnl1qE5zBFrOZKlkzm2aEM5rltKORQDqzmH\r\nggI6DBtpOf3p1jnndXg5cLmdObg9bjnWK6w5U85ZORJCQzkfioc5VTWYOb3dQzlIS7g5htgrOVFn\r\nbTn6PpI5lEMsOR+4WDk6/NA5JyChOexwRjmE+p053Bi1OcfkyTl8ISY5nxKTOamX4TnPvBI5aDf3\r\nOBRDwjk6lLQ46efzOPdJhzn0woI5RDp/OWTJKjmjpDE54r3yOTsI5zngGdk42zYFOXd2bTkNQ6M5\r\nhp4HORhy6jkOoKE5hHiJOWrvWzk6Q/k4HAmhOOsTujiWJV84EKvUOBZYWDg6OIg4wmRZObMltjhz\r\nz5A4VJuKOKN6sjjF5I04CNfUOImPvjhu9Gw4tkmuOH8nojg4Mk04OjSAOJ6eoDjQP504fOgZOQOK\r\ngzi+DnY41ZrBOF30gzgf3pA43wjWOIdIXTiQ5J04zCDtOLJVkTjXL844hjtrOCciwzj3eo440jON\r\nOEbhOzhNW4g4hKsmOPER0Te8UY44ncUkOEYXkjjWyEQ4bp6OOKyvzTfZuqQ4eE1WOJbYpjemQnQ4\r\nETx3OGgtAjklDKc4kqz/N4bo8TfVKaQ42Ck7ODRV0ziw5IE4nZdcN98QqjcSoLg3FWaEOJDUODhO\r\nd4E47XyNOCZ2AzinCY847OxEONl2CziX6hE4jd0HOKTc2zigAwA4xuLwN0tCATg08903es7LN0Ab\r\n0TetqRQ4QNEnOIPWqjekENs3FB6hOHcevTdlxTs4KpQ4OM/1Pzie98w4D9yMONiqDDgLn0E4KKg3\r\nOMzYUjjJl+M36OC7N2aN/DduoIs3loqXOD5VLDg29I442NiHN9OjNDgwj6k38AKZN856XDhW75k3\r\nPVgtONLERjdTyAU4mgtGN5bbozd7vyM4ClW3N9LS3TdkXN43SeonOGA5mDd1vyQ4+z6tNxm3NjdQ\r\nXLg3ms6VNzCjfTeuy5Q3/MczN1kpqTfi8tg3ZsgBOA4gyzcgRzM4nuDcNwQK4jdtdAY4z64zNxm2\r\nmTeXYqA3zScxN/CjJjdiaNA3Qom4N4/PtDfNEmE4+DzbN5KM3zf7XMs3dIbEN3iEnDfgaLg3Igen\r\nNwFZUjfrgzE4kqVbOBO25Teg3qs3C9SwN3DvzTfKUYY3q5dCN14D6DcVssA3wEFYN9Bmbjc8rbE3\r\nTxOgN8/1pTfLYoY3dkiJN/7tYjjXXLw3G3G4N1IGhzfuYhQ3utKON8/6ljirUtk3Lh1aN0DjbzfL\r\nsF43Ob3ZN1C0NTjO+j03tUsxN8FJfDeJvEI3B8UeN/F1RTeZcfM3Gs6MN6aDbTcEbW43HGpzNzhY\r\n1DdoMIo3yWtmOM3z1jfDBpQ3PJZVN0NY6zfaDxA31MiVN3MaojeNeHw3UN0rN1cAwzc+6p03yvYV\r\nOCaToTfPIBY4DsPANz7x7zer5wM3Yf/CN38JgDfAudg3ZirFN2lajjfjky84QkyBNwrulTeyV3c3\r\n1VhsNwog1TeKRZk3lnmHN7EaqDeaZmU3WD09N1kYLTeCSEs4tgnmN8CXMjcnqSU4bommN58tJDjO\r\nSU04kemSN+5mfjePLtI3nOPxNtr+OjcKKUk39rwTNzkU2TcFsBc36WR5NzTRPDd+6qk3XAucN1jd\r\n0zZfjp83/sHeNtgIXjc8Ijc3JbOXNowpbDc1vEM3wAl8Ny4Q4DaXNgA3ijrZNnHEcje5+Jc3PNJS\r\nN4yrCDdyTx83jhVON1hd5TZTxhA3x/6SN6O/OTcqzOE2sTUON5uuGze4t8o2Q66YN4y1TjeSc8c3\r\nJVzPN+NLrTfogp03xjuSNxzwkjfAzMI2i+RmN1uMwzZYgVw32o0nN8bymDcxKg03xIycN7QuUzfg\r\nT4M2BrE/NrY+ETerEwk39S59NhLHlzYqYcU2mkgjN/I4Njei3TM3vQgBN6e5BDe1APQ2ZtrmNviZ\r\nLDeT4AQ3YPsoN1pBUzeNWPw2EGKzN1NYNzf5Ffk27G4HNmH1CTdBZEE3plXeNhVjBjcZg502gcm2\r\nNvJfxzbjD+E2dhn7NrFIkTc0+8U2+cQfN0VZDjf9YqY3vK7ONzgx0zaOVAI3aG49N8puzTbm6ig3\r\nx9siN0FkJTcnVhk3yHwAN4S2mzYJEeQ2SlLANsZl+jaE2lI3+JwLN8RNfTfCs802bMOkNsbTxDbI\r\nGv82DX8sN1cyVDd5lfs21Y/ZNqLW7zbqBw432EggN3pAjDb6ifo2TgihNhLdqjbKGvE3ESRZN7RQ\r\nBjfq4kU302U0NwdGITf/OJ82YNoNN0HRwjY7lYk3hxEMN925KDeKP682+wWqN/CLyTbgryA3ROxr\r\nN7h0GTcziiA3YcQJN7Ks5jYqjkE33tBHN4d7PTb/Pqo2iICGNmOKnjaZRg43s79CN1iKzDYAgB43\r\nDxeANkUNFzf+Bzw3CyVHN/vy0DYf2Qc3wbx7NiKaojZ536k2sQEjN0nwuDdiuis3smYUNx1onjfS\r\nEqo3BRo4N+oi9DbWBsQ2jR9cNiegsDZElA43Xr/eNnU+CDfmQsg2KIMANxU2lTf+0d82AwVfN769\r\nKDflkJY34h/9NwvEzjbj3vA2nkITN7hmBTf/Vc02VoEkN7jznjfFj442E1nvNsOAsDZ4LTE3mtPB\r\nNkxvvDYofS43UngWNw8wEjfgyrA29tRbNoKP1TZsXOQ2TeU4NyZCPTfKjZU2zvMfN92mSzeQFrY2\r\nTojSNkxc3zYujpg2KxJrNh9SOzc6uwY3uT1kNlEZyjW4bfI1IE7+NdRs+jXQMLE1uvMsNnyKBjZe\r\nLQM2pNrJNR7gyjVwe901is8WNg1tADaTtQ42WRgcNoac+DXjiRY2sSC/NYrO8zWsEu41tukgNpEH\r\nBDYVJrQ1sQkINmPmRDaggDU2LBreNaLfQDZABTA2mMsrNoaIxjXikRI2RBhDNxOX2Dak6tk1NiQv\r\nNuX42zVHIqk2EOjpNiRK6zb+PCw2wolANvRYHDbmURU2dNsZNvGGaTYxzbw2kNpoNlLA1DV09RQ2\r\n5AsYNo2Y5TVwlxM2k/3ENZbtwTVa4Ys2PJkAN8+D4jU2vus1eGqlNjAfIjf2GHs2zgzINuCIdzb4\r\nPLM2lck1N7y0WzaJgww3ndGcNWzWzTats5Q2tLP9NeH4oTa/qjc2G+oFN6AdxTYWRu41zSGGNvKT\r\nCzb8OOs1NowmNoHVojYhdt81NhTdNUb2XTbMEQI2PcFBNrAi5DYxSxU35A3sNeB6rDa0lJQ28N9w\r\nNiYUDja0aDE2jP79NrhIvjYGexo2yqNJNpymUDabvkM28vYMNlLSAzY2vuI1GfPfNffFMDbAU2o2\r\naGKWNuJKnjXme9Y15cbCNUD6+zWMxv81AgL3NcqexzWE5R024OEbNvEKnzZeO7Q2jufkNdXb6zUe\r\nfkE2bnHcNl6r8Taw4Bw2F1YBNt2ttTXiBEM3FmV5N7JD2Tabj8A25KycNm1BijbTy1Q3kYumNstN\r\nwjXzfYs3diAqN+gOyTd0u4U3pdqHNqU0yjYhtYg2hCLRNnO7UjaplZE2/2ILNviLCjZGEVE26TGP\r\nNrLFjzaEimY26E8WN8kiPzfVqGU28GT+NkkMwDfKyR43KgegNpA45DZZAEc4dj9DOD0SxDeDqF43\r\nVl2GNwVYfzgCy6w4wqnUN3/W6Dc77O03LQRTOEJcOzh8SZA3ns7bOO6oijjOhAI4HqNLODQm0jdh\r\nRIo4oqUMOex3ATlEEw450moVOEsKgjiRoSY5rB3mOIkcRDhKxgg4wkHUOBDIajmmAlI5ESSYOIq7\r\nBTgm9xo37aR7OPWoJDnt9Rw5E603OCQoRTeHRIM3TYKkN8x9nzaWZsU3ekYnOF6MkDc6IAw4W3cG\r\nOGCf2DXu9DQ3yzi+Nq8QtTeH7Oc3C6eQN1B7QTe0TQI36yRBOEuqNzgq49Q208D4OC6DITkC1m84\r\nNXagOLYPuzhgmMU2snmsNuaDCjd/5cM1/G87NqiF4jaJo981Z9SgNjMIOjbn9981kChAN6DW/TYt\r\nDMw14JC/NXFuWjZjFwk2xZ9oNihXojZMOyE2uREKNnqTajasrlo2x1o5Nq8PdDaChYM2oqe9NRQt\r\n+zbWkSM38duENk0GEzZVBK01AJyuNclSNDZHOKQ2i0BzNhM9YDY9axc25rkqNjImDTZMc6428WUf\r\nN5YAoTYYTtI2RKoSN0jlAjfDhwQ3lvZ2N3YhTzcsiNs1mGMWNkVGxTWImu41nlgENpc92zXUOgQ2\r\nzMu0Nr2rxzZs83A20bGwNaiu7zVVCd42OJe0NvBnxDV7Bf41+nTZNRjtDDcxQ0E32H13Ngh4qTao\r\ndao2QpOfNuXSoDYzc3E2HWlHNsVokjYiKPE2CEDaNjAAQjeOnz42TkDaNsxW+za5Lo419R+iNnBu\r\neTavKm821ZwFN3TU5TYIwCs30H+hN3Aj0DYiNqY27l0yN276TzdMSHY3lCysNsrcrzUfi8o1jJ0B\r\nNh+wyTXgUTM2hMEYNixFIDYr5Qs2ju3ENZqzgzULTGI2dbSONc753TW0gME1HoToNdlqsjW9KvA1\r\nzWeMNXR0sDXYiak1q4e6NSedEDbs6gE2wXgqNt+arTUCPoY1ajUeNu19qTU4obg1f+WVNYi1hzXc\r\nVtA15iULNtt68TWQTfw1tFbyNSyV1TXkKA02jqoYNuWm/jWwF5U1ieTjNYUM9TU9W0027vcBNg9T\r\nsjUYS9A19vWwNXJSvzVD5Pw18IW/NbsgrTVfUc41ntgLNm3utTVanp41EqOLNYA50DVPoOE1VBW2\r\nNe6YmjWDOJk1XeCYNd0qxTV2OJ415b4UNni/zDVLkSI2rkfHNWMACzbiV4Y1BZvzNQCl9DUTxuc1\r\npporNkk6rzXNRLg1x6ehNUMpMTYti7s1wpkVNpghrjXF0Ik19uCZNQ0DqzXOyKY14Q7rNaMFsjU5\r\n+Kw12EPxNa25QDW8MYc1LqnJNQK9ojUStuE1pOqMNTBl4zUKJqE1kkn2NQvYxDUFOsw137/xNXVX\r\n9DWr5c41uR2zNVGZ+TVuxrY1IkTWNX+xwjUbPqQ1qMaQNZ+QKzbQZJo1TtcVNrcMpDW46Zc1Ui/W\r\nNTtL5DXqQL81t6cYNmbXwTXQ2wU24qKlNZ7EEDY29AU2jwUQNr8WuDVGB6s14EveNQAg0jWCGhw9\r\noxMHO+VmYDoqO4g6zv1OOvf91zprvj86/AubOvPhiToNN4I6kH5YOrqztTr0dKQ6UTOIOh1xsDov\r\nero6O7jIOp3YoTrafX46iZKAOkZ5hjrBdng6n8x4OpUEiTp1T4U66MubOmvcMTo3Sq466cbBOvOz\r\nJDpkX4c6eKgFOjImMjq0H7E6X1JCOm8vozrC1oI6pjNzOoiMrTqAr9M69svvOhr7HjqS3bk6gOyA\r\nOnYwUjqoJLw6d1EKO+h6mDq0TbM681mPOrQPHTqN7UI6Bc6UOivlcTqmFEM6FfZIOsraEzqCa3U6\r\ncfyHOomogzpFo8U6DWUhOkIuODowrZY6KSBhOrzeKjoDG486pNpcOsgefDq4mMk692paOp5rCTp+\r\nZeM5IDWaOgZuyzpF/ag6CH1aOlwc2DnUtJM6PgjROrqpYzo1FZc61NmbOoxTfzqY6fk5aCdwOobE\r\nJzqU8rg6DUeAOkoFgDoasIo635bROh6bATs9nMA6eJu4OjUa1zr3MlE6x906Ou+goTok0J86pH53\r\nOkS1uDqJ6qE6n+fROoZLmToqKeE6HjYyOk+msDqyuTY6vB1MOtGiVjqsC5M6yuADO/b3ajrUGdw6\r\nEx+JOuQv/Dlokhc6QryJOqIwljokkGY6Qw4VOoUqjjrqASQ6jKzFOjkLhDrh7iU6px8WOmDfejr6\r\nGH86ff2iOj+S6zqt0I46jVJkOgmdtjr+hCo6SumZOnBwzTrIzqU6XLhEOhE/gjqQD5I6Oj9vOnFu\r\n8zqDTWQ6VTErOvUJajo9X+M6HkpqOtBeqzpMJbo6YYqwOhM45zrKF2c6ku9nOqZjjjrr7Ts6JT1M\r\nOiBQrjpOs/06coG5Ogwcpjo+C4Y6ytOrOm/d+jm+AGY6kwN4OiQ+ojoPI706zo9iOsk/RToj3oA6\r\n2K9mOp66BjoFZls6TdilOgkZsjqewWM6DILtOmKLuDqqhFQ6XhPYOaMn5zoJjoU63XBMOqcbmTrM\r\n4Es6fNAoOqb3JzoyhYE6zu17OlL/tzrnTx86iFp4Otn+ADq6V+k6CKpPOkBObjo6qJM6aiEDO5kj\r\nBjsvtKg62RdWOlJIkzoQ5Is6cQqKOpn5hTrA/6s6GKpeOnDcIzt89gA77z2KOknvgjp0RW06rMBR\r\nOv+KkTrwcF06Wt3TOoAhAjsRT4I6OM8+OvJGQDpWqMo6ko+SOq7fLjpEGwY6KC4/Orx6fjoHb7I6\r\nZylgOirHSzr1I5E6PoqbOlTIgDoKH5Y6zEIWOig1bToiSCY6a9rIOrryqzriUL46au2KOrDhaTpR\r\njPY5f7WPOpffNjpZUng6uIywOntkfzriz0A6UdKeOhaX9jqAHTo6WGN5OvBYJDsiMjM66M+VOmYM\r\nSDq6dYE6ZoC2OobU0DoAV7M6jJZ9OsQ4dTomKmI6YcfBOtZcgzqOixQ6YdEuO8L/gDrTNJs6NQ5o\r\nOoYo2DqVI4w6J0i1OvfL6ToEJVQ6aZcaOn2FiDodf7U6SaTpOtkHvDrE8k86x75zOrR7VDqNvtk6\r\n8O2iOmZwFzp6DZk6kMWWOgotUDqPwy86XkW4OqcctDpr7U06UHl1OpCnaTr4Jn06wkbNOvz1xTlt\r\n/gA7JJs7OkAITjqmB6E6okCsOtrqfTqXWF46tfJTOjyuaDrNqZw6wguKOkGltzpuQ2o6jlNLOu4v\r\nSDrkvTM75qQ1On/7izopWVQ6CbajOiS1yzoAg3I6yN9sOjuUmzpmcIw6exYZOm58ljrDRkg6sh7i\r\nOfm+NDqF+cc6D+ffOtvNpDp0jJ06rDNJOmnlUTq2B0E6GGiGOuSCnTq4ww86DvhIOicrezqS0Zs6\r\n0+ELOpeOkzpF4YA6yOwAOjM4lzqpuPQ6nmBjOmWEXDr+drE6f7Z0Oj4YvTr20to6tSjAOlXjaDpM\r\nHCU6skp5OiYlkjoLLjY6LlGaOqlTMzp6NW46hYWLOiS8+Tqqj4060FU6OoBcgjpS1WI6AlCqOooH\r\nrzonBlE6S1Z3On8BIDphH2g6m5S0OhRcyjrK8Y06HV6bOsi1azpEqDU6FslNOhOdozr7Irs6bqrR\r\nOmrBbjqaiYE6QUsfO0ybajpjH4M6ByEXOjM1ZDrA8rg6K0mGOvLbfDqMG0Y6QcaNOsJbITqeGU06\r\nmpyHOjacBzqQssc6ra6VOtTPwjqZ54I6kbKWOjfm0TpOZuk6L84jOia3kDq0NhU732OcOm8JlTog\r\nUaI6KLk1Oi9glTr8/4g6Gj8uOxiIvjoCdmo6TtE+Oi7xTTqCMKU62TLgOuj1STrV3Rs60gpDOppm\r\n+TnujgU6fHETOjfarzrOjBA6dDZsOpevQTpx6uU6fLgyOoKu4zq2eTA68jt8OsInojrVUyI6Df6J\r\nOvg25TpS6406BnOHOqx4cTrwbrc6PNzWOow6+jn0yIM6Zj25Okh0PzrAJNw6je6fOmkHgDooDEQ6\r\n815DOu+6uDot+nQ6gIyXOgiH8DonhRk6QlHVOhWgYDrvbJQ6nlx7OtBrnTpjzqg6i48mOsJLQTpy\r\nSxo6jT+cOlAIezoLGYE6TFurOnJTLzvpXBc6y4xyOpqsujlcvAs6mjZQOskQgzrdLhY6roo5OgMK\r\ngjprbKk6ZnLhOXu/YjrSQK06D4iUOnbT4zpWXlw63RqJOlYthTruDlY6omY3OmNpwTqJjME6pChr\r\nOnb1bTpASpo6iZHVOl3akDrGb2U6F6KxOj4PRDrCzNU6RZ9/Ov0pYjokkvI57/EfOoBG4zmT/J06\r\nYCRXOjmARzpsjnA6mVR+Oo+pgDpSik46qnONOukuqTrY+f46jNh/Ou9rkTrnaxU6t3CbOmpXCjqm\r\np406cL8dOhggFjq2tXg61H1ZOqlAnTpKnLU6BDg8OgEIrjrkYFU68Eq1OqJYmDr+pSo6nWV/Oq+6\r\nFjpmmKI6QkUPOgO+lTol4Js62rxZOo6CJzrLi6E6mjjwOWw6pDrwk8w6YNkPO19bPzo8wu05CigZ\r\nOnx6wjlYZP06fcsBOqFPHDrC6mc6ez8BO+3gPzqxNBA68mv/OTrcljrGpE06dJsuOrtbfDoml5c6\r\nkWUNOny9PzoIqe46I85COnzglDpCcSE6P+xSOpfCfzq48qY6onpCOszeqzrUPUA67CQcOtVTPjqy\r\nSh06w64EOq35JzrgVl06EvfDOtxB0DrOVyE6d496OgRCpDqLBog6MNSBOnBNnTrdrL46xad2Otkb\r\nMzraLm46gNWvOsRcETp0w0w6Lry8Oh+GljoapX46HK7OOcK3TzokMpI64ulMOreETTpe81w67JuX\r\nOjboLDpAVNQ59aVIOqBgnjrMpwc6WvczOm/KWDoMp686IjtmOuWRvTo6zfY5TNqzOoDXjDqTjEo6\r\nYyRrOqXWijoLHps6MJMFO2LbeDqQ+ZM63ZNNOjQ7VDp3gEs6q5mROk1ipzoV5Ws6neNsOrj8BTpC\r\nTYc6dky2OsBabDpMzFc6QjjEOg5NrzoC0Hk6Vm9eOrH6Wjog6rQ6nMyZOmWcdDqCFF86FhXNOraq\r\nhjqRqog66LuIOlK+ODp9SHc6AWyUOm0tuDqNtoM6IHiPOr/PnDrwW3w6wY7GOohSMjvVDRw6wz5r\r\nOgDDiDoK7GQ6iYZFOkq9XTqmh6I6jc8fOg2ESzp2bPk5l5MoOtdFKDpGqDI6+EMwOiTatDoZwtk5\r\n1XiBOlo/ADvSc905waubOqAJPzpsk3M674SOOiwbNDpOLZc6Q1SZOhWpbjpUYU86yH1EOu7ShjqW\r\nU4A6eshHOljBczrQAIA6w46kOlE0MDrhJdA47xu5NxyrHTl2Pfw4AqYXOW6PmTmMeAs5rHnyNgiv\r\n4TjaIYg5knVAOXUIFDgumSg5ixTsOBgFTjbUKGI29GfkOap47DlrSQU5VLhlOY760DgBP3A2Z7jj\r\nOY7sETqCuYA56RqvOUguNzpeBJA5KhbzOADhQTkfAqQ5pkAhOTo8SDg8rSE4uqu4N9uDnzehuYo3\r\nkCZ+OMoNozgMFgk44E3jNwnJxTftDpM4zE0QON4/jjfUgtA4O6R6OKjjFDjzIyM4g+i4NzeZhTjF\r\nWO44bwHkOMoz8zi07jE4rBnzOHqIITmoMLI4DL5VONZfCDiO57E407BcOTdxUzmtDoY4hlyBOUK+\r\ndjoQHo062vW4Od1oGzkSfoM45lCVN0kkQDnYe8Y5x3qBOdoUnjl8WY06H1UFOjWmTjmiT2M5mG0l\r\nOQDupDmT2iw4Or2kOY0RFzqcIq056RtnOEASeDh7FRQ4iEJCOFaJgTlzBHk5pJ1eOem4Bjl8mNA4\r\nriB7OA4bUTjmNuk48i6lOAH/XDld09k5NEQMOSSPxDfWack3+wMzOGetfTXBgCw6qnskOm7+Czll\r\nnYs48Q4FOiqfATo2ABo5UOuYOLiBIDmLcDU5GP7MOLBphjh/uJM48nVQOkG6YDptWOk4Pj/DN8zu\r\n8DdPulQ4FWUYOXzd5DivFuA40kU3OXUTDTkc1XI4Tl4NOS72Rjn8Z9840MFbOVOvxzntf8s5U9+B\r\nOZzIHTksW4Y5CPmVOU1TTDlBZbc5ipSGOZdWFzkqFD45xnGhOKA/UjnS+n05Q/YDOQ/0LTkscB05\r\ndy0sOQA6xjggnrc50wHdOaD4IjnOoAY5KL+kOJRHGTksb604HAWBOfMkHTlRhVc499kaOVCkeznA\r\nQpg5NskxOXzEWjg8nmk45P7cNtnW0DdMVQY5AkG0ORz6cTnjmeI3BMq1ODy8HjjBpZI47rquOV5v\r\n6jlT3Ug5ZkndONZ1SDfKdvE4DHeyOCnmPjmC4/M490noOYxtizphlDk6K4yNOR5t3jXGwBU1cd5C\r\nNcSckDUSYnA1mrkxNV3/IzWasyY19BB+NWgIrzSHySE1ZURmNdEFpjSlLtY0SDzGND3LGjVYn1w1\r\nJ7SzNLrA3jQ21xk1qWIQNe6CsDXWrso0k6pYNdUhljWlGhs1ZSRRNfa0BDXWROw04t0kNVR4yjRL\r\nNHk1eVsUNbydNTWiwGw1fVVSNVsXWzUG7YU1fSkENW9RWTXwiRQ1bBUUNaI7qTUzhWA16PnkNKgJ\r\nRzUQ+OU0yQKKNdS9fDW2NQc1nmYINRRmLzWwi9A0yoRQNURRUDXcD9I03hlmNd5PFzVZLUM1wAon\r\nNS4vXDULTjA1IgNDNUoQWzUU8DQ191umNICtdTWtmcM0cw3cNAz7vzQu0Q41NW5bNVxlwTStMJw0\r\nN1QjNYqIhDWHTk01dyAGNUFOFzWwgAA1z+T6NKOBUDVxIy01jFMqNSMP+TScZv40qvkaNTKBpzXR\r\nVys1NfkkNf/eCjX7qzw1OdgZNSQCuTS+6/o028YCNRCj4zSnOCA130QQNeCICDW6ctU0pi1TNVL2\r\nlTRrI5I1P5sRNb1sTzW7qhY1Bq0yNa0EBzXeeEc1no39NCNOATUtT0Q1WE84NaaIgzXOEcU0hiH0\r\nNPJWIjV7dQE1OtRTNe84DDVnuCA1GrvgNMJdOjWUDRg1k0QhNc/tLDVfGko1AADINA==",
                            "noiseTrainingType" : "default"
                          }
                        }
                    ],
                    "start" : 6250,
                    "duration" : 202,
                    "mediaStart" : 2426,
                    "mediaDuration" : 202,
                    "scalar" : 1,
                    "metadata" : {
                      "WinSubProjectDisplayName" : "",
                      "clipSpeedAttribute" : false
                    },
                    "animationTracks" : {

                    }
                  },
                  {
                    "id" : 96,
                    "_type" : "AMFile",
                    "src" : 6,
                    "trackNumber" : 1,
                    "attributes" : {
                      "ident" : "Aufn. 07-14-19_017",
                      "sampleRate" : 44100,
                      "bitDepth" : 16,
                      "gain" : 1.10818703311672,
                      "mixToMono" : true
                    },
                      "channelNumber" : "0,1",
                    "effects" : [
                        {
                          "effectName" : "NoiseReduction",
                          "category" : "categoryAudioEffects",
                          "parameters" : {
                            "denoiserAmount" : 9.43999999999996,
                            "denoiserThreshold" : 0.0,
                            "noiseProfile" : "TSeCQBavJkD5HQJAU5ajQDHOV0G+z2pDkbL9Q3i210E3oJFBc3nNQeuyXUN2CBVFOYmwQzQgSkKn\r\ns6pBRQmGQB7gl0Ld7PlBYumvQW8fZEMxeY1CJxzdQWtM/UDaXwRBPkvVQNYVikEr4G9BUM3UQPZw\r\nsT8CHzlAde7eP8FqIUGHSsBCuCpmQiTb1EEwQihBDhsJQTGi1UDylCpAZmmOPrOWHT9y+cE+PKxo\r\nQIndAT9h9wxA+DcyQEj0XUAQUx9AZOqGQKrNQD8AcytAckIoQBEYL0DWSmpAJPYBQMjeO0Clexc+\r\nnMLSP6r/O0AfszVALuc1P9grh0D3y/0/fgNHQeZGTUFFb51A2hOOQDClEUDO1mlAq91DQEYGFEDs\r\ntPU9r8oUPkqbMT8cbXA/1op/PxyVVz7V2PI+92UJP7zYgj+Dsr8+pIAVP0Rm4T7gROs+aNA/P9aL\r\nCD+RICc/Qqx0Pv3ayT1dyi0+QIt4Pk1GkD4X5Dk/ifm5PtinCj/oTQE/YsMdP+eHyj5PGYg/Rn+6\r\nPhjDAj+SC9A+iFMnPh4GGD/gaxI+w3hDP5DnIz5sHoQ+oiwgPu+jWz5SRUc+ChAcPo9OKj6cB/E9\r\npTVdPVQghD4M0So+bFAXPtRUWj480yE+eEndPfinWz59L+Y9aFtoPfwWwz2SsK08sz2VPXJahj3o\r\nRRk9l6OrPcmWyj2HmIE9FHuaPbsHXz2NJ2Y91lFrPcLLlz1WoVE9GtZxPUq/UD0yBWk9JGw6PQLu\r\naj0g71M9NE0xPS6JvT2D0a899+YEPRFSWT3OFas9Wx2IPX1Q3j30MKE9G0v7PMqmET0d+zI9MZ0M\r\nPXaoOD3O/0w9P7g2PgSYKj6EeoA9AkMpPdCqij0eo/E9aG8jPt+bMj4Btvw9MlIEPaIMFD5RexE9\r\n75HlPdZBED4xSa4+oNljPv++Ej+NZPw9elu4PKYwHT3jKPY8d85sPebsgj6UCRc/5w8KPVNxej1b\r\nsrQ8E4SUPCiL5jymL2I9mKC1POgHvDyyG7U87Lk8PTEjFz1mCNM8LoGHPEptyDxZypI80F2YPEOn\r\ngTzC3YA8YfqAPI2LpDwl7oA8gxBPPAoqkDzqn0c8cViNPE/18zzOxto8pNvTPJSG5zyQzuo8W5MH\r\nPYAnwDwzOqk8Xva9POCVqzwxMdo88rz7PIty4jw4Acc8yZ+6PPYUwjwFgac8keuTPCz7Bz1MdJQ8\r\nLQZ7PKmkgjyBZJI8FmOIPK4riDxxIs88gn4hPYFj2TxjUY88PdKgPOd1hzx4rqQ827+XPKzCszwA\r\nZjM9FWqsPHfbpDxIi448rCOTPUsH0Twi5zg8vSFTPAXayDwS/MA8He3rPO7qZzyUIl480GmSPPoR\r\najxO5YI8hgG2O/yfhDwOBcg8Vq2iPOxuXzzcaOE8WIdNPfNXlj3LsAE9bn7pPH/J3jz8nHQ8ZXik\r\nPIieCj3tGNY8eL9mPIkSrzydJAk9t0xmPIQFHDwZ9+88FM0yPDYSgTsKojM8RXO2PEaAUDyB+rY8\r\nyV4SPKSjOz1qtgs9QmyxPPI8lTyYDYU8c2X2PE42IDwfxYo8KlKIPDeK1jzHJ1o8PrkjPPpcUjzw\r\ngi88u1ISPIzm9TtfwhE9eRDSPO07WzwPdZU8x4QfPVi5FD2yiVY8u+zgO72oIzypW/k79je/O0J/\r\ncjyz/l08DbnXPKeKOTz2chw8h8JDPACRrjvWHl084AYfPLXBHzwOrZk8ZTDUPGZiATx+4nM8+vtI\r\nPIFrAz2FLlw8nE3TO7TECzyVVP076g7bOx5FNjyBdS08CbcXPFZ0BDwsuoo8OKYZPD2lBjwvMRw8\r\nk/DVO/raBjxpXSY8Ni0XPDW2azzuBqI8aJ8RPAQiSzx0nkE8yeMMPG1NzTtZKss78TfCO8EC/DuQ\r\nRws8wVQZPPDBIjynW6g7P+HTO0DhnDtUBaI7VYAZPO+8/Du4hbk7QJ/iO0b3wDuynaQ7TZcOPPTD\r\n8Tu8v9A79f8HPKI/CDxKd/s7Ho6zO67D4jvVGNw7+8b5O1Mh8jvY/Ow7L/L9O2oMBTx1Ju07koHU\r\nOxbwlDtIhcU7y51TO6ISvzuTSpQ7BC3MO6A+1jueo/M7bpzWO/OT1jtb5ZM7gmmrO9tlzDux97o7\r\nsDuwOyR/9jtslPw7iKPrO45E5DscOgo8RU2tO5IT7Dv4t9g7LH6hO54eozsigbw7kI/GO8JKvzuh\r\nYqo7S9vFO208vzvOZLM7qKeiO3icpDuQna07LEDRO+473zs8N8Q7yD+5OxpgxjtK29A7bvqqO/Bu\r\npTu8qLM7MD26O5Yxqjsyer87jlyXO8TK1jt5H6E738LcO3cYijvm9KQ7nuNCO7ZMgTv6Jlo74lbY\r\nO+cPezt8kvU7uEg6O5n5BzzFi3o7TrDoO8p/ODvcwAA8Pu3FO1p/oDvqgkE7HDDxO6/pmTsmqd47\r\nZ2k3PC7xITzjrfc7Tj75O3zQxzsgbOs7lTo7PJuXlTzbq4Q8jY2BPFLzFTz6z7Q71bPGO50xozvh\r\nj4o8WvvQOyxZcTswNR08mqN7POxv+DsE7j48OsBMO6C+gjsmNRI830iRO25s3DsCsX08uNz6OwAo\r\nIjwGqcU7aMxCPOadlzv5DsE7Orm5O1RnYDt8OQo84FqFO3JUdTu3UoA7aHXSO7Vb4DvewqU7vqd9\r\nO0nUwDu3XoM7muSkOzVTVDsUYXI7JNenOzrgjztCILM7yjuLO1eYuDvhvJg7VIhWO7JeozvIxmk7\r\nSCJ9OxkHiTv8uIQ7SuODOy2mijuYv6w7ZJoKPE7Ihjvef0E798BJO27ejzvHxXw72Da5O90Fjjsw\r\nwHU7wqNuO7OEczsCOFw7WLMsOxhPYDsImo07+JU4O2IedTtwS6A7s+qGO0LpgjtU4X47zB6HOxMi\r\ngzv5t9k7z+2BO0ZvhjteS2E7HjR+O+i5aDuu6Go73rlzO5YmlDsBVJs7MKCmO4vFtztMFaQ7xvyX\r\nO3U7pDvoKl07SAhMO2p4XDsu/U47RlszO9j3kjufOp87AWdlO50liDtHon47wlGoOhWVIzv+FBE7\r\nfI05OwyrrTtEYcI760IKO4CdUDvwdn87nf9WO97TUztIx8I7fr1gO0iIEDtmOzs7uOgDOxbelTv5\r\n+7E70SxBO+v3cTt+4HY7D1FiO+yvUTuV5DI7YGSQO8bnDjteOIo7HIdiO35PfzvvvVI7ulkYO4os\r\nXjsIRZw78mbjOlN+mzuqOLA7nC7BO+PAejvVHZQ7d61EO0PKOzvi4ic7+RZJO3T7CzucwY07rZ5g\r\nO9BFXTuwg4I7EIp8O/3oIzvLzpk7WicuO9qvUDvxMZ87Sp9zO0iG3jogNpY7aJ1FOyuxODuupk07\r\nemBeOyhplTvIeWA7w+yGO5wCtDug+I47hDmPO6u6njvOsGU7MnxvO6fifTt/0iE7oGuFOzlEpDud\r\nm1w7fpKKO0cPcDtilYw7gGBMO2rZGzuWpDE7FUQGO+tBKjs0Z287qh8pO1BACjt9LAY7fVefO53P\r\nCjsSHx47FGIVOzwIHzsZX4s7/nxSOySXSDvy2XM7bVmdO1ooLzvAzVU7rpEUOzSVfDuD9Jg7/3uR\r\nOxEuPDvwUpk7QFdMO6ggmjukq3M7vmoJOwR1Pjs0ZqA7pa2COzYrSTtemhg7dtMoO75chTurlKY7\r\nAXQxO8SP3jqiBRI7At9VOxEBhDs9dkk7FF8lO4MRpDtg7T07zW8bO34q6jr57DA7ae03Oz7idDun\r\nEIA7JBd9O1iMQzsH/TU7CHsiOypdSzsUru06Y1gVO6NVbjuN+DY7OIJNO9iZPTv2kkI741iNO3TI\r\nODs8wRw7YjI+O/hlNjs10Ds7IGg9O8i4WTt8KDc7T5I6O4CqKDt64gA7hmEROxsiEzvmYS87mBRW\r\nO+wbOzsnfUY7lOwsOwZmGTsjcgI79AEVO6V4Djt7Hzo7LkY7O1cEWjsu9D47gh0/O2tlSTs4/H07\r\ni0c5O5lW0jr08QE7RmTnOuYXGTvzsi47TwAlO19hJDuJtCo7wok6O0rbKDu08hs7pjA7O9ZEZjv6\r\nc047jiFvO/usOTsKXtA60vP3OqBy+DqR6PI6TNDtOjbl+TqbBe06hNYeO9XpTzugbiM7pNELOyOo\r\nETu3Rw87AnAPOz/rEDsLTxA7b2YPO6+mDzt2xhE7pG4TO/ZeDzuqDxA7WBcQO/aIETvmcxE7bAAR\r\nOzeOEDt78Qw7v24OO7xiCztWjBA7A0MNOxwiDTtgMww7vnINO73cCzvHGQg7bPoIOyrsCjuJ/AQ7\r\nskwFO9JT9joYWcI6zFELO5bwGDuOVzI7gmZaOz8JQzs/1VY7vvcjO4fh6jpORgY7ZpMCO/k/Czvg\r\nfgg74ncRO3eSHTvZQiI7Xkk+O2laCzu0OcU6cHq+Orr9lDpY2/E6p/gLO1MyJTtRF1Q7xSUkO4gk\r\nBjvvEAQ7uF/mOmZO5jrMQ6o6dkcoO5AGbzuWMjI7/7seOw3FGzs6tBg7PR0VOzmaFDuQeRM79ucV\r\nO+uDFDvwXxQ7cXsTO4YjFTuCbhI7rcIRO3a1ETs68w87eisSO+CZDTuCNg47bOMQO6SFETv9CBE7\r\nG74OO/7TDjsqKxI7tTwSO9jKDztjARE7FEwSOxI1EDt5bBA7JnsXOyGt/zogt8s6pNneOgukxDrM\r\nHvU63g37OkUQKzswO2s7OcwkOyjq6zq2ShQ7ClkvO4I1EDvz98I6JBwNO4D3HzvSdTs7UMVxO6qq\r\nODs9KwQ7rzIBO/QM5DqcveM6Wg/COqkA8joj+gs7tS3/Oh9I4jrbsAY7ABcWO6yoEjtk6xw7F+7p\r\nOiyJwzoFBgg7vnUnO0QWHTu1GzU705UfO4oLKTsPlwg7bhSlOskO9Dpo3g876WUOO2eeFDsVhgU7\r\neDzcOklRDzsbczE7GTYTOwZ68TrzUQw7ep0SO83sFzsmjig77ZApO7d6TjsTpyQ7t48LO1MR/Dq6\r\nrqs6Mte5Om2injriMsk6Iv/eOgBN4zru1+M6yd7nOpkD8DqO6O86Hs7uOuaB9ToO+vA6Ngn8OlrE\r\n8ToZvPY6ZV38Osb++Tode/k6Hmr1Or2C+Doek/86Xyj/OifK+TqDifY6dc/4OkSH9DpQ4/86S0b4\r\nOp91/DqVDQI72wv/OurK/zpmI/s6JhH8Or3kADvy3/g6aIH8Oujs/DrvYQE7ZygBO5Mq/zrxpP86\r\nsI78Ogil+jqJHv06zggCOwTP/zr58vs63z0AO51a/TrITP06HD7+OgUP/Tp5Pv06EngBO5REATvJ\r\n7P86LB36OmWx+jrmJf86XmH9OrVl+jq/Ev868Rj9Ok8NAjtnxfw6qdj/OsZiADtavf46uQr8Oi9O\r\n/Tqy6Pw635P/Otj3/DrVtf86VBj5Omcb9zq5ufs6tgAAO67a+zpFjwI7rI39OsWb+zqHHQA7Zpn5\r\nOptV+zrwd/g6H8X/Oplr+zqpqPc6xOH9OoUlADsCcvs67gwBOyqw9jq71QE7cB4AO5BTADuk3T88\r\n4EJuOlUdKToL/aU6yAKMOtzp9zqZt5s6IL4bOvAMnzrQjw07CGbZOu101TpEIF46Ed5JOvLzhTq6\r\nGT06tjY6Ojkoojp/R7g6ZqvEOv47XjoQjoI6bQavOq+loDp27ak6Yz1bOg4gvjrh6jE6bUI8OnNU\r\nwTq6z6Y6bnFhOguFWTqMbIw6IOVvOjuPADqt4YQ6WtJOOrqJwTr6vic6q3kpOnC/4zomPAc7G5Wi\r\nOrurOzr03Cg6cvxLOmcEzzoibho61HIGOqiL+Dqs5C86zqX6OlTeYjrwJaY6vJa3OuyiJjrBhKQ6\r\nJbiQOocGozp2Rpg6kPl0Os8q9zpHXdM6826UOoa0ITo8Q6M6w5MeOtKzyTrVEJ469OocOrn/DToN\r\niCQ6W2uUOuVsqTqO3EA6OmRSOp0XHDuadKY6kfY+Oro5czobaTE6SsijOgwEjTrzg0g6vOZVOoLM\r\nwzqDOOs6bJHdOhZfkjrP4rQ6SaYEO9aJmDqyOmI63bYjOulYCjqmA4E6T412OmdlsDrseGM6Tq6G\r\nOnBDwDpiPOY6inIjOmOcyzqoNcQ6wup8OukjvTpUYjc6eVK8OpgcZDoFPY46MnmHOtwugzqsVVg6\r\nSAZyOn9W1ToUCuw6kMhmOtRtCzqs0To6r0KuOh//pDqTLbY6zlg8OruK8Tr3Srw6HKeeOhm46DrM\r\nGFE6umnOOvYJkTrt0606KBWHOsy9hDpvrC06yDCoOifEqDq1V4o67fOeOuxh3Toixr05T3JnOqib\r\nCjrnrmY6t371OmCEOjpZrSs66BGUOsYjRDplyxE6CLQzOgeMejpXK346gcSWOvEBjzp23bM6InVc\r\nOrKUXzrK+K869QtwOvZ/Fzvo4Lo5+S10Ovv4xDoGPqc6hdG6Oo6AejrJtog6e2+JOjpQVTp4OS46\r\nwoaXOrjhdzrJvYI6p0eVOv4ZOjrH16s6+hQ7OmR5NDrc33I6Qhq6OSyH/zmvsRk69CqROkkpfzq0\r\nwJ86DniCOpWdVjogG586V4V8OuQaqzqhlqc6SaRnOjJkyjp82Ww6ZJuiOrdyRzp2zrI63DFHOg1d\r\nrTo5hb86wSFmOpqE9DoYh4k65ZhkOuS2WzpR4Fo6C4d9Ov8dpTqHjFI6mZrFOol3gjoGUSY6bzog\r\nO7CZNztlEFk69XGzOu93ADrVd5U6P7pqOma+Zzqjhtg6nAMEOmL4oDrBmkY6LBe3OphR+zrKiXg6\r\nNqVDOp5fZzpwz4M69IsmOnIi4TpBnpA6stYQOlrqSjpqK4Q6N8phOtABczoR98s6fGPkOl3mYDr6\r\n7lA6Zq7POZglTTowyr06T9CAOr+Djzq/90s6C+ltOhZOdDoxR3M6isZgOnMuBzuNQUg640ZvOhNp\r\nJjrj6s86V8MYO+ixgDpxIK461E0UO6hVgzrMt846RhtoOuc+hDpKQYU6lDoCO7qd9zlPgCY6QHkC\r\nOsB7TzqaTDw6cJDLOVKlXDpXcJY6BRSAOjfgOjqxs4c6rcV0OnpMhzp+bCg6XpNVOnJwZTpqTYc6\r\nwVxIOn6qVDpe2m46N6FjOu4hwjrkS106CY9jOnQm4TmJT8c6A8opOvqVQDrl0zU69neeOpCRQzo2\r\nvJo63gG4OhLrMDqriGM6OJfNOhqKEDr2FLQ6CaiOOplBtzrOrrA6jJgmOmYesjqvuFM6JCw8Ogwo\r\nvDow1gw65lT+OYJlbzoyw6E6q+2ROhqO5TpWE5k6JyqgOhlEIzomHDg6zGYAOuNBjjpVf0U69/8t\r\nOuexWjrKWX46LRWFOmkdVjor8qE6YXo7OiqBCjs1ABU6bFHuOpeHpzpqWak6ZstSOgBkVTp9nW86\r\n/KmPOtHJhTo24KE68ELwOpctgDqwuDA6qMJ8OnV+pjr3FJw67Oz2OaznnzrFN506Q9KWOvy/Qjo0\r\ngNE6xWqJOq6VpDou2NY6Khd5OtTr1jrCb0Y6f+xVOuA43ToNnYs6aeEmOhG3ezohJms6in6JOsUN\r\nRzp5pZk6fgYxOo3cxjqxolk61MYGOovSAzp4ijY6PvGMOkGqMDp+tZI6P8eOOoHypjqIU5Y6dyrl\r\nOuvhdDoCHKM6U0MqOt6/mjpik8E6k6IeOjmIrjq7p5M6IqQbO+KOtjoa5Jo6KISVOgj5MTpm+RE7\r\ndeO9Ok+A3Tr1o686D80gOlMRHTqu9So6/GZpOoqApjrqW4862gubOgQ8Vjp1emM6qsWYOn3TIjpW\r\neyI6Ek9QOqx6ZDom4c06jWAqOjJl0DrOBKs6xNc+OnA3QzqoaUs6j1lvOnkcPzocqfA69lhiOibE\r\nKjo4IaY6z0VvOh5haTqKT3A6JqyCOh7jpjrZ3XI62DFWOld9DTocmh862i8pOnUM2Dr8cWQ6GOQq\r\nOnqWtDpsQzE61HvNOUwbRDqPK706RpmfOjEWVzq9tRY7JH/4Od9Hijpm6Pk5rH5XOl7scjojfzE6\r\nRNN+OiLTjTqtyAU6qEw9Ot+pMzrcnW06FnxQOqCGezrzai07kJvxOg7Q+Tpqo3U6NAtbOqgfNDqP\r\nghc6CX0NO+dojjoQb6Q6dIJiOo/kYjpaEHY6Mn2zOhAPdTrvOrE6NvNAOg2PtjrIGb06ygXmOgTM\r\nBjqAsZY61IswOpBeKDpBuDI6Cac4Oo1CqjoybkA6m9+AOh/HUDovrZI6qFvwOlT2kDqO2Yk55BBF\r\nOtqvozqcTKk62z8oOlwpOzoG2k86qoq4OsoX7DqV0mw63uJUOoJRpjqMq786/A9qOpDIUzrCfpI6\r\nRMwGOpFXnDoTlp46z3WVOm5BBzu0gSI6nhUYOvQQXDqdRkg6PrndOnjESTp5+qM6ONnrOs8a0Tp2\r\n5LI62tqIOtWTFDraS486y1teOiG/lTrwnaU6xo6aOv2Rpzp+xyU6dKUbOlVRJTrD7aE6ycKEOhs9\r\ngDo8k2o6FMCHOj/SmDrxSoM6ZkEGO8l9PDr+dbw6W5kQOkY7lTqTQAI6Iq+EOneXjjoMoAI676dE\r\nOpMlVTq1+jY6Bv/DOrVEKzqa7uo6f8poOqHkzDryEoY6QNqpOjxU9jlH4Us6vxVEOrQeMDoFa306\r\nuguEOlr8QTo+rlg6j+h/Ory2bzq+Esw63GFHOgCXYTowMkE6PmlVOs+dnzrtbWg63PH4Ofx1vTpv\r\nF4c6mwseOhVKgDovLmU6munIOf5OizoF5846Obu4Ohr2qDodS6g6pNaiOrt22Dmo2i46YZR+OugQ\r\nGzpz+HY6dUpcOslyoTrGaiY6rmp/OgYZBDo4wzA6bqxgOieqrzryJS06THSdOgajJTrkqo46gFlC\r\nOlof5jn4aGI6jo1QOmRFkDreGt46J7DdOWzPqDoGj7g61dF7OuHW8zoamXw6Zk0lOoN9FjqbFnM6\r\nBjDDOkfkQjqizDY6/oB6Ovy2kTq4BY46ESCbOv+GxjpSKC86vauKOtVjrTp0KFk6RQdbOsJxCTr6\r\nW2M6zMGWOsBwTTpveU06+/mJOhyz3DnV3As65ZojOlZa/zoAfAo693NdOu4TlDqUPl066BM/Op4q\r\nXDrAP6w69tqoOvOPWjqjVDs6wLAqO3YyODpylKQ6kDLOOku3gjp4C9Y5jPAYOqrt0jk90kc6Ho8p\r\nOgGyRjqVwak6NfEqOr+lYzpWKzI6AMIGOpAwpToM6Hs6GxUjOqjjEzrR8gw65FE2Og+9lDpg/l86\r\n81kgOnaPcjq2LJQ6p/uDOlWATTrsPYA62u6ZOurnBjpgZXY6I9K2Om8jdTqMwzk6F5ZfOjn4UTqO\r\njqE6jrwPOoKdjTqKHsE6vKioOlzHEzqGqbA5nI0nOQ3wbTjo1iQ4BUSkN9KWEDeaCm85bNXBOQh1\r\n6zhmOsQ3GqW2N7ULfzi9pN03WEwsOcdZlDi5cCs4UJCdN8IOqTj8AZ83sSGjN67ypzgLjAc5dmok\r\nOYCbCzj12ls2OAOrODsgEjklNLs5o48YOMotgTlwSwI4htwbOVmrvjlkZEM5jJCoODsBqzm2Gpg5\r\n3B3JOe9ZRzndePg5OAelOcKAnzjszCc57DuMONx5Uzmy2Xw58l1BOYhU2Dk8S9o4HwXCOeAADTpv\r\nJU05RMrBOWhsDjqsiLg5KYSQOL2H2TjBLS45FI1OOZsQpDliUuI5dwaKOer3qzh+Zsc33SHuN3MT\r\nlzhIdIo4n4zGOJwGGDp+6gI6fPMeOjMo6Tm6C9c4cOdyOMS9ozghDpU4hKu8OA4r5zl+DgU6Fq4w\r\nOaAYkDjT8Fs4ezMZOCN32jds+MI2RdqFOdQ3JjlF4G05iUWEOXhr9jinxxg587uEOCZTUDjc2zo4\r\nfOq8OGUAjzitY+g4Vo+3OHe3+DiFeAI5UwBYONAP5TiUnZI424GhOMeyTjig6k44l7I1OJBIQTjG\r\nElM4QKp/OIjn7DhmoMQ4okBXOTf1MjlM31k4jPcGOUzm7jjiGnU4HbgBOXGk9jjuuyM4FHotODcZ\r\n8Tgm7+k3pTEUOPdWCzmWbKs5dR10Ofm8mDXBOWw1OwBxNRe/DDXLdWU1qB/yNNRQZTVx9mM1RvA7\r\nNQvwEzXCwBs1nHFANZp5GjXO+k41L+AfNQmLgDVLJuk0GBIpNe31YDWb3Eo12fUrNWFDgTVbJ9U0\r\n6+kXNQlpGDUnKII1iGxaNfmLDDX+z700iNlCNersQDV6uxs1aOxYONOEaThKBC84nMyBOJHiZDgj\r\nRTk4nzEAOTjs+zhZ+6Q4XEK3N0NScDV4CSY4Gl5OOM4LRDiJZWc4XK4VOGy5ajh1D5Y52HxxOXiL\r\nnzSIM4Q4GcE4OGZJBDgo12I47hSKOOz2+Tg+dNA4OQEcOE0KQjgeFv44enntOM0imDik9f44DFuL\r\nOdZOSzkqQJg1lJ2aNBvrVDimqa43FJlDOKko+Dh8a9Q4SPsfOCOtCTV4YFE1VKvGNExF/DeSEjY4\r\njANFOCQiZTgamFs44gf8N4OWFTXP3mU0weAxNQLHkDV+FYA4tSRXOUpMRDkVQbQ4s+dTOSqHIjne\r\n78o4K/aFOOyWHzXOI4I1T8inNIww7TS7EtU0UZEJNSh64jTaYsw0h6klNUa+OTUdT5w1YIwsNRJf\r\nXDUwGEw1E1akNIRvMTW2jwQ16yvQNJR1HTULnUM0NasLNUXlPzVi+sk0+lVfNcsnGDUkXkE1ILKS\r\nNAPtNDW7MqI1GSrONIUxVTXloi81fxX6NPaHiDTdyrQ0x68rNcRuADX2KSM1Lp1CNah/BjWgoQg1\r\nk8PtNEgoTjVEjMY098bzNDiFrTTrnss0RQERNYsEhzSFoVA1gUPdND6O5zSGouM0dwEJNXi2RjUk\r\nCTo1QvhzNWOu+zSuFQE12OPrNHhuGDViHBY1zyENNbBF3DSuFM40WaMPNfvCJjU+LMI0tksSNflr\r\n0jSlpLI0Ciy8NF5n1zTBQUE1QvJgNIk2izXZaF01WtIBNV3CZzTY/hM160M2NZk33jQisFE1zkrL\r\nNMLC+jQ0GIc1p8oFNWcO6DT1+Ow0MNTWNMPEHjXLLd00CABWNWp0ZTUTtu80AAAQNQ==",
                            "noiseTrainingType" : "default"
                          }
                        }
                    ],
                    "start" : 6452,
                    "duration" : 2190,
                    "mediaStart" : 0,
                    "mediaDuration" : 2190,
                    "scalar" : 1,
                    "metadata" : {
                      "WinSubProjectDisplayName" : "",
                      "clipSpeedAttribute" : false
                    },
                    "animationTracks" : {

                    }
                  },
                  {
                    "id" : 97,
                    "_type" : "AMFile",
                    "src" : 7,
                    "trackNumber" : 1,
                    "attributes" : {
                      "ident" : "Aufn. 07-14-19_018",
                      "sampleRate" : 44100,
                      "bitDepth" : 16,
                      "gain" : 0.937754446796636,
                      "mixToMono" : true
                    },
                      "channelNumber" : "0,1",
                    "effects" : [
                        {
                          "effectName" : "NoiseReduction",
                          "category" : "categoryAudioEffects",
                          "parameters" : {
                            "denoiserAmount" : 20.0,
                            "denoiserThreshold" : 0.0,
                            "noiseProfile" : "qqC/QIr4tz80SUM/EanePijEfD64z349crXDPekuLTwwKXI8qAxIPE6phjwdLyA8CWp1PHMAHDyw\r\nkKw7ZPU4OwhWZDsRLNQ7vEOSO9Je1DsyF7Y7UivkOgeLwToGL5w8EZrEOxh8MTvefjw75BIVOrdX\r\nizqSUwM7FDqnOpFjSDocSWE6EsgQOukFbTr6Np86EgaJOrYNhTsdK5Y6c2KwOm1VBTvzt2o7hKQ2\r\nO2QDWzp88cI68KC5OggjzzoT8Qw7FN/IOu0elzq4NAY6Iiq6Onm33jrIpKQ6rls6OgwyDjoIhyU6\r\n0ZZpOrIMLzpXPvs5OycnOpKcYTpMYDE7xFuiOktgBDo3t145hJSWOXgGNTpBztw5WaIEOmhBpDm5\r\nt685vSsmOkYIEDqu2VA6MnnAOnl+vTnQRQ864/mDOemWvzlWNTE5OOjEOTWEmjkK1E0685HMOb7O\r\nFTpetsI5KJ5aOq+rWzrJv+c5lfOOOmmpCjquEHs56hkDOiDupTnoKaU59qpiOdXqwDnelY450X71\r\nOTHrnTmoG7Y5LZlFOWJM0jkGCGg6fxoNOiYjTjos3W05jRYqOXLjiTk2a8M5PmbZOFXbqjm9U2g5\r\nLRRBOR7vAjmxCok5pj5oOQhXzjioFME5hhePOEh7QzlbVgU5/InIOEa4yzmKm3Y5jPBpOEyV/TjZ\r\n/z05NPooOaIWRznqWTg5Lr2NOFMkzziSbdc4pijLOKInyzlb6aY4caiNOT00DjliKT452hsYOrP5\r\nKjnKgA056YPUOOraGDnWdBU5HNK2ONcNgTjcx4k5402iOe3Ahjj3/7g4DM1uOd4S3Dj8sMI4DKX3\r\nOGwjSTjsutg4xL+AOLyoRjg1PrM43sezOOxZUjnCXfk49ZwvOAYlIjlssmc5JkmcOET7cDgFO4w4\r\nSS7UOFtfkThnPfY4vLCFOH81HjnvU6Q4IMrPN3W+NDhEcYs4xzAFOEqV9zdMNK84Sm2ROIgFgjji\r\nhx05MlZoOZKU7jhOPhM4hAMXOMBkqDgl3w04THf6NwnOwjh2jXQ4YMo0OKpS5ze+/o84cJ40OEmG\r\niDiUM9A48kcWOU6Jmzha7so4MZEcOKd9zzgoyrM4WCOwOKIR2DeKf+w3A+CIOLlTCjihkQ04tOx9\r\nONM/NTivZIw4c3uBOM0/lThAVO83rPeOOIWQFDgSTM44bxwGOBgkGDjvwIc378srOAP4JTi1ONE4\r\n4h3pNzGjMzjjBxM4FsXVOOKfGDk6HA05khEZOfB45jgQO6o3Zy1LOIxYBzjKGxo4o5bVNx68XjjS\r\ned43hHbeOIgQTjhv3FE46oQpOC73Ejj43qg38NAjOLXdPzhIKFo4dxLmNyHtRThbnrs43GxIOJTT\r\ntzfRAzY454j5N/F8JDjLsPE30EAYOJjlATiM8oQ3iKLcN3xmkjjm6IQ4gI2IOJ6TMDhKzcY3BZg8\r\nOEbWdDiK8583YXhpOLakCzg0Jkg4OhHwN18jjjgr9p43eBPPOG5ZEzhYIqI4yiCOOIAnyDh1YUM5\r\njHrON8pXkDi4yN83bKAjOEmJ1jioAy04aVDCOJXWDjhu/tE3zpDCOGZQyzgGoUc45eDNOW7D5Djc\r\nkgs5+B+aOMyhTjjOaIg43cWeOU4KZDi3mYs5DtrmOAuGXTl38hU5fEKiOXSncTnBCe457rYGOW2m\r\nqjiH1vQ4Y2ZQOU29nzlBXTM52ipEOAb1jTg7L5Q5dLmgOKT4uDmubjM4xYl2OFqWPzmAPog50JMV\r\nOLI9xzhPSy05npEfOFgbnTgKhP042FVrOLTO0jkiUoE5PiZMOczyJDqm6Jw67DstOtg0VzqqdFY5\r\nAX4AOUfyEjo0pGo6DYqrOfqOFjrRQKY5nzErOaI2gjlqrFg4FKo0ODA4oTfVQjY4JbzkN2xVXDc3\r\nqDc4ykeSOQMumjhksxM4tt+NN8DgJDk9U9o4lM++OW3ZHjnGqxQ5knE1OY4SHTiXLEI5FKdUOZiS\r\nMzjEQq83elOXObBHkjjGqdw4fR+2OZgGxzgPaQQ4vEAROMbN3jjSWsk4XZKGOLzMjjiOsxE4ByF5\r\nODr5qzgFXJc4WJw+OVlq6De0Zqw3ZJ5bONsn2jeZD2U4TNu3OAvUwTflfvw4RcCKN2yuITishJA3\r\nofOAN68b3Teceo04DUauN2lwWjh+wp83tXIIN7p7zzfeI+s3anOqN/VtgTdvrz03rGb4OF30kznG\r\ny/M4pVVcN96d0jgpZ/I300MXOBVxnjducFQ4dtCbOH8oETncU7c4CpNLOMgFdzifX6I3iNxlOPBh\r\nCDjlzxo4okTEN9YKJDic4W84RnxNOHOagzcgjfk2E2AnOBEX8jeGxrI3iu07N2rtmzY985k4sHuc\r\nN1rOPDlzMB84gRFJN+NYgTilDiM4ywjxN+dwMDgaWpI4yiSLN2L6ajfCIqo4B+MyOVMKBTnzkns4\r\nmng/OdEPIjkg7ds4sc+tODh68zjmw9Y3Qs+VN2Q/+Dja/IE3xvPVN1C9KDeCLvw2BF2gONgELzjY\r\n2hk4sjSPOKBPhzcEEM442rnPOM22CjjZFss3LrVIONrUBTjy8Kg3rGGcN7UrNDjG1YM4PVh5OIvH\r\n3zb/GQY4vSjqN7+lEDhN2UM4OGAiN4WmKje5jfk27ijGNyrZ2zcxuV836N6eN34z9DaM7TY3y0eu\r\nN49OxDfAa2I4qqkkOEl7lTfMHTk37xcXOAtoHDeAW4o3LAI6OIKmRDhizLo3BOf/NsCv4DcAFEk3\r\n5xuaN9SSADkzkoU4KSYFOCpcXjjYdNU3dorWN3SjuTewUeg3PI80N3A0DjjOuKI3YJWuN3pgrDfx\r\nmLU3yeloNzB2kDclzk431NSCN/UjOjcyrXQ37WQUNzazOTdgNvk2wstEN8RmMTf47SI4iEjqNj4d\r\nnDc4uWU39hwyNw88/jYyfJk3dgjVNiXDADfCreU2a0zlNhMbxTbvttU3WT5VNwbM4jb4DJ42U0RZ\r\nN7S97TfOupo31HY+N7wPHjfYDeM2fAoWN/eArDdn0Es32G1fN/zJGjcMkgY44rk0N3Zd8zZqoWg3\r\nDPEqN3jiXjeQO3U34chzN+vhCTdJFgc3x/jENnLj5DX4qB42ynURNnDICzac9Qs25JgONiajETbP\r\nDSk2sCZDNhFuJTb1Q941bmsRNuz4tzWKegE2EsbVNVc+JDY6HCk2kkYLNqXtOzYPsBY2yNADNvHa\r\nDzaPZTU22DlUNkKRtDW2Y9M1TqEdNsBCKTabtRQ2oJb3NVg5TDZr1sE16kMhNgJDOzYLHgU2ut7r\r\nNchuSTYi09w17DcmNm6d8jWokzY2XgQONk4aETe2RHk2soYINseUPDbOfVU2imvRNsUWgzYr1j42\r\nFIZHNiybKDbDMv41cuUGNwoDdTaDyy82XhQZNv/qGjbOuv81PZ8eNoAA5zVbGkc2RjIKNidxQTa7\r\npic2detmNnADETbc26w1MpUGNmA/uzX8mQM2riUwNkE+HTba0wo2ZCj2NUGczjWTick1oyweNnxV\r\n8jXM/Rg2Qc3lNQal5DaH4KA2ZjViNrktPjZdHW42X5YhNkWvVDa89Cw21e1xNlcVZjbq2To2P5Aw\r\nNv+cZDYKbkA2cmJrNuG+NjbAQNo24s35NtJbljbJ5jw2fA4eNjR2yTZAVtk2SIiNNlJYjjZLv9E2\r\ngGr7NpIW7TYNPgk3A3a3NusrkTblAaU2wBC4NpoHbTamnWg2eJsoNn4jyjYNbYA2ISAuNhSkhjaO\r\n7Os2W2ZhNiciNDabTh83o5PWNudCBjeVZ+E20vWgNlv/uzbuBK426y9VNqvmUjZnSAA256SNNmAB\r\nKjZ6zfM1emwBNlz68TXZB9A2AnMNN70a3jYNIMo1gnW8NcBXgjaAKyc2ncAQNryZ4DXo1tI1GznS\r\nNTed3TUzKh82ZF0aNvDLWjZ/TiI3VBXoNWKm4zXBp8A2I7NrNp9IOzejKBo35ClQNnDScTZ7F7c2\r\n7OswNxVrjDfr20c3RK5YNzoJ2DZPj9E2OuwnN81tVjYz2Rc2QHAhNlHXtjZrUhU3wuXSNq4VCzZT\r\ntRE28Q0ENm+rpjVmP781t3yGNuIlEDawOik2qCKrNhjRMTbaafg2Vk0YN3y1qjYirsg2A+4oONZ/\r\niTgiXIU4V2dlONr5CThZRmQ3S56xN0J+AznPrjE56H63NxyGCTjfT4I4+UIgOA7NeTbmHuY3X4mB\r\nOP7hFzi2y4s3Yj2SNhRFpTgiaRU5++vtOI/noDgdpLs4lMrBN3kgZzcsDbo35PqLOFhshjgW4Ls3\r\nnuKON4SXhDffZIA3Wjx7NgzAijbTiIA2lhFWNqfQQTaoDLg2njYkNgW15TUR5+s1lE3jNsTrwjYt\r\nTgU2Er4GNia9YjeWNrk2VrNhN7CyvjVIlm02b4UMNsjByDVMLRI2Do6aNRmpojYNMJk2LSG/NioX\r\nFzZHtMU10pqANvXYyTUpNYw2y4gnNlcltDUIwKg1+/WuNZ8E1TVDh+s1JQ+dNQ4x4zVEsNg1hJv+\r\nNSLhtTW5+PI1S7aeNUC6CjYMsAQ2/NrINVK8jjUlHw02A62qNUAFFza6N2Y1ZJvCNcCmJTbmWpA1\r\nKQWxNeVAZjbiwuk1E1UrNuGlgTUw9u81vWvQNWy9yzUTt+w1E/32NZpY8TU+Q8Y1sIbmNQT3yDUq\r\nuvw1DB/nNUHnuTX7CPQ1ttHHNSwHGDbh1qc1O5CgNRkfhjV5haA16s/tNW0MZTYadQo2Hz8KNgSZ\r\nHjYEiNQ1ymSSNeXagTXbBsc16VCoNfi+rzXkox82i8vTNcPuzTUabPg1zWceNqsPDDYHQfo1OI+k\r\nNUOPmzXZrvQ2fPBpN1LxIzej8QI3zc0NN8nx+zW7SS42euZ5N82K5jZArkA2hDxUNoGMtzZnzL02\r\nBIL7NtkWBzfasog3VotTNvuYgDY4qPU2WPQtNmcl8DW70OI1R7TXNTkvCjayhBA21ZXDNaQPBjYA\r\nU6o1M1KwNZpY5TWLcqw1iZ0PNkkemTUUbJc1ywHzNe1svDUJWRo2Lk6FNcCSkDVfreY1POERNmY9\r\n5TX08sw1aKCdNUQH3TVyMAY2AOHHNfCd6DU2NOE1v4/kNf18gzX9SSg2QzPpNS4iDDbTgZQ1HYJS\r\nNgJj9jVxExE2pSN7NUHs5TW5MAg21xPaNaFayDWck6Y1N8q1NWA0rjXtZKk1OA2mNVq2gTWhg+c1\r\ntiuRNardNjZAGPo1MmgYNhgy1zWMLzI2WnnLNeBZ2DUQKrc1Z5zjNVhjyzUcjII1OEc1NoTopzUW\r\nwow15XHqNX9M3DWy9/M1hWuqNSBtwDWSmyc2ZQ/HNXOeyDVZ+Mo1mNm9NTAWBDaGPNU1cnTnNW3g\r\n3zWk1p41esIENqIjozX8OgM2YQ66NdGCkTWVbxo25xKSNY/k4TWaltk1SM4BNuMY+TWk2sE17eeJ\r\nNe772TVYJZ01NqrSNZF7vzXIQNU1JkejNRtNHzY06rU1yvLHNbyDyzUA6J81c2OZNQAA8jUglso8\r\nLPp7OsLGmDqH+XY6snqjOn64XTrpdpg6dcmPOlL80DqExUo6qGGqOvOnujpxzWk6R4QgOuqalzqO\r\nQJQ6dpB7Op9/hTr1TqI6NhlzOv3+qjpwd5Y6JGqjOqLHIztJh3E6qL10OjiqXTpIYrQ6BtkuOsz8\r\nXTorO506NMx2Ol4V5TqV2ig6ID49OrJFmzr63I86XgYPOnuQSTrtye05qUsuOkprsTrE/4o6Wr//\r\nOmC8izqZgrw6/ieKOrCVGjsAqKs6xutbOkZLSDqc8rM6bsRDOqxHyzrVCBI6hmMjOh79yjpl3uo6\r\nu8JaOjlxJzrlLWU6YWcLOikEbDpwilQ6mGvXOiznZDqcbA47o4gIOtJ96zq6+IQ6J9l2OojbVzpx\r\nAm06mkYtOrNsBDosePM5aCs+OvJHvzp1n1o6iXEeOnekTjpPMYY6JI+yOuwn2jrHoI06nenVOjpV\r\nrjqYV8I64OwKOoL/SDqJSJQ61PGCOgpUdzpsTT86/nWGOiR/7zrkgJE6xV3ROtKXbjoosUI6GSOK\r\nOiOKMzqQnrk61+m1OghJljrHxQM7IYbGOjQghTrixpQ62seOOhrN5DovyLg6kxLsOi444DozEDU6\r\nAx/OOrNGZDqY6Jc6LKJqOlB/iDroOJs6cvldOsrvqjodeY868ERxOqsckjqneQc6eLy0OpjF9jkq\r\nNRc6aJsgOiZTqTqmFmw6Ig1COhDBgTrNtpM62XOHOs9Ltzr6YK06d+ITOim7hzpQ9es6AOoPOqDl\r\naDp7p506pZZuOgz2cjo+MK46DmXZOiPoPDrkoTE6eDFJOouQejrFIbo6JJxtOlbH6To42K06l7KM\r\nOpju3Tq5uTg6TEcsOk1FKjrqvjs6cUXmOYsCLToJOHU6qYSQOoqMLjqYbE86r1ErOgVe1TpH8m86\r\nIZ2DOs4zbDp5P/o5QiWlOtAMdzqpkNU6DFVsOnwjjzon+lE6dm2XOq5VgDogSes5SLZ0OpERJDqn\r\nKos6erhzOjSdlTozBdg6yfyFOkwTUjoEs8U6zDdUOiLOVDoRkq86FR5SOuCvyTqQcIo6DgonOuQd\r\nsTpIfjc7M92KOoMRhTplRLc63BBoOmaHmzoaVXU6EaITO+lwrDr0L3M6JZmZOrC6KDrx/r86kveY\r\nOqrOczpmc1A6m8FvOuTmiDoiHkE61tiUOoBADDvkNA86iJz3Oh/5nDqoVYE6b1tJOg3nozooz0E6\r\ntAwHO9c/eToLgFI6ua0qOrh3vToXkxA78Vq0OhY6SzqS1GU6wsYxOi29ZDrPRFI6CkqEOtIcijrs\r\n8VU6uo8kOh3VmTqUVaE6byJPOnvGhjpjKkQ6DibGOrB5VjqY4VM6Vb5oOuJbnjrCoZU6VGFQOor7\r\nTDqWOFA6g17+Os6VQzrA5i06N1qpOs7nrDrv36k6NBJUOkKpVDoZp4w6YoQxOgXiHTrqvos6Lpio\r\nOrsipDoNf606x2SdOn2xMDrSvVw6nFh3Oq8PrjoCkPs6WKWYOtdlTjoYCEY6Ci+IOogvsjqSgbE6\r\ngrpEOra4gTo2fZs6bdd4OqbsuTrqC406nZMdOnD4bzoePcw5drcsOtD8Mjq2kZk6paRzOtnqZzpt\r\nAHg6zJ57OhSoIjpoCLk6RxuIOt1rnjraj486CRwrOpodkDpifqM66nsDO05tSDoEFaA6YWI6OiIx\r\nbjoeHZI6gI7+OvljUTqpaBM6NEVCOvtMKzoavVg6FMEQOuzayDl5+OA6TX4KOg+0wjremNQ6eGKv\r\nOqcEeDrUkYU6SqNHOsTTPzpkIEI6EiieOhsvYDo008o6RtzqOTGHiTq8TrQ6INGYOqrdjTqDKRw6\r\nl1C0OjBZGDqg+cM6vtmNOo+0vTrohHw6kly5Ol061jr4ma067mEMOyA0XTprn746ct6OOli4djpx\r\nuOs5Qn4eO2K/YDqc4JY6NPQnOkVZRDoT2KI6IJnBOrRZmDryDbI60ZYeOjKa3ToLU2c6eN86OnEJ\r\nTjqSLlI6qr/8OTVm7TnTz7Q6NGReOjfcVTpEC2o6amckOro+YjpenM06RphmOgxHujpAtFU6GbKF\r\nOoJYOjptfAA6L8ApOqCV0jqbGYQ6ZqHVOhcaRTq/k8Y6tMtlOrD1DTp+apU67FphOlElYDv2+TM6\r\nq+USOgj6kTriOvI6W0MaO0beVDqG0nM6UNt2OjYSbjpdabg6gAckOoYpxToDTRQ64KAjOjBOkDpl\r\n5Do60r6IOm+BvTqwZoo6sGOcOmFmrDry5lU6NVcXOiH7hzqKN186OwXhOjnBdTp64Mg6QqokOm2d\r\nLDpbcIk6+SvcOke/jTqDmzc6FZJMOgSVNzrLiaE6yTVnOuS6ZTqDH5E6Th5cOgpHYzquWsQ68pp3\r\nOngJgjq2tbM66Y5tOu2lPjrm4ms6AZCROlkmjDroWlw6EpmfOkT7QTqIa0s6LmVROh7uizppAFk6\r\nFdhVOheUkDowXE86G7U0Otpm4TrxQI06jACUOu23HToWgxE69UtKOixCuDrMo3M6ad4mOgjIoDoQ\r\nyL46XPxXOvqzhDpAUnU6jj2YOq74RDpdx206BN08OoktDDorvWk653q+Ojt2jTqZS1060WAxOom4\r\n7zo0+b06qM0DOqGbnDoev5E6GQKQOi8rYjqC4HU6T/xvOm2DgjoCKAs7lv4uOrg8PzoTVk067rgZ\r\nOmo5Pjq3KT86G2mAOlgXCzr+RZA6Z6pcOntCEzpAGDM6hBWHOkxnLTrWp0Q61Gh5OlCelzqA5pk6\r\nRuEeOjZjfDqCapY6OuV2Oj2AETqM7vM5CtNuOnEVrjnYmxY6Hy6SOn2AoDpfzvA6Nx+cOrmYAzot\r\n1xs6W8RAOiE8XDpwhjk68tLJOhCeUjrSxJg64fuIOkIdMjpAU6Q66HFMOgvoIjqqMU86sGWsOi6A\r\nRDpWl586AquXOs7w8TqON1U6yx98OjSOVjqHG4M67W48Ou2NLzoQ5Bg6qoRgOjzuizqTZLY6/Jxq\r\nOljFszrull06fh2IOgHttDqMsiM6JK2TOuQeTTrlGYE6TIKPOheMTzqgO7E6DnlROqAHgDouSlE6\r\n3EVMOqY5XToC3sE6++TnOSEv4TrSPg86Xz7MOoxHXTodxz86tS5oOj7lEztB1sA57kSZOnldjjoV\r\naIw6dJlhOr7GDjq/Vio6niNJOgydEzrxwe859ulTOrieXToUSOc6DZd1OkGqXzq5LkE6UDk9OmWN\r\nLDqAEFk6qbQFOqLtEjp0GkY6DjAlOigElDpo+Lk6z32AOhZeETqMSLU67OCUOu7NRDpVDzQ6Aq3K\r\nOkM4QzpY6MY6T7cEO4HBnjr7n9A6VApmOpDnADqefWw6EMqjOuA0Ezr1khA6ZQUyOoxrQzoqLEY6\r\n7SsLOkpMTzo29Uo631WEOqKATzpK+4Y6LNqgOq9MoDrO5MA6oJUjOtMaTTrK52k6idCiOsqRGjo3\r\n5TY6I9o6OtwazTrOi286MX4eOqTRiTobi6o6K8xSOtykIzqqvX461JCzOVltKToUCVM6ZG8+OsrI\r\n0jkYEkA6VGcMOouf8jmEmCk6WOKGOoJ01zqFZQ861tO7OhLz3zkXCoU65KBtOsK9bzpSA+I6vO9C\r\nOmj7hTracoQ6+fQ9OghRSjpYiE46h34nOsXMkDoUtIM6fEkGOwd4UjrUBtI6RUN5OvaFLTqqlIk6\r\nlTlxOivtlzoQc5Q6olWIOu4DSTpYpU86W1CFOj7zcTq6sz46Jem0OhgcPDpqTSY6BN8iOr2aSDp+\r\nOHE6NHIeOhKCiDpNGlc6HGcbOm8jnDmaOpM5UI8COj+ZxznD6xk4WAjHN8f+qzcLOHs2OHp5OfAy\r\nqDl2wuo44CD0OHVTSDmS3BE6OhgIOglySThCDK44Xna0OXUwBzoc7oY6CNswOmURhjkIzKE5qC1h\r\nOUBQpjkOW0E6su+JOZlxPTm0OXM5g+GfOBKvcTibvi04wHaBORSIwznMhfw53g34OYhZxDkuEcI5\r\nbMTHObFeCjqGQpI5Rty2OEE9VDnITn05VI5dOIlCqzg6nNk4j7+kOh9BkzrBqoI5OKBBOVzAsDi7\r\nFfU4gsS0ONMG4jkc7OM5wGu5OByFXTiBP4I4sQWMOf0ftTkCn704+GS7OMfHjzinxf03o7qION0A\r\niziqe2k4NLj0NxLTczcWw4o3bhkcOaWmKjkw3eA35D/bNxKDnzjWxHs4hId5NZPuJTikSGQ4F1bh\r\nN7PdajfnGFA1IgmFOCoT0Tio6eI4mxTnONB6qDjACw84cjuhN67djjd2oVY4g2BBOBESTzcRNhQ3\r\nGLiEN3z8rDgvhRI6JsSGOlZMPzrfKBU5x3A6OEz+sDgNJ8w4L2STOd+/gznGmCQ4lhnxOI6vCzpz\r\nhtI59CUuOdMhMTmUlQ05thYKOZcWWDlAaUE5tSX0OOPDqzmQv5w5qZUMOS+uLDoNFZs6WbYTOgya\r\nnDjyVA44SQTWN2aIJzjEM6U4k8aCNR3W4TSUUlQ1QneYNW29EjUG5tw1hFeGNcilWzUe6m819tN1\r\nNYSXiTUcK6c1JOCENeXPjTVzS4k1kPP4Ne3JTjWi4AM1dabXNMLfHTb9Oc01nQQFNUL4IjXhXXg1\r\noW8HNZwh4DV62YM1PP6KNbTTNDVnSlg160UYNXbrgzUMFi01CAJENYq4mzVUdYc1q8kBNdjc5jXn\r\npmw1zlxMNaCNlzVXATA1GXZUNXgpbjV221Y1sE9PNellnzXXMr016t80NQvJgDUgVyg1OPAFNc4X\r\nIDXqHW01Kbq8NdVjkzX3Iys1qUNENary7zQufR81LC1KNZhljjVcsVs1j5hzNTKFhjhKCNo41ht2\r\nOdHy5TkKxl45HBH3OKL86jiYCpo3KoxPODyHkjn9arA5td1fOVDOSToJcvQ595kjOoNUpjnl8kI5\r\n1UvjOUIrTzn3rcI5lJvbOVMC3jhFMoE4gyxvOJViHTjKBZI51FowOta//TlotM84KBlsOP6ybzib\r\nkWo4fok7ONj5SzW+Wvc07JhBNR/XvDW5Wco1c18HNUYKITVFU2I1RMEINeq/TTVAhT41uPA8Nchb\r\nzzTxMIY1y49YNQgbBzVjZ4U1ENjYNNOVIzVm4yA1frv+NAkkKzU+MRQ2NkMENec9KjXz6FE1SB44\r\nNf9FSTVM+1o1ZewrNUw7DDUemlw19OOfNAS2KDUdUGA1qsNBNeryFTX2YEk1U61+NdlJ2jQAIrQ1\r\nGEEzNYfYJDV8CBE1Gi/3NBF+jzVKDgs1CwskNftKDTVW9Q818GsaNXuOQzWIZlo1ZPHjNHdEKzUA\r\nUIc05B86NRjf1DSE8jY16kAKNa1nkDVhCzw1lprLNTwMFTWBCAg1A83jNORHRjVACxI1DAYANayH\r\nMDVDJUo1ULMrNZwBgjWCK4w0GhUxNZOW+TT9YqE11Vc+NaDunDXqECc1F/sbNag/TzVqFJI0NXmZ\r\nNWgTQjUUPyU1bJAONY5FXTVN65Q18t8uNQ/XljV2XEQ1xcyWNfUzXTVmWho1AACANQ==",
                            "noiseTrainingType" : "default"
                          }
                        }
                    ],
                    "start" : 8642,
                    "duration" : 1501,
                    "mediaStart" : 409,
                    "mediaDuration" : 1501,
                    "scalar" : 1,
                    "metadata" : {
                      "WinSubProjectDisplayName" : "",
                      "clipSpeedAttribute" : false
                    },
                    "animationTracks" : {

                    }
                  },
                  {
                    "id" : 98,
                    "_type" : "AMFile",
                    "src" : 8,
                    "trackNumber" : 1,
                    "attributes" : {
                      "ident" : "Aufn. 07-14-19_019",
                      "sampleRate" : 44100,
                      "bitDepth" : 16,
                      "gain" : 1.0,
                      "mixToMono" : true
                    },
                      "channelNumber" : "0,1",
                    "effects" : [
                        {
                          "effectName" : "NoiseReduction",
                          "category" : "categoryAudioEffects",
                          "parameters" : {
                            "denoiserAmount" : 14.88,
                            "denoiserThreshold" : 0.0,
                            "noiseProfile" : "xI8FQCbcqz8+a5Q+/opEPRwQvjzO1To8dqEoPRWsPDzi8cc7ehCjO+h33zvJRQs8GilcOzp0qTsI\r\nK8o7waLiOw+CgDugx+c8XtnMPPeiZjz6BHM7CGEOPERToDthP4g7KuV5OhLMkDshJRw7KOs0O4lf\r\n4DoWIgM7WOIXOwgxtTpfDio6BktUOm9Eozl65Jg6icElOtPXiTpNiL86LAggOgRM4znMvhI690OG\r\nOWyVFDrc2BU66lXOOWSqPjqtns06xmu5OmP6JDoZLlI5j6KYOgbo9zkksZE5IvY2OrVMIDoqn9E5\r\nAJlZOnrkoDq3RyM6wcXPOUB5eDoHk4w5tFKMOXYslTmkEVk50GBfOa/FjznDOjs6mKwkOc9yuDnk\r\ncgY64ZbpOZbRnTlFSqI5ogT/OUELgTnI+lE5cNciOVuAkDmYzs45W+aVOV7HGTmscCg5ScEFOTQY\r\naDnUUic5jkInOV9YpzmkC5o5JtgEOiLFJjrgBzY6EGgZOtW3iDpMFk46n7YeOoQFjDqpobk5W/kf\r\nOikEYTtH+ro6ssf6OZYcBTqMSSo6axELOnFq/jnvKHk6HbBcOrC7hjrAcjM5yIbuOezGFzn1n0M6\r\nnpdCOfO+TjmcjWg5A2GkOYQL6Dkq1fI50s6COr4+Dzp+gjg69I2sOatCxjl86Ac61mCyObDlHTl8\r\n0iA5El+ZOMdeZDjjGao411QJOSDfcjjs68E41nv3OHB+ozi454k4mKseOTO2FjliUIQ4bgJKOB0A\r\nYDmsYRA58Q4yOW0wITk9o8o4K6W0OE+pwzgNGio5OjFHONbi9jjvdVg4oHcuOB47GDhU2wc5wHRW\r\nOGSiszc608M47b3xOCKLuDjNBHE4yIeeOPgaUzg3RxE5zz1kODT4XDi6FSc4CqcbODJjtzeD4hg4\r\nfuWGOIFF0Dcsjmg4BI/lOKXt/zfh2oo4MN8COKR2GzmX1bk45ObUNwzsczgUSd83Z9S+NwepMjhm\r\nnvI3vEb5N/QqHTg89a03Pt9SOCvqwDiI1WM4RcYeOCrUhThimiE5sN6WOfndqDmEq5U5yf+vOf9S\r\nMDlc7tE5OFFkOS3iTzkJfvo4yLdzOfXrsDh5jMw3Ff1EOB0qszhYIfQ3jgafOFa0vzmlt/U48/W8\r\nNxGwxjeniMU3ptHmN21srTgyD/k3+YaaN9iCATjYUtc4m5DeN81k2jcUK6M3789COCqziDjEwS04\r\nqwEsOGWQODhKspE499zHN6ZQdDj0ZM04nA9DNxHwljcMmgk449MFOEPIsTcuDOo3clgSOFL8SDe/\r\nA6g44oIGOP9i8jgCA4Q487IEOA0GDjnwz+84xFJ1OG4PxDeWbs44uM7VNy1r4zchgRM3kiIROdU0\r\nJjmefuQ34pAMObKGCzkyi8M3WS+BONt7ljjrVxM4AXBoN4bu2TcMpPc4tAMnOCvVCDnxCoE59i4r\r\nOVofnjne8mw5+fqZOfr3KzkfVi059xHJOERfnzgv6Ok3cMniN/28ojcK3yk31ZzIN3OO1Dcph5I3\r\nInYCOOwykjdMx9Y3mHlhOIL8XzeD8vs3Zr5TOPt2qjj9xhc4XVbEN2oYQjfgERQ34EGRN0Oqczcl\r\nfJk3oiyeN3ZwCji/ic03WmZdN3qtSTfafm03Mn1dN5jFBjdSmpQ20CUhN7LwnTe8M5038NRtN9/i\r\n7TYlSeg2kLFVN2jdvzd5g6U3lxwcN2WCpje66Js3BtsVNzcLnDdt2AM3tsgLN81KqDfdPb43juyW\r\nNydMijcWP6s3A8gbN5Q0jzb1gsY2jPg5N3+1CzdVjhI3675GNwo9djaP4t42hmyONwlxxDencEc3\r\n2MswN2mzWTf/JTc3/la9NvuD6zb/vSo3mVLrN5nwjTfMjT03t3aKN9h5VDfjkzw3UT+gN9xmVTfD\r\nY6w3dB7MNpoRrDZWhBI3IvyGNq9WcTaI65s3yCk3NyL0pjdcz5s2cKn7Nib6dzb6wKg2a6rvNo7t\r\n0jbHfZI2z55ZNiBWgzZcH7U2ZKQZOKJ0/TZuSIw3rrELN7NDFDeiwOU2QTKzNqIhNzeHKYE2YD3u\r\nNkH0vTb3IXI2ig8CN+ZSwDYKSTY2OHhVNyuftjZV2942v/FqNp2Y0Da+5Jk2rHbONlQ4sTb6Pq43\r\nW+DXNiXkHDfQcr02WlPXNjupPjZY8nQ21Ep3NyZ2ijd/0mc29NyfNn+pAzebSOU2UL5rNnqN7jaK\r\nQy035FG8NicUcDavaLc2Al+dNlCs7TZzv6U2Sj99NroRoja0jnQ3qE0AOEKZfja2CJ42c+G+NmC0\r\nsjZ4ucQ2hV80N25zNDc+Fz83TwS/NnQhAzcEWbg2VGTRNjg0RTf9P4Q3qcAMN5fEkzbM3CM3xPzw\r\nNdzd3DYWhcE39BLLNodgXDY/QWE25NnLNiL8Ojf09Tg3lju1NrWNvDZnK002/5vxNnBqNDbSKc81\r\ndL5CNhCDjTc0sxY4aXvQNk71Djd6aAY3rcdyNlOxujbXbRs3T2cwN+wRyTaTU9Y2G4aJNjzXfTa+\r\n8sg2gTXFNjIzuTbPpfg2/v51N4qu3zUmy602v3/sNpM4QTemai026lImNqLJlTezIfw3OotJN3AH\r\nHjgfPQc4ukX/N8lo9Debn842py38Nqwc2jVw0Ug2/7RiN9LhITj6/Ug4w8Q7NhdVrDdy3ME3rR1h\r\nNmYhmTY3w7k2C09wNmTaHzbYxNE2tlORN5VazjZPhso2gLoINxQsgTbcFhA3Lti4N4FVCzcAIJA2\r\nPMygNsRoIjahqvw2VhR/NtIBLTd44bM2ADQuN9QqIjcmDCg2lq4vNimTFDhb6C04VDzbNwIzujX2\r\n/eg1dbwENgA20TZ5dwM4kn3UN06LcDZThgo2qPtANrwPjTcDdOQ30li+N5v1GTYRY7c1fYeONeXp\r\nFjfvzZA3GIaXN5LyiTZ3V5k2bQwCNjfcrDagGYc34fOvNkbInTZ0ra42MA6INyFu+DZEJqA2+gOI\r\nNoMBRzeG6yk3eJnVNi+T+TU6Uys2Y21ONtKnXzaZ+iQ3tPwKN6qqLDdgvYQ2hR2tNiyqrjYJ0/E2\r\nfpUmN31Y7jckAoc3TaIWNk3jEDaaFdM2MB5HN8LWsjYi9w43fyzhNSIjnzY0sqE2fxbgNUeHxDah\r\nHpw2WYntNR4PRzbpsUc3Gp26Ni2SJTYXUV82o6O7NQKuIDZZYyA2aHo8Nqpx3TZRKw429KazNXKg\r\n7DX4+ao1+HzPNZdB0DaI4Z42zKv+NYN+Ejb4pww2IzxRNlUQ1DaCUz82ALbTNQYFqzViKE428giX\r\nNhrN6DUnDoM1uXzJNbNtujXFRrU1cIobNlBCBDZPiLk1F6iSNchKMTZEOu82bwtpNo4g0DW4IFA1\r\nPIKrNWT1oTUb/ng1PEyVNUCHyzUiGB42Co4mNgzWsTYPBSA2sJBANs5tRDbgtjA25LAdNhRp7zXp\r\nUIw1IzltNl946TZhAHw2FNGBNQaO+DVKehk2/Ss+Nvp/DDaqRo02JdUpNiq/2zVmf6o1zbCVNc7s\r\nEDae+hk26zUfNjyXGjYNfzA2KDmuNSoZuDUacGA15nmwNTgcWjbQ76411ukyNlT4izY11oE2KpFV\r\nNf8fpDUoVqU1lI+bNqqHmTbj7e81L8W4Nc7zyjXdMS82/tNJNpzYDTZ3h1U1KJQENlsg+TXVOws2\r\nJ5ViNSJynDWsi282EFpHNS5VkzVTPow1hjWtNXdpDTYgzVM1CIyDNdDnATYI5QM2D/bfNXck7TX6\r\ngoc1waIGNmXQdjYqs2E14sWpNanbjzZixtQ2TUdiNX593zX09aU19lFKNY2k8jWmIDI1FGNHNcqF\r\nYjXkeJs1YHIDNlb8XDXn9Hg1RE4nNVYMrzUvyAo2Lt7FNYOaojVQDXQ1iDGPNargPDW6eZo1tpN5\r\nNWhQkjUe8RQ1HkigNfYsOTVqVp01dZBQNUAHhDVjB3c12TOONcPTvDXU5442woOLNj0XijZsrGA3\r\nx60hN3vEqTZ+7u82K0hfNfGiGTaiiQA3bwwAN+ztVDec7Ns2IEENNzWMqTZ/dCg3RAbJNULGVDas\r\n84E3dMAuN/jCEzdBU482eev9NSfOvTbygqg2j08HNncVUjZRS6w2z0l0N2SCpTdbRT03WmazNgiK\r\nkDUAxj81mGmsNUrE5DQgeYk1MNOANcgRsjUWDlI1ua2XNQJ0RTVRWY81jUSkNbBgWjUcGB011GMt\r\nNQM98TQ1KSI1BVEgNSgaHDU6R3g1+EOTNdqhpjXIaV412dNHNeDagzUR+Ik1a8O5NXs5rTUAPZg1\r\nYiw4NbxqgzUb0JA1yyi3NS7XSTVJ48I28XkPN+CBLDYogiM2zhGiNkSevTWH6W0248UUN1GiwTb7\r\nHQc3wRurNmaxfTVawVk1u3ORNWNsDzbOeZQ1XAuYNcTTYTU020E1VS3sNa0hsTWT99U15cayNWqh\r\nWzXA5KU1JTWgNfrk9zV/PQM2f+UFNiufWzXIvU01nJnHNa46dzY2kRU2qhzUNZ6uNjVuhH41Ul8H\r\nNpEsWzV5pmI1kuHQNUFmITbUtww2R579NFt2yzVQ4AM2mzEWNTpHKzaiTYY2pb4/NuT2ZDUqnWY1\r\nXFIFNUqeSjWmYzg12GdRNeRUWjVXroM1PgSSNfrlmTUpyBY1UI4vNtnX8jZox3I3vSnGNiVd+zZM\r\n7ek2tNTLNUfGSTZbryE2iXnmNVcH1jXevLs28Y43N/9WFzdTmb81NwffNfsu+zYe56Q2jPuWNRex\r\ngDbIHM02N+4TNkwuRTX44Iw1GY+yNgQTgjasFRE1o9afNVCLkzX4OWg1ATfjNfEZSjb4hl812nhJ\r\nNbrezDWlejk1u++0NJ4HYjVMgJw1X83zNYQygTW/w7g1dxkZNaihljVaVRA1B9ZwNdk8lDWqcuo0\r\n/t+NNU/ElTVTP3019CEkNcOTgTUeoi41JLdWNUQ4RTWHaZg1de1wNSoIlTU/9L419UwGNdh+VzVt\r\n5mM1TVSPNaUH9DQVMhg1NrF3NXTr2TQ6yXA1XU7zNJeyGTWskWo1NvSCNT9LWDVGNoU1wE9jNVrJ\r\nojW1ofA00h+RNcBqpjWzkxw1Fy0LNe8IODUE8Z01dWWRNTd8ZjUQUn41Q1cqNfaKITUXglM1B4Ro\r\nNePHNzVbDG41cHOSNZ9NqDVjIwo2ztA2Nf08SDU5XRw1gvUZNS8zXTUip8A1tPhmNU6FtzVIcl01\r\nEDiZNSz/JDX/2K805PKPNbAt/zTs3a01EyIFNa2PQTU08l81tFSMNRsT9TR4MTU1MtvQNao0/DWW\r\n4IM1nKSLNVidwzQpB4U1pkiJNTJibjW+Z7M1WDWRNeQr6DTptk01TVi8Nd+GSDW3mUE1vpUdNTtb\r\nJDWFrys18DIpNfgXLDWglA01I8EfNYdpTjW7Kmw1SI0JNSJ+mjXWWqM1FIwJNfAMVjW0GVs1wsZK\r\nNcoTQDVwvig1cTd2NUgpzDV96Zg1oEAWNXYw3TU81cQ1frqANZYZQjUqT481Iyo7NQBAcDU4dNo8\r\nJkK6Om9pEDuJ6MM6SceWOqDPjTr5AR875z+HOnVXFjvb2YE6fqdeOkFSADvQU7I6kLWXOhlb5TrM\r\nryI658vBOi1KZDrzfL461ISNOoRoHztn7cE6SGyhOpymxzqNNN46DcS3Op8PkjqRYxg6ynKVOsJ7\r\npDqTq5w62JmNOkI7xDrzgkk6d0hBOqGdEzupxJE68K+HOhlkKzqCxuI69eEBO7TIKzpciSg6YT3F\r\nOlKwqjodwD46KppcOjkUrTqk38A6sXYVOsZdOzrdegQ7hqqBOkTHQTqrg1I61PAAOgYinTqzThs6\r\nvmyaOjoFbjo2W3U6KBl+OjwFmTr2/ow6GzoROohKnDrZ4aw6JAtgOvgzZjpHXYw67uOoOs2SlDrJ\r\n2186o51ZOstgnzrMXVE6h45mOj4hSTo5hac5XWK6Om8iKDqoWHk6ozPVOvJtQzpgeTY7WK78Osje\r\n/zqEDug6MzEyOupxgzqf1yc6QY2WOk7EJTpgcEA6T6guOo/JoTo4U486thdrOiwhPzrU718603wC\r\nO8K7gjpT9pY6x8pjOgMQrTrdW2c6livNOsgbZzregbA6C7QbOlVPsjqSZEw6/4GoOgh0sjpJUB87\r\nKPcdOk+bkzpS8rc6fnTsOg+nAjsNUGw6GjRWOnx2ojo+hys6umMbOorjjToVjko6zDuJOq19SDoH\r\nM6Y6g5KrOpJljjpuJcM6R7SQOmbLUDpoAcw6qaGDOqcVIDtCci86myiDOhIykDpB6LM6EzGOOnKf\r\nUjpAMKo6LHkqOiKmnTrMp5M6gAjMOo/wmjovy9s6pF5pOghOGzrIuLk6SRzcOuSYKDpcMi86i7m0\r\nOgWcTDpd6lI6E4G0Op5c9Dq7W2U6HpuXOvyauTomgZY6SgnQOp/grzpAImg6nSu8Oi0zszrj6CA7\r\nfNtBOqySIzqW9jQ6CooaOgI9gDqlOo06F2JJOtPOsTpP04A6GhwjOry0mzpenWg6EYVSOkUdYzp/\r\ncuA6aIjCOvUjSjpKJ8M6TTGJOicagjoESj06ykqfOjQTJzob7V86QNbKORMkUDowC606fzcgOqwt\r\nnzobr+Q6Fb3GOk5SfDqam8U6nEl+OjO7qjoE07U6OcWXOmkanjpMVzU6EVqdOlxNzTpFw4c6OYuz\r\nOkFliDqmN3U6CAWXOu7rpTp7gRc6BraUOnNVBjvA7DE6+T5NOtM/ODr9l2I6EAdROheYhTo4/bo6\r\n8f6fOgVTYDr7EH86kh2QOgrxqDpIypw6lr5DOhTSrjq6umE6LMmFOpktrDo9MzA6dHqfOgUxljo+\r\nC9o6YPqFOnY/nTrpRSI6rnNPOnD0RzqOMbU6tuK/OpMxTjr36JQ62B3YOVbXqDqJTq46WUKsOhSi\r\nsDqdZsE6SuLAOkKc+znD9o86M1cyO2+eqjrHBhw7lG6SOmFTkTqYQFw6W9fbOgQa0Tq5g0w6Tntc\r\nOhZtfjqK6D861B2KOtOuSDpbhb063xNVOmybiDpmLMo611HhOUnbjzr5yZo6ODZwOka8gzpiVVg6\r\nGhOzOk+jojr4IrY6JxuqOqfFizrwoa06OvuFOuTgnToJB5M6y3WZOqWNoDoKvrw6gFhnOt6AWzpq\r\n4sg5KKu5OuLpVzqa8q46kb0cOiEvKzoblC0699FmOvSkVTqEQcU69yefOk0KJjvy7II6TOuPOhrI\r\njzoPUlk6wlWfOit2NjoTKC46AYaROtTheDpEry46u6tSOhlmgToCzhU6KhiaOlphqTrp1Hg6dBza\r\nOr/+LDriec06QtpXOoH+fzo9xQw6nQzCOu2WoTqGcTM6YdtCOtbeNDpAopw6FVb+OjyVcTrehi46\r\nCP2FOsaGUTrvK6A6vWZ7OmJR0Dq7eYE6AxupOtIDuTqkrQg7ucMyOmOZdjo8DdM5K1s0OgadhzoK\r\nyg06pN5tOofWQDqqaz461jCnOs20cDpsJIs6OqYjOtpejzp69xw6XsVYOpo3Lzo+CeA6w22YOg0e\r\nQTrEnwU61EA4OmB2fjonmk06GcQ0OirC3TrnKOY6ShdWOrm6kTrcmeU6QGpfOlUPgzrrjJ86LO9K\r\nOt/UTjpvskY6qa5GOqiKfDoD/Xg6CpwuOhb0gjogoFM6llqqOrKQdDoUPqg61LeeOrCBcjpkTSY6\r\nPE+IOthkiDou4Ig68yIqOkUBhjpq5286R66POtrjgTr/BqE6qttQOoq4cTrFvj86X35VOtwuRDp4\r\nN406az0uOqYJijqBbcI52LnFOUe4dzoNhi86R078Og2tQzpuJlM6d7kOOiZ4OToeeAE6gS8bOiAK\r\nFTvu64k6X46SOuqYezoAxqk6R39aOlk6jjqQXcU69KaGOnCJbDon6sU6lbQeOn66hzrwJw46pjlY\r\nOo6l+DnfPn069Su4OqP05zrej0U6PDS+OvtjSDrZAwA7CEysOvauPTpedaQ6EDiWOh7vijpE/II6\r\nmBe0OmsmjDrHyCU6SjNSOk7AGzqufDg6CCHcOn7KbDruEnc6Hu3IOtgCoTq0lIs6+JJVOg4XTDp/\r\n0Uo75FR1Ou7HwTpQ7pU6dAyuOlA3AjozTBo6mb5xOst+Vjo/2dY6yK86OgVxoToE5o06ZOFyOmLX\r\nojoYRwY6Agx8OgeWEDpxqiA6/uxoOpU2LjpPe0I60fC8OhsuITomPH06clWOOgndmDrLDKs5quw+\r\nOnmCeTqKGWY6xY6EOg5yxjqsE4o6yGwmOrVhHDoFQ4c6F1GlOrFrRjpXUec5XuK6OZB2XjokxIA6\r\n5jOdOmH4MjqUvF46O4dJOjzjBjpEA3U61vm5Ov50iDqg6S464hOCOjebQzpQS3I6PF7pOsVMXTqS\r\niWs64u4uOlaZczrDXJs6jjuOOj4ioTr2CMM6Lh3WOijNNzrA/J06ECQnOhN0mzovdQs7Xc4nOmwA\r\njDqk20M6EG2BOhbCfDreKXo6cEtJOgq2KTo3rlM6Ovc1Og5QLjpuMzA6/Rc9OoyIKDt+9606Alth\r\nOlQtqzq3xb068RVMOgBJlzqgK4Q64I8zOtOgoDq50EI6JJeSOvF5dDqU0Ss6CWt8OrqQsDoxxlU6\r\nEXIGO273FTrjahY6tBqmOginkTpPGIY69iQkOn38wDqIuRY6It90OgOyADs8Yvg5ZD5kOgjBpToW\r\ni2M6ElhvOoXGEzqrCKk61mVXOtIroToC81c6Dg+ZOpq1MDpN1AM6zcmROg4cHzuA8C06kHVUOieo\r\nTzokClQ65icZOgwDFzotK1w6RLmTOmjTrzrl84o6hQ+UOsStHzpYO9k6wqY8OnKdfjog63A6xoor\r\nOu7ZqjrC+7k62tYJOgXNQzru6Ck6mkcCO2q83zlEvqE660nkOoY6TjpicCM6UyKKOlYrzjpRdAM6\r\neaBMOiVuUjrGGSs6OfLlOamRbTrsFjI60aBIOnYU8zlkU4g6bNKgOsNOszrggOk5P7+tOj0Z1jqz\r\nPaM6iHNwOlyeezrKtFw6SNJkOriO5Dlmfps6PHlGOnksUjrOGYo6+0eWOjmDQzqaN7k6I4GAOQDb\r\nnjrdftI5A64BOxMl3zqmlEs62pibOt/VKjpG13M6plqZOtv8jDqdEmM6HOwFO8ehGTpJ4y07vLA1\r\nOo60HjrSerc6Lh20OqhKOjpqwSQ65jQVOoiS5TqG40U6gO0qOmMOlzpOIeU68LQlOoIaFjqa41c6\r\nOnliOrQdyjodLPo60bkWOjQNJDrADvU6g3CaOkVxWzropMg5Ab50OkicqTp+Fhs6sd+iOiDrdTon\r\nKuc5OWkYOsTidDrMtlc6o2OWOkB4LToid1M4jJ6tN9x2ejeE1FM34OkNNzso/zbaDxk3DtTdNkR+\r\nzzZ7Ebo2DQW4NoeoXTat0rg2DFKjNpQ+hzZ7QWg2UIGXNsrmdTYpOH82POU8NjrhizZqtWM2gqOC\r\nNujAATbs1j82xqZeNkCPLzaKmUI25URFNkmF3DU4yw02e9loOeSbBTr2+TA66pO9OWqGKziyVRo5\r\nWINzOWceMzlQBfA4Pr+8OET3RzgOi444nRPUOAadgDjJn0c4o1WAOavdhTmDaKw4EN9zOY7dMTqK\r\nEEk60GJWOm+MsDmschw5AyqVOXZrWjkkznw4CR/DOPBCkDnNi685EGCwOSG3cznijUM5uufHNTOG\r\niDWOrqE1hPqyNVs/NzXGr4g17iquNY5IkDWSkhU1HFguNX5LMTXFChM1f9lcNdMFdzXkxRE1FWF0\r\nNYnYnDWBMTY1O7cmNVTkBDU+zh81Ov+ONEgy+zSMeB81rOaGNS669zS2+sk0XJIyNcJkNzV+LbM1\r\nzP8nNUEbkzU41dQ4wZKmODQ3aTjekPA45IABONBNEziHHYQ46X4qOdQb/DgyIUU5LMqGOWTSiTmk\r\n99A4thkQNRSImTWJep4182oJOccsPTl6m2w4FpDYN8tQgznM7VA6xteeOtRtUzqv9lQ4D22bNQfU\r\n0TX3vTg59FUhOlFmNTp9dH45Ne8KOZqHEjjeq085BCnfOQLeeTl7uPA3wYd1N2knwDZRd9I3RjLT\r\nOHeEPzlzuqg4QxgBONGsOzjPy/831CGGODTSxTheDLk4Z2TVOOJnYDgVbHM5nTzGOeonkDn4KeY3\r\ny7r6NQhHUzixOfg4IbT8N3xt/TemJe04v1UHOVA5GTgYu7E3mYLEOCRHQTnAw6g4z4kLOdzppTgV\r\nYYQ2DkKwOOBH2TlUnGs5Ncs2ORXz9Dl8C+U5+mN5OYQjzzgcMg04iJcHOThxiTmJXeA4cg5eOIK1\r\n5TgjGtk5YOIVOuuxAjrC0as5g9lROCvbFDiaCtc35ZFlOLIhJDntkOQ4d7emNiOVCTX09NQ12CNa\r\nNZXQAzbjAmM1Eb1TNXB+1DVHCIM1M7EzNVAYmTXRy6c1Sh/WNE57kTWcfI41/wlkNYLFODV+oDA1\r\nVHwPNW0ymzVYc6Y1QrNWNQHrzjQmN5s1ReuANaFQmzV0CtU0qJ+RNVb3vTW72sk00RfkNad1DzVz\r\nOVk19vG5NSs8kjWQIUs17lZnNSMUjzUo5v40vAwLNUFpDzX2w2g14/d0NcB6gjVHA441pvocNb53\r\nFTUBAmE15JY4NZ6TPDUt0lo1ennHNK6eUDVXTBw1lp1PNXksNDWaQg41PB0zNVbtkTVGSEc1gAz8\r\nNO4oQjVtCTQ1E36aNWkZVjUSNAU1Lk0aNbbFnzWPzRI1KpKxNE+NNzUrlEM1DBQpNWwlrjT5a0Y1\r\ndMarNLf96DQebfI0dDapNPF7JDXWXwo1Kd6ZNQisAjWTaGk1aW0ENZHQBDVAXfc05TEaNTXmCTXC\r\n3NM13kMsNb0n+jQ0BsE0eFtiNeQjqTUzfbc1FX4KNcIx2TQ31bc0JgAANTK1fzSEyxI1IHzSNOKb\r\nMzVG10w1JP6tNN0XIjV00Ko0QQEONdzwBTUGlNc0Gz7KNArqCDWt2go17gpxNdj1xjQckUc1dA0o\r\nNbx2WDXQ0N405uQzNRiTsDSP3AU1AGcHNVi2ITXKgPM0CWEYNQrsPDWhgB01AAAQNQ==",
                            "noiseTrainingType" : "default"
                          }
                        }
                    ],
                    "start" : 10143,
                    "duration" : 208,
                    "mediaStart" : 155,
                    "mediaDuration" : 208,
                    "scalar" : 1,
                    "metadata" : {
                      "WinSubProjectDisplayName" : "",
                      "clipSpeedAttribute" : false
                    },
                    "animationTracks" : {

                    }
                  },
                  {
                    "id" : 99,
                    "_type" : "AMFile",
                    "src" : 9,
                    "trackNumber" : 1,
                    "attributes" : {
                      "ident" : "Aufn. 07-14-19_023",
                      "sampleRate" : 44100,
                      "bitDepth" : 16,
                      "gain" : 1.0,
                      "mixToMono" : true
                    },
                      "channelNumber" : "0,1",
                    "effects" : [
                        {
                          "effectName" : "NoiseReduction",
                          "category" : "categoryAudioEffects",
                          "parameters" : {
                            "denoiserAmount" : 20.0,
                            "denoiserThreshold" : 0.0,
                            "noiseProfile" : "pOEsQNvudD9utvg+Txi4Pbgu/T3V85U8sTp6Pbzmqj1iTr48ZTMDPRxI4zyU1nU9Hj/iO0lyBDsz\r\n/y8886ipO/la2js3bhU8y4kOO6CVADscOYY7Ww39OnlK/Dq5O8g6+cmEOkAYZDpk7uc6jKUqOrFD\r\nATtKVmM6UlX/OWt4gjrtn4o6dN97OvKZ2joenQk7KkDbOuTcsTpHpgo6gdEIO8HVJjoks9w6IGdX\r\nOoGkzjn8uZ46WjlMOhWCWzosKWA6yNDSOZwIPjlMUmY5QmmEOSB3YjnLdWQ5f2SwOfBxbzk4Gys6\r\nKb02OsnaDjrSXxA6eTeYOecwcjmF0Z45iNM1Ofl7vDhOOwQ5a18MOTAfgjkl1dE5F42OOf2o3znH\r\nmCA6Ji5cOT3UXDk2uoY5cPcDOe3DDjro05I5rlGSOXyAmzl/CkI6oSNwOd6VVzmRRX05jsoGOisV\r\nVDnppZw5BWlIOa1DVTlIie84DBoZOYsInDktrFY5mQfkOSM1SDmOcho5v6U/OXOA9TlejX85xlkS\r\nOSOlCDqyVt04Pj5QOfdKkzlOZiI58MHcOf1Q9Tgskgg59bY9Oa390Tjgs7c4YO6eOEc62jhtVaY4\r\nICchOfbcszhfSeg4qK/tOJG/hzhlurc4PCTvN9p3iDiMjkU4pg2LOJv6RTgpI2M4g4V5OKIjcjhu\r\nfb447iRBODa4vThVEOA4wD0xOGu6QTikz6w4qDWjOMQauzhT85Q4FAuaOLP6VDgXQJY3MwATOGgQ\r\nxziVxzo4SqcdOBoAxzjcBJU4+oQJOMMQIDh+vks4JMaROCIrAzi2s2s4zjl8OKNsrDgnL/U36cv2\r\nOKyZWDg8lTY4d3pOOLdcVThXcvw3miXkNwK20jdRmgs46XKrN7XGvDdHDtg3ohzqNxrXFzimZqI3\r\nG5DtN5s7JzjDCnA4zeuTOCrQNjiaI0g4r0cDOMrksTevEqo39JdyNx9qtDef7gU4xPDQN61SnDdW\r\n/WI4b6gJOIN65zcmSaw32dI9N3A26jcalpE3Z+h2N/zKKjf67Is3uD+6N0qcDzguabw3xoi0N3Ih\r\nZTeiBNY3IeamN9sS6TdOb3A3i0tyN1BmizcPick3+Ce7N/FQ6zeWva03DqWSN3AF0zfLrYQ3ZFiD\r\nN651pjcQ4ag3WhlsN2qTxTdxkgE4G4jaNh9eBziC/i83ZWyDNxCczzdEKmg3ThcEN/oTCTcz/kw3\r\ndOu7N/K4RjfqDoM3kHCuN/wCoje/Ej43DkMBOGJPUzd8UiU3yUEBN0o7rjd75Ek3FyaHN32ADDeY\r\nFhU30nERN1XFlDeilqc3M8B+N2cCbTdMq5o3GTWiN3mGejdgg5Y2BJI2NxgEGjf/XoA4hFnZN6U2\r\nRjhwzCI4aPuUN29U9zZWa6o3zvgAN8rmDjiuGbM3TR8aOJpThDcd6Go3UDBrN4esizd8Wg83UMUK\r\nN5HnQze34Ww3vM/2NskSQDdc3Mw3UefpNqImXTdWKOk3BckaN0oFdTh3ixQ3NF3zNqNXQzfz6ZM2\r\nXBsgN/8FFzfCXUw3xkMyNxdOGDfRIQ839MJAN66sUDfW1EY2NTu1N4JQHDfR9Vc3Go0ZN5s3qzdp\r\nB4s3QFUnN9LDZjeBtHQ3JF76NnSvtjd8RAU3vf9NN9p+GzeOAOw29JOuNo0LOTfVfmM3K330Nvgn\r\nAjdUkho3ERW3Nsm64jfuZvo2kykxN3PEFzewGQI3CciBN8VH1Devdzg3Fk4mNw5gfjfgArk25RqM\r\nN5eQIDfF/Z82pv97N3ppEjf76Ko3UsIpN77L+zc40D03RVAZN6CftjabJuU2bfxUN6fp1zahNAE3\r\nxO7PNq/wbDevzYw3PPr9NuXCoDbRcAc3UJEaN5b2ITd/GSc3VPWaNrHj8zbf+MI22INbN2crSDem\r\nvSI3uJOKNs8fwDY4bt82e+TSNj6arTahrho3A0B8N/gtKTe0nIw2/hhqN8TLnTb3j683Jo6KNkw2\r\ndze6y083AsH4NsEQxzZMKUY34oPiNpCfejfUAWA2dZkUN9eVMTcvUMc2noPmNirFrjZSrZA2WUHK\r\nNloVEDYFHUA2mZCTNmQiFTZgwIQ2xCBhNgTttTZ9E2Y2K3cxNp+InTaJrJY2i5rSNk7eKTdyoYA2\r\nbLRbNrAa5TbqdU42vuuPNiVnmDbIAFI3njldNsCHATefXp02tCTxNooAjzYjm2w20dAwNkXAzzbc\r\n6QU3PHpvNixRhDZeIvM2IhKqNmpkKTeNTIg2s9elNvuCizbXVrU2pqHHNsqHiDaSidU2M4+MNlWA\r\nQjZdI9I16l2HNqlsJTboCXw2ikOxNtgjhDZI4M02tIJFNuCYfDb14Uo2rXaGNlcgHTaX+t02hcVU\r\nNmBBTTaS+BA2vEoVNqtCQDbbP342uAxtNrgk1zYbjVs2li7zNtOyqDY5H9Q1XcqvNqWSfTary2w2\r\n4rNYNj6U7jaYCuE2Z9doNukH+jZUGzI2Qo2PNuRIlDZuPq82/dZRNgv1lTbUR142iEKMNt79czZ4\r\n9qc2BTQ4NpXLgDa4txA2oLezNi/VcDb1/y42qiYrNut/tDZkEAU2jm35NTTBnjV29fg1vBxwNYcx\r\nrTXPGuU1bV5cNl85sDVeSQw28JVwNTAJwTX4/tE1fXLMNbhiwDVtACk2UluRNZp8nDVerZw1SVkl\r\nNvPSljXmqLs2UrG8Nbx1vjVkeUk1S6tKNkxHHjbn5gc2iI7LNYpHcTW6fyo2/IiONou0mzYAaNc2\r\nlKNZNlCdtzbcF7I1c6aaNm9f7TUDXsw1RmKaNfvMeTa9Wa41wcK+Nr4sgTaGejE2IqKuNaFQ4TXy\r\n6zM2EFxPNh5EdzZg1Co2oJHyNYG5AjbddoU1dbrJNZ47nDUpiIQ1I0NnNpPJPzbnuQs2sh6uNS52\r\n2DUzQxo2NPPANRY4kTUKWMY17zleNXJP+DWbM9Y1++WiNfWj+TXEZs41/vgRNr3IATbd2ZM1SKSu\r\nNaVOTDXaKIM1z40BNhsCPjUI+pE1ADyQNcZZVDa+xQE2Ee2nNYKWizU+2bI1eOqoNX+whzUi5yc1\r\nZgW9Nd6ZoTUW7K41OMetNQ9dhDZVuao2rqu7NYxfFDZmrgU2IJ7KNZKbujV2BY42LMcGN7bYKTYa\r\n7tI1NH1WNmH3xzXfvI81WLSuNZaTrTV2MK428tTkNfLJhjUchJk1mGiWNbRvADayWUU2uVK8NWlr\r\nXTb3t/41uj6LNeNrljUNzIM1ciQ1NmuO9TVRuMs1IuBMNaJxaDX1H7w1gcp/NZnSRTVPdRs1Cc2B\r\nNVb3oDUBdiw1NqNpNb/qzDXa5a01aqhVNTe/gjX2b8Q1Mb4kNeAU+zUo6YE1EsE6NSaQYzXodHA1\r\nIPu1NZY0YjXLfoE1moeHNbbXGTUTGU813XbJNYPVrTTA2rg1BfmCNR/vUzWdTG01BLWcNUbE6TVc\r\n27I17ZiPNe4FfzWLEFE1+WQ7NfdVRTWCp0Y1P1hANZnzYjX5j7Y1V2/iNf1pkTWEKJo1t4VSNZqc\r\ncDXagAA1Iv2oNQm5LDV1fII1d83ENRg8fzUIIn817vFzNTaUPzUvIwY1CR6sNV3MmDVNGEw1kE9Y\r\nNZ8ujzX9KpI1DEe+NMGaNTXBzIk1pW+JNTcwLzXKTsY1dUMQNVNIbDW4zyE2rjseNmeJXjV+m/Q1\r\nIHL1NUyEhDZ/sTI2NphTNRwXejUyE3w2T4KZNaLOIzZ4wr422JxaNn/sVjWyA4M17JgCNptAsDWq\r\nuFA2I8TdNTQ3ljXeAXo1k9ELNegt8zXFEV01QYGCNXJ1kDV3A5A1zL06NodkgjXlyns1JcyaNrkR\r\nLjcgCdg2FpEdNuPVdDW0ufw19eeQNimSZTa9DCA2Si+iNtsuJTYfGeA1oUudNmqwDzchhW42RpGG\r\nNSaNpjWiBgY2Pq2SNZytsTVvkNU1VqfcNk8hmzb0jFY2DwxcNsPr/DUMn+41zsMvNb6wmzW75Zs1\r\nffXbNdQpBTaNbA01j4zwNSQsgTUbODM13cnbNSPcqDb5Cz02riG6Nr6i8TYIkmE20nOHNS3AqzUT\r\nl742Di0RN7hL3jaypno1/Mz+Npq2rDa9zwo2YnNJNpDVQjaNgYU2PekJNj94rjW28wg2m92nNnrW\r\nGzakp8w2d5U+N71Y7zVREAs2+xeIN+TFPjZEwDY2aZwqNsYnlDZYuvU1eQkHNvAlmDY0py02dJLF\r\nNtBkKTdoUM823gT6NUb1oTa5KRY3gYEONz+rLjc/dUk2WkO9NcQjjDaAXjQ27EN6NaGJbzUw2Yg1\r\n2RY7NayiPTXwvAE2S2ytNUG/fDVmGGM1GvkKNetfxTW1nGs1dm/jNMr8NTUq7IA1fzgUNT46OzWU\r\n7gs1OK3iNNhmkjU1UQc1jjMjNdRn9TSGbZQ1R7VZNdkBbTWEXgI1qDZVNc3oDDXucJM1qzEENeQ4\r\ngzXOHCs17BlyNUK4LzU6ROk0/mLvNaNePTUPUV81hbh9Npo+GTYxBIg2OiiBNYfS0jVAfmY2AfSa\r\nNg7VozbNke023RCcNRnn2DVIwG81jAsbNkXbfDes1zs3MM1/NTT7iTYkvII1W+sENqMqmDXNtEI3\r\n1axYNw779ja/nHk28fwKN8QajDf40G4343qBNzPUtzaIUuE10PBvNfCLhTac6Es3MvU+Nh2xiDau\r\n6dY28FTYNBtkVjW0p501y3I8NUdzwzYBxvw2XlFNNvwoWzaADgY3JoDaNdTNgDbqgX83NZxLN3sc\r\npzc2iXE3RaPaNQO2kTa3poY1pf8cNpRynTXiOW01bdLqNcfquDWWjkU2oPRfNgJNFzYsVQ82TTSi\r\nNY4SuDUaAi813eQtNUhqGzUvMFc11BA9NTayyDWw7i41JGvXNfPSnTW+5yA1nYN6NeAqHDVSbQ41\r\ni9hCNeDJODWiGYc1MLZoNdr+KjXmhVw1QRY6NX22SDXupEE1/iA6Nf4rSDVc7B81D/rwNF0HbTUm\r\neyA1OPIUNao7AjVeI4o1HRuENfBWjjXlsx81QHpfNdEUtzXB+1Y11+ZmNWVgMTWlQ3Q1MswwNXKj\r\nUjW4oi810kGTNfwLZTVj33I1fvNPNY1RlTWfiI01o0CuNYBvLDWdb3Q1yZUaNYhODjXSA940LUhJ\r\nNdrJezXfTjs1q4oNNepxvDWYGzU1Zv1ZNTFyXDXrHUE1Kw1cNY/EjTU60nM1EIQsNV0TBjX4qys1\r\neKBfNUiRcTX9zsk0xaOvNVHfFzUjjgU1usoKNf68QDU+YGQ1lGwcNdXcYzXc5EY1tqcmNaXiHzXQ\r\nX3E1YlYzNaxYjjX8fj01jsNCNRCZezVzP4U19oWrNUcaKzUEAjY12FQ2NfrhizWKejE1lRwHNc6y\r\ngTWkplo1pRw8Nf6fljWAH441LhaeNcVC0zSO/JU12VRZNQ4QBzUb9mY13+EwNVzMPjVw6oU1fRVW\r\nNYTOTDXh+iE1WFZSNbPpJzU19ok1DYerNNuvQjXh7Ws1DRWfNU9wKjVQEG819ktaNQCAkDWx3SE9\r\nkcGfOjpX0jpAAn46pI2COm5GpzqN6Xk6EqOBOnCujjrXBdo6rIyAOpNlTzqcuzM6/ijxOsXAXDqY\r\nD786t88TOvJbZjqpboA6tNvAOogunzoWXa46sbb0Os5HdzqcUEg66Zn/OqUH6zqnFCI69Z0ROgxy\r\nFDpq58Q6i+mhOuRPJjooZbM6G9KWOir4Njre2YQ6jHCNOi7Nlzr3NqA61hSLOlJNczodJF46mzD4\r\nOka5WTrSB1c66K+xOs+L6zrqwJY6HuQ+OucPaToRbXE6XbQWOvxZIzq71jE6yJqsOi7CmjrqA9g6\r\nHNIpO6AHwzrfZs86gF/WOpqKRTr8hn46s8d8OgkUUzqwoAQ7IGO1OtB8JzpUgnw66OhGOhuYgTqk\r\ncUg6mhEDOoTySjqKQ6o6W+9DOs0VvjpOG4U6UBfJOrS/SDrd1mk6z6CDOjWZbjrGNg07emNkOo48\r\ngjpG1HY6IcweOoGNmzrA8bc6U/0VOllq1jqXE2Q6ohtnOhv8MjpIBnA6Mz+5Ou6gdjrPIk86iDZv\r\nOhlrVjrCP5A6UIwFOsgTkzpJqaE6hU7+OiT+gzoiTY46ipp1Os3gqzoc/ic68F5hOr2zQjoBr1c6\r\nhG5ROhmRrDplbCg7yeNoOmAe9zln6qU6amYVOut1VDov/6U6o8qHOj6zezr4TqI6f5hmOjgHgzoM\r\npx86xJmCOrKDiTqVHaY624lOOqhCmzqnWIk6p5C9OiZSojoq1aQ6XqkGO7vMmzrMDHI6iegIOhAe\r\nkjrLrZE6HZ4dOlY/pzqr/Kw65F5EOn6YVjrtZYk6qNu7OvtcgTr7W1c6qKmtOk96njqOfEc66SCP\r\nOqYkAzuCcU46DvRiOlxgLTsWb546nOzkOv0hhTro7Qk618cnOnsgxTrmvk86+O/pOlWHJzpegR07\r\np1E+OqFhtzqFDZI6afykOoiikzrGs8Y6DOsjO07IKDrczX46nrl+OowZDDtLVAY6f7RQOioOkDpl\r\nD0M67SjpOgM+WToNck46ad7MOjWYtDoA7aE67B4HO7AQPDqNeI46iuiCOkUaOjo2pJY64sEsOjIU\r\nizpb+VU6+waUOuaCSTrTuhI6G0iAOrrPVjqYWC86Rk+POkBQZzqvFiU6v5RkOlp7YjoixGY6K1KM\r\nOuKCMTp1m7c6TtJkOn69PjqTNbM6fKYROua5jjqlCW46OvegOi0Gmjq8b9Y5JNmBOkZLsjoiHNc6\r\noYAMOtCKhDp8t4s6zUchOqDGCjqNtOA6RgVuOr8drDrTgHA6VY2zOoFB4TrQRMg6N4J5OjhKATuQ\r\nMJM6mV7EOrrS3zmh1fA6yJiROrEMRTrG/H06t0tQOjL0nzqw5M86oW/4Of315jklDac6VRThOv4a\r\nwToWDkI6RpWmOuIuLzovPqI6NG8nOhh/ODoGCIw67DBrOrw8bjrk3+o6bV2uOjhOADte3EY6pjUx\r\nOjiKjDoIDIQ61BnOOpmCZTpIU8M6nn4XOsS9kDoysUY6rgygOkEAzDrCmKQ6yZigOj48QToI2FM6\r\nvqopOps8nTqz5lQ6ii19OqH68jqPlZU6lzAdOhITwTmcIcM6MCekOkXQfjpoM+E6bKkOOjAbATui\r\nucg6YSIJO0lfKjrkVgU6OrVlOkobpjpEakA6qwJXOq+TxjohHIU6kSU2Ous9xDrPgEM6puVxOpLK\r\njzrx+Y86vAVaOjLlVTrz04A6FGSXOoZJLTrmmAc73K76OojaGjp5zoI69bBoOuigLjoO4Ww66/Q+\r\nOspeejrBrb46ZH/XOngpRToAXIc6Ln6OOk+7azrx/wM7AaRkOl2BxDqEilA6o3+DOjBInTrRg9Q6\r\nBQXrOt8ckzr+i386gGZvOjpL9TqFEIg69oAtOsypjzrnjN06ysX2OR9zaDphTh06yEmFOt6ztjqb\r\nHtw6dLKVOswOFDvt95o6insDO4wfZzpXGEU6OZ7SOvjw/zkWrSI6IXzEOqPmBjuhkBU736CaOtKA\r\ncTo3gqA6ZAItOliH5Dou25Q6YT1POsK8ijqOSLE6yTCVOt5FDjtoAPc69HudOvwkkTqx2h06oHis\r\nOs/v9jqgxpI65ZNIOiP5ITq0EVI6n9+UOv5gRzr0xkQ6HlCzOjxSsDobXtI6+m+ROpcySDoI9RQ7\r\nbNjZOvTAajqLH0U6PCQvOmravjpgET064fOdOtfvXjquw4w6Kv5vOkvASjpIKis6T8cqOvtYszr8\r\noEg6/HLlOnKpkTp2tCA7KlE7OrW6tjqWoZ86kwxuOgtBaDpym3Y6dqpMOu55fDoN8oM6GW5IOtoU\r\njjpr0iU6yT+FOm1VaDqa/GY6bUH6OXynnDprf7Y6SLGuOhAbmjpBQFs6N2QROtniiTqjp1g6V+L0\r\nOmJSUDqb1k46/AVDOvctajra/ZA6n7IVOqQtozr355U6QAALO0SEkTrRBDU6ERSNOsAt5jqDNpw6\r\nmFOZOhgYfzp6DAs7f4heOsshLTqIl1s6Hu44OgwBaTrFOHM6djhaOlOe8jr036Q6F956OkdKzDkj\r\nMo066/zqOrwAjDqqZkQ6MMYPOobspzpa8Ys6szgUOi03mjqBu3w6OCfHOkritDqmSUw66mGOOvQ6\r\nCTqmTY06trdVOooXdjruhx46IrfDOhoqkzkcmUY6ZYezOn8HcDouwHQ6BLWHOoj2Kjr2c486Ft6U\r\nOpjJQzrtFSE6ctXJOmsmIjq9fcM6v8ikOmSE9TryhcQ6TFJ5OvCV3DlY5LA6G3OIOtCRXjrgvqw6\r\nkIPiOXsnwDq62346OrlTOlr/ATqg9sM69kQUOqe2TDo592M6BmukOs3iATskTNE6P8i8Okn1YDpQ\r\nUSo6r+kHOo0bGzp/uIc6BgquOcmY0zpbgUw6gTQcOsBNZzp8sV066XxbOosZuzqFgjA6UzthOmWh\r\nYzp2IIQ64S+NOrx1HDo7RUg61+2QOmibajo8iWw6fhIGO9twSzpwpmg6lpqsOvk3KjpdzMk6sNVq\r\nOqAIZDr45iA6EDxlOhwPHDpZAH86fglCOqY5uzooFO45EcUeOtiD9TmiyRU6wuUVOqTg+Dkclng6\r\n3Sl3OneTkjohST46I7TeORsZljqMAHI6jA+3Oix/gDqsqRc6SEtEOrI++DmzURo6/FRBOhsfazoV\r\n9w47nH8aOhNCKTrjp8c6LqlcOhSGmToZ5+g6NuRiOlSoLjocokU6fBuWOnkGQDqs4Ag6AOnFOltZ\r\nHzoNQL46SKp+OpHJbDqsM3g6Gjg/OmBzyjqff3k6vM4YOkD2vDquIXQ6GvLaOl7qujrMYUg6wliV\r\nOi3wBzpdYzs6xramOvEehjp0bPE5+IcBO3DIBzrJFaM63fhKOkS5wzrkfws6mwoLOtw4HDqLYTU6\r\nKYxjOpODDzp/zpo6xyNhOjxGWzoICwE7rDQsOjBUWDpWb7w53ZhnOma/bDpmxbI6bHR1OirpbjqE\r\n58E6tP9wOibKwTrDpM46XnRDO2KMSTrCQ/A6U9FFOo+VizpRrWk68x+bOtM5gDoqdy86+0x4Oq4A\r\nWToKRS46UVcROgxZdjr7alU6Plk0OhMgCjouZqw60CmtOgoMpzpdSFU6LlZDOuH2gToyM8064pKA\r\nOvBFMzpcwqc6gusBOmzZVzq2HV06zFiFOtHTQzq5FrQ6DgAUOj9UzzpwG0s6/qs0OkWSTDooXW46\r\nFOJ6Om9vSDoZl+o6jnSDOiJDzzq00Cg7N2a+OhUwCDp7ljk64fFaOpwCSTqfxwQ6vvxBOm9sBzoK\r\n+Sk67LkkOtkRiTpEMb06Q95ROnLHnTpGRbQ5HiXeOOAPBjqEKgw66K2cOMSw8jgOjyI5iolAOcpq\r\n3DjfJQM4bOkJOS7EITmfjEs5RM0wONAxyDdEAls45ISvOJ2SAzlg0TI4BYuGN93h5TjXRWY53DGJ\r\nOLxrKDgMAXY4UnPVNxOIJza0GXg4sGrLOChcAzkDZbQ3slJdOPuLdziFag452EXMOL7R2jgV+cw4\r\nqhQDOXfGgDmA0mg53yF5OfwYqTnKib45oftFORTGpzjEdEc5TgnkOZlIhjkcooM43ZceNvyeKDmJ\r\nehM56ab8OFEKTDnm+g44hX/7N3attDlaGjE6CEdNOu+8/jkmh585OWmdORynSDme0tM4taJyOIm6\r\n2zgfuu84ouMkOLdsITj+Kgg5c+wROQ7OqTYX4fk4QttLORB0FDj8fa05GF4COg1gszlXbzo5wz2I\r\nOe0rsDln/nQ4MzH7OIEI9zkhlc05iX5jOkwrGzrtFzs5AIHDOVPexzng2gA6RFseOY5YpjUkxPI1\r\nKH4DOBxyVDgBEH81pNg5NcqvwDWntuI06e9wNUQtGTXWN5M19FMwNc5fizWUkcs0fl2TNb2nZTXc\r\n8nc18sMrNbIBZDUu/Ug1eHNENZ+9QzW0HUE1IXFANd2HhjWgjxU1oosNNcYIPTVmcyo1jZOONS/S\r\nOzW2lnU1gi4mNTKm7zRcrWc1o1xWOARaxjfUzUE2I7iLOC2p2znGEpA5WG3kON9RejkST2k5K0J3\r\nOaQItjlAIjE5Xt6uOIUtjzjWefM40mw8OYr00zidLFI5VfoBOu2UDzr6V8Q5cjRTOSco+znT27c5\r\nHx/uOFdmejiVx+U4eXyHORywHzk5f/04UxbyOD/EnjhFH+c1+n7gOD1n+jheu485vApeOdbE5znc\r\nrO05frKaOA2U5TcbjAE5j+1mOvhJ8Tkeopk5w/cGOgKyJjlUcvk40fGJOJOwITmrhWo594J+OSMZ\r\nKzkTQvM4qpCqOH+rdThmfR44aaU8OK4V/ThQkwg6K8cxOtOOcDlE1yM4ZgckOCC9fjeE2rc0SYdB\r\nNdqeQTVVYDY10k0MNUoHHDWHdAE1PisGNUfuBzXAJsE0HNr2NGIfBjX0jTI1rrnmNA+ycTVOPWU1\r\nAjgTNZQvKDXojds0HkzXNKQnbDXLnhE1O64UNcOqKjVI7ac15saONIzClzSRTmw1qNgANftcXzUd\r\nzVk1HUUxNdW3qzR4jGU1JHm3NADCJjWSk0A1X/oZNQgj0jSweYM1TA5TNIT7ODWs++Q0BtmiNCDb\r\njTWGeSY1zkzkNDFGOzUh6Xk1Pg3iNEdUUjUFGpc0WaEHNVUL6zRkXiI1YKjMNCl9HTUkhcY0IdFN\r\nNaqSBjUAWyM1BmGzNDoL0jQvcbE0drhtNcBLwDQW3Mk0AZowNdLvQTWaeDs15g1ONYYfEjUSK2Y1\r\nwms8NSzqwjTW+S01mIEMNUTr1jSSO5Q0yGhBNUiLzTSupcQ0dv6VNcoSGTWIoHk0jF4TNaO3OTXx\r\nkO40vm7iNEJ8yzR0RB41PpPoNE82izUjfx01aqtjNZhMNjVBJAc1WP3bNK+EIjWjZwY1J9sgNaO3\r\nJzWxZvQ0aJKuNMdOWzVDJY00wBF5NHSQ6zQGN8Y0NEoJNR2aOzUbALg0SciWNRjnGTWW6ls10F7P\r\nNDzo2zRCv3w1xXIFNa+LzzREPJE0nhBXNRiaKDXczes05911NdZH/jQLSbU0AADyNA==",
                            "noiseTrainingType" : "default"
                          }
                        }
                    ],
                    "start" : 10351,
                    "duration" : 1453,
                    "mediaStart" : 35,
                    "mediaDuration" : 1453,
                    "scalar" : 1,
                    "metadata" : {
                      "WinSubProjectDisplayName" : "",
                      "clipSpeedAttribute" : false
                    },
                    "animationTracks" : {

                    }
                  },
                  {
                    "id" : 100,
                    "_type" : "AMFile",
                    "src" : 10,
                    "trackNumber" : 1,
                    "attributes" : {
                      "ident" : "Aufn. 07-14-19_024",
                      "sampleRate" : 44100,
                      "bitDepth" : 16,
                      "gain" : 1.0,
                      "mixToMono" : true
                    },
                      "channelNumber" : "0,1",
                    "effects" : [
                        {
                          "effectName" : "NoiseReduction",
                          "category" : "categoryAudioEffects",
                          "parameters" : {
                            "denoiserAmount" : 20.0,
                            "denoiserThreshold" : 0.0,
                            "noiseProfile" : "eZVxQGOQCz+sfZA+Nl8ePd+mtzzzZQE8oVdkPBFcVjt1U4s7GuLBO/iNWjtuEIQ7zyCXO9Rg5Tqk\r\nskc74N0LO2tcETwOMd06i+Y7O14UWjs5pNM6LgjnOfIsnzpOC3I6A5avOgqKEjtzRD47j6NFOomL\r\nZzodAj06VucOOq95+jkq6lE6vvVHOvLkLTp9Zvk5BAFpOtVauTpbCGI6rI+/OSqMmjq5kAg6/iN8\r\nOjfcBTuB/xA6pRJ5OgCOETrdwDI6cC2cOaQgsjkA+rI5zgeWOVLmdjkYlfg5mIzqOQPogTmnwcw5\r\nbe+yOZxkyjkwgVA5+bzXOQC0AjpLpFM5E2ZXOQKBQDl15i85oBBROdCj/Digq7A5K3MjOSvOkTmu\r\ntCM5SyGAOSxL7jj0Cgw57Bk5OebK1ThhovE4svk/OfKf+jg+TJY5CfEAOW7sXTksPxM5uRvbOBUo\r\nDDkOKDo5p5WEOBIrZDlyTSw5BKrnOLSCdjlv+8k4gEfLOeNWlznVSs04kUBbOTwt5zhYKSI5FYx5\r\nOVvdEzroT4446YXbOEQeSzlRkEA5a9RYOSt50TicIMQ4Dno6OWSmwDj8Fh440PGpONk90jjpH4c4\r\nvVlcOKAiYThMlPM4TnzJOOaHvzj6/LA4AB/2N82P8zcK16w4p6pSOEpSqDjn+/c3eiiDOIkycjiW\r\nXKo4WhCLOPUyozjHlNA33Q46OKk6IDgwQVk4tL0xOOraKDhjri44TnGvOL3S2TfDKDY42gsnOMWu\r\npDg8uL83I2PlN58fCTgzDkM4tDQBOGk7BDhu9qA4XXl3OLSFdzg4qk840NNUOJnURDjtUpE4iSGH\r\nOFOOwzd8ggg4kw+FOMiarDfwveY3E8XEN4xNGTiSvoY32fQcOLq9LzdZ3pQ3IhcTOL4xxTcSm4U3\r\nz2+dN2y3Pzce6xE3MXzGN0qRAzhO7Qg4BklpN0ztqDeu2YA39qqrN7NWUzc4+LI3j5FMN+XJeDfW\r\n+7s3hoKYN8rvtzfsSSk3qFWINzqukjcRvkw37hzAN+x4Pjc/wGI3T+dAN0iE2jd4ciE3H3coN2k+\r\nIzfoA2g3gy/NNwwK5zfc6CI37D6bN9v+QDeeH543TmfWNwBjnzc4NHg3BGGMNyfUUjeSWVY3Kmoi\r\nNyh6bzckpsg3zMLVNmJ7hTe/ws03HVycN9qjmTe2mCI3SemAN2bNGTfPiOI28jSZNslfuDf0De82\r\neEcVNzo+tDcnobQ2+rHTNuj3bzfemwk3VkM5NxKNhjdlHhI4tiIxNwA7aDct4/M28aE6N2SWKTcL\r\nMl43qvaQNz5oAjhcjnI3yjNkN0HE7zaY7p03vR7BNlVeFzfWOCY4NuDDN9wD5zeqUUM3eKlYN/Sa\r\nfjdi2BE38N4CNwba3Db82gM3uH/WNlgBDDd3Yeg2iCmKNjH/kjbaaDw3ZbgkN9zI3jZM8tk2qfhi\r\nN/BmAjccQrw3He0ZN8hoUzelNec3I2vQNiJ9DzdA0yk3fmcLN0l25TalQgo3qkgGNxHYgTdIZ7o2\r\nUZvxNn5jIjc7Ma828MY2NwvGhTcMpd83UOF1N9hdSTgj27I4Iu0eOAFl+DeQ4wE4C0OIOPTwqDj1\r\n+Ag4SVInNxGOnDcNHc032tIzOGMwGzhAg803ChAmOGk3KjihDhs2nbHyNwhhHzdcak02OB8RN2jb\r\nlDZoYRE3h5yuN3zh1zeqefw3O4syOMQ1JTi+MLw3zbAWOAJmADiE/A83WWIxN7KjHjeFiLg2EK+R\r\nN+cbFTifWPc2ZMQSN3fZiDfB9DU3V+iMNg4CzzautN42/AmgNyD6KjhHD1Y30NdzN7a+DjghsaA4\r\nZgiPNxUGCTdI7go3bGl2N95TAzhngS04WSWxN+CUrDfmW603Ahk4N1WqoDc1N802tyuhNjQ+zTbt\r\n7Ek37IlaNuPDjDbOJLc289pNNoRPYjcwvEs2PPQ/Nnw2pzbdsdk2ntNGNv5fkzbNvJE2cWoKN0WB\r\nTzfAHj03bMiEN85teDeazEY3+QYUN7YBKjfUm6g2QgjJNhypLDdy2a82EjJzNgTKATd+HFQ2/SCL\r\nNivg1zbmD1A2qyEXN4UlrzbScKs2rrhvNs/n8zYunuU2a+k5N/KuPTaZ8oU2kP6AN0gzQTboewI3\r\niakBNkD/CTfCFZ02bctzN/xEMDfAxZk2TrW6NgtEbTfc2Hc2+8w3N3IwGDhwaD83RRB1NrnNfzZ2\r\nD4A2XlF/NuywHDaZoEw2CHpzNiQXjzbY7xM29R8cNlHUGjd2neg2z8zhNpfNFje5nYs3AZM3NylR\r\nVjdLXIg2SSlEN0/VLTb5YAM2ogsmNqlu4DZ6SlY2AUtZNk1g/TYJWtM27VJMNkIPkjbnVow2PgPY\r\nNsiwLTYjcxo2zLjuNfcYlzZqGLc2SHToNW7cJTYifgU2YaAxNlIbhDbtyVc2T5vZNjLiFzcxzQw3\r\nhBBvNq+y7TWuu0c2xDkwN8sKVDa6MEE2nZg/NoaWLDYdV4g2PKYpNooiHDYpJYg2+SCMNpXsYza9\r\njz43sQ+7NlLVpjbtow42PygaN9pEuzZ4jyU3PPIUNz82VDc6OwY3PGmRNrPFojaEU/Q1txzHNr8u\r\nzDZcXAE2JMzoNcKpzDWPLd417n/HNX92CDbAcJM2bq8WNoz6ETYisoM10q2SNf5VMzYqjt41QdrI\r\nNU6PXDYDKRY2cwqnNQqDzzal+L02H57zNocneDecdiw2GxtvNxQZGDd8w+g24AVYN86B+TYAoMM1\r\nfRGmNngE3TZcKPI2YExiNyCpLjfQguQ22EWyNiUWrDXxiIs3cJiUNx/tMTcntgA482vQNlJk7jai\r\ngR83cuyfN5gJVTeMMaI3yoH7NmhT0DbmLAo3awezNqwjGjeIXOU2LtNRN63KvzYh6Vg2axkWN18K\r\nzzbi2Bc3g9fUNw7GGTeQUKM2sVOvNlTkEjf+T4c3PhOTN+FukDf8X9Q2iXHdN1TW4DfuP603mOPM\r\nN164STckQJI3nnAaOGa9uzeLyb03cKjNN4HcaDf+ZxA3hkdmNtp+5TYPiHs2Djo3N0cRBTfLlrA3\r\nzyeXN5z2DjjEMeY3kAJVODGgSDiNxSA4La/0N6ESCTh3LXc4mJ/1N/Titjeb7pM4v5UIOET/ATaf\r\nyiM4DoPANuOnrDeQFaw36XHCNkJkhDe6HQU4UMiGN0HVmDa+8xo4PrFBOOQZ8jeCrwA40uFmNxDT\r\nrDfJMZs3vAt6N9oNkzjFzjE4GtDzN0itGjivOoc4N3CuN/49zTghNDE4vyWTODeIXTf3LwQ4htNS\r\nONNTvTcs4J82PaJyNwFLdDfoMWc3umMaNxrWHTfYK4Y3Rw4uN7wlcjcKnpU3HdG8N5qbFzj8LY82\r\niA/1NxDjSjhUN/g318MBN1+i5jfJWxA4gmBdOGJ5VzYB3OM3aPe1NwLmiTZYV0E3+X9MNwKmxTdt\r\n2Tc3zxSCNpgcbzbY+vI2IGByNvFaEDcCprs1USBzNgQXXjV8RaI2AGdgN8J2rTduI6A38zfENn2z\r\nlzfHhac3dqedNn+oEThwwAg4n0I3N6IuqTfzO+82SIhEN9PiSzdXpAc39hcqNweefjXpVKI27SYm\r\nNltlKTYk1Qo2Ej8/Ntc8vDZqXM43FkpuN9levjfCkcQ3CjHENyxOMDgrCFI3z/jXN8K8ADiYwzk3\r\n0RhJOFau7zc254Q3oPSSN7YjlTbGIe02ZcAKN0wX8zXkb9012Sp1NSX0azXfUQM2S/PYNYJRxDVy\r\n3081cJdzNQNAVDUOZhw1id2WNew3djViL3I1EB6aNZZ7njUpv5A1qa8QNhhlVDUQ7ow18opfNfvZ\r\nszXh8kI1Fu+rNSx8qTUogZA1SGScNRqsxjVDgFU1s15VNbWKyDXWuiM1HxBbNTV3CjVIVDw1H0JV\r\nNbavHDV2OAo1rLY+NREllzUg8aM0c6aUNS4ZUzVT/dE1TMcINZzliDXvXzE1AfU9NUvl5TQxbVw1\r\nwF8MNcMQkzU8vBo1MnUbNd4JKzW0rEs17CRQNVAMNzUkkEA1898BNYa83zTtfnw1PtSLNcQ0jTXD\r\nVkA1DXSbNTfveDWtVYA1fdNMNTRhCTWo+x41yOcxNQgsLDW/jCg1zY8VNYM+/zRVOAc1IJ8tNXoo\r\ntjWyTas1FxJqNRv7XTV+3Sc10J98NSbzJDXsTrU1ABUhNZH5gjW/isk0cGhQNcY1DjUXEEY18sEa\r\nNUu1hjX+/CI1cs2uNXa+RDUR20M1ejgxNb6gnjXRnoM1WVmZNVpXGzVULlk18QBbNZbbUjU6NyM1\r\n2PKxNdBBazUHfaM1lgduNc9PXDU7D00150UeNVUNHDVtU5A1cJVkNVqNZjV/jSY1AolHNWHPHjWw\r\n04M16yAsNajWETUCo001zlFeNchwETUwNHM1Hd0+NYTtMjWTSY018GonNcAYNjVJmpM1RPBUNXCR\r\nZDU6siU1TLynNQSEPDVZa0M18CZcNaVYQzXlDhg1tL67NfWWLzW/hm81cmzfNALhHTUIyUg1VumL\r\nNWxpZjUKVVI1bvwhNW1aHTXUY4s1RPCjNWfUVTU89gE1LI1KNUM/JTWHyEM1w34aNZ6QLTWCa8c0\r\n1IUuNTIuaDWsMhM1OWKANcgKlTUAQ/E0TaeXNWPXrTVC0io1Hr8LOeNDiTkG0R05oiXRN9kBFTjt\r\nXgM5vsfuONUDlzYXEqg2IQopNxXlYzilioQ40WtMOMzq8DcNHSU36GaWN2Y9BzZUvjo3FM+RN/Mb\r\nrTZFg/g1OyneNz7A3TePIi84uyvYOO4XmTiw4pw3pK6iOGuTnThFJR046iDdN9G4ZzgiRN833u/t\r\nNkeILzYAqaY2ZTM3N0yWyzYCcss1gFhVN0KRnTZmlps15m7kNZBSojV7zUs2aC1ANiiA7zXca081\r\nkVHpNrfDATdGYnc2X8JMNV982zXUcfk2CxeFN2FPfjdxZsE20H9+N/qdbTZmTxw2zDgaNlGEPzXw\r\nVY41DChrNbdlTzXf8D81SphnNb+/FjWV8Ro144gENW8BGTXlzgY1iMpnNWy6/jQCezw1wLfrNDqK\r\nYDWkiik1KWCcNUmYHDUtD8g1XZd7NQqk0zRQgoA16Do8NZNtETXDUUE1O2g2NRqjkDWpKyw1wbki\r\nNVsXLzW1q3E13F1KNasVSjXCPwg1FpddNUp+ZzWKuu81e935NHHfFDV2MTU13Sr/NJiDCTV/B9c0\r\napZHNWVXfDUE2vk04mpjNYwgSTW1+A81mewrNVfqHjXoEOk0wh4vNclKnDXbru41vlUPNW57TTWD\r\nO/A00MpANTe+fTUlQzc1Aw9bNa5pJjWwVVE1sN5XNRREvDQz/5E1EqItNW+QSzXUOk01RichNXT4\r\ncDVuBww18fmVNYyBEjVy9Cs1pJnzNOyuyzXr/AM1I0+PNR4S4zRueTI1DCBfNURsHjW2Dos1LhAT\r\nNemzMjUoc2M1IAEENTs+UjXb1S41AQs1NZqPPTVoI3o1uqBBNbi1UjVItlo1HF9sNQAAYTVAzlY8\r\n2BmwOt8cjjrttKk6lhrsOgO/Hjvihp06U3W+Omf5szqF87k62XiOOvDgazp94gk7WH8uOv21zzpk\r\nekE6cpSiOvuY0jqEeGg6DPmdOhYXsjqlewE7ykdMOvzgHDq9HB46+T+VOponiTpHkwM7VLovOt2y\r\nQjoCR1g6fBRmOl5qEToRu3c69A6DOplUizrhUAs7XaSWOtKOJTvBDYI6jhGKOsTTKjp31HU6ADl/\r\nOhg1BTpvObw6TGy1OoKBtDq8ZLA6RQvfOu5ZnDp+Bc06DStKOrLGRzp4nr46Vk/YOpNSpDquGPE6\r\neH4MOz8G4jpboEY6FC/7Ov65NDrqd6I6lBz7OcO0pTprQLw6uzGCOtqDNzrvEA87YjY3Ojg4gDq+\r\nMY86tsHBOoIBizrQjdk6YPUeO+kXAzqzoYg6AHanOux2jToUYMY6KCJVOrN2pjqb1Nw6dLpfOoqd\r\nbjpuaW465H+LOqoliTo/XpI67vehOgneXzoA0qg69HCGOlI8jDrxKxs69JCdOtjqWDrz7+A6Cm9b\r\nOiadhDpMRbQ6RnadOqawOjrq1j06f1KsOgz4KToocKs6n+/3Ok7eQzobi1M6RQM1OtpetjpYEM06\r\nuA9AOsB0pTqejEw6Bpd1OsJRwTr0VPk6j8ZROtuOfTrGyeU6iy/bOixBqTo1D+c6JHuEOo6hIzoH\r\nzL46KUphOs9iTjrqYRg6fU6mOiMUhToffgw61WeIOkSeYDrYG506mNJMOnxbUDpNiYE6dsJLOjw/\r\nYjpkzbE6ooeHOmxnsjqyB646YWZBOkqrCzpEXLE67UVnOo03xTq0ZDs6NoKIOtxtkjpw6zY6bxA+\r\nOrYAajoffNA6h5UiO97bhjpY6u86Dhk4OyXNgTrOc486WxOEOuSeezqyGj46PHJ8OswqWzrsP8Q6\r\n0q4UOgxHSDqNZus6rAeNOq23ITqQN4M6RK9QOu6qRjo2qJ06ygF1OuqupjoueWU6Q2rlOmjLkzpc\r\nuY86SJ4mOqB8lTrunK46IihPOpXSbzptJoo6ugiFOhC8rTpOLR86RUWiOt1pqDqWaJE6dCMyOvil\r\nkDqiQl06BJhyOvqTgTqWCZY6iHQ+OrCsqTrvqHg6BP2wOvYa1jp3rqU62CJSOqD5qTrf4nY6/tGy\r\nOpemhDoCCyU6KQcKOhz7mzpeSJQ6KuBMOltQUzrJjYg6ntoaOsx+gTrU55k6xTxtOvIOZTqCXhY6\r\nqcOuOoxX9zo0dhM6D0akOvLUKjrh5486LLGXOhPUSzpRBvA6niwAOx6jqDrYf4s698SYOoJWeDrP\r\nEAE7W4g1OmWKVTqKDY06EJ2WOje2lDq6BPE6DxATOuubKDqlnws7czE0OtxZcTp7JzI6/HbBOpO4\r\nNjp4a2I62jMzOgPvoTpcpqc6KdQ4Oj/9hDpBA206nAR9OiolJTrTwh07gADpOmf1UjpcXM4592gC\r\nO1omlzoHoKI6ZkVaOgo5gDoNExE6NJiGOouYBDsIoY06zMXCOiJbgTqNw7M6aqcaOuj6LjodE3A6\r\nKRUNOtAQaDqG8tY6LeCBOtC5eTped2c6hgbsOsBGhTpEln86gAWwOhYOojoMNKI6wbUCOjKIbDpd\r\n6gE7i0J6OjW5dTqeVq46+GjpOhbSXjoMb6c67U8iOhgbjTogxZE6t9NOOgZaFTo+mIg6Gt0pOpD4\r\ngjp2nzs6fzrlOnc4pzqCCIE6xjCMOhFdqDqm9c45KZK2OtKupzoaxaM67yGsOrY0BTvYvK46yIAa\r\nOoPOXToOA146dlAwOhAFizolmKw6o3OhOnKvIjpAcDg6SyB/OoRN2joDC4I6kM2TOqQhozpbw3U6\r\n+S9QOjaACztkv4w64ukrOigpvDoIp486gmz/OgIYVDrE4LY6kZp9OuhHRTr8BNM6E3NuOiwY2zoh\r\nuIQ6Qjv7OodGBTvr8aY6+VGlOlFoDDqGIX46O/5qOlSgCDroNWw62RIWOsIMpTqcV9Y6rFCWOhhh\r\ncjrGBVw6BHWUOuEvwzpOeaw6AVNSOtpFtDrBP2s67DbAOuAQGDq5zVU6/eROOp2PqzoN65s63xWB\r\nOv1RZzoFHqE6qnW6OmWfPjoAIHU6eDObOh3+hzrEPts6pU4lOqmTljrcoOA6Gm0ROiejXzo4s3k6\r\nY8u3OszO3TpADJ86fBBMOhxBGjpXZZc6UJW0OkTYYDpWV6E6LAFjOu6eSDoYYo46iay4OmiFUDpP\r\nrJg6BrdFO8IrczoxY4U6NT5WOuzv0TrCCpE6QKhzOuiCgzqUaKQ6D4/kOsLwxzpbxx06ustGOu1C\r\nczpSUGE6YhNIOgCiSTrFgZU61icMOteqHzrbLGo6b4YwOp+ffjp1Ll06Xw9MOs5gdTqWDVI6FhsU\r\nOsImrTqTrmQ6SpItOvlOjTpo9PU6ApawOkgmpTqqrbM6sYgCOnobVTq7i4w6vFECO/nZYzrBB1g6\r\nXNB8Optd4Dk5sgU65mimOqBMVToiz6o63n99OjY8njoalIo64O8eOknUMzpVh4s6HD+tOo5dRjpj\r\noRQ6npW1OSJfnjpal4E68buLOjBjizqg3ZM6Zq+BOvmjnTqAA6U6airCOgiXwTo+SIk6/jFZOize\r\npDotT5A6FSYXOnibszrPSpU6VDWROuVIbTpe1iw7wDQ4OijFEDqtqlQ6lHeLOu81tzrnpkU6YSKj\r\nOqqo8DrWgcE6TPGsOmVwCjp1WyU6STWSOg7AvDp6CpM6h14aOl0kLDrswlk6p8fNOiAkFTo2a4g6\r\nJgp3Okh2hzqek4I6KSQwOq7nODqVMXg6lFMYOr53rToE3zc6NEKPOpwVqjpTM7w6uCVMOhromzqE\r\naKk6YOcmOyZXKjrOwrQ6OOikOiGmgjoAuYo6yZ1POmPtgDpatMA6ENhzOni1RzregP86ACfqOlxg\r\nkDrJEkQ6riW3Oo9uIjqtN046vlEzOoipfToyZ7E6ZyM7OmAlDTtSPCw6RstOOhJ+vjrVObQ609Yg\r\nOpAJXjo2Ag46sSl8OsImlDqMi4I66CePOohFNzrPwNE5Vq1NOvwVljoifo46Vt+WOpx6ojogRZ46\r\n+soaOnvNHTrzaUo6XWZqOimfejpiqUE6oLc4OikDgTqz3CY6qExqOlF+EzrE6Qo7F/NpOt2QMDoT\r\nd3Y6M6CKOptcwzowOog6TbJkOiqhQjpSQzc65BuvOsf/wjqn7Zs67gpKOshwYDrO17E67suwOk/P\r\n4Doolw86QfGOOhR5nDoZjZY6AdWmOuM6hTrDKZM6rTY5OrZxazqhwv06MrSAOtHlbDqkE1o6MMCp\r\nOuF6rjrTVJc6MPRzOiT2NDokuRE6xbXqOjHFBjvGOGg62Ju6Oea99zr723g6wPOOOpgkcjpJ8Lg6\r\n9C1yOqzOSTqSfuo560cBOlNuiDrdm3I6mIuDOirgkTqJDYY6VuiEOnQWljrSOT06kG8IOtg9jzo8\r\nBqM5bAOrOpjchDobsAI65SSIOsCWbjoW80k64F4eOsQtdzoa3iY67iweOgvihDo2IF864wqwOoDz\r\nqTp3v4Y6JOUaOgBeSTqVYqY6e24fOixPgzop8gw6a5IiOqVwcjqmX7o6OGHHOlIegjrFR1U6rh1P\r\nOos4lTpyKYc6wmuEOoZwcDrN8kc6ckxaOrsHsTrlKJU6hSyOOkuuOzpj6Cc6br13OnS0gzqdjYo6\r\nuagGOoB7ajosheE6+B2aOl532Tm8joA6BLNfOjPTbzrA5UQ6w1YWOsPaojpNpyY6il2QOmTasTqX\r\nXIg6ahToOcgFnzq+tkU6Nn5fOpSiIDqROgE4zcmbN+znUDe8yRo3chwJN5AYzzZJfpU2flemNl5j\r\nLTY0G442G4xqNrN3TzYA75Y2tIQzNo0vFTYQXQ827SJENuGJPDYOIEo2qHxZNpEvBjYB+b41u2EJ\r\nNtiX/DWK9g02mrMSNrR12DVeRfw1KMlHNn1irTWm1wE2VxsCNqsdnDXK4IE1KALfNXmvhjXC25k1\r\nI/u5NXAnEja/T9g1RNG6NfwMzDXWe1c1QSHDNdElqjUo4lQ1WqyjNR6ChjXQyZg1hF4yNXsCdjX/\r\n0wM1eP4yNRJyATUnghI2H0w/NdyakTXCct01ieWTNQ53WDWacKQ1NJGDNdcTxjVXDTM1jg1hNZaP\r\npTU/JNM1PIv+NRImqTWnwtM1qLUrNUoYNDWDMt01DEBVNV65MjUhXMk1tsO9NfwDmTV1qGg1V5Sn\r\nNULQXzU4MgE24WGBNdaOPDW4/kM1G4EpNVQhODVqVF41vouKNXDmHTWmvIo1PHZpNWmEYDWA0X81\r\ncGxXNYonsTUkCPY0KZsYNRPehzXKF5E1Rv4kNZ96MjXExXY1aUaZNVrjPDW2Uig1KdxGNYrlfTU8\r\njkk1gBh7NVxs2TUob3M1W0tYNewdCjVwYQg1ZGIgNdYamDVgaFc1ur2BNeoYCDXrN341MC5GNcqw\r\nIjXapx01/m2gNQRt+DRBb2s1y++jNZXiMzVCqSU1DipVNVplDjV0GuA0G38vNVw+IjVq0Dc12B9g\r\nNVKyQjXxx6g1UWkxNSP6QTUQwj81+H/BNaCJ6DTIwF8139pzNbOAVTWc85g1xOsVNW2ESDWUyCA1\r\n2e1uNUKkJzXspQ41OYEyNRFnHTXLUAk1GQJpNb8FcTUplSE5QHmUOZwrGzl2o5g3SY7/N6aN/TjA\r\nwOE45PHuNgLAVzbXego3+uFsOIMsjDiwhzk41uKzN94qljbwdkg3R3OvNhNE5zZ2FD83RBz7Ntrz\r\nnzVyhuE39cveNwa5DDgjhc04EqKwOLwQdDdQqGU4KhanOL9OKjjByqs3f0lrOALKazjXjLo4L+T+\r\nOBzAbzli3U854e9FOGQEAzpyKKM628EiOoJzbTim49M43uEHOBTgtTcz2LQ4HP0COSw4ezjiEso4\r\nXuLnOa52kzmPznc4TuePOXIB1zkBAZA6ja9FOtieAzldo7Y4KIyFOC/8OjmASho5vK9ZOLPrYDk9\r\n6jk5YonxNGdphjVRPDU1H24DNQJ4YjWS8Bo1VcgINVP0ADUCamM10FicNZzNejWqfQ41UxQDNS+C\r\nOzXrBxs1L/gdNVSlODWNcgc1ckQpNYMZNTUUeBE17WNvNS7pejWBlhY1uDN9NcOwFTWxTU81W0Uq\r\nNZA7lDWy/Lo0gOAKNb4/+TTvGo81sohVNWwWbzWeqhw1umYwNe5f7zWAsvc0OEz2NEbQEDUP0SE1\r\n8VlANaiRMDWr15c0mwBENavhAzV0TEY1zi/gNIx8BzUfU3s1OIwENcQNbzRoGqw08msXNReJeTUu\r\ng201c6adNIwAgzSXkpY0QFLYNDrVAzW2DxA12gA3NYhMGDWaxEU1gOIfNc1EWjUJAIY1lo/QNJiA\r\n+DT26UY1CPQsNdTtEjU9OmM10UddNTRyBTXjPNE0oN7VNMKCejSsrCk1nTEUNRHuxTQTL/k0Pq8J\r\nNfuCHDW+O/U0xp0LNWJE3zRa8wg1hwbLNE/cWjUapxg1GtgFNWzPFDXdhAg1AAAQNQ==",
                            "noiseTrainingType" : "default"
                          }
                        }
                    ],
                    "start" : 11804,
                    "duration" : 465,
                    "mediaStart" : 27,
                    "mediaDuration" : 465,
                    "scalar" : 1,
                    "metadata" : {
                      "WinSubProjectDisplayName" : "",
                      "clipSpeedAttribute" : false
                    },
                    "animationTracks" : {

                    }
                  },
                  {
                    "id" : 101,
                    "_type" : "AMFile",
                    "src" : 10,
                    "trackNumber" : 1,
                    "attributes" : {
                      "ident" : "Aufn. 07-14-19_024",
                      "sampleRate" : 44100,
                      "bitDepth" : 16,
                      "gain" : 1.0,
                      "mixToMono" : true
                    },
                      "channelNumber" : "0,1",
                    "effects" : [
                        {
                          "effectName" : "NoiseReduction",
                          "category" : "categoryAudioEffects",
                          "parameters" : {
                            "denoiserAmount" : 20.0,
                            "denoiserThreshold" : 0.0,
                            "noiseProfile" : "eZVxQGOQCz+sfZA+Nl8ePd+mtzzzZQE8oVdkPBFcVjt1U4s7GuLBO/iNWjtuEIQ7zyCXO9Rg5Tqk\r\nskc74N0LO2tcETwOMd06i+Y7O14UWjs5pNM6LgjnOfIsnzpOC3I6A5avOgqKEjtzRD47j6NFOomL\r\nZzodAj06VucOOq95+jkq6lE6vvVHOvLkLTp9Zvk5BAFpOtVauTpbCGI6rI+/OSqMmjq5kAg6/iN8\r\nOjfcBTuB/xA6pRJ5OgCOETrdwDI6cC2cOaQgsjkA+rI5zgeWOVLmdjkYlfg5mIzqOQPogTmnwcw5\r\nbe+yOZxkyjkwgVA5+bzXOQC0AjpLpFM5E2ZXOQKBQDl15i85oBBROdCj/Digq7A5K3MjOSvOkTmu\r\ntCM5SyGAOSxL7jj0Cgw57Bk5OebK1ThhovE4svk/OfKf+jg+TJY5CfEAOW7sXTksPxM5uRvbOBUo\r\nDDkOKDo5p5WEOBIrZDlyTSw5BKrnOLSCdjlv+8k4gEfLOeNWlznVSs04kUBbOTwt5zhYKSI5FYx5\r\nOVvdEzroT4446YXbOEQeSzlRkEA5a9RYOSt50TicIMQ4Dno6OWSmwDj8Fh440PGpONk90jjpH4c4\r\nvVlcOKAiYThMlPM4TnzJOOaHvzj6/LA4AB/2N82P8zcK16w4p6pSOEpSqDjn+/c3eiiDOIkycjiW\r\nXKo4WhCLOPUyozjHlNA33Q46OKk6IDgwQVk4tL0xOOraKDhjri44TnGvOL3S2TfDKDY42gsnOMWu\r\npDg8uL83I2PlN58fCTgzDkM4tDQBOGk7BDhu9qA4XXl3OLSFdzg4qk840NNUOJnURDjtUpE4iSGH\r\nOFOOwzd8ggg4kw+FOMiarDfwveY3E8XEN4xNGTiSvoY32fQcOLq9LzdZ3pQ3IhcTOL4xxTcSm4U3\r\nz2+dN2y3Pzce6xE3MXzGN0qRAzhO7Qg4BklpN0ztqDeu2YA39qqrN7NWUzc4+LI3j5FMN+XJeDfW\r\n+7s3hoKYN8rvtzfsSSk3qFWINzqukjcRvkw37hzAN+x4Pjc/wGI3T+dAN0iE2jd4ciE3H3coN2k+\r\nIzfoA2g3gy/NNwwK5zfc6CI37D6bN9v+QDeeH543TmfWNwBjnzc4NHg3BGGMNyfUUjeSWVY3Kmoi\r\nNyh6bzckpsg3zMLVNmJ7hTe/ws03HVycN9qjmTe2mCI3SemAN2bNGTfPiOI28jSZNslfuDf0De82\r\neEcVNzo+tDcnobQ2+rHTNuj3bzfemwk3VkM5NxKNhjdlHhI4tiIxNwA7aDct4/M28aE6N2SWKTcL\r\nMl43qvaQNz5oAjhcjnI3yjNkN0HE7zaY7p03vR7BNlVeFzfWOCY4NuDDN9wD5zeqUUM3eKlYN/Sa\r\nfjdi2BE38N4CNwba3Db82gM3uH/WNlgBDDd3Yeg2iCmKNjH/kjbaaDw3ZbgkN9zI3jZM8tk2qfhi\r\nN/BmAjccQrw3He0ZN8hoUzelNec3I2vQNiJ9DzdA0yk3fmcLN0l25TalQgo3qkgGNxHYgTdIZ7o2\r\nUZvxNn5jIjc7Ma828MY2NwvGhTcMpd83UOF1N9hdSTgj27I4Iu0eOAFl+DeQ4wE4C0OIOPTwqDj1\r\n+Ag4SVInNxGOnDcNHc032tIzOGMwGzhAg803ChAmOGk3KjihDhs2nbHyNwhhHzdcak02OB8RN2jb\r\nlDZoYRE3h5yuN3zh1zeqefw3O4syOMQ1JTi+MLw3zbAWOAJmADiE/A83WWIxN7KjHjeFiLg2EK+R\r\nN+cbFTifWPc2ZMQSN3fZiDfB9DU3V+iMNg4CzzautN42/AmgNyD6KjhHD1Y30NdzN7a+DjghsaA4\r\nZgiPNxUGCTdI7go3bGl2N95TAzhngS04WSWxN+CUrDfmW603Ahk4N1WqoDc1N802tyuhNjQ+zTbt\r\n7Ek37IlaNuPDjDbOJLc289pNNoRPYjcwvEs2PPQ/Nnw2pzbdsdk2ntNGNv5fkzbNvJE2cWoKN0WB\r\nTzfAHj03bMiEN85teDeazEY3+QYUN7YBKjfUm6g2QgjJNhypLDdy2a82EjJzNgTKATd+HFQ2/SCL\r\nNivg1zbmD1A2qyEXN4UlrzbScKs2rrhvNs/n8zYunuU2a+k5N/KuPTaZ8oU2kP6AN0gzQTboewI3\r\niakBNkD/CTfCFZ02bctzN/xEMDfAxZk2TrW6NgtEbTfc2Hc2+8w3N3IwGDhwaD83RRB1NrnNfzZ2\r\nD4A2XlF/NuywHDaZoEw2CHpzNiQXjzbY7xM29R8cNlHUGjd2neg2z8zhNpfNFje5nYs3AZM3NylR\r\nVjdLXIg2SSlEN0/VLTb5YAM2ogsmNqlu4DZ6SlY2AUtZNk1g/TYJWtM27VJMNkIPkjbnVow2PgPY\r\nNsiwLTYjcxo2zLjuNfcYlzZqGLc2SHToNW7cJTYifgU2YaAxNlIbhDbtyVc2T5vZNjLiFzcxzQw3\r\nhBBvNq+y7TWuu0c2xDkwN8sKVDa6MEE2nZg/NoaWLDYdV4g2PKYpNooiHDYpJYg2+SCMNpXsYza9\r\njz43sQ+7NlLVpjbtow42PygaN9pEuzZ4jyU3PPIUNz82VDc6OwY3PGmRNrPFojaEU/Q1txzHNr8u\r\nzDZcXAE2JMzoNcKpzDWPLd417n/HNX92CDbAcJM2bq8WNoz6ETYisoM10q2SNf5VMzYqjt41QdrI\r\nNU6PXDYDKRY2cwqnNQqDzzal+L02H57zNocneDecdiw2GxtvNxQZGDd8w+g24AVYN86B+TYAoMM1\r\nfRGmNngE3TZcKPI2YExiNyCpLjfQguQ22EWyNiUWrDXxiIs3cJiUNx/tMTcntgA482vQNlJk7jai\r\ngR83cuyfN5gJVTeMMaI3yoH7NmhT0DbmLAo3awezNqwjGjeIXOU2LtNRN63KvzYh6Vg2axkWN18K\r\nzzbi2Bc3g9fUNw7GGTeQUKM2sVOvNlTkEjf+T4c3PhOTN+FukDf8X9Q2iXHdN1TW4DfuP603mOPM\r\nN164STckQJI3nnAaOGa9uzeLyb03cKjNN4HcaDf+ZxA3hkdmNtp+5TYPiHs2Djo3N0cRBTfLlrA3\r\nzyeXN5z2DjjEMeY3kAJVODGgSDiNxSA4La/0N6ESCTh3LXc4mJ/1N/Titjeb7pM4v5UIOET/ATaf\r\nyiM4DoPANuOnrDeQFaw36XHCNkJkhDe6HQU4UMiGN0HVmDa+8xo4PrFBOOQZ8jeCrwA40uFmNxDT\r\nrDfJMZs3vAt6N9oNkzjFzjE4GtDzN0itGjivOoc4N3CuN/49zTghNDE4vyWTODeIXTf3LwQ4htNS\r\nONNTvTcs4J82PaJyNwFLdDfoMWc3umMaNxrWHTfYK4Y3Rw4uN7wlcjcKnpU3HdG8N5qbFzj8LY82\r\niA/1NxDjSjhUN/g318MBN1+i5jfJWxA4gmBdOGJ5VzYB3OM3aPe1NwLmiTZYV0E3+X9MNwKmxTdt\r\n2Tc3zxSCNpgcbzbY+vI2IGByNvFaEDcCprs1USBzNgQXXjV8RaI2AGdgN8J2rTduI6A38zfENn2z\r\nlzfHhac3dqedNn+oEThwwAg4n0I3N6IuqTfzO+82SIhEN9PiSzdXpAc39hcqNweefjXpVKI27SYm\r\nNltlKTYk1Qo2Ej8/Ntc8vDZqXM43FkpuN9levjfCkcQ3CjHENyxOMDgrCFI3z/jXN8K8ADiYwzk3\r\n0RhJOFau7zc254Q3oPSSN7YjlTbGIe02ZcAKN0wX8zXkb9012Sp1NSX0azXfUQM2S/PYNYJRxDVy\r\n3081cJdzNQNAVDUOZhw1id2WNew3djViL3I1EB6aNZZ7njUpv5A1qa8QNhhlVDUQ7ow18opfNfvZ\r\nszXh8kI1Fu+rNSx8qTUogZA1SGScNRqsxjVDgFU1s15VNbWKyDXWuiM1HxBbNTV3CjVIVDw1H0JV\r\nNbavHDV2OAo1rLY+NREllzUg8aM0c6aUNS4ZUzVT/dE1TMcINZzliDXvXzE1AfU9NUvl5TQxbVw1\r\nwF8MNcMQkzU8vBo1MnUbNd4JKzW0rEs17CRQNVAMNzUkkEA1898BNYa83zTtfnw1PtSLNcQ0jTXD\r\nVkA1DXSbNTfveDWtVYA1fdNMNTRhCTWo+x41yOcxNQgsLDW/jCg1zY8VNYM+/zRVOAc1IJ8tNXoo\r\ntjWyTas1FxJqNRv7XTV+3Sc10J98NSbzJDXsTrU1ABUhNZH5gjW/isk0cGhQNcY1DjUXEEY18sEa\r\nNUu1hjX+/CI1cs2uNXa+RDUR20M1ejgxNb6gnjXRnoM1WVmZNVpXGzVULlk18QBbNZbbUjU6NyM1\r\n2PKxNdBBazUHfaM1lgduNc9PXDU7D00150UeNVUNHDVtU5A1cJVkNVqNZjV/jSY1AolHNWHPHjWw\r\n04M16yAsNajWETUCo001zlFeNchwETUwNHM1Hd0+NYTtMjWTSY018GonNcAYNjVJmpM1RPBUNXCR\r\nZDU6siU1TLynNQSEPDVZa0M18CZcNaVYQzXlDhg1tL67NfWWLzW/hm81cmzfNALhHTUIyUg1VumL\r\nNWxpZjUKVVI1bvwhNW1aHTXUY4s1RPCjNWfUVTU89gE1LI1KNUM/JTWHyEM1w34aNZ6QLTWCa8c0\r\n1IUuNTIuaDWsMhM1OWKANcgKlTUAQ/E0TaeXNWPXrTVC0io1Hr8LOeNDiTkG0R05oiXRN9kBFTjt\r\nXgM5vsfuONUDlzYXEqg2IQopNxXlYzilioQ40WtMOMzq8DcNHSU36GaWN2Y9BzZUvjo3FM+RN/Mb\r\nrTZFg/g1OyneNz7A3TePIi84uyvYOO4XmTiw4pw3pK6iOGuTnThFJR046iDdN9G4ZzgiRN833u/t\r\nNkeILzYAqaY2ZTM3N0yWyzYCcss1gFhVN0KRnTZmlps15m7kNZBSojV7zUs2aC1ANiiA7zXca081\r\nkVHpNrfDATdGYnc2X8JMNV982zXUcfk2CxeFN2FPfjdxZsE20H9+N/qdbTZmTxw2zDgaNlGEPzXw\r\nVY41DChrNbdlTzXf8D81SphnNb+/FjWV8Ro144gENW8BGTXlzgY1iMpnNWy6/jQCezw1wLfrNDqK\r\nYDWkiik1KWCcNUmYHDUtD8g1XZd7NQqk0zRQgoA16Do8NZNtETXDUUE1O2g2NRqjkDWpKyw1wbki\r\nNVsXLzW1q3E13F1KNasVSjXCPwg1FpddNUp+ZzWKuu81e935NHHfFDV2MTU13Sr/NJiDCTV/B9c0\r\napZHNWVXfDUE2vk04mpjNYwgSTW1+A81mewrNVfqHjXoEOk0wh4vNclKnDXbru41vlUPNW57TTWD\r\nO/A00MpANTe+fTUlQzc1Aw9bNa5pJjWwVVE1sN5XNRREvDQz/5E1EqItNW+QSzXUOk01RichNXT4\r\ncDVuBww18fmVNYyBEjVy9Cs1pJnzNOyuyzXr/AM1I0+PNR4S4zRueTI1DCBfNURsHjW2Dos1LhAT\r\nNemzMjUoc2M1IAEENTs+UjXb1S41AQs1NZqPPTVoI3o1uqBBNbi1UjVItlo1HF9sNQAAYTVAzlY8\r\n2BmwOt8cjjrttKk6lhrsOgO/Hjvihp06U3W+Omf5szqF87k62XiOOvDgazp94gk7WH8uOv21zzpk\r\nekE6cpSiOvuY0jqEeGg6DPmdOhYXsjqlewE7ykdMOvzgHDq9HB46+T+VOponiTpHkwM7VLovOt2y\r\nQjoCR1g6fBRmOl5qEToRu3c69A6DOplUizrhUAs7XaSWOtKOJTvBDYI6jhGKOsTTKjp31HU6ADl/\r\nOhg1BTpvObw6TGy1OoKBtDq8ZLA6RQvfOu5ZnDp+Bc06DStKOrLGRzp4nr46Vk/YOpNSpDquGPE6\r\neH4MOz8G4jpboEY6FC/7Ov65NDrqd6I6lBz7OcO0pTprQLw6uzGCOtqDNzrvEA87YjY3Ojg4gDq+\r\nMY86tsHBOoIBizrQjdk6YPUeO+kXAzqzoYg6AHanOux2jToUYMY6KCJVOrN2pjqb1Nw6dLpfOoqd\r\nbjpuaW465H+LOqoliTo/XpI67vehOgneXzoA0qg69HCGOlI8jDrxKxs69JCdOtjqWDrz7+A6Cm9b\r\nOiadhDpMRbQ6RnadOqawOjrq1j06f1KsOgz4KToocKs6n+/3Ok7eQzobi1M6RQM1OtpetjpYEM06\r\nuA9AOsB0pTqejEw6Bpd1OsJRwTr0VPk6j8ZROtuOfTrGyeU6iy/bOixBqTo1D+c6JHuEOo6hIzoH\r\nzL46KUphOs9iTjrqYRg6fU6mOiMUhToffgw61WeIOkSeYDrYG506mNJMOnxbUDpNiYE6dsJLOjw/\r\nYjpkzbE6ooeHOmxnsjqyB646YWZBOkqrCzpEXLE67UVnOo03xTq0ZDs6NoKIOtxtkjpw6zY6bxA+\r\nOrYAajoffNA6h5UiO97bhjpY6u86Dhk4OyXNgTrOc486WxOEOuSeezqyGj46PHJ8OswqWzrsP8Q6\r\n0q4UOgxHSDqNZus6rAeNOq23ITqQN4M6RK9QOu6qRjo2qJ06ygF1OuqupjoueWU6Q2rlOmjLkzpc\r\nuY86SJ4mOqB8lTrunK46IihPOpXSbzptJoo6ugiFOhC8rTpOLR86RUWiOt1pqDqWaJE6dCMyOvil\r\nkDqiQl06BJhyOvqTgTqWCZY6iHQ+OrCsqTrvqHg6BP2wOvYa1jp3rqU62CJSOqD5qTrf4nY6/tGy\r\nOpemhDoCCyU6KQcKOhz7mzpeSJQ6KuBMOltQUzrJjYg6ntoaOsx+gTrU55k6xTxtOvIOZTqCXhY6\r\nqcOuOoxX9zo0dhM6D0akOvLUKjrh5486LLGXOhPUSzpRBvA6niwAOx6jqDrYf4s698SYOoJWeDrP\r\nEAE7W4g1OmWKVTqKDY06EJ2WOje2lDq6BPE6DxATOuubKDqlnws7czE0OtxZcTp7JzI6/HbBOpO4\r\nNjp4a2I62jMzOgPvoTpcpqc6KdQ4Oj/9hDpBA206nAR9OiolJTrTwh07gADpOmf1UjpcXM4592gC\r\nO1omlzoHoKI6ZkVaOgo5gDoNExE6NJiGOouYBDsIoY06zMXCOiJbgTqNw7M6aqcaOuj6LjodE3A6\r\nKRUNOtAQaDqG8tY6LeCBOtC5eTped2c6hgbsOsBGhTpEln86gAWwOhYOojoMNKI6wbUCOjKIbDpd\r\n6gE7i0J6OjW5dTqeVq46+GjpOhbSXjoMb6c67U8iOhgbjTogxZE6t9NOOgZaFTo+mIg6Gt0pOpD4\r\ngjp2nzs6fzrlOnc4pzqCCIE6xjCMOhFdqDqm9c45KZK2OtKupzoaxaM67yGsOrY0BTvYvK46yIAa\r\nOoPOXToOA146dlAwOhAFizolmKw6o3OhOnKvIjpAcDg6SyB/OoRN2joDC4I6kM2TOqQhozpbw3U6\r\n+S9QOjaACztkv4w64ukrOigpvDoIp486gmz/OgIYVDrE4LY6kZp9OuhHRTr8BNM6E3NuOiwY2zoh\r\nuIQ6Qjv7OodGBTvr8aY6+VGlOlFoDDqGIX46O/5qOlSgCDroNWw62RIWOsIMpTqcV9Y6rFCWOhhh\r\ncjrGBVw6BHWUOuEvwzpOeaw6AVNSOtpFtDrBP2s67DbAOuAQGDq5zVU6/eROOp2PqzoN65s63xWB\r\nOv1RZzoFHqE6qnW6OmWfPjoAIHU6eDObOh3+hzrEPts6pU4lOqmTljrcoOA6Gm0ROiejXzo4s3k6\r\nY8u3OszO3TpADJ86fBBMOhxBGjpXZZc6UJW0OkTYYDpWV6E6LAFjOu6eSDoYYo46iay4OmiFUDpP\r\nrJg6BrdFO8IrczoxY4U6NT5WOuzv0TrCCpE6QKhzOuiCgzqUaKQ6D4/kOsLwxzpbxx06ustGOu1C\r\nczpSUGE6YhNIOgCiSTrFgZU61icMOteqHzrbLGo6b4YwOp+ffjp1Ll06Xw9MOs5gdTqWDVI6FhsU\r\nOsImrTqTrmQ6SpItOvlOjTpo9PU6ApawOkgmpTqqrbM6sYgCOnobVTq7i4w6vFECO/nZYzrBB1g6\r\nXNB8Optd4Dk5sgU65mimOqBMVToiz6o63n99OjY8njoalIo64O8eOknUMzpVh4s6HD+tOo5dRjpj\r\noRQ6npW1OSJfnjpal4E68buLOjBjizqg3ZM6Zq+BOvmjnTqAA6U6airCOgiXwTo+SIk6/jFZOize\r\npDotT5A6FSYXOnibszrPSpU6VDWROuVIbTpe1iw7wDQ4OijFEDqtqlQ6lHeLOu81tzrnpkU6YSKj\r\nOqqo8DrWgcE6TPGsOmVwCjp1WyU6STWSOg7AvDp6CpM6h14aOl0kLDrswlk6p8fNOiAkFTo2a4g6\r\nJgp3Okh2hzqek4I6KSQwOq7nODqVMXg6lFMYOr53rToE3zc6NEKPOpwVqjpTM7w6uCVMOhromzqE\r\naKk6YOcmOyZXKjrOwrQ6OOikOiGmgjoAuYo6yZ1POmPtgDpatMA6ENhzOni1RzregP86ACfqOlxg\r\nkDrJEkQ6riW3Oo9uIjqtN046vlEzOoipfToyZ7E6ZyM7OmAlDTtSPCw6RstOOhJ+vjrVObQ609Yg\r\nOpAJXjo2Ag46sSl8OsImlDqMi4I66CePOohFNzrPwNE5Vq1NOvwVljoifo46Vt+WOpx6ojogRZ46\r\n+soaOnvNHTrzaUo6XWZqOimfejpiqUE6oLc4OikDgTqz3CY6qExqOlF+EzrE6Qo7F/NpOt2QMDoT\r\nd3Y6M6CKOptcwzowOog6TbJkOiqhQjpSQzc65BuvOsf/wjqn7Zs67gpKOshwYDrO17E67suwOk/P\r\n4Doolw86QfGOOhR5nDoZjZY6AdWmOuM6hTrDKZM6rTY5OrZxazqhwv06MrSAOtHlbDqkE1o6MMCp\r\nOuF6rjrTVJc6MPRzOiT2NDokuRE6xbXqOjHFBjvGOGg62Ju6Oea99zr723g6wPOOOpgkcjpJ8Lg6\r\n9C1yOqzOSTqSfuo560cBOlNuiDrdm3I6mIuDOirgkTqJDYY6VuiEOnQWljrSOT06kG8IOtg9jzo8\r\nBqM5bAOrOpjchDobsAI65SSIOsCWbjoW80k64F4eOsQtdzoa3iY67iweOgvihDo2IF864wqwOoDz\r\nqTp3v4Y6JOUaOgBeSTqVYqY6e24fOixPgzop8gw6a5IiOqVwcjqmX7o6OGHHOlIegjrFR1U6rh1P\r\nOos4lTpyKYc6wmuEOoZwcDrN8kc6ckxaOrsHsTrlKJU6hSyOOkuuOzpj6Cc6br13OnS0gzqdjYo6\r\nuagGOoB7ajosheE6+B2aOl532Tm8joA6BLNfOjPTbzrA5UQ6w1YWOsPaojpNpyY6il2QOmTasTqX\r\nXIg6ahToOcgFnzq+tkU6Nn5fOpSiIDqROgE4zcmbN+znUDe8yRo3chwJN5AYzzZJfpU2flemNl5j\r\nLTY0G442G4xqNrN3TzYA75Y2tIQzNo0vFTYQXQ827SJENuGJPDYOIEo2qHxZNpEvBjYB+b41u2EJ\r\nNtiX/DWK9g02mrMSNrR12DVeRfw1KMlHNn1irTWm1wE2VxsCNqsdnDXK4IE1KALfNXmvhjXC25k1\r\nI/u5NXAnEja/T9g1RNG6NfwMzDXWe1c1QSHDNdElqjUo4lQ1WqyjNR6ChjXQyZg1hF4yNXsCdjX/\r\n0wM1eP4yNRJyATUnghI2H0w/NdyakTXCct01ieWTNQ53WDWacKQ1NJGDNdcTxjVXDTM1jg1hNZaP\r\npTU/JNM1PIv+NRImqTWnwtM1qLUrNUoYNDWDMt01DEBVNV65MjUhXMk1tsO9NfwDmTV1qGg1V5Sn\r\nNULQXzU4MgE24WGBNdaOPDW4/kM1G4EpNVQhODVqVF41vouKNXDmHTWmvIo1PHZpNWmEYDWA0X81\r\ncGxXNYonsTUkCPY0KZsYNRPehzXKF5E1Rv4kNZ96MjXExXY1aUaZNVrjPDW2Uig1KdxGNYrlfTU8\r\njkk1gBh7NVxs2TUob3M1W0tYNewdCjVwYQg1ZGIgNdYamDVgaFc1ur2BNeoYCDXrN341MC5GNcqw\r\nIjXapx01/m2gNQRt+DRBb2s1y++jNZXiMzVCqSU1DipVNVplDjV0GuA0G38vNVw+IjVq0Dc12B9g\r\nNVKyQjXxx6g1UWkxNSP6QTUQwj81+H/BNaCJ6DTIwF8139pzNbOAVTWc85g1xOsVNW2ESDWUyCA1\r\n2e1uNUKkJzXspQ41OYEyNRFnHTXLUAk1GQJpNb8FcTUplSE5QHmUOZwrGzl2o5g3SY7/N6aN/TjA\r\nwOE45PHuNgLAVzbXego3+uFsOIMsjDiwhzk41uKzN94qljbwdkg3R3OvNhNE5zZ2FD83RBz7Ntrz\r\nnzVyhuE39cveNwa5DDgjhc04EqKwOLwQdDdQqGU4KhanOL9OKjjByqs3f0lrOALKazjXjLo4L+T+\r\nOBzAbzli3U854e9FOGQEAzpyKKM628EiOoJzbTim49M43uEHOBTgtTcz2LQ4HP0COSw4ezjiEso4\r\nXuLnOa52kzmPznc4TuePOXIB1zkBAZA6ja9FOtieAzldo7Y4KIyFOC/8OjmASho5vK9ZOLPrYDk9\r\n6jk5YonxNGdphjVRPDU1H24DNQJ4YjWS8Bo1VcgINVP0ADUCamM10FicNZzNejWqfQ41UxQDNS+C\r\nOzXrBxs1L/gdNVSlODWNcgc1ckQpNYMZNTUUeBE17WNvNS7pejWBlhY1uDN9NcOwFTWxTU81W0Uq\r\nNZA7lDWy/Lo0gOAKNb4/+TTvGo81sohVNWwWbzWeqhw1umYwNe5f7zWAsvc0OEz2NEbQEDUP0SE1\r\n8VlANaiRMDWr15c0mwBENavhAzV0TEY1zi/gNIx8BzUfU3s1OIwENcQNbzRoGqw08msXNReJeTUu\r\ng201c6adNIwAgzSXkpY0QFLYNDrVAzW2DxA12gA3NYhMGDWaxEU1gOIfNc1EWjUJAIY1lo/QNJiA\r\n+DT26UY1CPQsNdTtEjU9OmM10UddNTRyBTXjPNE0oN7VNMKCejSsrCk1nTEUNRHuxTQTL/k0Pq8J\r\nNfuCHDW+O/U0xp0LNWJE3zRa8wg1hwbLNE/cWjUapxg1GtgFNWzPFDXdhAg1AAAQNQ==",
                            "noiseTrainingType" : "default"
                          }
                        }
                    ],
                    "start" : 12269,
                    "duration" : 346,
                    "mediaStart" : 637,
                    "mediaDuration" : 346,
                    "scalar" : 1,
                    "metadata" : {
                      "WinSubProjectDisplayName" : "",
                      "clipSpeedAttribute" : false
                    },
                    "animationTracks" : {

                    }
                  },
                  {
                    "id" : 102,
                    "_type" : "AMFile",
                    "src" : 11,
                    "trackNumber" : 1,
                    "attributes" : {
                      "ident" : "Aufn. 07-14-19_025",
                      "sampleRate" : 44100,
                      "bitDepth" : 16,
                      "gain" : 1.0,
                      "mixToMono" : true
                    },
                      "channelNumber" : "0,1",
                    "effects" : [
                        {
                          "effectName" : "NoiseReduction",
                          "category" : "categoryAudioEffects",
                          "parameters" : {
                            "denoiserAmount" : 10.4,
                            "denoiserThreshold" : 0.0,
                            "noiseProfile" : "ptcmQBbWCUCmoDNAF1avQGq3aEHCOqxCOqbgQXb7D0EzfnBA3CSkQKbKaEJ3l79DYwAvQvDQ60CS\r\n2ldAga+WQLmLnkG4RB8+oVQgP/4c4D5j1jA/rxmdQPgjD0EtFPM/MEPyPugnST7ZsAM/NJ/8PRDq\r\njD0w7g0+PIRtPf5Ujj2AP7Y+hiTvOzuwMD02LS49dEOSPTS7/z1/x7o8riOwPE0QxTw7paI8SQ/A\r\nPdA1DT0756M9iDcPPTl82Tz4EyU9QhyEPN/IWz04fVc9gskWPSxNyTx58U88/1aYPLNijTyAyws8\r\nSU2CPEOIGD7qBj8+cztiPTQHLj5pZdQ9WTuiPkPkAz1lM7A9hpgCPsYSKT2l+HU+vMOtPPiX9jyo\r\nWas7LjNAPDwAxTwKnic86g1mPOCUKzxhzbk8aByCO1B8wzy3ErI8ptgYPJ+6RzwPMM47L9NbPDTJ\r\nDDzXu3E8sMp0PMXGjzs+VbY7nE4ZPDKwsTvenyQ8cgbgOx5KpDyo0Do7kCRpPEpB2Ttuf607u1nC\r\nPBmChDwEuN07g3/AOwAYDzyWqzA9JrKaO+ZJlzw4DiM6omy0Ooywmzp2AxI83OdwO4NIUTqDslU7\r\nwmL1OuSubjx97mE7Tg0wO/qKyzo1cX07ldqvO1Ep5js8rC485J41PBa37TvCvas7SsRkO7K0NDtu\r\nxEE7OvdLO4w1WTtaSvs61RkpO76jHjv/ZiU7Z5ICO4j2yToVfiA76EzdOuwX7zrDjfg6IFhaOzTJ\r\ngTu2RJ87IZKkO0iZejuqJkM7VJJRO+MZYDsCAr07+GCIO7lhzTuXdQc8tHfOO2I4tzu1c9k7srrP\r\nO2o2hTsZw247yO40O+8pMDslnAg7h5MrOxsTFDtN5zY7H0QhO/mMqTvkJs876xGmOwdJ5DsBZQI8\r\nCk+vOzUTwjvmqzY8jHa/OyEBnjuQG9A93TUGPRCAtT3YfNM9HcszPFk9YD2iiWI8PXFQPeCNuzx2\r\nOsk6dzlgPIumlTzgkQY855OjO+0/yjxunas7cvxdPLrDuDq0lLs8mdMDO2ZFYjsd7VI7+I9UO3S0\r\nazvZQs06AOI1O/GSvDvBDic7ZnOQO8bo6Trz4uc63i35OlPIEjvwgnY7Ah0OO2jZ8zo31g47KaeO\r\nOmwRjzpGx7s6eCFuO8X84jpEpYQ72LHAOuuviTrxxpQ6QxIhOmjE7DqQ8BI6J6XYOggKdjo2jeQ5\r\nYpguOvDkVTni53I6gl8VOU79Cjq3jcQ5BE51Ordmnjr9C0064k0oO+E/ZzqIP107LlovPGvvvTuw\r\nnok6nQrtOzI6wDqwSmw89d8MPPJD7TpB8eQ7tGprPNTTlTxEcUU8t4ibOyDWFDt8q5Y7gb0/O96O\r\nHT1+py05PovoOtExwjsQyEc7APMaO6ks8Dt0hJI7s+PYOuycLzty9Sg7iBg9OzGIFzsaLM06l6wU\r\nO/OMfDpnuvg70pubOjJDhjpaiQ07+MhQOnSVYzoVxAE6NWxEOpoaaTqE1Fw6e2TlOjsQnTsQ8os6\r\nTLZxOyog6jvtz8Y6MuXrOoB57DtsfDY70phgOxVQbTv3oUY7gCG9O8e6HztjlaM7BKZFOzMXiTsV\r\njek6gfwfO06OGzvmu7s6Ca0BOydGOjsMEQM7epIdOpZqWDqqxyc6E8GWOnFTsjl20ds6hv8PO8Qo\r\nKjpgABU7CGkyOxYGITsYNRQ7AmuJO1/d7zquuAI7hPuGOw5UejvL1po79QDDOirCrzszYjE7/qQY\r\nO0BAkTuYi4c61xIXOx05hzqX4tU6LOm6OrIn8zsyA4Y6VZwOO2ZEBDs6Mg46KKS9Ogp/vToYb5A6\r\nWh93OkoNcDo2Sg46dMNnOlzg0jpOhJg6cHCBOhsFmzoSKlc68qIyOzMmrTqqVXI6DFfcOnVANTpY\r\n/Uo68qcGOigXiDtuCLw7fG6CO15DkzrHVjM6TNZjO4/Z/jpQm1o7gyuAOh95sjqOnLc6F2umOtbn\r\n/jlq+sQ5BpMyO5GHvDnXjB47klVvOsOzjzpoaW06U7XBOR4LvjoVG8Y5xsYTOpc6Ljl6Iwc5GvIA\r\nOvgbszhCkH46ASbWOUurwTl2Q0M62r6ZObrgyTk8HEM6NdtvOopiljqIfYo66HV3OoqjKDrZlNQ5\r\nyGXTOQbRQzr4REA6fPHYOeSKJjo0wKw52DeUOawDKTnMzcg5IUpdOSiUbTpoRv05JMveOWuj4DkJ\r\nsaU5ls/MOWiU9TnHCKE5qo/POf4Q3zlMqds5FsrFOTReyTkcYsA5AcGyObTNiTlOfLY59sOWOVgv\r\noTmMOLw5b42JOUrohDkmM885h9u/OVNVYTk4y7Q5uUojOoU0Jjne/aE5K+AhOg4WgznoxX05sAeq\r\nOTADzjmJ7Wo5bqgDOkC96jm7iXQ5yT6xOf7ZVDpIj0I5mEUQOW7eVzo581c5xGKiOQ57CDo4kpg5\r\nBnpmOeCw0Do93o45yR4UOR7uxTkAmCg6cLvsObtIkDlEUP85fH8COij/Qzpm89E5kXgDOn5DgTmi\r\nmOs5EZiYORZTwjnOb1U6TK56OWB3zTknztM5+xxyOn+hLTmDRKU6AkQrOgEPhDrfU/g5vamHOhGz\r\nlTqUwpI5zpsmOihUNjmI85g6umtBOZiwiDrkP/I5+a+COoBsRTr9tYE5+rXQORe4oTn14WQ6crrL\r\nORwkOzr1VKc5D8iFOWhfcjksIxo5QL/CORnOczkfN2c5GdWrOUYF1ThJu505GQ8IOVoUiTlAqk45\r\nb0kNOrIcfDnTE/A4+dRdOV+HEDkq4q85sKyZOd03uTlVIa85dgtCOQxIxjl81TU5hMmaOXggZDly\r\nMqo5qu+xORVBsTlsnik5MrtMOb49bDlkaqs58BanOSxP/TjIzik5VWEpOXLggTmxxFc5DqcwOcrj\r\nQzlcspk51lyEOdbEZDkoZpY5aSXMOfNpFjmO2o850GWNOa764znwbVs57RC+OdSuQDlKB1056ACn\r\nOeaomTl4UIA5aIGoOdVltTm1RiM5akS2OQudyTlvKuk4BlOFORoYijlUZYE5yJeDOehQfDmwBBU5\r\n0LEAOZxEijkQWho5rVODOT+jrjn2YUE59WQZOSjcFTku7js5ubAyOYuEMznKuTI5vYM8OZkBMDm8\r\ngDQ5cPtBOcmOLjnu1ik5mWEwOZfVKjlXijc5QSY2Oam8NTkhiy053rcoOey1SDmMvzY5YiQvOR7P\r\nPDkQXTA5jsYwObSlRzlj1zY5BlE3Oa0fKjl6xS857NUtOXLCLzkGeig5YI4tOawOITmowDI5NM4o\r\nOWDiHzn6gSE5Ba0iOWF7MDlAtzg5NocuOSIjJTk6LCs51EAyOYQALzmWCCg5IBQuOc2CHDlhqh85\r\n49wpOUBgHTk8TW45VewkOY4QNznkYhU5gDtAOdu3WDnjNL05vBYlOQOslDmW0x85sg4hOYt/Fzn9\r\nPBs5aBc1OaKRIzk/Wxw5Hf8aOdtiGzkqmm852DBzOVn+IzkSL6w5H7cvOVqTdzkGpxg5TAAkOYZL\r\nczkYNR45u/xfOT1CIjl0/hI5F3mVOd1RHzlaZxg5VkIWOXfBMDkMAig5M7hbOSEAGTlpank5Nvcb\r\nObo2mjkO9w05+MQPOVcjADkzXnU5BVoQOVeDYzmo5eM5JzkYOY0WMDnKPJk5YJKJOSxuGDgWdIA5\r\nYfZpOb71NTnuz2Y5IFGnOOvKhzmYEz05gCDzOGytWTndaX45vpoEORIuUzmEo5E5ti5HOFPxhjkG\r\niY459u9NOZifMjk2FF050GYhOW677zgEbBE5UbIXOU/hBTnTVRo5RiIROXCJCzkH2Q05zkoKOUcv\r\nEzkSxgE5QBcFOWmzAzmT5xE5z3MMOS8Dlzkwyrw5PI76OYfnwzoBtCw67IxFOsrsRDr3NIY51iEY\r\nOdYRBzkUDgs5qo1xOVYt3znCIZU5bE6WOXn+DTo4XKo54rwHObTTETn42zY5433/OOzsLzntUg45\r\n7LslObjukzl8IgM5fqkJOfb4/TiJdgo5/oICOVojAzl8zVs5rrsJOZE+Bzkkqg45MQ4NOaZPAzlt\r\nX/042nhoOZqvBDmfmAM5NnATOdJb+DgU/wA5c+z3OMa7cTk28y85KnPoOJhMRTkGy0g5iYHyObPA\r\nnTmADck5WbzOOSIhkzlYdgQ6aquZOZ55RzmWMHY5cwJiOebigjn46lI4MCKLOSv51DmV/5o5D1Zt\r\nOZHQCzo6orY5oHGiOcerijkTHRY5QQqBOSfv3zkRO6U5SS2cOdixZzl1OYw5iYKvOc3ZFzmPH8w5\r\nLYKfOeR+XTmG75I5/MMlORzMUDmB7vw4UEyvOe/AdDnf28s51gmyOULmXznigws6aCOVOXQrozmb\r\nP5w5kQX3OCfOATnyHoU5EeUDOo8ynznyQUM5TKc3OfY3tjmEsQo6z7lpOTuIqDnzwo45QDWGOVYL\r\nuDl+YgE5hVIAOcj28zgR78w5RB+iOYZ8aDlWrLw5c7NKOU0p+zn6/L45UCo9OfQcPDkv/eA4DedO\r\nOUexgDmoV7w5yurPOfBxmDl3qtY5wplrOZZJtjmvs405/9TVOcXGFjoCAl05g4dNOU3X+DgU5OA5\r\nkguoOZXjBjlyMPw4kRzeOKWpZDlFkE850IYCOt4SyDk6f2E5V7aHOcPlOTmJkpI5+pd3OSxINTkW\r\n9HQ5GwUCOUKq4zjjr/44ZPj4OBj1AjnA3IM5hJT/Ob/KTzlRwjY5z/cfOSo6gTnVAY85Gpr4OBMb\r\nEjkCjBk5CJKhORoBPDladYY5u9SLOUzc6TjtH+k4o5DtODBGYjnQj0w5Nu7jOBR66zh6lOg4/4vx\r\nOMph3jiRQuw4lBzgOFjcCjmdZok5FW7mOJiDgzlKtgQ5Xp3VOGqu4zj7QNA4IDXlOAir2jgLpeE4\r\n+QTxOPKa3TgJ5gk5vu3pOD3f7Di7q804lEb7OE4t5Ti1jtQ4hQPoOLwL1TiEJdE4b131OJtv9Dht\r\nf8w4SkHoOIN79zixVcs4Ey/uOP4t0zhM9tY4AvfuOM8K1jgNnOw49q7oOGIB4Di8LNw48pPrOPIV\r\n9Thigtc4DlngOHo12TikBuI4ozbaOJEv5Th+Ito4783lOMRs0jjrm+c45P3yOASE0jjTafU4lRjj\r\nONXV7jjjPt840bfROMfE2Dg8Rto40uriOKeZ3zhzW+E4X1TwONqGzzihydI4ZO7fOEgC6Thnt+c4\r\nf1PlOORx4ji6WOQ48zX7OL+qxjgVTs84zEHoOF4X1zjarss4SGHfOI072zju5cs4K+zdOGH30jgF\r\nVOI4z77HOLtT9jiXk+E4xZfjOKcd1TgCseY4JXPOON1D3TgCw9U4JcPdOIz26Tilrt04V4LYOEzJ\r\n8zhOS9c4gOnaOGDn7Tjbhfw4j6nYOHNV1DhrTtY4ddrqOAZI8zif1t84kA3ROCjz1ThKoOI4WtXg\r\nOGwx4zic3PM41OnZOEX9+DhsB/A4ui/sOLXd1jjGoNs46gvZODh00Dgsr+Y4c6XYOIDQ3TgENqI8\r\nDePROp8EjDr6uIA6weDXOo07XDrm3cQ64Mb+Oq+7mDroQGw69frGOnXn4jqpkyI6A+RMOqwSsTqa\r\n3n06rtN9Oj3spDpoi9o6YFgZOolEfjp0GaU6UbWWOtNIijqlUQc7bNC3OpzSLDoNx7060YihOl+k\r\nijohMqQ6uHGlOsRrIzrqlLY63fBMOsBvlTqytoA6q585OrUH0DqWgw467uyfOtU/mjoUXYc66Pof\r\nOpHBIzoMpAY6WjRAOq3XVTpE+Cw6FWHJOtQChzr3Sow6tCwhOu3ACjpd8Zs6RC2UOlLUqzqoX606\r\nFHqcOlyAZjqY2zA6eg86OjSBkzqDLU86MIg5Oh7CKTqIkEA6M1x3OkfmjDpcPkA6I4+GOk1D2Tof\r\ni+Y6rQgUOjh5Hjpg44Q6tZuMOgea1TpBujk6nbgROhimpDpIaDk6LAcpOmhw5zoShcQ6DZBNOicf\r\nuTrH+l46/55OOmz8KDr2y5M6VV38Oj27RzrjRdw6EH55Ok75YzqlJ3g6ccBCOr4rijpcSAU64mdP\r\nOsLIiDpMev069HDcOry3LDpHHRQ61T9VOkQzVjov6C06BQdiOq46eDoTygY65HZcOh0B8DrfK1A6\r\nfBrXOqAoezquSYU6mrJGOjy6iTplWZI6QFmOOkLXhjrSURo7uXtKOjjiyzoXpN06xNQ+OtGYXDqw\r\ncRA6mBYjOjcrPDoFeS06UgGhOpJACjo6/Cw6UktPOlfSjzrC0Wo6BemQOrwyhTrHClk6PR9kOspd\r\nyDroFu05G9oEO/qR4TnSXpY6nzwTO74fbzrOxaE6Gvo7OpD3GTq30yQ7gzyROgAPVDo2VZE6IvJ2\r\nOmzKgzp6o5A6N6u6OjXurjptsos6KeZqOuE+YTrCNdQ6jqBhOjRlnDpGb7U6oTgiOn+UQDqA1G06\r\nvm7iOhYogjqJd4M6PQyHOtuF3zqHYX065s4gOkB5ZjoIIj46UlKCOgNmsTpJU8I65CJbOiHZJTtk\r\n3dw6kGWAOgUNnjr/3886pmUlO3kRPzoi7jo6eFyOOmuOrjpN8m46bgN4OkFtTDpRKKo6okRHOuAk\r\nADu1vOs6qQZYOv8tdzoIQhY60vzSOjA8YTqxBIE6cha2OrtorDrQyrk6uromOtNUTzpQ6HE6VimO\r\nOipZOzqt6QE6GgCvOvBghjqhXXA6qDHXOiGqljowt5c6DjC2Oto1TDqGGvU6foAAOx45jTrbj3w6\r\nyvSROriEwTpsV6E6jmekOhVonDoUF7g6FUVrOhw+QDpNAW06yaZBOqTwmzqOUXg6+RuPOaM4UTom\r\n2yQ7ym2fOmaPfjpWxmE6jgifOnX7SDr+/Hc6hicCO/7oIzoxLIM69oI8OvG0BDspvVc6BcCBOgd7\r\noTqrYbY6CyEjOpR7kTpJrZI6K9sHOp5W8Doi5wg6AQ43OtsmKjoHrTw6cW+YOmFNNTpf61E69j+t\r\nOjRUkzpUsl46vVgYOxECOjqLRKE6qq8mOlTjoTpDZDE6X/BEOrgBrzrfZlw6arI/OsB5XzpIMGo6\r\nN1gDOpR2dDqJqVk6SSXVOh+RuzrP4x06Nmu9OjoQnzo1PFg6iKB5OpFGgToerjE6bOibOgHngDp1\r\ncCw6qjVeOl5oKjqxANU64yUkO54ebjrgots6WiBqOmA5CTtVy2I6NLVpOqUcPTp6VmE6lAKOOswy\r\nZTpgrqM6+smhOogNZTrXz0w6cOFbOvjPVDohKYY6Xhi2OjIHqjoWUTk65B8WOgjR6zr0OVU6Qx3C\r\nOsCY7TrZtoQ6/BifOtQUODoH9S47o7+iOmoIsTpPQGc6o8UaOhkNLzpYGEY6zpxUOtMqOzq4fjM6\r\nyQd/OhIULjo5dLU6EJRzOr7GpzrfxcA6jjZnOhiRLTrRb5A6AsMvOgfqrjr5tKM6J/+TOgpnrDrU\r\nyaM6FJGMOrRMLTqT09o5nJeAOtzLqzoYTo06MXY9OiTzkzrEDZ8621bZOsANoDqXxpk6Tm+YOl7g\r\nRzq1uVM6or83OljUWjr+pGM6+GEGO7EekzqCgYI6V6VBOv93fzrIWI86Vp1fOgu1MzrCvE06m957\r\nOvPRyTrJLds6X0VFOmh+HztwNDc6BD2fOi8uXzpI9pQ6Q0/bOmQAOzqAlX067Kd1OrLItzpJDHY6\r\n3K6HOox0pDpQf1g6H9TMOiQdTDorYsw6L+XQOkiXizo+kT46VamGOpBWWToVaz06CiFMOtYHrjrQ\r\nvco6hpqhOglKHjrIEZQ69PKIOmGDgzrB/ok6xzU5OnrhwTr9nao6QGyoOjJwSzrmdJY6DuuPOnZ7\r\nJTrwEC46wHwvOjfSKjraS0s6WsNpOpPhaDoMkZk6J14hOll9QzqFhOU5T5xpOoFgNToD4NQ6V4ab\r\nOkAMRzr2Kjc65z6SOoqkrDraM+Y6is1NOq7syDoa7C46G7OOOi3MBjrQVFU6wC3FOoU+pjphG2k6\r\n05sqOrR/iTo4/W06oE4UOny+3DohTZ46v4GKOiWnXDoNTrQ6BiBIOkiqQTpA35o6AicTOr40MTpG\r\neKU6xU+iOuPv3jr7Ago6Rhs4OlJ+IjpG2xU76QIUOkYyOzrXGqY6tg5HOjB4OzryjIM6gy31OjfX\r\nZDptx206tG2BOqUHXjpXkFM6bNRuOkF2kzq/EM05RhuZOuhiGzpBhj06JTiJOgAjjTr384M6O6W9\r\nOmqZFzr5UZ06wOxcOn5qUjpajwc6lWw7OpCuzzoGc/I6Q4IKO7LTazpyzJ460/7MOqCZBTqkOjo6\r\nKoGsOmIqfzpDelA6PCKrOs1VQjo4nIE6TsM3OmfqsTpA0qY5iqPkOVU1MToyqgA6hm4jOi8Zrzqd\r\nq5g6K+aDOkNf2zqi/TQ6171fOvZXhzoQjSQ6XSKPOhyXbDp8Kzg6uR2BOvyZUDoIvH463F3mOnrh\r\nwjrHbfY5mk+FOqbEQDqkp2s6O32WOlJw6zrst5o6S+tXOveLFTrMDSg6609WOlJT+jmExbI6Tl6j\r\nOsjUWDqjjdc6lMZ7OgGvWDpGiYg69R6QOgh+PDqSsSo6ZFzUOhpapTr5cTA6mZSTOiNJRzrw2H06\r\ngaOJOnac2jkk0og6/tWPOsjN4jqI6Nk5rfIoOlRgCDoVNFM6g8UsOrjnjjrVH1o69gG+OseiMjpr\r\nlJQ6MNJGOig7CDqfOXw65IaiOhpdoTr8fbU6wRRGOno05Dq+u1w6yCCUOhysEjraKGU6g8RbOgyh\r\nWjr6p5w6zSt5Onw1Pjp0F0g6TPpIOhknSjpCOgM6taovOuYYiDqiZzs6d0J5Og9uyzoGd4E6HlCE\r\nOhpOeDqcdVI6vyF9Oh16GjppV20675XMOhcwLDsmlyY67br2Or7nCzpAeWg6IA8hOqkmiDq8u/k5\r\nUIqSOkwymzqGnIo6YGqEOm1UFTqLq1g6v+J5Oh8G7jqYTmQ6lOwBOlboODpCmUk6G1PLOtGBFjr6\r\n+286Q98FOqUGWzpZvDg6oEFCOmPfQjpVcG86MtpTOsuhGzr0KjM69iJmOjUHiTpx7Sg6cqbyOtF5\r\nJDrf2fA5ByF3Oojr7ToKUGM6KFxTOjbLJDoIYS06oPeZOuB09Tn6iB46fvsYOpnX8Tl14zA6z9dA\r\nOl7SjjpTNj46RvdsOqZpJzq7iG86AjW8OpteQjrSEF86HMNBOq5riDooy3c6fEh0Op5fVTpc7xc6\r\nooWpOQ6AEjr6rcU69J6DOnqKozodsDs65xL8Okj3YTqhnqU6ltu4OhCH2DoRwS86qvWzOrfilDq7\r\ns406sZ2ZOi4G9zm9XJg61aIPOpd9lDpt5yo40+ulOOM9vjizMTI3+Xx1OL0jgTjmpDc4vMLjN/r8\r\nVDdR44A3vHI8ON4GZjgkWa03Xk+5OE7Wzjg6zns4XKRmOcT1lTnHGcU3lPgXNqLbkzeov4I3OgPJ\r\nN1w9ITeENtc2EjUiOAhzqzgOjk44bD0+NoZYXzbaO0k4o9KOOEsLjzgpLhY5rvn2OKgEXTc8omI3\r\n3sL2OGzkxDjTJ2E4eTS1OTDF+jmTUPM4KpFOOINBHznkmgw5lwCwOOfnwzlA9p85pdaOOApxJTi3\r\n88g4OxU1OIbvGzfAh4I3qLEoODGJBDlFDAk5nY9oOfNdUDmyxnk5ZhjCOW7ORTk+k4U46r9jOH5+\r\niznklr05ECuIOAgnBjgeCn04/tVvOSbPhTkMAZk5Fci8OShuVjlP72o5b7P0OMAcFzi2st44+siJ\r\nOYDSgTnsEKk5LS8cORQGDDkeBzk5JrzMOBjGwDhZlLE4qntROP7W5TfiBAI4y+S+OGShDzkFsX04\r\nYn04OW0Xxjlv3E053KR5OYwZyTlN+U05FBMFOQoeRjlCBJk4h3sYOZkAgzmOE8k4F/vjN6NMcTgk\r\nVfs3cMaBOLitbDla4VY5mXcKOLLtHjjvRkM41qhsOBnQLjkV3xw5dXwPOCkM6zeBbS44dDTROJBd\r\niThjGFo4ZetcOUs3sTm9MY44XgtcOXs4lDnSJ/s4xIzpOKEasDklQRI62q44ORgPhjktMZo572jZ\r\nOaUT0DljLZ05Tb6bOSsBsDmt5uw5t9b7OR3DCzrs/cQ5LiDkOWEo7zkr0aQ5YBk/OsEB8jnX5ig6\r\n4zY9Ok5ggTlujz85Y3veOKH+rTmos4A5Ab4vOVK27Tlvpvg5ppoAOWGTqDjRfNE3fxc0OayMwjhn\r\n6V84VwlBOQSt2zgWVaw4Y6vZOBLiwzfstkU4chCmOP2GyzfuScE3l8BHOG6SMjgedXg4Kfw7OOoz\r\nNTgmti05+BhNOT6vPTjvxDU4cJUbOQtqyjisqEA4LJv9N7JIVjhM9OM4iX8tOfpwXTlt9t444SSW\r\nOW9uGTl+TzU4bIg2OWn1Rjk7a7s4VlsAOsG0iThPuYY4eJPYOI1QVzgvsEw57RA+OirUWDiSaoE5\r\nxrZHOYm+JjrWLKI51/XUOVaxLDoGFAU6KUoLOt3RujkUU086OtoDOkj8yDlNdc45d2huOqzrLDrr\r\ntW44WyLJOAbTNjf4bBI3iYhdNlwNwDaA/a02fyyeNnIMUzaOk1c2DBcjNh57ADba7Eo2LG3pNZaK\r\n4DXRd8I1NbnzNZRmcDXd5vE1u8ejNQ3tDTYiMoI1p4OLNXbhQjX4qGE1gNJENUIkkTW9e9E04wi/\r\nNT6dMjUytJM1TlZcNX6cNzWY4rw1JfbtNf6XZDVtJGQ1zLmPNeTacDX3kSE1ageXNRiBbjXzB541\r\nXW9TNVbIpDWthz41wYfvNJSykTUd8481XVYCNaZ3WTXi1Ug1TDsBNVWBGDV4adI0UoCnNb7ZwjX6\r\nqgk1m45SNS7YETViFIQ1ul6eNamcTzUz2xA1Lhb9NOyfJjW4pSc1pjgKNfScZzWq4B81jHK9NCjs\r\nFDXzEBc1lq4MNRKSczUiGhs1RrsmNXIxSDXKWqw10eNrNUCBPDUoP5A1/uRDNehNxjWBID01ys9L\r\nNaq/EDUmIFw1pbn7NDV5KTU/H/Y0ktcgNTjPXjXJ5R010kctNQpjEDXdq5g1AADyNA==",
                            "noiseTrainingType" : "default"
                          }
                        }
                    ],
                    "start" : 12615,
                    "duration" : 1070,
                    "mediaStart" : 14,
                    "mediaDuration" : 1070,
                    "scalar" : 1,
                    "metadata" : {
                      "WinSubProjectDisplayName" : "",
                      "clipSpeedAttribute" : false
                    },
                    "animationTracks" : {

                    }
                  },
                  {
                    "id" : 103,
                    "_type" : "AMFile",
                    "src" : 13,
                    "trackNumber" : 1,
                    "attributes" : {
                      "ident" : "Aufn. 07-14-19_028",
                      "sampleRate" : 44100,
                      "bitDepth" : 16,
                      "gain" : 1.0,
                      "mixToMono" : true
                    },
                      "channelNumber" : "0,1",
                    "effects" : [
                        {
                          "effectName" : "NoiseReduction",
                          "category" : "categoryAudioEffects",
                          "parameters" : {
                            "denoiserAmount" : 20.0,
                            "denoiserThreshold" : 0.0,
                            "noiseProfile" : "/65VQYLWUj+s3Ys+3VaNPd+6Dz0jydc83G2WPCKj3TvRiO47RrLtO2j7kDvOf7I7JzmBO4Dmezvm\r\nQbQ6unfZOnemvTowNgM7ZtLpOvGb/TodboU6Hp1AOvo7TTq2vII6L09NOo/yLDpVbCY625+NObbP\r\nVzqItg06nj5POYxgJjoJyjo6NdO+OX8EHTrgxJg5ie1POsjLfzrVPrI5atATOpSqeznWijA5uHqg\r\nOZz3aTmCMPE5NimPOcH+0jntxYY5siyyOa3svjlOBJg5HHXHOV3VLDnphHk543ArOViyEjnfgzY6\r\nGmgBOc4RbDnxHWk5QG/4OB3PnjmRom45ffZBOVZvjDl8ouQ4N4EeOfayBTl6/Ds5U+DQONnrqTl4\r\nU1E5E74dOT4IOjmBvYE54mYlOd2sBjntew45gFBWOZQNQDm6kw85eu5BObIFEzmCBkU55Z4QOT6x\r\nGjmDNSw5VtImOTbXYjnvchQ5RDpCOdRKRjnSii05pO0JOUWBKjmNCdY4YlcoOX+GKTkIqV85avwE\r\nOUCqtThyLKc4n6HcOPxTrzg0OaA59PcXObJQvzi3ObA4xsPOOMzGWzidPZo4oe69OJUhsjg7zdM4\r\nVyknOfo8nTiShco4G2cmOVUjmzhUz+Y46vESOYyhTzgB56U40UAXOFmchjhJtxY4PB0aODX0Rjh5\r\nLUc4kntDODoQWDjm1ms4kDdsOHtiCDiEjYI4TY8QOPRteTjAGEM4WAnlONXlWjiBNl84cvf3N4Tw\r\nxTgpJ1I4o64YOEA8LjiIVE04pSk0OONjDTjoPTY4LFW6OBkDBDiywF84/GyVOHobbDjt3VY4c3ik\r\nOI4LGTgtQiI4Blk0OAZLLTgrTqw33OAGOGxWxTe6NcA3BG3HN2qi3DdfgOQ3hIBjOPFE/DfYp683\r\nbU8IONUE3Dc5I4Y3qFzPN+7CpjfMrmk4JGeaN3VkZjfyzFE3iDSjN9gyBTjhzQQ3GYpMN8pn9Dc/\r\nT6Q3FMssOEGprjdmiZE37wGZN7KH1zcDN5w3wdGsNz3nhzeBD9Y3vAohN2SbpTeP54o3ldiDN5YN\r\nYDfCk3E3zEdIN+hk0DfnkiY3BiZoN2BgZTfQBo43w3XKN+SZjzfqe4M3lJieN3m44jdHVoo3FmiE\r\nN3NDJzjZP7s3P7uUN29KlzejvbE3ALO9N5jVnjdTUVE3J5dsNw7FgDcP1yY3Pm0fN2sKojcQnpQ3\r\n1vA+NwqD3jaKPZo30+JjNydPfjeajp43Kiz/NgIhZTfBDYA3WHITN2IQ2TZDUgE3RAIwN/japDfB\r\nx183aqjDNlIpBDinHUE3p7dhN6b5RDf6eG43JLYKN+n+MTd27603NA4PNwL5FDed4WQ3foJMN/6K\r\nOjfGz0Y3VWxTN2aYUjcTgQM3kkosNzMPHDfLNOI2oLRRN/KVvzama8c2jIxbNzvTADemOZ435po+\r\nN2IJLDcHZAU30TM3N+RfzzZ454c3DhQdN5YLfDfpCQw4pIduN8WxPzfEapA31z5KN47tQTfrhhU3\r\nvqIAN9GuOTfQoi83lSIINxGewDZnuUc3V7W1NsiNATebBq42+JRiNzztBzc3alU3jiLyNsakMTfT\r\nLLo2hZMaN+eK0DYkrQc3Zx6dNmXXWjcow+o2fekINw+mlDbgoow37g/ONhvhqzZOpGU3sTesNm4G\r\n0DaaY5o2+DKvNrBK1jYzThc3HXHoNigrcjYQrhs36HbdNgAixzZChhY3JzQPN6svtjZkXS83TJGf\r\nNhCCoTas/wI32ZKuNtjqrjZbZsI2xBLJNgAZyzYMOeE2MLL6NvvhpDZgtM02MK4VN4D4UjZxAKo2\r\nJXqvNqrxDjdY9HA3UoDENkHZNjejE/g2zGfuNua6+jZIpG02JPqhNqguvjbI0R83BmkPN6RTzjag\r\n7802ZKxyNk6dBTdmsGI2LhG9NuR5yzYDe6c2UO8MNzgqiDY2kj42J5ALN0fC0DZED/s2qm0TN5hn\r\nmjb/DwM3VK0vN8fegDZjP3c20iDDNugtijYewEk3IXGkNneyojZRexU35t5GNu1gkTaYKd82j5IZ\r\nNz2waDZz5mE2HziFNrcdmje9MXs2J/v0NlUQkDY1cPQ2MBhzNhBh9DbKTMA2Lg2tNmLOnDZTPhw2\r\n0MViNghO+zbFio82EE8GNwoQ3DZEpL82qDbJNjZ0ujZ9RUw2h0m3NjrYSjYc9Y82dtGcNoVXEDdX\r\nmEw2BTeTNnJ99DYUOog2hbZzNk4EczZgeBw2qSuvNmHA1zbhYU03UN6wNvOxUDakkoY29DA1Nsgw\r\najZe9As38guMNhKHpDblLYA26gpWNqkTYzbE+lc2TLAZN4GJfzYyyl02vKF4NsZJLTYIHD82sqF1\r\nNozqWTZo8uk2sl0nNw5pVzfrzTA3GUsQN5qj3DdxE5Y34NBEN0gvtTaTcx43TpabNsSITjZu11s3\r\nTXqDNh3CfzZSk4w2LzN4Nu5mCzaafqA2fH7fNooN7zbk15U2Kx/nNlmiRzbwRjU2maSfNnTiazZ6\r\nw642dha0NhqRJTbR9iw25N9gNsk+lTZ6ceY2DoSNNnoHDzcqE1k2BImmNb+pVDa1+Mw2Ph2pNsR5\r\ngDatrBA2gyPRNR8JpDYYojM2Tc56NryDAjf+ArA2gNnKNiPNBjcTkWE2vMGkNuZ73TUWqbc2X6aW\r\nNmMECzbweqI2zkEKNl4xkjZjdaU2ZAkENqttzjXm+oI1COwmNqgCkjVMYuY1dJIWNsIg1zUAkBg2\r\nfNi6NR+A2jZOLa8253t9NtIaizbSuQU2B8FQNr+I/jUWe182NK8MNjul8TXnnSA2kt63NWytKzZv\r\nAEc2+b0/NqCe7DWoXzU2WM+qNeJf6DXZ4Ks1O8nSNXA0Oza1lCA2uRsvNsHqGja3Zwg2oeMiNgLq\r\nrDWCGKU1iPeXNXnGxjWsYNI1vlMrNkKn3zWF1Ac21M3WNQc5yTWyQM41BKKpNQzU9zX0SL01ip7O\r\nNWHJ5zX8au01z2AxNYl1WzUyywk2ooMwNmSp3TWg7R42c6qTNXVC2zUM9iw2m3KZNTVojzWNIBA2\r\noueTNWTZpzU4pLs183nvNShGozX0Yuo1/VoFNlEo0DXbHko1EkIKNjZrKjbtln81pB74NXyAlDU0\r\naNE1PnwPNo7lsjWumKs1S1gdNnRzvDXnor41qbgCNp1CIjamKKo1SNM0NmLbAjYYFcc15YfBNdag\r\nvDU7Q8U1GsWPNYY1bDUyOQY20k7TNYNCyjU+Pn01Iyj1NWJ3AzbyOQY2VM2RNf0WljUm/sk1dvmw\r\nNQUbSTWPCH41TJy4NRAoEjZ9xIM1vcTENWRVyDU24xU27jXBNXVzKjZu7o41700iNoXiuzWAjvw1\r\n8r6sNSj3IzVw37Q1fuoUNshgwTX+Wg82CvyTNeslvzXP6Rs2guADNjdFQjV0hgI2PiMMNcRTvzUG\r\n7Yo2rVGUNmTCnDblk642vptANrNwUTcGEQ43NbJuNgCMozaxbvQ2QmeNNvAiJDdNcKk2xxyLNqG+\r\nlDaviRU2xDo6NgBJYjbY/dA2CDQbN/FOiTb06YQ2e+0LN5QNvzYsmPU2lwXONnT5aTf09SE3YDSD\r\nNiZjkDa+wzw3HslsNlA1Yjac74Q2B/yJNmv1FjY2vso1sNzKNl5OAjf+G8026h87NiSePDcG+lY3\r\ng3qCNmOCLzcSC+k2Is9EN0/psDbBg/A1iGTZNax/2DUm/os1iF8sNjIISzbmZD43sPjxNm1fQTcR\r\nSEI3wvE1NpwV9jXJBgU2OucdNqWMCzbsmAM2gpOTNY4WtzVt4s01rtzoNa6a3DWCBdI1YgyJNSsp\r\nEzaqeHc17G8rNd5w7zVjyRE2M3aJNRhsvjX/qsY1PsjZNcYeqDV/6Ws1AIWZNVoQTTZdTtU1mE2a\r\nNeKfczVlgCA27qbdNUy7jTX1QZA1il6GNThpmzWnyHE1z2miNf1bhjYIw1427jjDNo/eITbUS8Q2\r\nL+qYN7xLgjfs0JY2OxHnN5gHgzfXRQI3nH+fNgoQCjeYq1Q3Gn/hN4JjDjgbisc36cmONgCkdzZV\r\nEWw27BGFNmzBcjYB2NI2P4seNyg3YTdMNU03ogLSN16lOTf253k3+pPUNzYV7TeaGps3y45BOFF+\r\nnji0KCQ4uOCWNgG4XTiNcBw5fOUzOdB3rjeW6mA3GhTUOIhoZDgUWYM2pp54NjDWHDeoM4g3Q3TI\r\nOMxKqzjkMkY3RgCQNzQgHzisNjA58GMgOYAX0zZMFNw4j/ZMORNZ+TiFeA84ynK0OOllhjhxo043\r\nAyKtNkFpCDgxiKo4T2GkOARdDDj8ZuY4HhLyOKtp7DdIsPs3eqZfOBVbgjiCkjA4jesNN25vSzlU\r\nMDs5lFM1OPmbazaFzU03faijN6xrYDf2TFQ4wn0DOVfpSjiOcPc3GlmMNpYuYzfrxcM4WH7zOHld\r\nHjiu+PE1zuZPNwkVCDgT2Rg4FS0FOC+njjfWA7g2mU7oNhW6xDapUJc3FhnjN17bgze/zvU2fu9B\r\nNnUqrTeF3LI3UB9+N5rzATgZTG04Xt7eN+5kzTaaIbc1qTqIN/oXnji+R+M45NK/NybmqzckwFg5\r\nEi4KORTuxzdpkvc3TQ3IN4TCdjj5pRY3aXuaN/DsXzhQp8s3kOe0NRVzBjZVaf81guoONptG/jXv\r\nq3s2iYbQNpyc2zZeR501IFSRNYdJZTVk7wA2KYEMNjxBODbtPoQ2EAAFNjOEjjVewTg1Lb7DNUT9\r\nrDVbHNs1shhlNYPHWjUWaNU1F8VvNsSUwTUont41Ci4qNdWesjWWgmw2ixRGNpDzjzY0zHo2kumi\r\nNnCwUzbWbqI1T/WTNftRuDUgTLE2O+9TN/v/pTb1lmU2oPXoNjgVqTaYdsA1MkKINeojnDUcho41\r\n8Cn1NkrvhTZFOJc1OcbANbwT4DU3p6M2SKDdNiPILDcIQyo3dPcfNjN2PDbMQLQ2FhmiNkpeKzaC\r\ngTA2DAytNV5f6TUkEFI1SwJNNZQorTW117E16MnWNZlbCTX5Jqs19tGJNVT0bTVAxFU1AnSCNUYx\r\n5TWktJo1oKKhNf23dTWSCuk1oAaLNYAvezX0Kao1Ce18NQ0CcjX6vY01RGyRNYEAzDXH3Xo1bJmR\r\nNeJIgjXsN5E1bBZNNeRMYzX6PqQ1Oz/VNRYBjDWajMk1DKpfNSaHlDUZk7w1X6skNYNFITUERqw1\r\nK5+SNY4ngTU8pFw1bkiUNc2o5TWG3b81zjZFNQXpHzb0x/g0o3GmNYUhuDW+d701cxFnNS1DlDW+\r\n7Lw1ZIazNc2wDDZ74Iw1hWOPNXKnQjV18Og1Pe56NbNHNzU8NgQ27kXYNXYVvTU1yjs16cCyNUZU\r\ntzXXQ5Q1rDqWNYyzhjX2YbQ1vpkmNoedgTXyOgc1ng27NcNvFDWMmn01QXgSNlz/rzUMdjg1z7Ra\r\nNTJ2ZTU5hnc1cBvINVqJgTWkpqA1bgxbNQ1EgzUpsyM1TrCYNa4VFDVpuqA11uiNNQAgqzUDLaI9\r\nfBzwOTZ70DpEm+46Aj9+OviegDoezGM6OIs3Oi03VDq4KLI69uBiOnSrRDqAc506yN/zOo3RbzqQ\r\npSU6Ez8+Os7yFjpBosA6NlsNO1Grozpc6E46NGKeOk+0wzrMMbA66GEkOm1Q2joW7JY6ROTiOgyk\r\nDzrsRpI6PX39Ollb6Dqc/jY6CciJOj1vYjrXvvg6JFshOpbXDTpA+7k6R5k8Or5ZrDrERb86oc+R\r\nOuJ1yDpAbbI6PBGOOp/8QDo09RA6MiHHOg4PuTo9sUo68vNCOs5L+zkYCUU6OzfHOp4YZjqlWyc6\r\nwpcxOtUMZDqR5II6cYNzOj3HzTqmPDk6ObpvOtALsTrkB6I6o2WgOvHuKjrh3Dc6bpsWOwSi8Tq2\r\nzrk6qr+3OqKcYjr8I/c58EX4OiqQVTqUVyg65HI/OqfHgDqsi9k6WNyqOg2Lsjp0K206oj+ZOnHc\r\nODugtIQ6ngBfOno44jpwodM6ev19OibkbDrsbNY6Gzy3OunGiTpzr0o6wFeWOmwSSzqwl9c6uld4\r\nOjluRjrkJpU6gMJJOjbhQzoLzlE68JIfO/F8FTuK97g6Q5yPOpSkijqT+Js6vPqdOuJvTTqK+DU6\r\nyeWpOac1dDozQaI6Wh+dOlW2QDqsGqU6wzpGOoTqTjr9QG463lT3OlLAgTpW+Dg6zq1ROpGTozqQ\r\nT5E67aKMOn5imjqgyUQ6QfBFOquFoTqXhmw6jHaWOobQgTrbr5k65SWUOoS6hjr3sWg6KS1eOq4i\r\nWDqhuZ469SuaOnljgTqYuKw6HTtdO9ICOTpv0Y065U4FOpU/RTreg406ClBfOqyfCzodB5Y6dzir\r\nOjE3tzrQPQQ6bNgsOsoHeTrsyc86+vssOq2VeDpyZTw6UKwUOoRzMzrjyMc6kwEtOpFu8zoseV86\r\ndLdnOoMHITp/gsA6TLhmOpyOoTof/sE6l6ZBOk1NZTrQs4A6fMYhOkefRDpCPug6BqQJOjY0HDtp\r\nW5M6mNBbOo7Pjjpj0a46WWGNOoSgHToZNjU6+vsiOmFimDqF5ZE6a2SHOpuxCjs9BTY6ZoXoOtwm\r\nKjol5as6WolBOoyqOztMBsM6scntOegvsjqSuJc6oYJLOm+0hDrGizw61D/DOnZxTzpHpYg6eRKA\r\nOihOFzpgwYo6i+1iOg7GJDqkroo6nqGTOvopmzoc/eU6PZW4Oo6jPzoMSJk6Qy2ROo14pzrZ+pI6\r\nB4SCOr/B/jrFhYI6NGM+OpVg3zmcsKk6EYWZOtMD6Tq0gHo6C2OVOi7V2DqOcVQ6iMegOnTNpToW\r\nSeM6A4MUOrDTlToTU6Y6JlyGOkEUADv4NYw6FpOzOoPInToEukU64udjOvI20zkEsGk61iKiOjQp\r\nPTr3LJI6yFINOj5iqDqX0Ko6BlTBOtsPnzrwcZw66YdJOg2lKjp0Pus6G9SWOok6kTrJdYg6EB6E\r\nOgg2QDpTiqw6gUy5OnOImzouwDw6WmshOjJgRDqoSyI62SNIOtUocDp8WmA6SvtiOgHqzzrEMpM6\r\nNqBSOsj/Mjro+g06qAeEOnqwqzrw8mI6sUhOOrCIRDpHvWM6liZLOgK4zzpA/mw64K9tOi7Yozra\r\nfJA6JHG7OvuIjDpR/nM6MoFvOj6jADrmmpo69T9uOlrrGTuoEI46qN2iOkxZvTqYLx862Il1OlxW\r\nCToIpKA6YEKiOmysAjtLKUI6BHeIOuwb2jpH5jw7fTkcO8QdLztMZyU6NWe/OhV1YjoLD9c6EJEm\r\nOk6tODo69VM6PmzIOrsCZjpRd1k6jQaCOuRyhzonupI604aHOgW/WTrEJZQ6CE9/OjHjeDqeeKM6\r\nNkyQOsm+hTpCsLE64pNOOjONjDolKEU6xuaVOk/YMzpGiXU6kveJOgTlcjrxkrs6vq6uOp7aGzow\r\nx9Y6puExOinkjzoNANQ6CJV2OrmgwjqED586dPoPOm66hDqqHog6V0aeOisvjDpJ/4U6mo6qOilQ\r\npzp+GLM61dopOozGkDpXycA6xkU2OuJJbDrJBx46JGzNOQ57NDpj9Lc67/iSOtih8TppmH46rtAa\r\nOoLX7Dq3dlI6tTuXOodxVzqRdZ06kD48Og1XVjpgW0o6mg5NOmcCmDrEJ2U6MpicOiIUoTp52VQ6\r\nBOtOOgzSRjrvhyU6QYTlOuub0jouUFQ6jNCuOjULZjr4XeI6rH/WOiF9pjodN006QrkSOsaZEDpm\r\ni6o614VhOsJDhDpxjBQ6AjKIOiT2qTpYBW464+dSOq5YnTpyCG06CTiBOiIj1zpCFbY6jWgsOzTQ\r\ngDobdH46nH/kOvDhGDpyass67yKBOvqQrDr8GW46JpQYOl+7Qzpcvqo6JflFOpTEWDrukFY6mr2a\r\nOkKRWzpIWIc6Bbs6OmpQKjoZMfc5AAOaOso5gzqutWM6ke+MOlXMoTp8QGg6XGs2OsYLpjrIEI86\r\nmr9jOlZ4GTo4/y06zk51OsQzcjouX346rqy4Osb81znzqmw63J11OuDpgDqrcr86fj87OpRDMTp2\r\n7oA6WPvROuQEMTpIy7M6qdbTOoooujoE83o6fzBYOhiNyzo/9DY6Gr0+Og0trDpTu3w6479xOlMJ\r\ntjr63r86huYlOgRnjDrahGE6RbOEOi1hbzpY5Uo6XHMvOuBXRjrWQkc6hY3COmU34jpX6B06Qh6D\r\nOmUkRzp2lIs61vWtOqaDYDrauks6ynKwOqnFhTpvKDs6Suk0OuaFmTq8Qr46sqa4OlDfUTrSHFs6\r\nxtNPOhOqszp4q3k6wyCnOhMlBjohtpU6fOiHOueqNDoEiBU6z25pOtLDPju7v186DdxLOnYamDrq\r\n03g6+8Y0Oh/kYTrnK4Q6R68/OgU8cToSyXs6hQZyOs9xSTr/I0o6gGQkOuxwjjoK52A6fkKNOqxG\r\nLzq5xaY6i0VOOgN+/zrHvsk6nSkoOlnQpDqa0XE6YG6QOuhHGDpflmg6ZXKIOuWZLTocSZ86SDho\r\nOpeZYzoD2Oc6A6CtOvapKzoUY786wOnUOfsFgDoKUns6cl6JOgvvJzr5T5g6kQiXOt9sgTqkECQ6\r\nn7KpOr1ytzpmJAo76EKCOst7fzr+L446yljjOg3OlzpyCIo6+AGIOjxlkTpIkoo6nHCPOrr7QDoe\r\nfiI6qrCdOo6JtzrcXrg6csUTOuypLjrxkz86+EtUOmIGczq06l06TT0pOnePkzrCUX06/EIYOq3g\r\nUDoGF4M6LgTkOlDFUToKnXk6kKQyOvI/LTpFYoU6sHRMOvcaMDp4mis6A8CgOi0sYDrk7QQ6olbW\r\nOrf1IjqSgTQ6XIlROo4gTzpfXZE6xr0HOzmhazrV8vY6PPJdOuNUMTp9YwU6h1pJOhRorToMnZE6\r\nnmWDOg18ITpR2y86Tt5tOmt8tzr5ro86gCFZOv1+mjpVqgg6tomdOoqsHzp6phM7mVo3Oq69OTqf\r\nWXo6WjSFOkRtGjqXBUo6Pl6QOiyjjzoG0v85/w2rOl/u7TpokSE6pUqhOkYP0Drs4745lIdbOsSw\r\nZDrEeAs6SDNLOkigvjo0Sys6sNieOl9lizrqUAc7RfXVOsz/jzoI9po6i0xwOtKvfjoG0nQ62hXi\r\nOjmiGjpF3JU6QzTtOj7sRjpDTwU6pbiaOkF0kDoJajE6ZCKeOpx3DTuPHTQ6M3DsOZjzETqw3406\r\nEsshOojtYzrXd2E6pS9lOrDHNDqeTz46XomGOkkNlzo2Gkk6iLavOuq7OTpZH486dz9cOqTyozrd\r\nn6I6toVsOmaKezqUAWE66D33Osuz6DnFDro4HVWXNxI4QzdTgwk3ppgDNw75vTYvrZE2+KxiNmRr\r\nhTYEQKA2j3tWNgBAjja9y4U24HGTNojgPTamgYw2/qsWNkHyUDZgQPw1SxQwNruaUjbTch82wM9G\r\nNq7zOTbq5is2gBo9Nsx2Jzb0ESc2lI8GNswRMjZqGgk2/oacOBHngjnqbL05Ec+7OUrHNzmbEhM5\r\nhsLBOc7//jnbUbo5dvTlOGadgzhM7Qg64HBgOlItwDk+Ga85Dc8wOpR4OjoEXhk5xJDnOSdgdTqO\r\njxw6LOBmOae2rjmxmfA5gvZ3OYPquDmjv405bltqObBExzmky1A5MGaDObVKMDku9Ok5JbOCOlZ4\r\nVDqcTmA5byw2ORLeijnugzw5hOeKOMS5Jji1r7M4NhpoOBzcKTat6Fg54fE1OazHPzrDNIQ632iJ\r\nOcT+lzjJo5M47FY/OM6qQjkg+ZM528IHORZF1Ti2nWA5VWSiOayahjm7uYE4/ml5OFBQfTnglw85\r\nmPwMOEoBrDmE0uw5X0PBOPZz9jiYEcc5iImGOXjptjl0wXQ6V/vmOQVhEznUaKU5bDHGOXFSOzn0\r\nlek4RjIwOcDonDZ09J04CFXIOEsNjzhqNx05qAWOOVxF+TmhdGg58oW9OOvH8zgIidc4A5UuOAdj\r\nsjgXNpU4jXP/OEp1jzmEPzA5aqbLNzzl6Tahqwk3vfUKN21ikjec+9g3PPKRNySw4jb1hYM2p6vJ\r\nN/5dtzdyzEk3HmgMOM0UODi6Grs3dP8WN6gIxjWavjc399iMOCez2TjJ8/43AlS/N0rHaDmdTPc4\r\npAHKN6f+CThPVvA3KD5TOJ2U/TZZrbk39tlYOKNJwTcnM0s5q38LOuY20jmKYPI38G8iOXbUVzo/\r\ndh06u/AhORCMYzki6SM5CHBbOSI89zmYVPM56yCkOfqXIDn8Nts3DHmhN2RERjV6PIY1DRCvOSpn\r\nuTnZhbs0NlanN7QQ4TdMPXA3O4/UOLYZujhI2+k33l8DNiXTbjjuGQU5bhEYOUZ3gTiolSw4nqgV\r\nOaUBSTnCDrs41o6RNY41cDicvOU4chgTOUXv0Tgkd4U5KydaOWBL1jiAYyc5b1gaOk6gnDn0DRg6\r\nBOM8Op3sNTkrGC45KvYJOfqc7Dg2E2s4PpMNOukYGTpm28U46eQgNsyvujkBk6E5yHT4OAHgCTrF\r\nC7s5fJu6OGiFHDVOMTo1qxMHNUgrNzWmWfA0JKO9NKnhAzXhu/w0cNYuNXj9GDWmfuw0CgETNcxa\r\n9DSln+80y3wWNYJHrjQhSCw1+xYoNSdIOjVOrQU1UPw5NbqXKjWC3Qc1OypwNcRCETVl0UY1+95L\r\nNQbZWDU1RDU15X0WNSEH9jS+PTk1cI6BNTycZTWay9U0VZQBNWraxDTQKkc1ETwpNb26GTWtFzA1\r\nUQDsNAd49DQHEAI1XIASNdQfSzVMlb00F14/NSxz3jTr9sw0m8r2NOkXFzXEReI0Cu0aNYx7nzTM\r\nZA41ov8MNedGCDVVu6Y00IRLNQEYxDRhDjs1SZNTNbRaXjXMU7w0d2SZNGWOADWU7u003zspNVGE\r\nWTXUzZY0nirRNB3ihzXgmf00SlM6NZfsbzUfeAU1bsgBNf7JwjTDTPY0BjUqNVdGlTSdmCs1BCwX\r\nNUS1mjW2meg1OAuSNdYPIDXw9kg1hc0gNVZfgDXB8dE0d9mYNTx+MTWACRA1AACANQ==",
                            "noiseTrainingType" : "default"
                          }
                        }
                    ],
                    "start" : 13685,
                    "duration" : 1236,
                    "mediaStart" : 48,
                    "mediaDuration" : 1236,
                    "scalar" : 1,
                    "metadata" : {
                      "WinSubProjectDisplayName" : "",
                      "clipSpeedAttribute" : false
                    },
                    "animationTracks" : {

                    }
                  },
                  {
                    "id" : 104,
                    "_type" : "AMFile",
                    "src" : 14,
                    "trackNumber" : 1,
                    "attributes" : {
                      "ident" : "Aufn. 07-14-19_029",
                      "sampleRate" : 44100,
                      "bitDepth" : 16,
                      "gain" : 1.0,
                      "mixToMono" : true
                    },
                      "channelNumber" : "0,1",
                    "effects" : [
                        {
                          "effectName" : "NoiseReduction",
                          "category" : "categoryAudioEffects",
                          "parameters" : {
                            "denoiserAmount" : 20.0,
                            "denoiserThreshold" : 0.0,
                            "noiseProfile" : "LIDPQMlGTj9nihE/F2QtPveXQz0vWrQ8cDCoPO4SSDxnjwg8o5QePKIDpDuwnMQ7H1QSPEqtdTt9\r\np1U8Rp8cPIKbuzzvOrM8SFBsPCwqpDwoItI7DjYHPHQ9/jumHHw7IUAwO9tyoTvOxVU6Qr+pOyW5\r\ntztJGMA7A1KsOkMUsDpSBYQ6IBkbOunFwDnNP6464wtOOkbhQzrdDpI6NeXTOuWtMDo2xIQ7ddyW\r\nOi1GJDvah206+XALOkPRYjpwnWI6F1vDOeT4Njrwdr06vLEBOtwIrzmYujA6qr0hOsrH3zkh85A6\r\nm8t0OuaVsTr0+mM625KHOqkFNTpu4fA5MkKBOiadPzqVKNE5hoMqOu6E5zrz15U6oJ0RO8a2IjrI\r\nrOw5FjBOOjL0kTnXhsE5E5CQOhMGnDsIObQ74kCTO/5N6zodWU47N13OOrcegzslI1o7gnwbPCRf\r\nBTzV2gg8ax6oO0QCKjtMQEI7UECxOohCmTrPG0E6MqNaOlymMjoeZF06wxqoOc4afjpN9485FpAL\r\nOipJfjnjaRA6nvV+Ol6usjoZWMI5sd1IOsqgIzn47EQ5AtL+OK2u0TjObCY5kd8mOb5o1zkybkw5\r\nTJpLOR6AGjklIqs5SpgIOfQynjk1TTM4BqXQOURMHDl0vt85cm0eOT4c/DmkpAg5uzChOekM5Tii\r\nQ5057vVFOP14Azq3VRo4HEbSOQLPYDn4rXI5OJDwODydijm1nqA4XsXNOJMgPDmMf4I4EGAKOaM2\r\nRjn3CpM4qENVOfaFvDkjb9E4Oq+VOMYYmDkwMJc59s3EOMMMoDlrZdQ4Fob+OOwvoDggU4s4AD0b\r\nONl+JjlGo8I4OekIODC4aTjxyAE5CMmFOGXrdjkqkrQ4wAk+OXXiOzjh6oc5dRiAOX+CHznsliU5\r\n9EhDOSpI8Thcdr45tVJWOdFBrTld/oA6II0DOmQBhzm5y8U4uPNKOU1DEjiD0hI5FeU/OL4i9Te9\r\nf+A3hj1sOIWgEzjuKw45uMHkN+HPuDkc4OU3zNQPOghTeDnJcsg5T3O3OKp2FzrCWFc5WBKUOoab\r\npjnlIB06i5ETOd25DjpQrHM5AD/4OS1kHjm6wok5tNmGOFrYJjn0GRc4yifnOSYoyjkIZIw5uCL3\r\nOF43vDlfVKI5I8oeOhNa8zl+mek5gSOIOUqOBTr0VH851Et9OSgzMTp1i4E5UKveOb2HxzmEKuY5\r\nE38wOWuA/DkHIaw5xmiHObHi1TivGoc5oSJDORByIzrzIp450OMLOoCq0DngDkU6nczEOd7Iqjls\r\nV5E5Z5CTOdKHxDmwb4w57lCbOWDyQDn6NlM57EcjOeneSjksDEc4bGpvOJQ6mzelaD04Mi76N2jj\r\nLjhCTzI45BYcOJdqejeUMIM4OXeSONdUJzijMZY3NEC5N5TvtTfTet43XYKxOOjsgzjQAKI3rU4J\r\nOLrGADgpuII3UexeOL62TDhuMj04qbYJOALAtDhsO+s37AaxOLpfozjX28c4q6aSOIS2izjsegk5\r\n5SoQOTXRRjjCGoc407uxOJU8bTjQcmw4cLIkN0K3KjfRZT04s5axNyih2jeR31Q4FpVgOG6qKThx\r\n0ho4a8GBN3mgYzcExRE44ltKN2OscDemO743Oly7NzEMMjirDwQ436CGOEhvpje3IQE4mRI3OAtU\r\n2DdEMeE3TOlPN/L/Nzi0N3w3XaMaONQXTThWNh84rCf/N2IDADjq+2c3fL6tNw0tCjiJ/wo3ipnX\r\nN1mDGDg/Mx44LNGBOMQomDffL7g3NBlvN24bhjcVLI837nuiNwkQZzcd97g30K49N8VrpjeJ06s3\r\n4PMAOF6KgTea76838YajN5SkJjjNT803usOdNzaWWTeiRRQ40i/IN4VzkjdVwD44FpaGNxAf8zeZ\r\ncQo4/+UhOG0SjTgRra03qXnpNlobzzfaP2E3tpHQN2HfYTe4Auc27EUUN2j8nzamUSw3khQfN/1f\r\nIDdsl+g2Z1aKNviW7za2Kfs2SDXjN3X+OTewbxQ3p3UiNxcbLzf6pTc3F8ycNtJT1DbmrQ03/HUL\r\nNztWAzcmdes2IdNHN3AsPzesnwU3R9MVNywPBTfsOhM3W20cNxGHGTfBrtg2qki1Nne8wTYARyM3\r\nNoscN5+13TbrwOA2d6ZIN+o0ZzeXeko3VlRLNjhgtTZmJbQ2sSYbN2yxUTduKhY3bo5CNy7T9jbM\r\nTZc2XlvLNhdajTaSfzw3msnFNnL3iDcUtcI2cnn1NisrrjZsRQo3cxsbN9/fMDdAajQ3AHnYNiH9\r\ngzbIqAw3ELnHNsbssjdyyc02QlcGN/1cTzb8I/o2q9ZENpHhDjeUjjQ3bgDoNnTPcTY6tP82rs2S\r\nNiKIYzc4Y303e9kKN+C+sjaeQ+c2ZHH6Nui2wDYhPLc2fIHqNizGkjZkGtg2hX8eN/FxyDavE602\r\n0rzMNurt6jYv8Is22Pt9NyysFziHhDk32mOnNkLhsDY3Gew2ySLhNuSGCzc/Mr02TiFJNzuAhDco\r\nyMI21jBONzZZGzc5V043bMgbN6msMDcO7Ms2ztY9Ny1XOzeMV3E3BEIDN0gS4jeIve025p+uN0RW\r\nlDcg7Ws3UhCNNy9fnDbqtfE2LMS3N1Wibje8by43IF/ZN7UK0DYNQk03dKuaNtRIkTfs3YA2M0ON\r\nN/t5gzbGYLo3UA6INhdzJDcbqSc2S0hlN0drFzdo7Tk3m3RpNvj5cTfU1tU2txepN58ZRjcAoGs2\r\njIfVNpTWCzeAQGw3Z7KGNiNSEDdojU43FLzINkL8xzb2O+E2yVTTNjeW9DblZw43lCKpN0Z/NzdX\r\nFAQ3OOF/N9C3iDeN1ko2VbIGN7D6IDc4RJc3DkGYNkdGwjf/U043QDDtNt95iDdtrHU3+WWHN2C0\r\niTfCQ9A3itCVN2L2mDfc7pA2a7wHOHX0BDcQAFY3uLTRNv6UhTcvje82UPpQOD7sWDYZkBE3ay0g\r\nNg6QqzZ85kc2A4oNONbKkDZsnfA2Zv1GNhE2ojb4a582CCHyNzmDAjeGOcY2EBQJN7tA9jZ9pIU2\r\nuGYFNywpoDZ5API2WLu2Ns+kwDaJPLc2VrMNN47GmjYzEG03ExK9NmZWwjZXXl42dcNVNuxsPTY6\r\nWbo25EBhNj7biDb8Fn82L24LN/XFODZ93342F3tANjDc4DYcdRs2O65tNshQIDYWjJg2se3oNXUO\r\nljbpS9o170qNNtpXtDYfS3w36/g0NvqSfTYeEgo21VqLNjkvCTY5kCo2fN/3Nab2DjZptAE2wll2\r\nNojt1zXmu8Y1w8EgNiQKCDbGvrU1rZluNidrFja6kM41zrSuNYksCDabLAA27Fb5NTMy1zXf33M2\r\nO5DMNYis9jUuGRI2PEHBNXlEKDbaIDM2SmMdNsR81zWsj/s13sr9NeobIza6mDE2OTorNkwgAzal\r\ni/I2tAjbNp3ZZzbWTh03gMzsNn54GzemWfU2z229Ng7TBzYSzbs2ZJAgN2xpZjaDGho2tGqbNiPo\r\nBDfzqBY2oGH8NotKFDffsiE3MFA0NzevBTeGpFw3/7ipNjTNUDeoLw03vQ8/NlrHYjZdHw43pN3o\r\nNjSbDjZ0eBs2YJX4NaN74TWtOQs2rlvTNTRPJDb8bsM15IoJNvW3DTZqQNg1CYOGNfgHvTVC4TU2\r\ncV8RNoWTFzaG9MI1xxwdNiaDOTYXi6g1YhZVNvaiyzVjrP01JL6wNYTKvzUHi/s1q/UiNtnrATYe\r\nnYU2nxUcNqZ08zV8vK81d3u1Nd27CTYsCMg1LnAPNlJJ3TVl6BU2kBWbNSO21TUx6vM1+Lb9NUJ/\r\nrDUcpi42mgQZNi/43zUSNOE1Rz0ONkWx5TXegJ01JFK+NWfFFjYumgY2ey5ZNc2/FzaEhNM1nFY0\r\nNib0EDbIb+o1FmbDNewCKjbGbrI1JXW8NRZNwzUouvM1ZpPjNe8K0jWNW5s1JL8BNvyDuTWqsNE1\r\npqKlNW2sxzUASvg1CdH9Nd34lDVfOqM18Oy7NQTh0jX4WK01khvTNe0R3TU4G9g1mPgaNnf47jXS\r\n4ZY1TdOWNdwdFzZaj7o1DpnmNaAZATYEfJc19+DzNaKg6TWbIy425t+/NUdT2zUrFCM2Kok0N/LK\r\nETj+DW44id9nOCQwwjfjI1Y4VuIYOR6g1zgO3ZY46w6fOFebEDiSFaU4haIkOVheljgUJhY5C2bR\r\nOPFSWjdirds3xAqDOCwKKDlPUsw44NPzN1K06jc1KUQ4SnOXOFPz+jjnCrw49/2BOG7ssjdWUNw3\r\niMUvOCgUBjjfMPM34LpLN/mRKTdbCgg4e2iWN87IvDfdnQw4v04hON1mOjfc2xw397DmNzKJmzfn\r\nDxw4M/o3OABUpzbPrbU2DwmkNrESdTjWLeI4Xm67OBg7szYLdw03cM3WOJ8XEDkHARE5s2DHOFhX\r\nDzifbjg4RFsAONuIcjjS/5M2NLCINrFCaTfW7qE3IKWfOC27yjj5ygc4fKS8N9QUnjj4WWU4fma6\r\nOFXFpDjrTUE4l+/VN/hkSTjwoBU4pN+yNxKjgTjRUYM4/jIVOJurwjYDM6I37UbtN+2DDjkQpAk5\r\nOlYFOIOAFziJzUo4b+BlOABxgTcKARM4MKmmOF0wkDjgwy84ituSN0OEBDYsVfU1CXLJNcFozzUZ\r\nSPo1eWfDNRI/8TVXQfw1uoACNpD/rzVKXcE1YkodNmkhizWpp9g11OiqNU1VETYbk4k1vomoNa6P\r\nITYsDp41szHlNWxOAzYDzQI2plrhNUP0jzWuOhA2a4m7NaALujWjJJE1LAa6NdKTvjX0R8k12jD4\r\nNayo7DUYY1I2hvatNjRhozbUlSY2ubNhNgDgLzZwXto2vl9VNhlrhzbkqbw2066zNvTLAjd0jyQ2\r\n6Er8Nb5V0DUe4Ag2EhwFNrNcyzXUqa81uvzSNVcL2TU8NzQ27ujYNVADjDbEp9s27gZINsfsOzbU\r\nNKY22UfINou2EDZyUhg2hZKBNdRL1DXRUt01Qs01NWqBADYJNdc1HlWMNfjS3jWgPuI1w5jENdwz\r\nuDV5N8U1/GIGNkwc3zUXcMQ1QPHeNV421jVpq6017PCeNcppsjVk1vI1+KehNSrNlzV4i3I1VD+w\r\nNR6hqzVWMAk2GSuvNfVB3zXHWgQ238PoNRIr6zU3KAg21uiTNYWMDDbn++Y1mC76NWGxYzV4iQ82\r\n/DzgNT5/njX1tYU1JIkJNgt1iTWNP/k1/bCrNXSF1jV6BRw2JAGoNRKLtjXEw74166ueNTHaFzYU\r\nLsY16PfqNXuG0TXBSNk12qNSNVvf7TXkOpc1SuIYNh/kuTXxK/E15ae/NajD7zWteYs1SR6MNZ+q\r\nfzWEVGk1yjLXNWRElDW/cco1kLcsNhoTcDXyxb81d4cGNku8xTUfl7c1WfjANStWBDbf4EI236ad\r\nNaKYADYLbsI1r+jjNXmb+DWJlTA2GB+8NWQS1jVtbNE1IRSeNaKE/jWnLfs1gi7aNQAA8jWQnFM9\r\nBDeKOmjJeTqhNJs6XKTYOt2XdDrV/T47oKs2OgV1Izobk5Y6s5L9OebLgDrN3iQ63olEOtHDhDqh\r\ntjo622TQOpvnVjqivms6EK5aOiT4lzrpeJg6qL48OpzKATp8okQ6dDFLOupnsTp/pU46ZuOUOsJg\r\nYzrjtk86JPpvOsATVDroe786HOCAOiQUwDqtBYA6/f6kOqwPbTqUAWg6QH2bOrZ4pDrY91k63GIk\r\nOrVPlTpQjNY6fpscOlHTnTrA9Jg6OoC4OkhrXzrVNT06hIlUOhxuWDrAoTc6LvulOs9nDTsbPeg6\r\nmzeDOh1hEDo2oXk6tLeqOmPkijrLiy86CvZCOu23uTourqA6FCvBOoLFkjoCLaY6PmKHOvRyvDoC\r\nKZw6UsqxOsgCdjpcwUQ69lnaOhAOOTo7Fg86rOOKOs3eGzvLA406lyimOrb6hDpLWQM6fnF1Ovz7\r\nTDoiKWg6+NyvOjRGuDqNxh868jR/OlLmyzoM6Xg6Z7d/OgqKlTor25c6C3lGOucnojr5YIA6xLGA\r\nOmJBPDp5YZU658icOoP+rDqAj8Q6riuFOpLQWDoWGLE6VT6bOlTOyzoKZZw6683+OTRwuDrOtRc6\r\n1uffOkBNQzr+JJc60Uv9OYAVkDplma464EFbOnRSITqk0S86aplGOkqsRzodd4A6j7DsOoNflzqg\r\npAQ6fJszOiaYfTq+uT86zuhyOsKdnjoEBwU6DVZgOnIneDq2/bQ65iHPOkIzGzriwL86ef3AOpzt\r\nizogeng6yblEOlQxbDr4yik684ltOhFWRDp4D7c6fL0rOqnvPTpYtLY69km2OtlRazp7yi06dr9b\r\nOnIX4jo+NQw7HgSQOnOCdTpSEE86P0qYOqdGrzrQ2pg670FoOneVSToY9zk6UTIoOsPovjp3iHE6\r\n1DpAOtl5nzpE9gE7ZiaTOorWoTrQf1s6FO6TOmUvuTqq0qQ68L1ZOusWPzq3/Yg6ZJKLOpQaMzo5\r\nkrs6getYOiAuejp18r46XVx0OsxfbzqkUbU6b3oxOrQAnzrO96U6RF3WOn8qYDqjo3o6MkGOOrMB\r\nxzr1DYk6fHvNOs3+hDr0ot46M/JWOsIuSzoPOzk6Q+qMOrpyPDqSe0E6mciYOlP8fDq2DDQ6ggu4\r\nOvi/4jqndZY64/1aOpctdDrzPK46+GBzOu/9TDr6Hsg67BMoOr4pXzq7mCs6BmAwOvTjnTrBr546\r\n9D2fOoDlWDoZdGI6o9R8Ouuoqzpi/mU6NNeeOlSTdzqLOa060+03On2LHDpo19k6A3unOkQnIzol\r\na2g6T+hvOk/16DrIM1E6B39POvVcKjoYyH86pq0IOzJj2znY/Yg662WEOtWd9jlP7Gs6EjBPOt4R\r\nUzrBTsw6AV6kOjO/RDr2G8Q61ZAtOrrIizqDFhc6l8yaOpRICjpXsDE6Y8MxOrM82DmOpac6t5k3\r\nOj1GljrUdRo67jmFOhBCdjp8vZM6UPiVOlX+Jzp62KU6ZcptOiZJijrp4UU6Mn6sOpL9izqOfoM6\r\nptTEOlfMmjpYNBw629gWOz/BhzouxZg6VGhgOkerbDquYMw6+t6iOiHBlToyBIA6MLzoOhJxlTq7\r\n7ZU60cEpOnmfIDp9RpY67KOZOua6rDpaiSc6dEdHOoZ2oTouYao6a4xaOleN6TrJaAY7eYqSOlNb\r\noTpHXYo6C6hiOjfgkjqt6Xo6OK5gOhqyMTr4x6A6g+89OusRojq7HU46r0l9OglnhTpe4Kc6jluT\r\nOrO5yTqHJog6YspTOgtNHDoD38o6hulQOj6LLjrwOAE6q8EQOsj9XDpusqQ6+dgRO1dm0DpH46E6\r\n2w6OOsBXsjpLjJ06ZgiWOgvYTjolfVA6V5WTOu4EJzqvddM6ntFUOpFzfToItpE6HJhjOhwCIjqg\r\n7yg6CYa7OrnpaTq/PVo6Fd9XOmgxtzq2BHI6zylwOn2kEjrbCGg6zFp4OjH3ZzoiY6k6AJMaOpby\r\nwjoyRRw6/IuQOoWStToxSZI6lyyGOp7N7Dp2XGw6iMeROk8jgDoioUI68IVdOhahlzqYc4Q6SkCE\r\nOuGXhjrch4c6H18MOoGbiDpph6k6PyMwOk/7izqaHns61WWkOtMubDoVZQc7xdNBOuYYQTrIYGg6\r\nAZ9qOuLVSzqgkW46OqQhOoWQbjpTmps6u7vxOrhKWzp8NIA6StZgOrpVXjq+8Y86PrYvOrqXajoA\r\ngh06P+WrOkKX+jkW2zg6SlSoOthEpTpbO2I61IxPOoGsGTtGjDg69lQuOpR01Do1yJ06rvirOmAC\r\nMjp4rOA62o+yOoihCDqS/eo6CyeyOolgezoyOc46ib5fOv6BbzqxwkY6ZcBNOgiLUzrAj4U6aOau\r\nOoT2gjqKNYw6Ih4BO11KnDoXLJo63KtROpmFmjoIq6I6tsDXOqVyWzqsTYM6yKOVOiVhqTqPYB86\r\nwpslOk3eNTqRaV860gL1OjaXdTpwMnQ6705AOtVqRDoJvi867oK1OtTmgjpr2kw62cULOt4ahDrR\r\nq346k4+LOsKB/jkNLqY6Ys7DOSPMnTpRKys6sxKJOkhuZzrAV3A6voKlOs+toDoZs2Y6DDlUOirl\r\n5TmKqVU654NXOlI0YTqhRYY6tMdAOlLlTDpf3UQ6UBF+OpKNnzq3r+E6hv9bOvhZ3TnWYiM6iD1A\r\nOrIFHjryu406pmOkOhwrUTq6/zk630ytOohXATttDIc6qCBGOmhTYzoqles6iE2qOlDuCjpb2W86\r\nDp1yOroJsDq/4ZI6gPgkOvnqYjoqKYo6BbA6OrF/5DlNG5k6X+slOjICizpqBUs6DWaLOtneizoB\r\nNRk60FQuOpDtHjqUfmQ691mYOqJ01jp8M286h7lPOrEefzn8mVw677gSOp6gkzrl72I6GHmAOlc2\r\npzpbb4g6mNNCOiJNrzrSLJc6wOX5OucKtTou3oc6pWhXOl6kVTq22jY65gFGOs2TrzpWbaI6nTB2\r\nOuPq9Tns/Gk6UQesOq7+YjppqBk69jw4OizkPzrQFVo6oqSaOpBPJzoWegA7JrmyOjzYVzr+CEk6\r\n0MWQOqngGTtekUY62rtZOrH/JTqReWQ6R+41OvJKITr49Q06GAWDOqdpjjoyvjc6IQbHOVzw6TpD\r\nUQ864eSwOsyBfzoXU1g6APVKOkrQgDr19yY6DUh+OgyEezoNJXo6RnU5Opo1UTr8G/06PICPOqC/\r\nhTpe3IY6f5qGOqt0MzrFXog6cBJ8OiTArjo8TuA6agIfOh4NYzqf7mQ66VWwOT10Pjoipr86YAqV\r\nOiSEyjqcxlM6FPmoOg5ftzra0Dg6COgRO3tUxDqyyVE61pWKOiPLmDq8OB06UBvAOiQOdDowmgo6\r\nkoHIOuF1Pjo0tHM6i7aXOkGrrjqELuo6WhtZOiN0kTqMyBM68raNOuleOjoMTv05epFEOjk2HjqN\r\nRhc6+ttYOnqKOzpJqY46EgZ7OkZDGDuOeFE6EAQeOjDuCzqk6uc6pqyNOrZbvjpbS746y/CDOuhH\r\neTo9nJg6qrFbOhJ5tjps66c6qgtsOqSFMDrVkHY6LjBVOq4+gDpC76Y6Wwq4OhsgvToHOKs6RHCq\r\nOkAJKjq4ZZM6XibAOiNbdTq65og6Izq2OnFjZjrQSg86c9lTOiAY2DoqNyM69sv7Ocx3vjploX46\r\nix/tOTtugTrvum86s7x4OtWFLToauws67+XkOsS0bDqk0sk6guhQOngQcDqjo/g5/KCqOsneITpX\r\nOZ46LJpaOvsCSDruJgk6hlwvOqwy9Tl2Hxg4h1OTN2CvmDeijXg30skNN7984jaADgU3mUUMNzyE\r\nmDY/b9Y2RJqjNkh9mDaeDog2PWRMNqBMjDbkCJM2pF5lNjyNpDZ3MBY2lrc8NpFC9TXWXM01jObV\r\nNeD9DTY4iNE1jFzDNfg4vzXAC4o1Zg62NeiktzXDIgc2VEpsNVLeEjZ5x/o1TELNNSDExDWrjd01\r\nbTqQNVCA7DUUD2k1Apd3NahXvTX0Gq01fnWlNbiAVjX4+hc1SNiLNZI3ejX3ofU1t2aiNZ/RKDWy\r\nBv41506/NbvCcTUsang1qzy4NR50YDWOJ+g1IqQgNewlWDUiMqk1HKoyNXEuiDVKs982oFIXOK1F\r\nkTjC7ik4xGa6NwIidDgCHgs5A8yyOOZ+jjhaTcM4ukg4OJNnrThzaQw5smuXOOpRFjmp46o4XWnx\r\nNjCw0jc5bdE4dCEqOSS9rDgrfdo35sKdN4FfczhCcZ84Iu3YOO5InjiOiJQ4mDnIN65EHThEMDE4\r\nEHSAN3eD1TdgIiQ4xps4OHK/ujmylBM6bWMQOjBcCTlErJg432IBOabwYzijEwc4odloOJb+/DdH\r\nYgQ4II6UN/xElDiz2Rc5J7SSOOsyOTlkZn85/rtqODzrUjd2xFw5WcCvOccZXzmS2xE6AXt/OuCa\r\nfzlKFt03kAwqOQp4SDnLa5A4oBsMObsVljiLfWE4ODmqOPojsDichZI4T6SrODBl5Tkq7rk5BSGy\r\nOMNgOjjhvms4etl0ODxGtDkBTCk6B7ygOfKVFTnDHyg5sMCjOeI1Izk/8TE4+GMHOfhGHDlP34Q5\r\nRv/5OH+lSTndrRg5ti2oOJXb4jiaT9w4wqiUOS9A9Dldbag4YgIbNWKexjUDNlA1Tbs8NSXhYTXS\r\nvwU1LHEZNUDZQTVwxCA1RvUDNcQ3kDWwB7c0L5whNaJl1jTUT3Y1f3aYNTpfpDWKgng16LpyNZhs\r\nFDUhSSc1w8sINd85CjWnMQQ1SvZANTgUIzWUhAI12ZIRNfJatTUDqMM1beX5NOskVjV7+kU5jYqS\r\nOQUGJziUNMU3lj4tORXetDhIKKI4IziFOPLEyjiIxj05N2GpOJPwADlQq+E4TCoJOEjEgTeYA7I3\r\nogMEORVXSTknuAg5R2QPOTBc8TjJnok58LehOZG8ZjmVaZY4ouBLOveatjrbK2Q6P+28OZO48zjv\r\nFF053nWaOHDIQzX4Y7M1dRwQNUQajzVCIwg1Uz4vNfxtKDWLWeQ1KD9HNRB0jjVXrVY1eVJTNZ1d\r\nJTWNhmg1NpejNciRCjXKsTo1gZ4INUdWMDUIYpA18oh/NeZuGDW3f4w1kZHoNNtYDzVrg2k1Ofk/\r\nNSEZJTU47ao1cO2hNNA6XTXmrk41W2swNbfnKjViVZU01maDNfjVJTUynFM1qU3ONJP2AjUnOwY1\r\nqrAsNWobDDXgH5k17kmVNVfYSDV0fic10C79NPMCRjUiC1E1UFBuNbBGRDWe/BI1yn7FNAgVEzXZ\r\noPk0u7X0NIsT5DQyDMU0kCCiNJ3JZzUMXTk1ro9ANW0+DjV+Ekw1Kry/NEIpQjUcCgE1GQxPNZNE\r\nvDQBTCk1ye4eNXN8ETV1cAU136MjNXJx0zRCWjk1drIHNTRdFDUDK5c0ZbdGNQLhozQU8TU19mFx\r\nNL1k5zS8CTM1FDr2NIju/TT008Q07v2YNDd1yjSZz7s05UH5NN5T9DQvvc40AEAENQ==",
                            "noiseTrainingType" : "default"
                          }
                        }
                    ],
                    "start" : 14921,
                    "duration" : 502,
                    "mediaStart" : 29,
                    "mediaDuration" : 502,
                    "scalar" : 1,
                    "metadata" : {
                      "WinSubProjectDisplayName" : "",
                      "clipSpeedAttribute" : false
                    },
                    "animationTracks" : {

                    }
                  },
                  {
                    "id" : 105,
                    "_type" : "AMFile",
                    "src" : 15,
                    "trackNumber" : 1,
                    "attributes" : {
                      "ident" : "Aufn. 07-14-19_030",
                      "sampleRate" : 44100,
                      "bitDepth" : 16,
                      "gain" : 1.0,
                      "mixToMono" : true
                    },
                      "channelNumber" : "0,1",
                    "effects" : [
                        {
                          "effectName" : "NoiseReduction",
                          "category" : "categoryAudioEffects",
                          "parameters" : {
                            "denoiserAmount" : 20.0,
                            "denoiserThreshold" : 0.0,
                            "noiseProfile" : "kWSHPxv0tT8SUYw+irUSPjVXRT1uVi08XbijPHAPPD1gTpU8a+9/PbVO4jxcDNg93n9oPLqMQzvk\r\n54A80tQbPIFAHDwRLVM74NTvOomCMjvfDu060zeNOvjyJjpr3Og6o+N+OodFJTuoTIg6/vVaOoB9\r\nXToRMyk6XvrVOT/AYDrPgp85plCpOaD2jDlew/E5vq6JOpaw0zlmMuE5DPQ+OkkmjTnLZso5pTcP\r\nOsUKdzkKD345YCm6Ob/ibzkdHwk6EoqFORmXhzn4A305pIK9OdV2njh8Lok54IqjOafyUDmytt05\r\neN+LOZEFBTmYP205JE47OV9rmTmz0h45X0gjORDFKTkCpo442qHWOMlKFDmo3Qc5bep6Ofvq2jhf\r\nQ4w5LOyiOel3yDgMcaY5gHsNOa6fCTq3KEU5HGmHOYYKuTlVC4A5sZiTOSV5tzlGFE05ubDFOTIf\r\nPjq22Nw407TrOBn/TznBWR452HAOOdUrIDnzI005+CmFOa+J0Tknur844cyaOX4YxDnd0yE5wSkL\r\nOZMPyjjg/I84V0k4OSSlXzlZtTI5Q98KOk5dDTkXvOk4vbIhOXpIwjguqp84cBwgOWcBhjhcOJg5\r\nmXB4ORKmVTmg23s4rlaZOEahEjgrwY84FFdgOO6JjTgZiZc4Ib1COWCyOjib1Tw4Ad2AOE2fYTnd\r\na8o4sjAoOZp4STgPU0k4XoOMOPwOnTj4YGk4+FCSOBq15zcs/u03fHEUOBYiHDij3iI4dua5OM7v\r\n7TgclFo4BsaJOAUVAzmq5yw4IUIcOYDeaDj0eyc48bGbOOYDvzhleIk4AmxWODIvZjiwAUg4OGpN\r\nOORHrzerUAU4Uk8yOIBdPjjZsgc4yzIAOEBsKjg8o8w3fIlSOJjYVThV4/E3hdckOM+vpjcr7SA4\r\nIO5+N3/hrTg5LtI3szm5OO5tXzl6EsQ36VOkN9/V8jjyNZA3BfQCOW7AmjgPDBw4VJfeN5DIWzjm\r\ngiQ4zShdOKBinDggzj44Anx1OAkmeDgiy7g3lmgPOHXxIzgWLYw4z18iOF+cDTg0o5I4vUeGOOFh\r\nBzldu2k4LziHN9SvBTh8iuE4YeodOLU1CThMfes4FpknOfDDhDfS3mw4tRk0OAw62TfbADs4uj9n\r\nN7WJWzgS6Ts4aImYN9it+DiPipU4hEdoOLGaoTgNnUQ5Jd+FN5zyJDgxQ5c4/DitN0xDITh3iO03\r\nSqvkNyjV0zfe2jc3INLnN0i8cjjI3rE3JRIlN97HRTeCX0U4HiHzN2GBtzcV4QE4C5IlOBMwDjjM\r\nh4U41cuXOHgwRTgLLjw4nlrNN0xMyTd+crc30AmPNx5pezf46CI47nHTN8YqvjdY5ZI3IfUQOQqS\r\n1zd2ZOE3GuYqOGVfHThMY9U39kT+OPHsNjj8ESo44l9fOKZKNzg/8ic4fylVOEQcvjinxhs4opUj\r\nODwNjDe8nwc4CCUgOAD9qTcx8Q04Xj+UN43eTjjRPUc4AoTON/icPzgguNE3+lIqOHadTDgoEgk4\r\n/sE0ONkKhTdNrvU3HMMlOCAggjewtzc4qAGEOF5BgDiMuoM4rORnOMAEADgVBNY3s1fwOGvzEzi9\r\nFME3ti8dOP+3TzjQNeg3tJVNOIVQkjh34Cw4iIwwORMdDjjwFDQ44hrhN6YqjThUZVM4tLscOOoe\r\neTjeGTk4LiVwOLdMKzhcsrI4pJ1yOVYnOjmWLMc42EOxOEaIGDl9wUA5qzUpObNO+zh6pSM5FD1X\r\nOXUdajkIDBw5nezXOAwwEjlI7gQ5vivIOAxgtDj3+Uc4MuSWOM0XJziMnq44qTOmOLsBozim7m04\r\nxMGcOGuvLzh2aTs4jCd2OPo+czj9R3U4Z01kOLWaQThjB3w4cuNsOGDjKDhmhg849xxXOCFPBjgg\r\n0vM3eWe7N/kbsDetP/A3jnDnNzA/BTjmYiM4EejkNxuC3je+LGM3wvmhN2w7RTdI/Qg3b8EqNzpw\r\n3zfMBeU3rAC1N60+oDdmoMw2N8AfN0HAWTdZ5i432FLMN7T6szfcc6Y3RpetNyqUJjfSt702Gnys\r\nNjY1LzdC04k3OrnyNj/4IjdCoIk3eE8COFCxtzeWhDc3T908OF8XqjeKybE26KpGN/epQjdtrck2\r\n2J8PN00CJjgcQz03p1yANytn+jZUGFo23kgON37qsTf8C2w3xd/fNjZwhDcCnGw3/1xDNj5Wjzca\r\ne2w31OOcNoZkTDcjd203WovDNmwDZzdAgHk3Pt5GNxhbEjcgsWs3vEEEN+yXGzeAPLM2Qtc/N3+U\r\nnjaMmnA3qqTYNnz4IzfCTwA3LSEeN/FRijdYxNw2lHygNtSKnDaU3CE3xAChNyguIDcHHLQ3ZGH0\r\nNqL1pzYhy682hSaaN5Me/DalvQQ3mrcWN+MGozb1qis3TrPLNgJv7zY7KrY2Ynj3NjuwxzZojD03\r\naOUHN7Fj3Tb8gCo3AuMZN+yh4jaJAqI23gnqNvhezTbW7Zo2WlweN15MKzfmocM2AiQXN7Kiijcj\r\n2LY2io5/NtsRSjcA0O42thTYNijgvzaa00M3g9EgN9DETzfcW4w3AmPrN+jqnjcEV0I3gmtON8Qt\r\nbjfFARY3txq+Ng/VATd6g9I1ZHYyN5fgCzd1BZ429Lr8NtKm7zbIePw2w9U3NsmtwTYoJ2s3qbuJ\r\nN7rKJDdjMnk25XTDNjZ+IzdnA2c2LN0JN0JImjbHxyA3gslsN++RsDY47zY3wyYBN75iwzYAgMg2\r\nn18eNx11LjcuTX03V5mJN7/Iijfu3w83oSEJN2TsazeM0VE3fp7yNjM5tDczW6g35IIsN54obDaa\r\nwA434PrxNpoBqTccux83gKsWNz3CDDdKNvs29KOvNgo6qDZ+RBw3VijWNpiqBze8RKA2elSHN5pe\r\nADelU4k3u4agNhsM1jYaknQ3UlGAN7oRSDc3M7s3PMggN2nGYDeLsaI3sgP6NwhUmTfso0Y3AAAe\r\nNwwk1DbBZz43w+kZN7eLjTdjvT43iaGnNqtojDb7p7I2dJ+QNsPnnjaUrJw2eVQ1N4a+mzZNgRw3\r\nsxKEN25RMTcID7826Au2Nig0kzZGC502VuvjNoC1aTa6pRk2X8QyNsdneTXYlHo2JGHCNq0dRTbS\r\noKI1ofOiNQjnADZYqK81A6fYNbCUZzVdvm41mdpuNfbctjVtEmQ1FLS1Nc6sODZupbo1RIUONoC9\r\n5TV684o1Bm62NcR6MzUjMo81j2GANQ2RiDWabXI1p92INQJg/TXE+sQ2vusVN0iYgDdx5Ds3UMPM\r\nNizp8TWVB6s1fFPgNZvYfzbaots34pqdN/V0DTe97F82BZhbN/oLADcLTVA3Zzm+Nqo8qzdMrOY2\r\nEJ4wNsmsIjacqi42UODGNnlbYzYzdSU2qKMQN1TQUzYu2aQ10CnNNd48LjaUwkI20r/ANvoZTzad\r\nMgA2ohu/NeMuZTVF16812xvzNcgf+TTfy9019CyGNWKDJzX8LhM1GWOmNRazNzVgC6Y1Xt8ZNpOE\r\n0TUihKg1vXBCNUyWFTYkaak1k7ikNcU+BjYOuZs1SLOUNTzk0jXEIzc2VtUFNQ2YPTWWvFM1Q2LJ\r\nNezChzWkehE2T5+bNc7MtjX+TBY2jK2rNRzHXTX6c9c1F8FzNmiBjzb19UM2wFMWNiCxhTUOlb81\r\nHkPUNYPbWjYHESA2w2VqNbxa4DXKf2s27TCeNi+ajzW7ZTA2TuMbN33KsjZ3dgo2u7IMNlYdnTWS\r\ng2o1yHMCNgWWijYxmQI27KB0NQBqqjX1DH82dlBgNkqgmTWOrmE3VPMjOG4xLTnhPi05/FinOBqy\r\n9jffJSY3dJwXOP2VIzg9yjc4IiwGOUYxNjjrrIU3F11MN8wFIzgY/wo4TF44OGJhODj2FHE4GBft\r\nONptOTdrtiM3wXcLNzlWLjitryI4XD0hN51INziEI1E4laycN5A7LDhATRM5XH0LOcJ1SjgRWMM3\r\ngLwGOGuwPTdA+go3RZ2iOPvgITk/op83k/VPNzZBPTddkqE1WsdzN3uFGjdJiJw48UlAOPAALTdV\r\nyog48P/fOOwOIzgf2aY38uA/N5gYNDgmhBc47bieN4dvtDej0sE4kSgROW9ojDjwezc3OoncNgUY\r\nvDa+ZQw2vTLlNrE9rzZMstY2CcghN5KAQjZAGUc2zXykNu9EFzcs9Ho2Qq+vNjfvATcoBhQ3YEQa\r\nNuDWrzVOno83uZ6+N47PYDbe8dU2iprTNtcKRzcS4+c2UjPTNU5mZTbT/4E1v8OCNvdxfjZrZRs2\r\nXb8ANgTQJDXNTOk1WSk9NuZXwTVBAD02qeeFNU1x0TWXiMI2hQ5ENlOBgzbzwgc32ANZNpKp5DUi\r\nZbI1vAvUNoF2QjbjgvY2oPp+Nrb0wzVTNM01HsEONV8cbDYF/BA3Oj3qNqDRazYlQ5M3+t2lNx6G\r\nmjahNcw20oXbNhmp/jWMe0k13j2HNTaiKTYwIJs1UqozNcf/5jUqBqk1jIaLNaGuQjU+94s1xuo4\r\nNTqSTzXz+go1xpd/NbhHHTUVKio1pbVvNbjyWzWSD0s1sX2SNR7gZDT/2z01O0RxNTr1ojVYsDE1\r\nokEcNSYxPzXZJgA1CRB0NfUpVzX0TDw14T2iNSNgEDWqEpU1RGXpNuoxMjd3QJg27w89N3nexzZt\r\nleE2wDnFNldj1TYB1Iw3DLMAN/ySbDZwXqI2C+MyNmXS0zXzt9w1RkPVNT2JRDfaY4o3ArvhNr8W\r\n+TaUwQs3LSGfNuX41jbJC9o2vmYLN8aqNTcCRbw2CrD2Nk23ADdgQI03d98gN8u0lTaQJn026dAk\r\nNpCBJDeina82FJ1PNdjOjTWmiUI2XJMCNriHijWw7Ns0UrYCNV4NaTbN+hY3AHkuNo5psjVqP2Y1\r\nNaPpNQH2fjW8m2c14meDNbhAvjQY8fI1jxzBNlWXNTaII8c0khtWNYrvgzUB8YA1SyaQNdrYnjXA\r\nLdw182QKNnalojWaO1g1pkdpNW90gDU9LWU1M3qzNaRgcDXSp5A1LwVPNUhyajXfJn41S2S4NanR\r\n4TTLYJM1qSgaNZatHDV7HQM1HxEcNTDHjTVLr4w1tL15NeuBkTXvX1c15exDNTJ4IzWd6vk08oFY\r\nNRnuKTUt9FA18awGNS1/QTXV6YQ1QdiMNdNSDDZaQlI16C4hNW4irTUEMYM1tRK8NUuc/jSXMI01\r\nUI1CNfv6VTUrqME1DPB7NaV3NDWFSYo1UF3/NLAANDV0Aw415X8NNcs7aDVnkjM1HIWWNF+whTUE\r\nyWA1xidoNUm5TzUsEXY1kcqrNf3zJTXaIN01OrKANW5MtzRb5XY1tmAyNeI3NjVCopE1Mtw9NUBo\r\njjU0p3w1YMuDNXP8ZTXrIFg1mxcoNcPegDVXujs1Nt4pNZWfkDXSrpY1hQFJNfhLnzV5bzI1YxeC\r\nNUe0wjRrKmU1KsDuNNAZnzUappw1VAWENQZQKTXl3Gs11F6RNaGNLjWmCU01QVfHNQAgiDUJpmA8\r\nor6lOmd7oTo48As7NW/KOtQ6VjpYdps6IIq6Oi7GWjq0I4E6viO7OliCaToYEfM6VzlxOgOkcDqF\r\n9kE6U+1QOkOacTrfPbI6rIxKOvqR0jrOKmQ65rxvOnGJRTr+LrE62kZ1Ooh2yDpW63g6bEfKOiVb\r\ngDoYX5s6mDuLOjd4GzqH7Tg6+5iXOo+7+Tr43l46MAfROXZe3Dkyp4Y6N96TOnlquTmsy4o6xkHL\r\nOvTTZDqz4V06GyioOp1UgjpGPWA6xHDzOaDqZDp0U8Q6/rV2OtPDmjoEsdU6fV2TOqjMljrHbgU6\r\n6uGHOrNtsjp+bTg6+7ayOsI1KDrjI9Q6BqrPOnA9NzpWMkY6yrg2O81Sszq2VX865jKxOrVNtDqA\r\nufk6m+PmOg9WdjrC7To6ckXXOgIXAzuhF9Y6bYmKOqgxajpAByI6smlOOhEx+Tnq5SU6vQdJOuIJ\r\nqDrkv246hOYKOkhYtzomoyg6ZqKOOrq5lDquJ406L7GBOmtRbzoOx146kJk+OviHyzo3GsU6zJMa\r\nO/ef4ToCJi46O2YgOp5oiTqU1qU6Sw/COjlncDryjTM6vT+sOqfnuzrMzo06vi6bOgCbOzrbdeY6\r\no2GXOlSEqzoD25c6YPuSOjAeBjpg0Ds7YGZaOvg92DocuXw6MZQKOj2xiTpsUlo6Goa1Ot/6gjqI\r\ngko6XD2oOgWY9DmFu446coVaOuMWYDrik4s6YEK/Om9tojqR28k6c/GHOmgYhjpC1646QqQYOsnI\r\njDpSt5A61BCDOqV+Bjrz92I6crSKOmLd2TqVS006kZ+1Ogruhzp2C5Q6L4OUOmKVhzqJHpw6b05N\r\nOpC8izr+Lf06Ji2VOlzQYTqJa5g6oawvOhdKlDqunac6s6OrOqHRojodbY865gxxOm3PJzpCojU6\r\nZOTqOsKEqzr8csk6WLeDOmrlpzr8cmg6eyiLOpA8hDo2rfI6oqkRO4Z0TTp2nFg6BHlLOpLqbToX\r\nm546r9SPOk03WzqQ2jM6u5xEOukTdTqWRiY6Lkk0Ou11KToyzZo6/EiPOi4fKjp0EjM6KKJeOiK1\r\nUjpOJEw63WOcOvONQjtwvHo6KWhkOqOX3Dr5LgI6MjyYOsasyDru6ik79RorOrumUTrU5Eo6zMsn\r\nOjixHzusvN46U/TjOgeDAzqE9ps68HOeOpbkCzocx2Y6wSV+Op60QDrTe2k6sQDMOnqfVTqqC946\r\n+YlMOu8cvTqiLoM6kuQZOgQFNzoCti06woHNOv4BCjuF3XE6286VOhpuUzqXRu05zTdpOlryQTrp\r\nP6Q66cd1OtZ1LTqH6Bg7RVWrOo/IuzocbL06EUR1OjmphDo19BU7lk9fOrIkADto1kA6S9VMOmH8\r\noTodXAg7NcSGOok2Kjrf8WU6ZgWUOiqBuzoSWYI63x8yOrFwITswA0I6mecqOrIrbjo2MrE6TnG2\r\nOiwU0TqkpIA68Jm/OqZSgzqqegc6KJdZOsSa6DrcoEs6gH3QOnVCWDoX18w6MLAAO5xVDjuat186\r\nYKgqOg5fOjpzlAI6s1HCOuSCOTpP0LY6tW7XOlWq2jrq2YI6uTDIOpr7njo8lMk6mn2IOr54uToG\r\n1aA6KyoJOz/kqjpnyI86fg9MOh4pUDqYlJk6C84SOjuaKzptsRs62SBVOgjcnzqiNrA60NjGOrOm\r\nnzo6yaQ6b601Ol5yCDqEOBI6lEFNOhHJiTq1uQE7nfZYOt6shjpdEPQ6aMWZOkQImDofmas6quGi\r\nOlyaoDo/YSo6yGwwOs5UmjqpCL86W1lHOq2anzpMAZ06p4pnOpsXizqcsDw6f9aOOvVu7Dr7jh86\r\npYCYOnsXeDq7vEE6FGuYOvExujoCjDU75NxLOhivVDohKh06FmhoOoClKTqWKF46JSdYOmm6uzpl\r\nGSk6GwaYOoaEojphKK46yNPTOrqcLzp944w62SgAOyBGOzrFe0U64t50OtB68TqczzI6AvszOvN1\r\nXDpQzJg67BIEO0I0UDq8Yzc6+xutOm2diDq9NkA6yDagOrwliTqMJGQ6dQUUOnQxWTqDJWE6hE0z\r\nOrraiDpBPZs6NM2XOs6rijrh3806poauOrUzpjpOMTU6g2DiOhZyZTr9XCk7DkXpOqSfOzqmSoM6\r\n4Xw4OpJknjrNYds6ZGSMOsA/mDoqF8Y6Lu81OpV7JDrryZM6KfQ7OlXMfjpPq5c632WQOsVkBzp6\r\nlGE6T/bFOo530To57PA5YxSDOnnxZTra3ng6be1IOjrvcToyCL46MsBLOsLxPDpgP7g64LcaOk+e\r\nNTqaN846LEdSOo3YtzpZu3I673uIOk31mjra6OA6BtW7Oto6Zjr+amc6XsaYOvo01TrX6FY6v76b\r\nOkaw5DnnDHM6HmYyOrLqNjpNuRk6OQoCO1JbiDpenFA6h56aOrKV6jpq5Uo6NfI6OjQEajqbUFA6\r\n52s2OpwwqDo4fsE6+eJEOi1Bjzr6ni86M7khOjgq3DlJKhU6lfKtOjIbIDp0aaY6Hxm0OjIbNDoR\r\ncLg60aKLOqE8ljr5ooU6kEohOtLmhTpkedw6RdNVOuXajTomMIg6HEkAOjniPDrDupU64LZmOv6j\r\nkTq7HB46lx0IOliFYzrJzh066kEuOhEEHjrQb0A6RIAuOl8rrTqOlDU6IT9YOsLrcjqXKTQ6au8Q\r\nOs9PNjo7SYU6oy5YOqrBIzusGRs6klzVOt24gDoDcXE6BohAOjs2MDoQbvE6qWUiOhAUOzrKrpY6\r\nzg0xOiiGUjoMHOQ6HNzJOm7iPzpvsQU6zOmLOpy3NDona+w50DRJOruTfjqjfMc6BGgLOtAgajra\r\nOn86BDN6OtGZjDrsQA47CIsnOmSHCzqXuyw67X+rOjuFTzqx7Jw62wtAOrQ6iDokOME6b2GVOoUJ\r\nVjqshXw62MFQOt8bgDq0Hxw6PmrhOgolUDoLE606XIQLOuJBODp+zl06Q26QOv59szrkGA86Vzea\r\nOloKrTr6Yls68MmWOqxdRzrxO9Y6JmJoOmSSMTpaZss65n6BOrKD0DrzsPU61YaiOtP3pjrKASY6\r\n1+agOsf/ZTp7ncY6Bh+qOnZBRzr9scI6wiwhOpRUMTqa/ho6eN1+OjzaiDqizI46CVMtOrwlATq+\r\nIAs6/2RYOtG7dDonfIA6Kts8OjyUcjqeuZs6t12zOuYekTpykKU6ciKIOvEajTqKsNk6RpW+Ooaz\r\ngjoCt5M6cxKBOvKffjoKuSg6O1gROiGDkTpGUhk6vjVtOp+rljrEKBc6KG4QOhCyezrYSZY6bjJ6\r\nOmJIMDqr/Fk698iOOi6xHDo03GA69PCAOkMrOjqQR9I6De2vOgWxzzq2bJ86DnzQOl6xUjpUID46\r\nvnnKOpmrYjpgPng6oZKEOvLJEjr2aM065XkSOvZtPzqUnsU6gCCcOpo9FDqWwLI6zrJbOujqKDq6\r\nzm86/2twOqzjNToYw7A6O0OMOibUwjrggXM6oWy7OnyslDrZj4g6i15JOt9QqTpYbxE7aCOBOqdq\r\nJzqDOF86cMniOi6AQTrhwtQ68RwIOoCQIzr6LT06ELo5OnxfkTpkcrc694VqOiTYizqeU1c6jl+t\r\nOgIaiDq1MDE6nKGjOnjKYzr2TAQ7Z+woOtCfjzoTnYU6/0yMOrRGXToQ5Rk6QdcFO3oAIzqmOWM6\r\neMd6OnDg7DlDnRo6xaZ+OlI8oDpcJIs6ajFoO+JsIzrOvxQ6U46VOryhEDpIBx86IklQOkznIjru\r\nbSI6fPntOTGflToBP1E6v2g/OoAaGzpW8Fw43VFEN4xbADiAkSk4AoUPOVpUMjkVa684vQguOITO\r\nJDecjfM3UGcDOAPuxTciMhk5NElLOFjewzflKbE3I7kCOGTxqzeHdw4419LlNx/zVTh6Sto4zWWl\r\nNljdmTeHRyM38GfYN306Zzjk5AU3T55qOF/vhTiJwQI48MxjOPJIGzkuWhc5vrw4OK7L0De48RI4\r\nWW81N/VSSzcMCpE4NK/9OJXIqzcjGzE3+hBBNyHIETZ6aig3WMSnNixCazhr8Ro4dt0bNyLriThA\r\nut44iEpVOEFdrTeHwkk3yuxOOEcwTDgIG4s3orm/N2iJtDg1PxE5mRaTOK/6mTcC/9c43mZOOUjF\r\ntTjo8VE4MpXWOEta/zjItBY67GGMOicfMDouTsQ4I+X6OIZjHDmsQJw4z/uhOJkrlTioIWk46ru6\r\nOEJzRzkqs4k5Ihi5OCKZfTmWXoU5LE3NOPuj6DjvWMg4BeEqOZhN1ThYvCE3zIrIOGofvDkXV3A5\r\nbFxGOXOzljm7XZ448WRaOeDKPDlIL4I4KgiWOO32YDlPBqg56KftOaO2Bjo0SbQ5ni0MOb4xQzhc\r\nrRM5kCu7OTlviDm1Kgc5dsBPOWnLMTncBjE40buqOAT9MTk5d3I5qiTzOPvlsTkeXlI6ZlUfOpp5\r\n0DhNYUA4XeQAOR9/RzlgOvc4fjRqOIijdjUhcEA1KtxXNTaEcjWaosg1krukNS1w7DWAbac1nJEi\r\nNVLSWzU/7xg19srYNJYcjTWRS1I1eqqhNW31aDVlp3Y1O0HKNNRaXTUhvoQ1fokxNeeqYDW3TkY1\r\nil6xNeeggzWVnTg1LHYvNWLRFjUy3VE1VSVcNWvCVDWssDY5PXG5OW4Y/TmKTAk6CI0gOnXWlzmB\r\ns1Y5fIWzOHwIGTmTGSE5zEUpOTY0lzkGMa05vRhgOrPiQjoEJww6ZGTFOc96WznTzFc5u2k6OZeC\r\nHDkHuYk5mYgOOt+OqDl4agQ5uhgIOeUSUDqyrAo62YV3ORyfozlN8nE50Cr5OWpqtzmdtuU4ncu/\r\nOZhRcTrozaE6BJRMOuhKHjnmwHY4eiF+NSAB9Tem9UI3tbp7N+TVTTc9HlU4X4MAOZxtmDlEcNA4\r\n2vMyOaqeNzlRmHI2d6YaNRNZPTgSxNw41MwWOeJjyTkPTAY5aqVeOcyduzmBUz04/uBuOEfkQDiE\r\nkfk3bZgZOBwzqzX4dH41W4l4NT9ySjUyi0A1xygqNaHQWTVCfDw1OWhoNfupSjVlieA0rcltNXxW\r\nKjVt9+c0iX1jNaEZ6jSUDhY1K8+ENZXBhjVBIoI11cBHNUJuIDWDxB81ZCoANbQXLDVqRSw1aXUn\r\nNfhZ1DRea9Y01IkaNa/RHjWQBl41YptlNdODQjXWemY1walBNQ/8PjVq5t00KZQfNc10CDUdaWA1\r\nsScXNRMklzVRxS41X9j1NKxehDX6Xj01u3INNU2uJjX4Ps80vMhCNf3BaDVymvg0vaQ/NWOxsTR6\r\ncFQ1UAAoNaeZIzX0Tu00bAAwNQRI+DS1DjI13sXrNNDHAzUTZEM1IR7dNP371zSzkII1b80ENQl5\r\nFzWMe2M1SSYlNeqnKTVh8y01NdYwNcHqGDU8OyU1LLPQNGXkJTWDFx81jiFJNbSlGzXa/sU0RhQF\r\nNa6TTDVmDD81q8SJNdsj3zQU6DE19sVCNVtkTjWfxYA1HT5ANVRoIzWGb0E1ACDnNQ==",
                            "noiseTrainingType" : "default"
                          }
                        }
                    ],
                    "start" : 15423,
                    "duration" : 1020,
                    "mediaStart" : 42,
                    "mediaDuration" : 1020,
                    "scalar" : 1,
                    "metadata" : {
                      "WinSubProjectDisplayName" : "",
                      "clipSpeedAttribute" : false
                    },
                    "animationTracks" : {

                    }
                  },
                  {
                    "id" : 106,
                    "_type" : "AMFile",
                    "src" : 16,
                    "trackNumber" : 1,
                    "attributes" : {
                      "ident" : "Aufn. 07-14-19_031",
                      "sampleRate" : 44100,
                      "bitDepth" : 16,
                      "gain" : 1.0,
                      "mixToMono" : true
                    },
                      "channelNumber" : "0,1",
                    "effects" : [
                        {
                          "effectName" : "NoiseReduction",
                          "category" : "categoryAudioEffects",
                          "parameters" : {
                            "denoiserAmount" : 20.0,
                            "denoiserThreshold" : 0.0,
                            "noiseProfile" : "bVK3P3z0Kz/cRHQ+/KIcPeQxWzx/Viw8a5zJO4qmyDtihQg7sl9gOzKCOTuMbzs7mnaKOwYyuztQ\r\nOvE7qh4dO33NyDshCQk77sDdO8q/hjsXhSk67GR1OkH0LDobP8M5z303Oi5VdDr2ldI56G0fOlyk\r\nAjsZtKs65U/qOb411Tpu/R86Q4qdOR0nIzq+7RA6egKwOdN2gTpdUJE66Ca7OtKXJjpD8aQ54Js6\r\nOz9IJToKreA5unOpOS6sYDl3SRI64zaxOfLZYjlO8Cw6XxmAObLSSjkMt7g5vImqOflRKzmRh086\r\nctQJOomCsjlCTHQ5wGK9OXBfujkCJMo56A36OEpBdznojfM4x879OG6KgzmEdEs54/1+OdUuKTm0\r\nCZM5rZujOfkNXTnmjUc5zs5FOS48GTocj5o6Hk3XOuslajrDVL063FtBOZU1tDmK2v85fTgLOk0L\r\nlTkck6w5cqn4OJSxtDhFdWU5dBiuOcKpkzkGQRw5GL4uOVYJQDnnadE4y16iOc5RITl0BfQ4Cl4L\r\nOR5p9jg4M9w4nrBZONaTKzlnARs5Uq2NOYzmETka9aE4r1h4OdCn3Diojhg4neaNOLoJBjmOwKw4\r\nB+fAOHDxBjm/nM04/AHQOIyRzTh5WNA4PoyhOVT6ATjt27w4XcdlOFGV3Tjzq2k4qaUOOFiDUTiZ\r\ndks4ofygOLqZNzjqXAQ4TicOOOjpaTjceYg4lucNOJY1qDiK/9w49KmaONgefjjoFA84BskfOFjV\r\nkTgBh1E4JjcBOKAwLDhyK3c45hLVOFd1Pzi/G+43uhUOOakb4DhotSI5dSxFOFJaCjmQLMM4Tsmu\r\nODCxUTgCvDk49hwYOLDCejjl8wQ45nPPN7AtpjjepdI4b2aKOEf5czhOvw45LM7XOaaXizo9NIY6\r\nVvwzOjpZljmOv/Q5tbVBOqShhjr6yRI6EvBEOhzjODoaOKo5+nidOXxYFDo4Wo0516PpOclQATlx\r\nyPc4JcYWOUSGAzh2Y+g4TAjXOB4DYDmw1+U4OaH0OD6mNTkNrGo5UjEuOXDK1TlTUJ85SlnhOGe0\r\n2Dl2QQs5hZRKOZpreTnO0FQ5NzQ1OeJKjjh91QY5xUnaOLKXFzj8+N037rfxN4zCiTgRd9o3TnXR\r\nN5M5mTdH5dY4AsK6OPcPtTiKsus3lo01OEoSCziar4E4GPQ1OLYF0Tic+NQ4UfKdOAwGuTebKHI4\r\n8fR2OId+oTjEZLg4aMQSOUTPfzizgAw4JypdOBUBsjjIF4g4B/meOF2pUjkFtY05ViycOX7Umjlr\r\nzYM5IvAPOkqfgDltwlM5xci5OJtVlThOyMY44feGOXRGPzjA9ag4z00jOZWKuThYubs3FfoIOKdM\r\nWDlrhAs5c3H+OIQxNTly3QM5X4SJOEiFnThS4WY4Auy8N16dhziWWyU4TMIpOIZxATi/jaY4Wq++\r\nNxsTLTebXtg303NJN193STeILbo3lh7NNzjQjjdHFNM3SRDEN+DCkTcga5I3vrKWN+5nMjg5s2U3\r\nLjOiOF8z9jdtdAE5XLNPOQ5qaznpES45d9aoOBZ1CTm5lTY50nkSOR/EazmF1z459OwyOWlvgzkT\r\nl5M4yRXpOOqlRznQJPk4QfMmOWNVKjmhO4U4AoyKONJozDfx6gc406GVODNOqjgRCc84EP4HOMZH\r\nujgNugs50nhsOOzKszhfVJI4NckIOAMJgzgyYiQ4qGWCOGw35Di4egg5rlf9OEYZpjhYQYQ4Cg3T\r\nOPKJTzgeVEA4zk1KODZU1TiB3A85BIBDN0MwyDcZDyQ5hbW0NzoDljjfO2M4AUQMOIQi/DcoXwE4\r\nwDeYOMwtrTev6AE4J00VOGFgujdlHaE37xoWOE7AITiBtqA3voU2OMrBtTd8SCY4D8ZfN7d3jTgA\r\nOZI4oLTgN8SOpzhE7Eg4ecAoONDujTjRDy44tyZiOFIdjTiaTKA3wpb2N4kfgzhyJyM4tC7nNuI6\r\nljcSuCU4ySu0Ng0qMDdYZ443qwcSN/XLQDcsXbk3MLjkNju+1DbcOsU2s6ANN2iX+jachhk3i35O\r\nN9yPHTcG7oA3gVK7N4JwAjduweg2cutAN6M1mzc/1fQ28HvxNjreJTejyRM3rL8RN0781Da0QF42\r\nrGU8N+5IHziYCEM3PCYXN4Co1zdYNXg3zrYAN9xBkDenXTA3/Js3Nhiu/jdvs7w3GlKXNg2gYTf4\r\nn6k3Di86N2BiBTi0K4035FsgNyNifTerzDU3F8IjN/bisje2nPM237S4N8S+EzfvCAU4Dhz3N+I7\r\nwDbgvbU3orXcNx+RvzbiSPQ2ggF4NxzpCjdIUgA3gIr2NpgleDcmF0w3isFlN37nYTfMQ7I204LB\r\nN0Jesjf4zhQ3BH9ZN9KVzzfi7aY3CapjN2iEeTgoRwo3UKi0N23LSDfGBSA45v+eNrzfuDe5CAc4\r\nnPC9Nz6SEzgIHA04EddCOMTjJzcQWro3B85FOPtMkTdqD983uuTZN254YzZsvvE2z1PmNuBkvzYD\r\n8Ww3BQRnN3BdFjfe8cE3mQRHN9YiCjdeLpE28tb6N6b1cjeH2F02DmNnN0UTrjftnBs3Z7tSNst+\r\nXTcSghk3wvLrNpV6jza/pKw2D3ZxNvavmDfofn83PM3jNlzELTdoQZE3so10NzMgYzd+b5w3iHGM\r\nN1iT4Dcq9wQ4HsrmNyTuwTcFsCs4N5gCOKF3dTfXPgg4rXYEOCeOdzd5g4U4svSOOMB3FTgAJFE4\r\nCUWeN8lYDDhWu8A3aBXmNoeEljf9b/c3uOr2NwFCdjeVwJs3BZrAN0BNZzgOVJM4gE+eOKRpVjhy\r\nKoI4idNjON47aziLXxI4C7rcN6dXETj9C8439vzkN8kbUzh4o3s42lYNONsaLjizzyU4w1pMOM4P\r\nEDjqsI43HEGuNto8Ejdwyoo3u6YPOKS2SThv6es4ZsQGOZ6iMznJFEo5UGF2Od58WjlvtgE5ZgoG\r\nOVvDGjmcHwg5HFW+OCIVMjhPTAg4y+afN1T9jzfHnD83R7guOORPNTlXyyc5o/oEOYTitzhTiJE4\r\n6NKWOKIeqzh18Qo5fxUFObrB1Dgkb4A4WhSjOJLBtDjd47Y4rct5OGFvLDgLpBA4lGFsOL1ftzii\r\n/7s4C6S0OEFZjTiFDcY4mYyYOGEQ7TjagPY4SPyyOCrEXziCmbA3UDxSN7MW0ze9S5o4DUsTOI73\r\nRjcV0LM3F6KcOOoV8DiOAag4UJwzODz5ITioRqo4qBrhOJ1ZkTiOQXE48cpKOFESTDit/qI4e4GY\r\nODh8PDi7ZDY4VBmrOISetDhWAGk4JFxlONzkljiuxK04qwQOOZg4BTk+6uA4TxZ+OE/kxzc2qTM3\r\nCPntN/IoCThbvPM3itAMOBoK6TeYhDc493OTOPniuDi6VOM4WbM9Ofz3kDlrPlk52TcgORhERzgg\r\n+JE3r0VkN/SJrDck/6k3ArCzN6aimzcHEbI3wweAN0Cuvzcv0y83EJ4yN4tc0jakXt428NEgN9hB\r\nBDdqbc01NokyNqt2PjZbVA43ovFONhojyDZdOLE2iOxGNgSO/TbnFco2NOX8NY7c9jW0KTU22RQT\r\nN6gZzzaSbUA3POQCN0iFhjUrlr41hNz8NPihujVOBx422q/fNcDvlTWIqHI1DMG2NZbujTZIHkU2\r\nfkNeNgiIUzb6NM81KEpNNeKtDzZ7l6g1K+rbNShEKjZ5oT01bInENfPoaDUWlTY18gtmNSzaKjXx\r\nx94164luNmMjEjfkhnM2d3qSNkZChTUasQs2pM7VNW3eVDbubbE2xXnFNfalEDYcx7Q2Mb4CNpC0\r\nHjYOQQI3N5T5NqApKjWCBS02nnklNm7yhDZuRh82FVbvNd8kWjalCr02FmaWNlsgAzbWWS82NZu7\r\nNVa9+jVINg42SJ43Ng7kvzamBfU2q58lNmHwNzVyb8E1GD1KNiwilDXoiOU1j+CDNbpdKzX8uGw1\r\nOL3UNWzmYzUmrVo1Uew1NR5uRTUsETY1jOhwNftxkTX/FHs1JvgxNbpxljWkdPk1VUhmNXRfajW4\r\nEB81u3wWNSEIfTV2Oag1lqB4NV/9DTX9+EU1ao0RNVaLJzU0QpM19BEdNUokUTUkKcc1EpLnOHNU\r\najkREgE57wbNN+jPvDdSpSA2UskgNiRNMziuP6k4UQ2gOKhXIDc4nK432/QYOGWPrzc2+yI4D+GX\r\nOLAzezgQxyE4QKGqN7W7LjaMZ7Y4gusOOVSrbjj1smQ3sD8gOBBjGTlq3Ck5VdqYOEDL1jhEckM4\r\npgg/Nj64/TaKJn43zJsnNvwW5zZYlVw2NvrkNfo8VDYhsK42MWqZNuGsSzZesIs2qFc7NXC45zZ0\r\nKhs3MwVINthLhDYsMlM2RuY6NyZYGzeIeb42qcLyNfMYgjYh0kA2CcIjN+VYDzdRuZ02eneiNT1C\r\nXDUt9fY1frogN+b5gzcfs+Q2dzgiN+w6ZTaz0w42Jj2ZNXFHWzWjQ4c147yGNZPkvzVLeSs1jwWG\r\nNf02cTW2FWw1splwNUtW/jUEeVA1hQYtNdRuQTUSQ1815C2oNUQvgzWFgm417guiNW4XbjXdLkk1\r\nrD6rNS5PWjWjXy41TiieNYP/yTSQ8Yk1xv5VNU5FazUxTBg1f4cPNemRzDWgvY813dKiNTWTPjXg\r\niWw1PGcBNYZQdjUw35A190ztNbIUYzX/tj01PO1KNZC/UTVlOaE1sjTlNQzHazXMsIk1ONWANeHI\r\nNTWyLvo0sL8bNSt0RTWHio41QrmINeDdojV4Hm01PrhbNR/uLjUItyM1JKwuNbafhTUOtHw1hyqU\r\nNlr6HzYyncE1OwOzNfMnkjWQLlw1DhIKNW2mYjUsDHQ1bc8jNmdVKTYtkRU36SrmNgeHFTbyQUQ1\r\nxI0cNslQ+DWzy6Y1uKejNe6MFTZLVxY1S3lXNeyIiTXxhZw1aue1Nb5DizWFct41Z3uONinshTZb\r\nvYM1LixINtf6yTVpyyo1fQmUNTSmJzW4nYY15RQUNbQ4oTXZGR01BHiRNUUvkjUDgBQ1s3k6NfmF\r\nMDVO7mw1ujCYNWUSQjU5FEg1qlA+NSM6ajVwsVY1QtsiNUgTKTWM2+U0yyYMNsGxlTVbE+I0PKkT\r\nNQ9qLjUZmC41YrBANTO4QTX3Bns1pgQtNdHKQTXcSlQ1kuIdNceEVzUPmEQ1j+RQNc02RzVSG1U1\r\njj8wNbDr4DUXEKM0m7QtNYEWPjXH/Zs1Mkd+NeD2ejUk6ew0YKJpNWLTITXQ0II16DmBNWstPTVE\r\n5ys1hgr+NFrBZTUibg81AKqTNSZ9PTXDF6M1FnFaNTF+czXeqcA1SxJgNfVPJDWjQs406MpnNddG\r\niTX8p0c160uINbe5EDUkTXA1x+Q9NcwxSzVvK1c1gMFSNT4pgDWQWIM1BoJ7NYHAGTVGTHg1esaE\r\nNQfpODUdPhA1AiY9Nfw2LDWCkUk1bP1dNdpCTzX1TD01ChR6NcjMZjUyEys1UE4eNQAAYTTIaok8\r\n4YscOgGqezo6d/g6n16QOhghUTpmuIY6DYSAOtAqtjouP2A6Dtd/OsO/pzrfRXA6IG0LO9lohjp6\r\nEE461JDMOuVLXzpJ/H467qpqOg/uXDoc2Z46nwuaOuZBmzpkEA47FOLtOkuXMzp0NAY7B+iaOgrm\r\nujqRXJo6MNSlOiahOjp3Skw6wD57OlS47Tk20Fs67H/FOh7c+jrIGT46yFVUOijclzosTMQ6bpUn\r\nO0ANVDqEq+g6Lp+WOle7rzopMdk62NqVOgqaWTr/wdo6wBKjOpb1VjpcyL06MA0EO31tojo6fMI6\r\nrOWmOhZAmDp0xFw6ImKwOs1GzTqVCbA6iLs4OivbHjoKvII63G4uOudSgzpjrnI6HyWvOpYBzzkQ\r\nyTs6rqkzOiuEpzqILN46fvdoOjR9ADsYrYw6brOjOgJeQDpwRrs6QMkmOlD+UzrlvYE63rZsOgJE\r\ntTpU1Sc73mdiOgElKzr4PIw63ttjOmuR1jrS1LE6zhBVOnifljp+5eM6NAWhOtAHEjp8X8I69k1o\r\nOjglUzopyqk6iESEOuR7azrPXYw6gStIOoxzbjqTj306sLHzOg2DSDqQA5A6D3mYOm6yKjrwoDA6\r\nsLhfOvOYazoswpg6A4UJOgzQgjpWdZ06njaIOoAMjjoApok6puVlOoLsTDpq1X06jMohOnJ/5DrF\r\nc5I6PMPbOrcnmTqvA2M6kiyGOrI3SjpNcSw6exuLOtwjKzqjJoc6xCRqOupsRzqXsX06uu+COuxO\r\nwzoS5pA6AkIyOqkTRDrSnKI67nS+OoKaJjrGEf06QbX4OiaOOjrkzWo6n1w/Oji+ojrMv4I6whg+\r\nO3mamzqR2Ho67gJ6OqN1XjoOSeg6avHgOnIxPTq4o3g6sV1SOqds5TpJDTU6cgDaOjlZuDqEq1Y6\r\n/1GNOqDgXDrKe646RSakOl1qVToR6e86Z2UQOtXeyTmAGiU62WWbOm5G0DpLtVQ65JKHOjJz+zrM\r\nTuU6xgyJOiAoPDqKcHI6jiwkOjYuxjrgybs62wktOlwxrjrL8ms6RxZ+Ory6aDojlgI6Vs9SOj3d\r\nPTqZ81c65D9nOu6ErjrgNiY6Ez2NOtFZNzooiwI6uAskOuA8QTq+41Q6eZ4zOpQsqzooywg7KfGl\r\nOvi9iDranGA6AbnGOh7cdDo4pKg6/teaOgx7pjqVJ5M6KrAyOsDZwTr9Iwo6LrtzOvKikTqVGB86\r\nBzwMOluRqzpQGl06WCOvOgs+qzqaPF066YpcOoSkiTplkJM6YCtZOumcjDp8hdY6T3y3OlMOiTqK\r\nQbw6unvPOgqhuzp6NHA6POFIOjIYejr1qLc6xmw1OtoyJTpFNYs6QlZnOu4STDqRe3k6PV3JOtjp\r\nwzr/pSM67hJlOmHthzo3ypc6mb6xOnwIFTqWtS46n/9jOjlwwjqBVoc639JgOuX0jzquLFg6MBUF\r\nOmSssjrFT9s6qKNYOnsTOzqERi46pmO5OpoVizray186mlezOo7FaTqoAFg6F+SCOoxs1jp+Alk6\r\nzIeeOq9aVjog9dM6vJnLOaTshzq+3Og5stuGOtyTAzvQU146U6OgOuz1jjr5faU6MqEwOpcROToI\r\nxrE6lvBPOi5bKTp47nU60d/fOjQ8rToE6sQ6KnipOqM8VjosiP86EgNKOp2GADrg5ng6gi9IOr2u\r\nRDrA+NQ6fCTZOoA4Ojp0SuQ6YsvgOsxEZjr0EA07uN6HOkrgrjoajVE6mz0QOromLTr6WKU6wD2A\r\nOhrucTrOOLQ6rIyWOs05uDpaGT86NJrNOg48GjpQETA6Z7zFOnjJnjqONSs6sv7FOkjpUjrSiUE6\r\n0FQMOlvu3TrQoCM6PkzTOeBixDr84h06OQeOOsGApjoY6v059MTSOsZcHzqQdy06HlIlOoChXDp4\r\nqcQ6oIsUOy9WgDo94aQ67ORsOo7icDok7ok6t1mJOlbvezrCxa46B2iKOsPQRDo5ti86O+Y7OiCu\r\n4Dryr446O/7rOsJ+jjrJJmc672A4Og+JqDp22Fo6bGIpOgL9SjpG6kU67DYWOj4rvDpfZIQ6jPGi\r\nOl81DTrbq1g6SZ9SOsuHaTrtH4E6zvXDOm80HjtRoRs65D2gOuhnODoYyzs6feRuOooxNzrnEKY6\r\nBulwOhClkjp+8HM6EWIhOgK0cjovuCI6yaUaOsHN5zrdBQ86X/6OOleG5TpPmPM5TTlVOjA7hDop\r\n+ao6y6pvOtSiTzocA046ZegrOl7AhzrVBLc6Hk6YOnpfJTqAbMk66DSsOmVHgzq6ArM6wk8COnMT\r\nijpHqwM7mvhYOjcqkjqP+3Q6NihoOhidVzrkHzs6b/QNOvZGLTpphfU6xeUxOpEYbjq/3hE7segt\r\nOviZgjo4zo06hMg8Oth9vjqRKXE6WG+BOkCsEDp8jYo6Jd0iOnK+dTqHGzw6JjsBOwRfqzrXRaY6\r\nwEkyOsCudzqJnUM62T8uO2gzczrAr2w6Z6peOt/CnzqOdxU6ZcQ1OteuEzougKY623bYOqcedzo9\r\nz406R6qqOvJklDpOT5A6wWyuOmD3cDpsktA65M15OlRhkzoDRco6mQ+TOmFy1Trt4mk61JyOOq43\r\nizrbyxw69s/BOapj7Dqa3dk6xMsBOm4UoDqpaAo6IiSFOutFTzoa3nM6+2kBOzuo5jo8IdY5ARFu\r\nOruNTDoYT5k6XC8gOhfbtjoeq0Y60tBvOoCsvDp7IEo6lTK9OqMXhTreq2U6j6ivOqjhiToz1m86\r\n3Q98OlpSTTqggYM6KeQPO49RBDojpAA6lr8fOvtLcjrgLqo6vAt1OjjOozooI+k6zLCNOjQ2pzr4\r\nylA6EhmKOlPLJztIL5069T/MOUq4mTo6NIQ6jGE0OugI8TlgCoc62YmROgtJcTp9rhA6uC+fOl8t\r\nSDr0yzU6DCiXOnwhfDrbAtQ6FhGsOqJwBzoSUho6KVzDOuGLvjpWgW46vG8IOhNxYjpn40Y6tsa3\r\nOuETeTraESQ60EVUOtnXYjpDhIc6qXUJOvA0azqUVUg6tvtuOucfgDpbKvo5Az1mOqmw6jmkm2Y6\r\nZFm+OWo/NTqKvIM6tV4vOlUkOzoqk0M6t3KGOhMXDTrGPk86/JYwOhyCEjrA9xg67LxdOoCrlDrZ\r\nUyM7LmhqOjtLTDoGmn06iCSKOrNLBTsIEws6gL05Or0KsDpVQgc67BGDOmx+nDqYbmo6+i+COpBG\r\n5Tq41pA6UPEvOhXvKToUxzI6qKpZOvDzTDrAyBE6HV+QOrpxVDptpb86BX+ZOrovPDpgC1M6/P5c\r\nOvChqjqTosY6TCxWOuOLZzpZ2gw6A8clOgznLTofH1k63McdOsZbozo8nwY6bG5FOlSyXDrGq1o6\r\neB9wOgd9sTpaqaI6xJtzOpYExjqgWaw6aB9/OtzpFTpQjRg6mr1JOsDSjjpUKqo6bFxYOi6gKDoV\r\nyoA6S+0TOkjkGzpIip06p1UsOgaRrTq4AXk6CxJgOk67pzrX/Js6AF/GOWbtNjql7iU6zAsuOk1I\r\njDo6Msk61yLSOmiKRjrQ0hM6+XZNOtbcTzpQmoA6XP5qOn8DljrUAVw6/6C4OirmvzpebpQ6h46v\r\nOggfnDpJdXs6rLlzOlWUaDrGljE6Sk9lOgNcJDq0Y2U6XhBZOmzLozpu4VA625FBOvQOHDqUQEM6\r\n0r0cOiBJuDrQS8k5QyBkOkn7LDoERPE56ugkOyOA0TrKV6I66IGcOqIsPzo9chc64LCmOg4UZDqw\r\nz3E6GjGuOiethToSI6g6MpGSOqDhoTq6Oao5rkyZOfmg0Dj7GRM5o0mzOL19JDnMEFY5RIiZOLAv\r\nYzk7BSQ5mjGwNhtiRzdSCrs4f5SaOe2gRTlHw/83qOL0OJueUjmVrag5mW0vOS0mnjhqvoY4hGDU\r\nOPNPcThaB4s6Zt/wOgZ2ezqjzTA5wBOCOQ1tYDgnESM4wj49OORe4zUukNQ1PG8gNqFHaTXOnNc1\r\nlKzXNXH91TWslYg1iK24NdxutDXtL181ahDVNc8toDUskzg2pCOvNUm1jDWkhB41aHnJNUenSDVI\r\naSs1ND4zNVyEiTWUN4Q1eW+2NSujwTXG+1E1QU6pNSKPkDVwL6c1UzpANbxXrzXjPtk4Ac5cOQdd\r\nBzl28qE49x9qOdpoGTnraIs25qdROURqcDkDj5g4l0g1OGdDmjkyx+s5TiWfObhq7Tl5P7g54OMF\r\nOSaxzTmDreo5vRkPOW8Owjj+Zg45IqSDOKUJjThqWSY5ZtzHOfJ6sjmRpgM5wkMqOZ8f6ThPei45\r\nIq3iORCeoDkepeI3eA5ZOFJNETgmKV45QH8UObebADne7SI58pQtOQkQhzm64845xBHEOSeEIDfb\r\nbWE4OqhcORILVzkXDBE5TABYOe4eOzhLdfg4odOtOfKVYzlSBPo4nAqtOUGL+TkUQAY6oCY8OQ6m\r\nAzi6IlE4kmUbOVQIOjkFL8A4KMEeNxVSKjXA3JA1rDg3NdAViDWVOko1cy5uNfRs3zQDSSs1kkaO\r\nNTzoEjVKxls1gRtWNZzGgzX17zU13lpfNTIEwjTQdP40tKZrNQrxTzVR+0U1fCOONdBMnTVqLqg1\r\n5nX/NQRCKTWEfiE1ZFV/NfAyRTUo9zQ1cFIVNRxI3TSWo8U0wai7NNG+SzU/r2o1C0HpNMdQ4TS4\r\nHUo1DBFANb6uEjWHJzQ1+RsQNU5OUDUW6yQ1MZYDNWlHbzWE7xY1JLolNSvkLTUTt2M1Q7ORNX7c\r\nXzVeExk1w59pNWST6zQDU8U1Tw97NX8/BTW/hxg1Nh1SNW6zlzWn9ao1h6V2NfOWeTg/nnA5hVa1\r\nOSIOMzklDXE5L+LXOTEsmTk4knw4wxrkONrqrTnIla05RspPOVyZFjn8j0E5eoybOCKZWDm6Zto5\r\n9n5OORRT2DhYbxI5w+nyN1ethTiUWSM5iq+xOLHugTgoUhw6hgPtOR3OsjdU7XQ4QPYvOXWWbDl9\r\n7sI5eoUqOeaWGjUIlwA1ATtDNXRJKDXLCQQ1Jvj3NNuDVTXaejQ12aWENYR5PTUuPTE1KfxTNXxD\r\n/zRzy7Q085sgNaOy2zTUw6w0hHPwNHpIRzVWyh41Jh6kNaRDSTW9rR81m0IrNeTZqjWCWI41z6jy\r\nNHGxYDWVMF011OKPNFJMEDVxFOQ0UVcINVesHzWj1BE1xr4ENdkVDTVoUlw11WNhNbfh6jQHbxw1\r\nobEMNaunlTW83iE1bjQyNWrL5TRAkCQ1AgTCNP7luTUfy6w1WKRRNa26NzUTe0I1dZKYNEp2DDWE\r\nTPY03JXFNBOA0DXX1vk0UA5nNULhdzUnbUk10h8BNRx4fjWmcQ0181/HNDRHijWRG2I11AJSNdSv\r\nKTWwhaM0IiITNSs7GjXmWJ01AplpNTCJ3jSVs0817ap4NUdRwTT+jSs1VcRWNWdY7zRVBJc1gcWH\r\nNK7fBTWqKPo0hMf6NOEnCDVlaYY1MYyrNL2QGzXTVt80HMEvNUKsiDRhY/40AEA2NQ==",
                            "noiseTrainingType" : "default"
                          }
                        }
                    ],
                    "start" : 16443,
                    "duration" : 442,
                    "mediaStart" : 202,
                    "mediaDuration" : 442,
                    "scalar" : 1,
                    "metadata" : {
                      "WinSubProjectDisplayName" : "",
                      "clipSpeedAttribute" : false
                    },
                    "animationTracks" : {

                    }
                  },
                  {
                    "id" : 107,
                    "_type" : "AMFile",
                    "src" : 17,
                    "trackNumber" : 1,
                    "attributes" : {
                      "ident" : "Aufn. 07-14-19_033",
                      "sampleRate" : 44100,
                      "bitDepth" : 16,
                      "gain" : 1.0,
                      "mixToMono" : true
                    },
                      "channelNumber" : "0,1",
                    "effects" : [
                        {
                          "effectName" : "NoiseReduction",
                          "category" : "categoryAudioEffects",
                          "parameters" : {
                            "denoiserAmount" : 20.0,
                            "denoiserThreshold" : 0.0,
                            "noiseProfile" : "SP6rQEujQkDNJI4/wD/gPv/Ckj4PAIc95qSFPM6wLj2hIYk9VmQ0PKtjPTwo8wo9lPvVPPTXLDw3\r\nRA08NR0CPHNbpDweoRs8lY7qO5bosTtOEDc7hEbEOltCGjtqba06XBcfO/rWhzo3Xbs69CXVOtg8\r\n3To/TA46MbSpOiflADsIu5o6QUCVOlomaTrB3t06ydvqOqOy3Dq+R0o6j/swOzi7TTqkXnM65VFZ\r\nOk5StjkbC5A6P8FGOvu+jDqU5/I5DuMEOhXLwjm/LJA5BecoOqOf+jkdXMw5sNPAOdma7zo+T7A5\r\nKCz8Ob6uzTooE5w6UhRGOnLuXjr4bys6aPLGOUg01jkV94I55ijdOeD/eTn84WI5zXQaOqQncDnA\r\nYAI6MshPOfYjqznSeKo5CVo0OaqEwjlAz5g4uDYqOX3rbzkVoOU5lDzROZcHgjlWRvE5Z96hOV2I\r\nvDmlyDI5ZV5iOfoetjmmqTA5xXg/Oqi0ijkynKI5CzwOOXoGlzkCR4I5KBsAOgxmSDnmqcw5r/1L\r\nOppX9zljOqE5/zJVOdKxgTnhkhY5Oz+GOYWXgTnKbFc5DLUuOe4AHTkHqkU5DJISOfb6FjmqGLM4\r\n4ELdOSccITm9Bx05R9aAOWYfsjnzaJM5aFdtORESMDlav585CzCaOa0H9DkJ1a04m9EEOWAMPTlQ\r\n9gw50JM3Oc34pjjIGpQ50lYWOftGCznz+Hw4oeqdOBjYnDhAVAU5aMa8OJt42Dh2AS85LKR8OPux\r\nyDi6bI44sN6lOFUjFzgFihw4Po6pONLlEjhk8LA43hmjOHwqJDj4LD84FWfZONKaVjkF1lo4VzvD\r\nOIWLHzg8+to440pbOMk+rDgPK/w4cek9OPlDbThgTcw4roEeOKu1jzgsY0s4PGBgOE3iSzjaAoc4\r\ntF9vOFEfJji7JBk4GlcROI9aFTizaUU4jg3dN9bO2DftgOY3kILQN66XoDhAiHg4QOYBOJR3AjhJ\r\nZeA3HtzaOAfhWzi94zU4vZkfOI8aSjh/4xo4xp3WN7Ywyjfyo7g3SPgDONq0njejL5430fPWN7za\r\n1jc2FsY3kjofOPxc2TfcUvg3GDYXOP+HxDfYCP83kFUyONiCjzduuzU4n6EgOKQIvjcoRAM4Dxjl\r\nN1SVqDdRVks4zOzIN6g8Hzi/gEI4X8U3NzKZwzcoRmY3QxLBNwHACTjTdbY3kUQuOL53jjdleLk3\r\nFfpAOOmXXDiJcDE4KrAdODpOAzj2XZk4YOkYOOD2nTgo1K044M3vN0rWnzgKDs43SqEDOAZ6Mzgi\r\nLJg4H1sUOFHY+ThL7rE3zx3vN/4ylDcfUy05HzaiOXXw7TlANcE5EBTJOV1f9DmNOO05SOWYObT8\r\nwznI5RM6jmjeOVa3TDlFliU5uSIkOR9JqDjqFIQ5R4WnOYoZPDpT12c6vKQLOm9iqTnUSO85joal\r\nORWSgDnGbp05MHqnOb6N7Tmnlz05vOsvOdhECDlKYAE4bs2jON23wjiMOOE4rNKeONBLXjgLIb84\r\nBnwpOGx94DcFRsc4K2WIN8zaDDjn2tk3HbPWNw7KEThjDVQ49ZwSOH39ujjHpbI4d+rkOGtv7Deq\r\nlM04G85xOLp9tTjuyJk4g0+cOOEdwzi/LDk491/jN0kfUzgQkog4PO48OHEiQjjKOIM48GsjOIo8\r\nJjigQn83hTjLN9YQbDjIYPc3SaDbN8im0jfO+oY3ClkhOH8DozfmAx84IJanN0dHgjftgCE4whm/\r\nOMhb4TdlUHM4vPo5ODLnYzgtIfo4uhmvOOQdFTg/7Ww4Tg/yNzh6SThH/g85nMghOdMKSTlrdIE5\r\nkdWGOQPTDTl4MX84eBkKOMe2TTd25wg4EZamNw1DDzhUDGI3RRe9N23XMTd4fDk38AOCN/LkHjci\r\nkoU38N4TN7YpsDdtmVI3bgpBN2CaFDeq7uc2aRx8N7IRJDfosiQ3rygnN0aqVDc3bT83Fl7hNsEd\r\nADcMDZk3lhF6NyfAbTewtHA3r/I4N2YxiTc+rFM3Z+DHN1DQtDfOMyc4hM5KOCqHpzegJoo3wxrb\r\nN7rgkjcTxPc3yI+rN3ERJjdDkDE32oqXNwHaCTctB203lNRzN5LRPTdkOW83qVqIN338Pjc48LQ2\r\n5dmUN2mAHDfcZyA3lQ4CNwRKHTdxopw3G8irN6708TYExn03SDAmNzlM1TYwDf42eUxSNwnpBzce\r\nyR83VDLhNkUR5zbswlY3zGjcNvD4oTYnQbc2WAoWN3MPdDZQ+ak2Qx9JN2gOfzaiCCg3I5ANN0lc\r\nWTeunNk2TP3ENu7PBzf5N1E37DyCN3swzDYJ6Og2lvjqNoZtXzcQc6c2LS8RN7nyIDdsbPo2euq7\r\nNxeIGDfYjpg3yBgaN2MdGjcsHk834tIUN4IKNzeXKdw3IbEWOFmPijfERBI3cMZXN9p/azc3tDw4\r\nSuIjN+7SPzgynmQ4BxGMN3yHmTc+Nos3OFuVN1XSjTg3zpU3MViBOGttjDfREP03xK5JNxJ1Sjcu\r\nzmE3+gOZNvtu5TdG/OA27i03N6mGwDYqKBU3diSfN+zSNTfc3783vfNvNxRBTzeE3f827x+QNprH\r\nbDeOe38310UaNzDL4TfZ9MU21SVkNxe49ja38wI3DgIPN1bU3zZmrYc35FXrNuEMtDZcxB83tCOZ\r\nNvk8kzYcCjw3VzKeNuICZzfuhCo3EL4gN/9TZjZcExw3vlzBN5uxuDaFn5I3isJkNrmiATcAAPQ2\r\nYEjdNs//nzfM8oU3k++gN+OWhDecY5M2obAlN1+PMTeIKKk3fQ0PN3LXHjfEjcM35G8XN8AExjaH\r\nr6Q2e7ymNgodxDeRvHw39MnON/DaRzf0a4s3tMQXN+GGcTeMxOA3Uq0BN4wxnTcQU0I3OwQ8NlGt\r\njjcrvok3toE7N0N1BTeNurY3PIh/N33NKjcUaG83R5uUN8bphzeW8aY3Uz6PN7KndDfu/783Z4kU\r\nN2ijYDZMc4A2HEPoNUpgcDZv/Bk391+YN5seEzdu64U2RWatNlBqfDe9v3M3vPjPNvcR1jcCc083\r\nGifpNkgpTzfz9h84nSIBOBMSnzYgolk3dbzVNkDwDTcWbwA3MEmANplUnTZvW8M2B4rGNniIWTaG\r\nuzM2nrVjNl5WTzZ4pU0242k3NkhWYjaMt9U1+5ccNl+8lDYNVw427nTHNgjJMzZE7Yc2RJxoNmW9\r\nUTaY2082cZLVNt04CjaAfSk2tJQ3NmNmtjamLxc2c0okN1ZtKjaadCA3AC6CNinNczbfxCI2kwKB\r\nNt0eEzcoSeA2LikwNnCbMTZH03A23EIvNgjHKzb2u1g2dfcrNg82OTbfC4Q2BNeeNn7rhTYTxoA2\r\nXa1LNlhrMTaEc482AuQRNr0mmTaZ+Yo27bGTNhRyeDZ0h3E2+LMjNlU+kTYJqTo2zieeNr05WzYe\r\nkOY1rCV9NtsYWTYVkIE2p2YaNqVWEjaIKF82hKUONqqDEjZVXmE2MH5JNpOfXzZclCc2Ii8uNtAP\r\nezaJqpM2wmM2NiJuPDZQ5QM2McJXNtglYja2CwM2JLzrNY/8uDWIoi822lRPNnvPTzaYiHQ2ML8i\r\nNrAvfDZ61S822UXaNrWX4jZWLE83AF0nNwgZrTZPkWM3z4knN8o4Tzcey4Q2U160Ntay6zZhgH43\r\nlup4N4rTzja8MvQ23LB7NpcmMTcG7TM3+uNyN/i8UTf1dnc3QoWcN1gotzcAh7Q36h8FN9tNLzf3\r\nduM2nHAYN9QeyjY16CE3nmytNoLPNTeDQDU3UCukNridlzY5hNU296EDNrKwEzYgjh432mtyN0FJ\r\n2zcWdKI3otl1NkFVbDYhHMU2nUYlNuB5IDYxn1U3WR4+N10bTDY0rQc24PnDNgynhjZqylU2DElY\r\nNny+DTb9jS82eoA2Ns568DaxeZA2EZYWNjspfjYZEIE2F0vLNp7GhTZFMTI23rIUNvN5szU16Sg2\r\nUeIUNrVpMjba0wA2tLc4Ng5TizbSovQ1lDMaNkf3BzZt0xg28Gk/NqVlHjYetLI1y1M7Nn7BAzaK\r\npQg214qKNkv3DzYhcRY2IZkjNrYkTzbJ+cA1VAH8NSIUJjYVmQo2PJH8NYorEzb9ybE1IobZNRIf\r\nUjaaQzk2RMj9NaKVSzZcujM2sFYcNhiO6jUo8qc1bWwyNtEJiTa2S542xpcJNrhUrDaiWkc2b1UC\r\nNoWMKzbYw2s2hlKRNsSfFzbNMYI2HCQoNubXXjaZgUA2SC8+Nn3TyDVpSTQ2Kob+Ne9QcDZxn042\r\n45AaNlxnbjbZajc2sEwvNjc0FzYL9/E1wtazNf+7ITatfvs1wisnNqArXDZpmOg1mcLrNR4wRDZ8\r\ncAA2+hVmNmyqSDYbG4U1xi19NhSwRTZAYQ421fTvNQhaSTbCzDE2uJT0NRGMLDYwsdc1W8m1NWT7\r\ntzWkhjE2g2bGNYdwLDaQOgY2kb0FNiK6JzcDNi03wD0WNyrkNDeFwwQ20ORDNgtlJTa2fSM2zjP4\r\nNtgXgTeWhCQ3PAHCNoeuFzdrJuE1T938NSbVJzfupzw3vZuYNqh2JjZ4drM2F5PpNsqKuzaSLJU2\r\nfJg1N9CGhzbK1ic2bcLQNk6onzZyl0g2CrYiNiB7cDYdk1s2PmoyNhBlpTUInzk2XSohNoMW1jUg\r\npRU2Ee1MNrLJIjYm5+k1M6e/NQgdNDbtVNg1CUecNTo43zWSqu01/i0jNgTh+DUlHcM1bGEONtx2\r\nGDaoZ0c2No8YNs0fozX6zeU1tccKNsqvHzakgVA2HugJNhro9jW9RDc2T2vgNdUs1jVM0zE2EOPp\r\nNQBxszXx0hw25h1kNi2DDDZvuAI2WM6jNbEdCDbZYRc2oNPVNXY0hTXvG7U1noDCNW9K9DUU2fg1\r\nQBozNgkwFzaMSr81GEEMNlw2tTXk8Ug28Zc7No7pXzZ2QLg1EpD1NeFvKjbFpes1YcHfNZsquTWf\r\nuMQ1OBrZNcWSCzasg7Y1vn+xNU6D5zUHkr41ekcXNhK3rDVsNuA1ggQZNrIOfTV8Lx82xMPbNa9K\r\nGDbEnhU2tnQFNroosDW3bA02d6oCNopX6zUC9wc2MZAINrRlGzbfpIg17QoZNn6/QDYEvwo2zFry\r\nNdwYpTVro8Y121sANnd6+zX8KOA1D3RDNoB+DzbQqCI21rsONiEKGTZ0+A42+qUUNjNJ0jXm0Gs2\r\ng3r+NR1N2jWuYNE1cUj8NTJmzzXoxS82vd3rNR23qzXq51c2sALHNWa1BDbXGUM2Kw7XNXx3GDZ2\r\neJw1zsioNbxeDzYrfN41iZEINkmrzjV56fU1OgS4NbKX2zVz+BI2OeMmNkpx+DWkG0U2BkmANieP\r\nNTZeW5812qjoNczA0jWkiQ426rz6NUaNCjaCsQI2RSH3NS1u2DWHP881XKfmNU/09jVeoCc2NbvI\r\nNUf9+DWhX+U18xwpNoAorTXczgw26nTnNaIujzY2zdo1h9G3Nc/mujVVVBg2UzEQNgAg5zVG1Qk9\r\nZCAgOik6hDocp3g6xH/SOhIwrTr50o46nSvOOmf0LTpWNbI6lDOqOr09OjqRApk6eKdgOhprljoy\r\nWOs6PN98OlTSjToKmKc67/IcOyBcqTolH6E6K9QCO4psJDpaqac6ePVIOhinpDqzXfM6xz1HOvwQ\r\nYTr8sbg6CqLKOnwfYzrYtFw6M/KNOkdMtzp4ukQ7vv70Om6imTqw3WY6wMU9OksrFzoEzKQ6HSUr\r\nOnaVnTpTZWY6Fw47OngmvjpMm4A6rqlMOh59HTr34R86raOXOlaTOjq0r0c6y6YVOrpjCTsSk6Y6\r\neDihOnfQITo77Jo6dmbOOgn/bDrXF8c5HHPDOm+4WjoE1sQ6khiAOla8YzpuyJs6iE1DOu7cVTqw\r\nXT07oNFbOv6ZbTq68ac6zB1TOvIVwjqsbfI6EDGuOmkdgzqT+4k6eBNtOqLArzopFx475vhOOjDs\r\nPDpLQa061gjeOi2UrzqPWKo63+2AOj8YUDqMjoE6cn0TO1Ei1jrPz5A6HbiROlhVlDqOR3A63XnJ\r\nOSrzeDpXWLs6mikqOjhbPDqWr3Y6K0EZOo8AmDoGiwA6IG+SOjwdEDq72zw651yBOje1gDrylpo6\r\nLgedOtr/RTpomjw6ZKU0OmrO3DoeHZs6G9RROmylODpTxDg6ahxpOmkyqDoaJG46ZDvaOsTvlDot\r\nJDM6ICIYOoH3SzpfWbA61G8sOg1spjrY4Uc6VQpEOkl4hDoKrYA6bDvFORZohjo/7246tHKvOvXE\r\nYjoNASE6JAuTOl0bmzpOyaI6nGgMO/wMkzqL47I6UvimOjDk+jqwjZM6832xOhXYATvtCkY6KrG+\r\nOgU+nzoJb186AOqbOlbJHDpZ/rM6KKHwOrJ3hzqjfb06VkHZOvCjfzrcCCs614LcOTEWTTo3koI6\r\nfs8EOskgWzoL74460F9ZOrIyQTqmDzo69fOwOnoF0TrCJTk6kDONOkZxbDpU0U86VF+/OhM8jDqh\r\nESg6NvUBO1ULsjqVXvQ6laJ2OvKDLTqVOqM6hF6oOljAXDpm7nY6uKpzOpwRGjpTvVk6sDiCOiLD\r\nHDrQUaE6L2SqOrCtvDphk1g6W31dOhWqnzqPphw6vxVPOkCZxzpcTAg6eRiGOv7qmDqQET864Ks5\r\nOkgNujpvFt068SmPOlbemDrKxwY6Z8/gOpr+oTri/Jo6/jeWOql0CDqlczs62ys9OlYbjjqhTUY6\r\nSy0AOjL6ODqyEbc6WcaXOoBflTp9REs6mo7JOoEslDp0fhU6UtEsOhn1bjqZwTU6j77NOn04oTq0\r\nRDA6OTuCOkbUDjqpHos6o2IQOmkMVTps0i86T4zZOisZFjpM9/86O4hgOsyZhjoqVEc6li40OvZH\r\nSDpz9X06xm/2OVIA3TosPq86558QOplOKToljcA6evWHOjahnDq0kDY6agaeOizynjppFZ46z2KV\r\nOsekvzot2YM6yR60OtQBzDnMAsM6Pd+cOpvnKTq8KEk7ah2zOl6UFTp6HW86FE57OmRKUjuOw7I6\r\ncBnPOiDu9jn0hqY662dSOqw/JjoCgVY6Z85SOuAmJToCc5I6OupLOjEnHjoaabQ6bytzOm5Qijpn\r\nGpw6wkHIOsRaGjrEll46J+eYOmq+lTrnMhw6xxjfOcsd1jqTNXM6rQQQOghSxDpmrCY6AuPfOmDp\r\n7DrLKoU6JRSFOuMelToRt006iy6COkldFTrSdJQ6RAyOOmgppDpEDh86SJRHOlHquTrJY1E6dWOL\r\nOgsxMzp1JxM7vx90OlouEDrG5Wk6DLLKOgaFWjpkkYE62PypOn1DnzohL+k6d4xlOn5TMDqkSVE6\r\nfB6hOvT6tDpO1Zk6ku28OlGtQjoEozA64QumOoOVRToGxqw6oaJeOuM51DpGvYY6BPFmOuHAeDpO\r\ntYU6RJJ7OqSkazpr3no6LgJsOqFMmzqFMKM684L+OnqplTrUXo46vJ6DOj13RzqilHw60GgOOl81\r\nODrEvJ067riAOpuImjoHgAM6paMrOmZ6ajrP3Nw6yURIOmzDkjqxYoo6xdSbOqfZQjq0GbQ6ZdwQ\r\nO8u11Tq3b/s6XROPOsKpbTpyeTE6fQn3OUGdvzqY/Zk6JGtHOjhVUzqNaSg6D1+cOsrQDDoQXVY6\r\n1wCTOqcugTrPaB86GwgDOjLYuzorGQ46lqaMOo5MaDoND1Q6CJqqOl0ZHDv3og07il+QOtZYijoO\r\nTGQ6yD0eOvpYDjp0KAY6ngg+OhnIWjr6Yjg6cZS9OiR/GDpc/jM6w70NO8DbJjrEYoM6OG9qOkBc\r\nPzpIaxU6mH9sOmQCVToNM6U6OiuSOhJwFjoU7T46nDkhOqgWlDp661g6/A9qOvVCozpl82o6p7qo\r\nOqo7YTq0oLs6E4E0OqhLDTqPy5M6mIidOsOOPDobQTs6gjpSOpwEtTomcTQ69SluOolImDle9vs5\r\nTfQNOiPigzqx51U61IutOivDbTpynSg6UNtNOqamHDoAW4E6zpnoOhE+sDoO+ac6MDJUOjdUijpk\r\nk0Q6ZnVPOhAIhjo9zJI6u9uoOmpbfjklbZ06rFmxOvYbljolNmk6c+DEOpKEnToTKM461vjmOXL7\r\n+zqw1G86VtdpOkzyPDo4EaE6k5COOnrxUToCytE6VUsxOl2GNDrg15I6CzGgOtyxKjrmb446ekGd\r\nOmRzhjoW01068ONMOhe+LTpiQVA6WhRROsYOgDrnJmA6ly+WOmsXWDq+lHg6DimzOoAKqjpbcWM6\r\nfR8jOpGMwDrHtNM659JTOgV6YTqsW5I6UIVzOnIATTrM3kw6C01SOihUgDrCVF46xqJ8OoZYRTru\r\nPR86DmDgOnbGJzuliuU6ukgIO4uauzoa2YI6a/U1OuSVljqVjUI6bj2GOoJRtjpEv5k6J4KgOn7K\r\nXTqjqDM69rcBOpmmKDqJmYM6WopaOiHkljqaDHk6kGKSOh9BezrzBUw6DCAwOqEuXDrdh346cmWB\r\nOqaxNDoWSUA6ailROl6hjDqxgYM6rJKuOk+tjTprZZM65uI4OjzTXzqu3DI692QzOkd2UzqozMs6\r\nCaULOrJbjzo5aZM6q7M2OhKIJzqB7vc5oD18OgdhJDplOSA6KZewOhVPUDpoBSs7Hv+BOgD1yTrO\r\nAno6QSKYOqBFzznes146Es5zOryIBzrSI0g69bOvOjsoTTp8SGE6iKMOOiIeIDpZmyA6ra/hOQ56\r\nJjrTaVk65z0POlyjHDo+01c6FeMOOlkAtzreh9o6TEUVOpecdDr1RJ46iCxKOuBDYjrJFWM6UBLd\r\nOqi0rzpAQWM6BLYrOtQTgDoGims6iWOcOtDOmjq0xE46DIKCOq/hEjrEXHQ6UsZ5OuXhxTpCA1A6\r\nu6rcOgUyCDtxCSY6bypQOg6I2zl5OxM6Kh4uOkGXajprUCs6gaTTOt3UujrQ6mk6yecXOvwzhDqk\r\nS7U6Oj2COnHmdTqZnVQ6Tf47OggwYzqEkNk6Fnj9OpFxOzqRGBg6ej+HOlUghjqSGTs6lWwbOlit\r\njjrETgk66DuWOu2cPTpVykE6DqzsOoysnTqVojc6o5DJOV4LiDqNTEM6M1MjOlbVTjocwu05hqOt\r\nOiOtpTrJBrM6PmuUOhbkgTpMUWI6dsVuOrJAMDrXq6U6SLu3OreQmTrZ07E6BCRIOkatGjpsU1I6\r\nV69wOv0bcTqU6yA6bnY1OrPEgDpcIbA6cJufOnzykDrYfMs5CDPLOjxBljpdTa064Mr+OV9Xnzq5\r\nC6s6gPHDOtTUyjlCh1o6KGKOOp+/9Dk0cdg5oAoHOkcedjkLi0Y5PJkEOm9NDTmkBtg4vO6FOTSe\r\nkjnz9uM44P/cOLpWpjnL9D86l8L+OYq/mTjMuTo5BcjfOAsYuTjUiQo6BH3ROb6jDDgSd9E4dOka\r\nOWrrZDjLh8g36mVGOOI6YTgu5aw44mHEONoWMTm6Biw5KoulONxRETYw2w02zIg9NjnUyDWKB5s2\r\nD7UoNq2JTza+0+c1Fey3NWL2xTUGdZ81zKGvNSHtZjXtQ4Q1Cl3DNfJCYzVdQM41DDiLNWbtHjbJ\r\n7z81uoeqNeyYnDUtubk1LHGZNc1jqzWw5SY1rrOeNeUBkTXCApk1gKkzNbinnzXfl7w4mY3uOejc\r\n0znM4CI5y3+0OfyFBzrRXNU5xxcvOrmtejoRev858YcLOsirUDqrjmw5M8YfOdC3xDlWjvo5voQb\r\nOZZXazl8n5w5NIPNOGz8ADlPIbI4rDw0OEOrXTh4kng4X3+ZONHSIjnfOqg5uMpeORRbBDo4Lt05\r\nPY4BOd38djdaVKE1W2SmNdxZxjUq4541aQvNNUHSkDXO46M1ihpINa7KkjXYe041qghxNaUOszUN\r\n0Ls11KCyNeg2jDWJSTQ2LQnPNUBK9jXIP2w1kejTNR9jvTWLLfw1lNzXNZzq8TVjVxg2dEgXNmhd\r\nOTbrNO01oqvsNRiDKDbUXg82wc6pOLu0IDqs6YM6Mh4HOumYYzlGuYY4jeVuOYb/gzl++kQ5FtWo\r\nOQ7kFTpN2AU60MAHOQje/TiBb5o5I08cOhyw1jl9PBE5iKMMOVKMDDmclTs51R+GOfwPajlSh8U5\r\n2s52OS3swjn3TeI5aPc1OfvBRDlBrCE5+pczOYE06zgFxg45kvJkNo+BuzU63Kk1b2WQNUtBtjUN\r\nexs2l/uQNZQuQzUM6uY12l/1NTjYXzX4Ehc1RlrqNRVmFTXqous1Yiv9NOp6VzWq1nw1Yh+QNUZ3\r\nmjVx0281KW+QNVuGSDXMYCQ1OaiJNVrYBzUb9os1tHp8NeTzpjXiPUY1TlWjNXea5jRyYyk1gYIS\r\nNSQLgjXhPs80NlIpNYDHLzU1whY1dNQZNX8YrTUzihI1LadENfiu2jR2rq00+A0aNbN+AzUcu1E1\r\nkM3+NEZFzDUePbs1I/2cNbHXTTWWgBo1XE7aNCb/qDVVaiw1Xcf3NM5IEzWS9tk0qO7CNBXoGTXe\r\nMCk1k98dNQ+CyjWmKjI1pqAaNQnAATWd7N80PWHANJyTRDUutzM10c0RNWHfLzXsoiU1KC0ANdgv\r\n3zRNwoE0qsYHNV0EDzX0syI1FUcRNTDKPTU3eiU1v2E7NZNV/jR2qV41KDElNYs3MDUn7aM07/Q6\r\nNRzwDzVHYUU1Tt8fNZkLeTVKVDg1P4AJNdDNQTWGVSA1fCkiNcZfXDRuGCs1SmQqNahQizV3xgQ1\r\nm8gKNWhZqzTCQdc0NuVNNX+pZzU8+HA19vK5NATd/zQFL0Y1tDYiNbQw4jTWoxY1IZ1ONSQdqjQk\r\nnTA1XTdzNQv7sDTFBvE0fg0DNYpu7DTyF0g1vB8cNSXGNDVkXRQ1uhEMNeqKQjXyfVk1eXcUNd3b\r\nNjXifQo1M0QHNTGSQDXeyBY1Ybf7NKjPGzWnVTE1uVoONftqyDQQ1pk0A+FlNfWsCjUSByw1t185\r\nNfT9HDVhf2M12HbSNEpz+DRLKkY1DKhNNeItFDWg0Jg06j8XNUL1VDXAIeU0AAAQNQ==",
                            "noiseTrainingType" : "default"
                          }
                        }
                    ],
                    "start" : 16885,
                    "duration" : 2222,
                    "mediaStart" : 99,
                    "mediaDuration" : 2222,
                    "scalar" : 1,
                    "metadata" : {
                      "WinSubProjectDisplayName" : "",
                      "clipSpeedAttribute" : false
                    },
                    "animationTracks" : {

                    }
                  },
                  {
                    "id" : 108,
                    "_type" : "AMFile",
                    "src" : 18,
                    "trackNumber" : 1,
                    "attributes" : {
                      "ident" : "Aufn. 07-14-19_034",
                      "sampleRate" : 44100,
                      "bitDepth" : 16,
                      "gain" : 1.0,
                      "mixToMono" : true
                    },
                      "channelNumber" : "0,1",
                    "effects" : [
                        {
                          "effectName" : "NoiseReduction",
                          "category" : "categoryAudioEffects",
                          "parameters" : {
                            "denoiserAmount" : 20.0,
                            "denoiserThreshold" : 0.0,
                            "noiseProfile" : "l0JZQHxAYj/EBxU+3hHUPKJvMTyerfM7tECGPNXylTs7sZw7prozO0zreztkXsQ7dqIkPBawRzvY\r\nK6E6oy4fO+0GgDu8r/Q7WiiwO2pOvzvGboI76RaZOr60SzrAukE6mexdOoxeMTpq8WM6aF5bOkBo\r\nKjqa3d05bYLAOUz6aTrzmI45SVI9OQrXyTn1EQg6gHNDOhiL4DpYoZI503GOOpLsszkawAA6hAOB\r\nOp4D9DnZhn05vdaJOg9/jTq4ALA6WdPvOXn/9zknu2A6X9QOOmJoWjkIs385PlyvOUsuFzp37pA6\r\n6zsJOouw/TnqFYM6JMELOuEAKjquY1M6HSr0Ov98BDuFpIc6bMGsOnPUyzqOMbo6c3p1OgMu3zon\r\nKYQ6DmbzOrR+eDvXZ6I6Ko9VOyNW3zvP3BE8Sq1ROzbx+joa46I5gswyOZ/eFDp7jlM6uGefOtag\r\nQDoLu745zqwyOk4u0jlUsAA6aIiEOfSfYTmlW4M5HKmnOWDkZjn1C044nuZSOaDJ/jg2kfs43tY9\r\nOZ2qOTlu5VY4Q6yDOKtQEzlUSrc4tXffOUA5ZTneAXE499t9OOqFDzm2jfY4XMC/OGCDRjgeaMY4\r\n4iSSOFKg4DgxBN84n4IsOT5jjjji41Y4YFAtOJcDHTjYkSY4/kP9NzRcmzd4uJk4sMieOA51oDi+\r\nz8E4KmHYN58FVzjWgJw3PwocOOGAADg5lCQ4Zdo6OGNINDhM5FM4H6J9OJ3LCTjOhOQ40DSiODzk\r\nizjlm+83aqseOBPjbTgZsVI4d+cWOMkdtziOvO83df0sOG4fRjjYUhE4zzM1OJKQnzgUqaw4c9So\r\nOOyfiTlj7qk4so+JOcnxtzlapx85b3woOgyCzTpnATc6Rk6mOZeOZzr4g1g6tipXOt7Fszq+28o6\r\nOZ6/OkL6+joAuNM6thcXO8LwGTs36LU7AtA4O+ifSTuvbXA7t9u9OsxRDTvtQIc7tzqoOxLNFDu6\r\nr9k6GMllOzbV2TtQuo07rmP2O98OJjwfWgc83f8xPCc0LzwgfBs8J+4JPHmpODwVXRQ8T9IPPI5y\r\n6Dumg6k7Wh7EO8ShhTsZqU47sOQrO3KUTDt73R87iPD+On955zp0H/M6z8MjO1nyLTvYaa46zsLL\r\nOo4W+Tr02K46JlTJOp1zsjpbFn06OiGFOp86ITpr0Dg5OgtNOcu0eDnV7kE5Yu7POSip5znYe0E5\r\nEfLKOLzEATnfFhg5R11bOLrh1TcChpk4ZO4DOeR/2jjq4hk5vEYROP6C/zeYxEQ3Y0EeOPzrsTeZ\r\nNsc3xiyfN0uBkDjwJQc47HAcOIX9LziI4vU3FSNnN/b2wjeAzpo30Hs2Nyfn/TaMYbg3WgQdOG16\r\nADdAllg3gtAjN5hIiDeufZI3WM85N7B9Nzf0hqs38uMKOC9dEjh1/Qw4fcVXODSOajjvipU31JYI\r\nOD16jDj0YuM3mfCXN+//qzcEeJk3ELu4N2/2kTcMEtI3Vul3N8GaHDghWtw3kMY/N+zPBTh4MAE4\r\ntCEtOOdSEDg1vFU4asEhOMKK/TgaewU5Dkn2OJjgwDjmkro4L7emONBx6Tg9z/I4Tx+vOFsdozil\r\niqs3bpNDOEMCaTjRYkg41UyQN5ThLzdm77c3uO4EOKfkBjhUlw44aDA6OKUf7jd+W4E3eeTCN0zn\r\nhTc7LzY3zTxhN4XXkzdEZBk3WUkfNyi2yjY4xlA3fmITNi0y2zbQDQs3EnnONm5A5DbGwi43ZJfC\r\nNn7mizb5fo82RDkMN5NCiTa2LaU3/h0LNwJHkzYW+J424KIwN9bVvDbSlFM3uc4KN5pB5zauuEE3\r\ng0QpN8LizDZYqb82jq+bN4P+ozbS7KY24v+pNnO3JjfWjLE3ZPrMN4V1CziLCaE34uQ1N0RXnDbt\r\ngos3OB2KNyDAUDfn/Gg3nUdqNpBdlDauNXk2TD8yNxvcBzeJ/jQ3PrKHN7xAZzbGGVk3pulvNwmw\r\nDTfmWeA2Rh0kN45VgzelvTg3Rdm0N21+IDf9+qg3gPiNN5xDkze6T6E2zBJCNzgiHjcMU6Y3m43t\r\nNmTtDDd+BGE3VqBdN8OpxjcsILk2E65aNzM34DaW+Og2I60uNriZpTbor4E21y56NvJjDTfIaS42\r\ntElONocuiDZkXcc2jDrvNs3sBTatPtY2IslvNqdVZzbPyI42MLEiNggcDTcKACg2wZTvNvHkMjaV\r\nt2E2B38oN3yNODb8YgM2O42GNqlaAzemUCk2jRifNu/kQza88QU2Z7tzNs1hQzaTt0Q2uTVpNnac\r\nGja4jU82thiGNkhxwTaVlkM2x+95Nk73NzZVOAQ2xm6RNrRNZTaKL1k2BAqeNmDlDTZjkQE2mppP\r\nNgdlGzaAV6Q2fb06NoRCbzYZ3BY22GaANmSMRDYbaBY23PZMNueJnDZA4sg2ejuFNgpRTTYWFwo2\r\nv46nNnjbPTZjrGQ2z6OtNv1eODdMNyQ2dpj8Nq4LCTYoKP022DKDNju+LDbzs2s22JbDNVKTKjce\r\nNBU2AcVjNjw2gzb4wUo2UMlZNlvAgDbCMqw1xUS1Np9ZgTYeozg2gk3SNRkBSzUkEc41ok6ZNYsC\r\nCDaqRNE1zsDPNpZ7LzasU3s2E5RRNS4YLDaPAow1KoC9NacqNTYHlS02jdgnNnrkQDYUDVs2pueA\r\nNmnfhTYD+UQ2uzpoNb+UhjaIsIM2yOWcNrS73TbcNKk2GJThNmM/EzfJvRI2oUgPN4EuDzcA0BQ3\r\nDhjSNiLAtTY94bM2Kof2No38+DbdBs82pK00NrF6qjZnoaM2jJ+ENo7cTzaZbUA2GvVwNbMAxTVj\r\nSNM1HA8wNZ0aLja8ov413B3FNSYhMTZ60QY2PJs4NlFzoDXfptU1AgtfNVAvHjUbPjA198fPNU71\r\n7zaYxI03yn2YN3bXqze9kLY3+F8FODnnwzfMGMc312r+N1VdAThCdr43fIX3N+3gzDewTKY3BGmn\r\nN2442jcoAOA3jKBiNxeUXTfiZYs3FLiQNxetpjfq84I39vJqN96TMjdFZzw38v+PN1c62TfNN/c3\r\nUdzSNzEuljfktJg3n8ABOKjgIjh47+k3WzzeN99hEzgEQzs4499AOHzLTjjisTo4UEQUOFv8HTgI\r\n8k44pbJdOC2SZjg9Rkk4MGhEOAw+QDgieTU4BfVAOLc1KDiFQjM4CIoMOOMv3DcSVds3gWn0N3iX\r\nzDfXn6Q3FvSeNwi/ZjedT3o3GK6yN+kGwTdtVcw3JvnsNxtL3Df1GBQ4DPUfOFTAYzhriog4sx+U\r\nOPm+mji5AKQ4bMi6OHWvuzgLJuU4vsLsOPYx1ThM2dk4l+nzOEQ36jiXAQs54+DOOFPX2jhNs9U4\r\noHTgOO2/5DhWNeM4yXuKOHJtizj4XYw4MSKGONr1hDjWk2c42xmSOH1YeTgOIXM4CSplOCRYmTh9\r\nAWs4M8twOGonTjjEGCA4jA4XOHosPjgWwm04YKOQOO60sjiV0KQ4k9ePOCLPqjjjbpI46DdKOJ+T\r\nEDjFc6M3oHQ4N25XYDcfAtE3itsfOIAveDirVLA4Tj7QOEBM3Dibfgg57VcNOanMDTmeAwY5R9jS\r\nOKoqlzh1VJA4g/hoOJtiGzgEzBw45IU2OP+lHTjiKUI4zGeIOOLDnDieO684UNXROBTO1Ti5HtQ4\r\nNF38OPBcHjmNETw5xFpPOQQ1ZTmMnm05cC+DOfZogDlQ+HE5CJBlOdkoOzlf1yA5dooVOfx6Hjmv\r\nTCI5oPNBOXq/QDmCwSk519I+OT+6RzlAl1E5+e6FOB+WCDn7fPI4teYpOZAbjTlQ7/A44gEbOfdK\r\naDm692U5IjIcOcRQBTm6qQM5trSlOB5x5jeo5Lk3WxWPN4/wtDfXFj84bq2tOMuunzi0uIg3eyCO\r\nOJKDWDgoHCY4l8luOLw9Uzg+mQw4DnRFN7UJQDeQR644XsDxN656aTimgHk4e0d7OGReYzgarIM4\r\nMdxkOFp1Zjit0VU4Hp8uOB7CCzgQg0E4Xu5UOA5Wjjg6eaA4jcPGOCQv2zhqJwg5fDj4OHWH4zjk\r\n2MI4Y0OMOFhlTTjKekw48/kzOP4RTjiWZWA46Ep8OKE7Vzgldy84c6HsN2HWqjdIFjM3ZQAMNuT/\r\nxzYNw6M2wWU5Ngt0XDa0SpM2B2QwNgZBLDfuRfE2jXRmNgKUrDb+9qk2Swy6NToNxTVwlBg2RFuJ\r\nNcbQxjbTfRY3+8+uNvE1lDYeZeY11i6tNqtjjTXGkp02DPSNN1YSWDdr4cA1yQJ0NmzWRDZ2ulQ1\r\n8C6ONfcvhzbXfFQ2PsBhNX48+jQEmLo0eRmbNfSdITUsgA418iQnNaToxTW+VRA11Z0NNT4T+DSJ\r\n5yY1fCsENXs1iDX5Rho1iYkbNZJqFDW2KEs1I6mYNAM0KzVzowM1ZGQbNYqM/zR6qMc0S6pmNDwO\r\nCDXztho11I/KNC4vCTUj69g02GQ5NRPp5DTCkCg1bDKKNGDRJzXUJ2c15zMTNd0XlTXOyXo106yx\r\nNCGpZTU3uLM0Qo2uNF19DjWP0SA1g+UkNbJyBzUb8R41nkdiNTYrwjQM/oI1PFHTNDqURzXGAxE1\r\nP+gANYXq6TQK4PQ0/TgxNQ6QqjQcCJE1Q/EQNcGw/DSuqEI1XNIENUbr7zT3ZvY04znRNIjKHDWc\r\nBtY0jpKNNdF6KjXYXRM1fG3ENPnx1zQSzRw1V+ovNRrU5jRyFgE10Pe6NJz13jSLsXA1KO4qNZNK\r\nIjVprzg1yUMYNTRDBjU29n01jlH+NOncETVKBc80A/gDNQapqDQETSs1ssC0NJdBPzVQQxQ1SZtM\r\nNam2uzVLfOU0x/UZNR2ArTRdfCE1Fb0BNQjn8TRVP9k01xIKNbj+DzVS4SA12ms2NaQ61TS+AII1\r\nk2PrNHlj8zRPaEA1xCPuNHnxJDV+/WI1rDs+Nf1YwzQGmHo1cJ8ENUUNpTUIdG41ahPbNMR46DR3\r\niRk14jhqNaa2yzSexdk02ifBNAS/6jQEqJg1hvopNRYErTRAaPQ0K79FNXSa/zT2jnQ1TBDyNNU6\r\nMDVZ45Q1yA5rNWe/CzUiqnc1QNM5NbJpiDX6eSM1sPAHNe1dpjTQImY1TlVMNVfl9DSfTuo0E2Hg\r\nNFi5ADXmI8w0cCp0NcBqVTX2eqc0FO9jNQybCDWkHRo14CrbNPg12DSLJQY15fOrNMoD8TTKatE0\r\ncBHtNCpaBzWkNy81u3YHNYAS5zRm4AU1sg4aNQacFjUw5C01tZwNNRzBCzX54gA19tIaNbmfVTXa\r\nxeM0f/yKNH3WCTWKIA81ULmBNTh36zQ8Q6U0lHJzNdEIGTUY7o40nlbnNAVzCDXV2xE1dw/RNLrF\r\nwTRdI+o07NRLNbslETUdqRQ1T7dhNDE+JTUnlz81UvQFNSHssDStY+U0rfbrNCmMrzRA1Bw1NywN\r\nNQrvVDVjZkU1rcHDNPQHMjUOJAo1w5AUNYX+pzSk0cM0xxahNDNjtDUefYw1vmGzNABAcDUyXb08\r\nM/w5Ooh3lTog4pc6P/n9OV7w3ToaTo46ctjSOicKwDrUwJY6bWkbO5KrFzrI7bs6ocs8OvsvWjoE\r\njSU61JBjOkwd4jomMTM659VzOkvcpzpHL4c6DBfHOlcoxzrXVcg6ylfcOojhRzpztHk6f0xPOrOx\r\nATsa0Bo6umIzOw9AuDre0EY6+js4OpU6kDoTG4w63mlnOhh9cDpEZWI6RunFOsyqHTtGN7k6ghkX\r\nOohqezor1Is6EjPHOibUgDrffVs64bCjOjbrhTqU5ng6MhLmOspe3zoVPCk6xhzZOrpITToK9lA6\r\nreU4O4/zsDo4odU6KuP7Ou3ljjpqwcc6aU/MOqSGJDq3SKc6W3NCOtkkuTrBDdM6VhNVOkqrBTvW\r\nDsA6AuPQOrjFFTuRmsg6QEiuOidGyTp4ZKU6hEsjOpMDhzqjvRc6DN+0OoOPiDou5ds6HhnBOl9z\r\nbjrkF6g6LmuWOt7M2jrrLtA6uSiMOnAV1zr5HsQ6FHeoOobvHDoXcHY6ogIeOtILRzodO8c6EyNK\r\nOrf6OTqx84s6vj80OpyNvDlh05w6UteUOvxfZDpSu346RkLlOSHMUDqggrU66cV7Olx+mjo6cgA7\r\nEW6POlUbRjpaA7E6OCFOOrIgjDphBWc6YsMXOtzqkzrkQTw6kXhhOi0BeDrPtig6YESvOj2GRTqt\r\n/MI6ebR2OoH1QzoBQpI6HieMOs++fToESC86YYiKOhBVkzrbvvA60X2uOv4XZDo/7qQ65qa9OvnU\r\nBDqWR7E6uukgOumYQzoPT845jV+5OlQVXDr+/sg6dIWvOgaciDo9b1Q6mkdhOoIUczpbRzk65+I3\r\nOrz6izoNqy06KseBOqoifjrY+T06OGB4OnzKnjqr4fQ66kd1OstgHzo7q8M69H5uOiNzEzpJRb46\r\nKvh9Oj4+sTp+4986qPXtOqHrnDow4Ec6+Bt0OqQ0njpGV+06k7OyOsiqbTpXlms6IPd4OsE0njrI\r\nWoM6e/u8OkC2WToyQKI659WqOtNHTTr5o4Q67K3eOSbYNzoj94867qG3OmX78Tru31k60nTLOmAJ\r\nOjrbAjM6vgesOiW/gjqItJQ6W+OXOm4fljrgSYM5s+9IOh6FMDrZDks6bKy1Oh232jrGokw6+xOD\r\nOj69ljqVtG46qfKNOk8vZTpvKbo63QSJOpkRTTpqDp868zmROkPUwDruBE46ycFMO/TzhDomlf85\r\n7sKAOpdqtzoklXI63DaIOkqjjzr7+w07DkUQO4E+LDpG11Q7LhqKOgumYzqkm9Y6mOyYOlxzNTo+\r\nQT86uAmPOs9mYjq27H86ZaK1Om7kTjqwB5Y6p1LgOhA+9jpTUy06Yo1eOv0HXDpzm9U6MtdcOmNv\r\ngzoqIpU6QqhdOrC1DTv32Yg6B4SCOuHsGzptc9I68+1ZOl4YuDrMDHw6pebbOh/GHjrrBYM6hhvA\r\nOvWlxDoqEv05+R42Or7lMDpZqIY6T68nOpRSIzsIUxE7soChOgzjOTpGtoU6+HGhOmzMjToMaVA6\r\nFqBqOo67Wzrn7iQ6giSHOrMmtjqpwi861z96OnABljo+rT46IH7LOuT5ZTqUBF86lEV6OvqolTqh\r\nU6Y6Xov7OpxRyzoijOQ50IpeOtPpFDqRJKI6CiM5Ov0Ogjp1koM6/1+hOk48ZTrUHH06DL6UOhii\r\nCDvQQ6k6f4t1Onz7UzrBe1E6kNAaOiQb5zpM4YA6bGYzOszLdDq+4Mg6eBbXOtrYTTrIYzk6sMgr\r\nOiy+WTpEnBo6HiKuOrZRZDqYC3k6XvBLOsB35zrE3fM61UK5OYSpajpQLkI6bpo1OmIB0jr2ZPA6\r\noxGBOjfuyjrlVXc67fCsOg47MTo2xHI6Wl7vOsJAKDqWr2c62S40OtJbZDqwFTU6NgctOv1FVDoY\r\nVBM6TgswOm30mDqDmI86vEXpOsJhdDrpHDg6Hv+LOoIIODrBwCg68MAeOuEqZTr58YA6yLs0OobO\r\nbDpcaMQ6paM7Ogk7xToniTQ6fEJyOnczfTp450Y6m/1UOkgJpzqpOVY6ksHwOvolcjoWWWY6rDoD\r\nO5zNgTq9SEE6TKKuOmL+sTpYHuc6N2jwOmbQPzrWL2o6BoQQOnsl0DrM7YE6odoUOpv/kTpRxoU6\r\nTXbLOunHdTqnWSQ64axbOrBg8TmyU5c62JQMO0mOJTo+UMM6K8jlOvp/DjvBjYA6NFs/OlS1Vzr1\r\nbnE6uFM5OgFKUDrSXog6luW4OkcXQDpyS006G1IWOg7Mnjq89I86ZefeOv/gCzqyORQ60h1/OhiT\r\nNDoI7YA67W2KOnN7QzoUWAo7WC6EOhzjXjotzDE6UU8VOkBXCTvFuWg6ox3UOoqy4DrCmho6slNh\r\nOnc/jzqoGWQ662KSOvX8xjoejFc6SwHWOj1VIDrVCRo6m8eeOtf6tzqTLpk6oo+WOnOioToqSwY6\r\nwWtZOgAs1DkVqIk6R8dyOgCCjjrC/qw6D54wOrRmNjoSLso6Qr2QOm/y4zpX5p8641FMOkWFrjpq\r\nREA61tUEOn68Cjp1o5U6VvdWOmphYTpu0lM64qigOjDI4zrme1o6JldYOhyy0zqnR4o6jlmDOhfa\r\noTryQN46SIBiOhSQmTqkwyA6xfazOnkKpTp5P0A6LRJ5OmzAUjowcK860MRZOrpcGjp1VWU6kAzc\r\nOjestjrkDoI6g5UYOnq6tjp8drA64EnwOiH7RTriOpY6+D0tOmSFVjqjiYk6IF86OgAtjjpvvS06\r\nVMV+Opkm0jrpwsc6XNuEOujmnTqGYpI6pBpDOlop8DoVoaE61Hq4OsGZXDqxjKk6Do6vOoDIaTrb\r\nFgE6UK8BO0ufpjowd7Q6uh7IOhwEhTrdnVs6yHpzOgLuQzppG3o6TTaIOhpDHzqj9ls675wCOtY8\r\nwzolH9M6IACDOp4rLjoRsPQ5BmNWOgfZCDoztTM6nkBOOlXXAzoTnmY6IrIaOrBmXTqI2ws6pnhi\r\nOpIahjpaqpU6HKOxOkZYOjoRjh46UKeHOtJuajp0K5Q6FNgmOgD9xDk1LJc6E0vrOvoJZDoEFkg6\r\n7il6OmpkXTopppg61kZrOpLiODo+/4w6WClVOgeyjTp1hBI6Mom2OeGlGzofClY6Ru4sOvzVPTpa\r\n4JM6xxRdOsbvizq4Apk6nKG6OlRa7zkkDOw62YAdOt0agDpG74A6yH2mOkJVgzqUQJ86TB6cOhxk\r\nizrymbo6n4SsOuzqlzqrlyA6x19jOjpnrjpKJWI6hScWOpD/nDqefjM6U0wiOo9VoTqD4Ts72GY0\r\nOjEUQjpea+c6FQ3mOmssVTqJNEQ6d5ONOlR3jjpiogc6eIx5OrGItDrJkA06fp1lOvEgCDqrgNI5\r\nI3+BOnnxnjpFKxs6ux2bOoTHiTqHtMc6dtGcOofdEzuUHQk6ungSOntaNTomdkc6HrBuOnliizrQ\r\n6FI6JbYhOpsgPDqsrOM5wG8/OqHONzqZs2U6Ws/SOTI8oDrZk3w6c2gyOg5dSzoFqWE6nRNVOsmM\r\nUjq3t4I6E/qPOv+OVDoiFqQ6FB+UOrAU0TpMSh47OOZEOnrSiDrmdSM6XvYIOnnWnDoWfEE6duMs\r\nOqzkZTrBS5461HMpOoukajr0bzE6wL+xOpp3cjrRG5Q6ppVwOhl6qzoa4z06TiqROir1GzpvpGA6\r\ncZKSOl9ySTqAp1o6UdlnOnShUDoGHb06BJvSOSnlGTri/C867S6JOqzxMzr+O9A5ELx3OtgFVzqE\r\nWCc68q0jOgDyYDoX1V86xhOOOoZ97jk2s0E5OQYgONtb7zdORzY5+kdvOWOUiDiPxUg4diw2OLp7\r\n8jd6MRI4nJbnNyjdWTcCZew4zUikOKyaSjiW5mM4Prt8OAy9PziOyrQ4mfL9N3NRVDaTRH83rl06\r\nON5HMTiRse44Y51gOMB2kDigWwk5Xc/hOMJqZjjb0wg4oj+TOLC7UDmeOXE5vQDUOPeUuTgZWsY5\r\nSHaBOcJv9jkj7Ic61Cm2ORHopDmeGSQ5BpYuOo4+sDocW5w6fHbfOSb/vzhEC1I48nIROdgKoDko\r\n7XM5X4ZqOb/AUDlsbQI5HibPOKjOxjjp14M5L+BlODG1LDmc1DA5cRKTOYx5PDrkFgY6jWYgORKl\r\nwzjwJFQ47m3DNrqB9zdqBpI4GANCODLXFTmYeSA6NaRcOmboAjpKVxs4JmU/NgLPijZReso1hWYE\r\nOLHvvzgkCJQ5+kK3OTo2FDpXMi06liO7OTUwkTnvWs85iA9BOb11nznG74E51G5eOC3v9DiP6+o4\r\nIgf+OU9B0Tm8K4I1PqfDNYzFJTUo5B41OHyQNdx4IjUTuzc1jJNeNTFTlTVHyCA114iSNedMljUK\r\nH4A1oqpNNSn5XDW9qaU12BUYNTrKejXcC0Y1L0jBNSiHRDX6OUQ1i5VpNdgnBzXDL241vV0RNeVJ\r\nXDXoVUY1ncqdNThShzXjwFQ1WHkCNa/OFDXghm41twGjNVxEPzWIuc00GqMENYoeaDX5Tzg1MI5X\r\nNQSf7TSgRWg1Kdy1NdVomDTiXCg1b6hiNUr6LjX2/PQ0CA6qNXnDDzWGVk41oUNiNcTZizWe05k1\r\nBi8MNYlMHDVaKYM1utgDNac6MzUzMgA1Ut4cNT0QEzVkPqQ1FxgCNas9xjWOuO00OlboNBywKjWH\r\nSac1KHdTNWCIUTWFfj81pNQSNkZGADWeR7E1BVAiNZZYRDWCCPU0hZSTNZpmFDVM/Qo1ZeRTNc1L\r\njTVnc/Q0Wpk1NXAN2jSOc301WllANdbCaDUKwBs1VkAmNTmtJTUI+Do1a4n3NExYHTWMRwU1EJYG\r\nNQ2SdTU1Ww013tPPNO9bFDUsoBQ1uflfNTcyCTUCpgk1T6lGNdKpgTXzXSA1cdgrNUhbzDT717o0\r\nCCkLNQSgmDU1Ce002PryNFp+JzVh7ps15243NRVQGzXr3ds0KTWhNKlFOzXdUYs1spZNNYNDcDU4\r\nuAM11HoVNYswMTUmlEw1gl98NB2mEzUlP700nAtRNfoMfDVKTSo1uxEKNdkUCDW2LR413yc5NX2c\r\n2jTekIs0W9IuNWfvOjXySB01IsrzNJU3TjXmoAM1Gei3NHQKUTWWZN00EeAuNaHdAzWGDQs1igee\r\nNBnl1jSS6wI1ukweNf8dSzWwUiI13RYwNWwSHjU3BRs15O02NRHbgjQwdV81L4C1NFw2ZjXEuiU1\r\ncYI7NefuPTWKQpA1tuihNB3AGTUyyXo1Pf62NA19GDWwqTk1fNBLNceTKDWdqR81uPoXNbrsQjVG\r\nkEc1B5vaNCW3IzVy7II0hm/XNK0cUzXMEeY0EGyJNM2imzQFT8g0RT3tNEdpkTUsaU41of4mNblL\r\nNzXQKgk1aRtoNZAfBDVWJxQ1PP94NbTaPDWkb1I1xrUINcxrOzX7l9w0A3L4NBK7FDW2vAM1hOD/\r\nNJKkMDWYdM40UxusNK/JDDXKuvc02vtyNTbI9zSPLlE1A9RPNW48kjTKnxQ1ACCrNQ==",
                            "noiseTrainingType" : "default"
                          }
                        }
                    ],
                    "start" : 19107,
                    "duration" : 435,
                    "mediaStart" : 29,
                    "mediaDuration" : 435,
                    "scalar" : 1,
                    "metadata" : {
                      "WinSubProjectDisplayName" : "",
                      "clipSpeedAttribute" : false
                    },
                    "animationTracks" : {

                    }
                  }
                ]
              },
              {
                "trackIndex" : 2,
                "medias" : [
                ]
              },
              {
                "trackIndex" : 3,
                "medias" : [
                ]
              },
              {
                "trackIndex" : 4,
                "medias" : [
                ]
              },
              {
                "trackIndex" : 5,
                "medias" : [
                ]
              },
              {
                "trackIndex" : 6,
                "medias" : [
                ]
              },
              {
                "trackIndex" : 7,
                "medias" : [
                ]
              }
            ]
          }
        }
      ]
    },
    "trackAttributes" : [
      {
        "ident" : "",
        "audioMuted" : false,
        "videoHidden" : false,
        "magnetic" : false,
        "metadata" : {
          "IsLocked" : "False",
          "WinTrackHeight" : "56"
        }
      },
      {
        "ident" : "",
        "audioMuted" : false,
        "videoHidden" : false,
        "magnetic" : false,
        "metadata" : {
          "IsLocked" : "False",
          "WinTrackHeight" : "56"
        }
      },
      {
        "ident" : "",
        "audioMuted" : false,
        "videoHidden" : false,
        "magnetic" : false,
        "metadata" : {
          "IsLocked" : "False",
          "WinTrackHeight" : "56"
        }
      },
      {
        "ident" : "",
        "audioMuted" : false,
        "videoHidden" : false,
        "magnetic" : false,
        "metadata" : {
          "IsLocked" : "False",
          "WinTrackHeight" : "56"
        }
      },
      {
        "ident" : "",
        "audioMuted" : false,
        "videoHidden" : false,
        "magnetic" : false,
        "metadata" : {
          "IsLocked" : "False",
          "WinTrackHeight" : "56"
        }
      },
      {
        "ident" : "",
        "audioMuted" : false,
        "videoHidden" : false,
        "magnetic" : false,
        "metadata" : {
          "IsLocked" : "False",
          "WinTrackHeight" : "56"
        }
      },
      {
        "ident" : "",
        "audioMuted" : false,
        "videoHidden" : false,
        "magnetic" : false,
        "metadata" : {
          "IsLocked" : "False",
          "WinTrackHeight" : "56"
        }
      },
      {
        "ident" : "",
        "audioMuted" : false,
        "videoHidden" : false,
        "magnetic" : false,
        "metadata" : {
          "IsLocked" : "False",
          "WinTrackHeight" : "56"
        }
      }
    ],
    "captionAttributes" : {
      "enabled" : true,
      "fontName" : "Arial",
      "fontSize" : 64,
      "backgroundColor" : [ 0, 0, 0, 191],
      "foregroundColor" : [ 255, 255, 255, 255],
      "lang" : "en",
      "alignment" : 0,
      "defaultFontSize" : true,
      "opacity" : 0.5,
      "backgroundEnabled" : true,
      "backgroundOnlyAroundText" : true
    },
    "backgroundColor" : [ 0, 0, 0, 255]
  },
  "metadata" : {
    "AutoSaveFile" : "",
    "CanvasZoom" : 39,
    "Date" : "14.07.2019 04:28:54 ",
    "IsAutoSave" : "0",
    "Language" : "DEU",
    "ProfileName" : "",
    "ProjectDimensionsChanged" : "1",
    "Title" : "triggers",
    "audioNarrationNotes" : "",
    "calloutStyle" : "Basic",
    "canvasDetached" : "False",
    "canvasPositionHeight" : "0",
    "canvasPositionLeft" : "0",
    "canvasPositionTop" : "0",
    "canvasPositionWidth" : "0"
  }
}
